M48
;Layer_Color=9474304
;FILE_FORMAT=4:4
METRIC,LZ
;TYPE=PLATED
T1F00S00C0.3000
T3F00S00C0.7000
T4F00S00C0.8500
T5F00S00C0.9000
T6F00S00C0.9140
T7F00S00C0.9144
;TYPE=NON_PLATED
T8F00S00C1.5700
T9F00S00C3.2000
T10F00S00C3.4500
%
T01
X00703318Y-0028325
Y-00244657
X0074475Y-0028325
X00788Y-00306
X0081675Y-0030525
Y-0028125
X0081625Y-0025825
X00815Y-0023625
X00808257Y-00138214
Y-0009725
X00766653
Y-00138214
X0073819Y-00155481
X00717284Y-00138214
X0071625Y-0009725
X00707489Y-0007375
Y-00060725
Y-0004675
Y-00035
X00707357Y-00024152
X00707239Y-00012166
Y0000181
Y0001356
X007105Y00027071
X00719641Y00027251
X00718444Y00066097
X00710026
X00755739Y00034
Y0002225
Y00008275
Y-0000475
X00741195Y-0004627
Y-00060246
Y-00073271
X00725195Y-0007377
Y-00060746
Y-00046771
X00690989Y-000475
Y-0003575
X00690739Y-0002452
Y-00012815
Y0000116
Y0001291
X00690989Y00026933
X00690739Y00037477
X00675739Y00037854
X00675989Y00027
X00675739Y00013077
Y00001327
Y-00012648
Y-0002452
X00675921Y-0003575
Y-000475
Y-00061475
Y-000745
X00690989
Y-00061475
X006635Y-000375
X00618461Y-00018
X00618626Y-0000079
X00627929Y00012615
X00591876Y00013619
X00574794Y00020207
Y0000614
Y-00006035
X0056Y-0000635
X0056021Y0000635
Y00020341
X0056Y-0002202
Y-0003502
X00574794Y-00034365
Y-0002202
X00516887Y-00034365
X00515894Y0001257
X00514401Y00037158
X00530092
X00537166Y00062706
X00553976Y000621
X00495952Y00037385
X00476184Y00037158
X00461318Y00025428
X00456794Y-00020882
X0045654Y-0003
X00457048Y-00040566
X0045344Y-000925
X00439202Y-0009246
X0047094Y-000925
X00489
X00500745Y-0009246
X0053075Y-0009725
X00558469
X00589
X00624531
X00670362
Y-00138214
X0065375Y-00244657
Y-0028325
X00604998
Y-00245255
X00586789Y-00219
Y-00180407
X00545185Y-00181005
Y-00219
X00495816
X00495261Y-00181005
X00448751Y-00181907
X00449059Y-00221
X004135Y-002286
Y-00204406
X00387854
Y-002286
X003615
X0033782
X00337058Y-00204685
X00337553Y-00183407
X003615
Y-00204406
X0030525Y-00204685
Y-002286
Y-00167132
X0034163Y-00146558
X0036Y-00146519
X003615Y-00115172
Y-00098
X00397256Y-00098085
Y-00115172
X0039878Y-00148336
Y-00166116
X00424Y-0024725
Y-00268
Y-0028525
Y-00302
Y-0032175
X0040714Y-00047783
Y-00020776
Y0001075
X00374917Y00010894
X00350373Y00010588
X00321415Y00010625
X00321574Y-00019194
X00321415Y-00047692
X00350187
X00374917Y-00047639
Y-00020631
X0035028
Y00046723
X00374917Y00045904
X0040714Y0004576
X00321657Y00046802
X00612521Y0003474
X00654195Y00054322
X00675921Y00056461
X00690989
X00293127Y00046454
X00265965Y0004625
X00239976Y00045135
X00241146Y000095
X00265965Y00009319
X00293293Y00010319
X00293127Y-0001925
X00265965Y-00020181
X00240332Y-000209
Y-00047692
X00266035
X00293293
X00292146Y-00112606
X00268224
X002425
X00212512
Y-00142715
X00242146
X00268224
X00292146
X00267854Y-0017739
X002415
X00242146Y-00204406
Y-002286
X00268224
X00287854
Y-00204685
X00268224Y-00204406
X00212512Y-0020475
Y-00230056
Y-0025675
X00179771
Y-00230056
Y-0020475
X00180702Y-0017739
X00212512
X00180941Y-00142715
X00180702Y-00112606
Y-000885
X00181197Y-00064588
X0018046Y-0004314
X00180218Y-00022384
X00179771Y00006035
X00150538Y00006649
X00131064
X00112501
X0011303Y00039116
X00131064
Y00059182
X00181197Y0006325
Y00039116
X00166517
X00143258Y-00022634
Y-0004339
X001435Y-00064338
Y-0008825
Y-00112356
Y-00143428
Y-0017739
Y-0020475
Y-00230056
X00142752Y-00257258
X00142031Y-00289331
Y-00320125
X00179771Y-0032075
Y-00289638
X00212512
Y-00320125
X00239611Y0008
X00265965Y0008075
X00293098Y00081319
Y0011129
X0026625Y00110947
X00239611Y00110239
X00231399Y00133033
X00215Y00133
X00182Y00137668
X00166272
X0014875
X001175Y00138407
Y00171117
X0008255Y00172049
X00048768Y00171704
X00017Y00170812
Y00138423
X00048768
X00083312Y00138407
X00076Y00206112
X00048768Y00210945
X00017Y00210542
Y002504
X00048768Y00250918
Y002909
X00017Y00290322
Y00324549
Y00355707
X00048609
X00048768Y00327882
X00087742
X00088568Y00356349
X00123856
X00122693Y00327882
X00161242Y00328
X00189872Y00328469
X00190181Y00355707
X00162113Y00356349
X00165464Y00396069
X00165174Y00417289
X00192653Y00417978
Y0039648
X00184435Y00438844
X00168335Y00452774
X00200254Y00454704
X0022626Y00447084
X00284453Y00445267
X00288504Y00425278
X00280877Y00411533
X00261492Y00393306
X002495Y00356349
X00274365
X00298745
Y00328469
Y00304146
X0028525Y00297514
X0026478Y0030891
X00259856Y00322093
X00243762Y00322996
X00232747Y00312917
X00200254Y00300194
X0024Y00267435
X00237399Y00225384
X00237858Y00211082
X00274241Y00204118
X00263463Y00192219
X0025225Y00180792
X00279516Y0018005
X00288761Y00220158
X003Y00142
X00252335Y00142785
X00189Y00172049
X00180702Y00105419
X00168952Y00105409
X00166517Y00082146
X00181197
X00131064
X00087742Y0029086
X00096099Y00396037
X00076759Y0039909
X00078438Y00424778
X00072438Y00433799
X00054178Y00437038
X00038682Y0043765
X00044877Y00424908
X00031971Y00424778
X00013779Y00424975
X00014288Y00455071
X0001199Y00388633
X00126638Y00445226
X00312998Y0043825
X00315419Y00397946
X00334698Y00379874
X00334597Y0036375
Y00347722
X00352504Y00346704
X003342Y00328842
X00334099Y00307789
X0036175Y00301596
X00363093Y00270544
X00362839Y002504
Y00224838
X00365109Y00203174
X0034557Y00202942
Y00178
X00315723Y00178035
X00300994Y00202182
X0032486Y00231472
X00324454Y00246021
X00306289Y00286322
X00387779Y00275422
X0040714Y00278606
X00407394Y00267435
X00407649Y00258782
X0041314Y00237153
X00425846Y00240172
X00436004Y00240506
X00435304Y00251478
X00433607Y00274062
Y00289217
Y0031028
X00433709Y00325154
X00455343Y00324794
X00455498Y0031028
X00455727Y00287285
X00455566Y00274335
X00461435Y00242194
X00475638Y00216218
X00451582Y00202951
X00451825Y00181818
X00433607
X00413229Y00181852
X00426078Y00199596
X00424086Y00227869
X00404248Y00226112
X00377142Y0023665
X00374823Y00110784
X00350093
X00321415Y00111054
X00321657Y00081375
X00350187Y00081644
X00374917
X0040714Y000815
X004065Y00099202
X00416215Y00112013
X00413764Y0012175
X00463578Y00124921
X00471803Y00119418
X00467675Y0009172
X0047583Y00082158
X00529394Y0007285
X00541786Y00077447
X00555603Y00081072
X00555551Y00102816
X00574463
X00574803Y00125593
X00545479Y00125711
X00545515Y00160544
X00547665Y00173288
X0053275Y00172094
X00522916Y0016587
X0051808Y00190341
X00510263Y00199031
X0051314Y00255613
X00524334Y00255567
X00535056Y00255431
X00546004Y00255457
Y00274993
X00537128Y00275172
X00524579Y00275039
X0051314Y0027509
X00501423
X00501591Y00292101
X0051314Y00291732
X00532237Y00295773
X00542686Y002955
X0056797Y003219
X00580496Y00327644
X00590242Y00335368
X00605201Y00351853
X00619838Y00367315
X00635261Y00381219
X00619089Y00398594
X00618446Y00424785
X00643982Y0041753
X00670267Y00429602
X00670243Y00458042
X00670267Y00398559
X00670243Y00366898
X00670553Y00333146
X00669809Y00302696
X00670553Y00274261
Y00243218
X00644507Y00242827
X00626397Y00243011
X00632007Y00211999
X00635007Y00190196
X0065875Y00189148
Y00212428
X00682837
Y00189403
X0068325Y00159658
X0065875Y00159818
X00635007Y00159766
X00654247Y00133997
X00654195Y00113062
X00678
X00678052Y00134292
X00678Y0008426
X00675921Y00068071
X00690989Y00068391
X00654195Y00083965
X00635007Y00088787
X00603965Y00080279
X00573Y00068706
X00611192Y00130063
X00603595Y00180281
X00605Y00206379
X0057361Y00199429
X00567Y00209358
X00562004Y00219688
X00556325Y00231518
X00585393Y00255646
X00619089Y00275218
X00610726Y00322996
X00628668Y00323459
X00556051Y00337542
X00555603Y00353099
X00571447
X00563339Y00378221
X00545801Y00370793
X00528995Y00386598
X0051733Y00377502
X00502773Y00375578
X00503481Y00360443
X00505489Y00340215
X00482591Y0034954
X00481524Y00359704
X0046953Y00385352
X00457915
X00425293Y00375578
X00414493Y0038411
X00391384Y00376471
X00359021Y00406778
X0034585Y00457539
X00391091Y00445322
X0041838Y00445048
Y00426065
X00448397Y00446189
X00470274Y0043825
X00481652Y00430223
X00484338Y00447285
X00473261Y00415866
X00522082Y00427716
X00534824Y00423142
X00548504Y00422954
X00546605Y00440574
X0057361Y004505
X00573447Y00426401
X00443915Y00356668
X00452994Y00342751
X00501423Y00255613
X0056387Y00182695
X00575779Y00166893
X00511118Y00128243
X00451619Y00159997
X0070575Y001595
Y00189148
X00705445Y0021194
X00707285Y00243218
Y00274861
X00707422Y00301868
Y00333146
X00740034Y00333688
Y00301868
X00739898Y00274261
Y0024376
Y0021194
X00721254Y00133204
X00699747Y00133997
X00699695Y00113062
X00699324Y00084769
X00707Y00367281
Y00398559
Y00430202
Y00458425
X00739612
Y00429602
Y00399101
Y00367281
Y00490245
Y00520746
X00707Y00521346
Y00489703
X0070975Y0055725
X00704488Y0057
Y00585787
Y00602718
X00759713Y00609901
X00781907
X00782108Y00629888
Y0064425
X008035
X00803213Y00629545
X00803213Y00609901
Y0058738
X00781907Y0058748
X00759713Y0058738
Y00561651
X00781907Y00561539
X00803213
X00904Y0056175
X00928
X0095
Y0058748
X00928
Y0061
X00927624Y00629819
X00904Y00628835
Y0064425
X008835
X0086425
X00844
X0082375
X00904Y0061
Y0058748
X0095Y0061
X00674445Y00585787
X00674365Y00560279
X00670267Y00520746
Y00489703
X00644097Y00481015
X0064419Y00504006
X00644351Y00542888
X00613Y00542945
X00601521Y00542934
X00589277
X00588838Y00521977
X00601521
X00601776Y00507265
X00589092
X0057638Y00480986
X00547873Y00471694
X00532626Y0047142
X00522342Y00471385
X00515816Y0049816
X0052564Y00524096
X00542778
X0054238Y00551141
X00542128Y00567366
X00522524Y00578474
X00523499Y00594735
X00500619Y00607697
X00477338Y0061089
X00445315Y00610035
X00447398Y0058975
X00448143Y00563577
Y00544594
X00448379Y00522238
Y00502215
Y00483231
X00448003Y00463643
X0041838Y00465071
X00418283Y00483231
Y00502215
Y00522238
X00418047Y00544594
Y00563577
Y005836
X00389372Y00583181
X00389207Y00558733
X00389205Y00522011
X00350169Y00521977
Y00502994
X00327498
Y00522267
Y00542
X00350169
X00304229
Y00522326
Y00503232
X00389295Y00479199
X00492756Y00523935
X00492752Y00548141
X00493219Y0056845
X00525586Y00551203
X00559257Y00598446
X0061225
X00643735Y00590822
X00291Y00619562
Y0064125
X0026879Y0064086
Y00619562
X00245371
X00224346
Y0064086
X00245371
X00202829
Y00619562
X00185654Y00583912
X00175746Y00579912
X00168318Y0058734
X00153621Y00588822
X00139528Y0058904
X00136129Y00599885
X00158254Y00578454
X00160503Y00556678
X00177479
X00197Y0052925
X001975Y00483868
X00182341Y00468127
X0012473Y00488563
Y00500342
X00110937
X00100385Y00539609
X000927Y00559699
X0007324
X00053971
X0003324
X00013779
Y00536607
X00014033Y00521704
Y00505103
Y00489454
Y00472992
X00046687Y00498438
X00058908Y0048925
X00069293Y00489204
X00078923Y00530126
X00053971Y00536607
X0003324
X00045682Y00521
X00113432Y00559699
X00232318Y00515238
X00230596Y00498054
X00252893Y00482563
X00262791
X00284507Y00503232
Y00522326
Y00542
X00263873Y00594922
T03
X001175Y002904
T04
X00121Y0061425
X00171
T05
X00321998Y00583735
X00359434Y00583461
X00353023Y0062816
X00321998
X00283Y00583185
T06
X002005Y002004
X00713289Y00629217
X00687889
X00662489
X00637089
T07
X00409538Y00404846
X00434938
X00460338
X00485738
X00511138
X00536538
X00561938
X00587338
X00586118Y00629888
X00560718
X00535318
X00509918
X00484518
X00459118
X00433718
X00408318
T08
X00776Y-00198712
T09
X0092625Y-0027675
X0004974Y00586851
T10
X00936Y-00115412
X00776Y00436588
M30
