M48
;Layer_Color=9474304
;FILE_FORMAT=4:4
METRIC,LZ
;TYPE=PLATED
T1F00S00C0.3000
T3F00S00C0.7000
T4F00S00C0.8500
T5F00S00C0.9000
T6F00S00C0.9140
T7F00S00C0.9144
;TYPE=NON_PLATED
T8F00S00C1.5700
T9F00S00C3.2000
T10F00S00C3.4500
%
T01
X00721731Y-00286907
X00725568Y-00219
Y-00180407
X00739543Y00001111
X00739Y00011769
X0075Y00022571
Y00032399
X00654195Y00054322
X00612521Y0003474
X00627929Y00012615
X00591876Y00013619
X00574794Y00020207
Y0000614
Y-00006035
X0056Y-0000635
X0056021Y0000635
Y00020341
X0056Y-0002202
Y-0003502
X00574794Y-00034365
Y-0002202
X0053075Y-0009725
X00489Y-000925
X0047094
X0045344
X00397256Y-00098085
Y-00115172
X0039878Y-00148336
Y-00166116
X00387854Y-00204406
Y-002286
X004135
Y-00204406
X003615
Y-00183407
X00337553
X00337058Y-00204685
X0033782Y-002286
X003615
X0030525
Y-00204685
Y-00167132
X0034163Y-00146558
X0036Y-00146519
X003615Y-00115172
Y-00098
X00350187Y-00047692
X00374917Y-00047639
Y-00020631
X0035028
X00321574Y-00019194
X00321415Y-00047692
Y00010625
X00350373Y00010588
X00374917Y00010894
Y00045904
X0035028Y00046723
X00321657Y00046802
X00461318Y00025428
X00537166Y00062706
X00545185Y-00181005
Y-00219
X00586789
Y-00180407
X00627248Y-00181005
Y-00219
X00676
Y-00180407
X00495261Y-00181005
X00495816Y-00219
X00449059Y-00221
X00448751Y-00181907
X00424Y-0024725
Y-00268
Y-0028525
Y-00302
Y-0032175
X00212512Y-00320125
Y-00289638
X00179771
Y-0032075
X00142031Y-00320125
Y-00289331
X00142752Y-00257258
X001435Y-00230056
Y-0020475
Y-0017739
Y-00143428
Y-00112356
Y-0008825
Y-00064338
X00143258Y-0004339
Y-00022634
X00150538Y00006649
X00131064
X00112501
X0011303Y00039116
X00131064
Y00059182
X00166517Y00039116
X00180218Y-00022384
X0018046Y-0004314
X00181197Y-00064588
X00180702Y-000885
Y-00112606
X00180941Y-00142715
X00212512
X00242146
X00268224
X00292146
Y-00112606
X00268224
X002425
X00212512
Y-0017739
Y-0020475
Y-00230056
Y-0025675
X00179771
Y-00230056
Y-0020475
X00180702Y-0017739
X002415
X00267854
X00268224Y-00204406
X00287854Y-00204685
Y-002286
X00268224
X00242146
Y-00204406
X00240332Y-00047692
X00266035
X00293293
X00293127Y-0001925
X00265965Y-00020181
X00240332Y-000209
X00241146Y000095
X00265965Y00009319
X00293293Y00010319
X00293127Y00046454
X00265965Y0004625
X00239976Y00045135
X00239611Y0008
X00265965Y0008075
X00293098Y00081319
Y0011129
X0026625Y00110947
X00239611Y00110239
X00239Y00142
X00228Y00133033
X00215Y00133
X00182Y00137668
X00166272
X0014875
X001175Y00138407
Y00171117
X0008255Y00172049
X00048768Y00171704
X00017Y00170812
Y00138423
X00048768
X00083312Y00138407
X00076Y00206112
X00048768Y00210945
X00017Y00210542
Y002504
X00048768Y00250918
Y002909
X00017Y00290322
Y00324549
Y00355707
X00048609
X00048768Y00327882
X00087742
X00088568Y00356349
X00123856
X00122693Y00327882
X00161242Y00328
X00189872Y00328469
X00190181Y00355707
X00162113Y00356349
X002495
X00274365
X00298745
Y00328469
Y00304146
X0026478Y0030891
X00259856Y00322093
X00243762Y00322996
X00232747Y00312917
X00261492Y00393306
X00280877Y00411533
X0022626Y00447084
X00184435Y00438844
X00072438Y00433799
X00054178Y00437038
X00038682Y0043765
X0001199Y00388633
X00076759Y0039909
X00096099Y00396037
X00189Y00172049
X0025225Y00180792
X00279516Y0018005
X00274241Y00204118
X00288761Y00220158
X003Y00142
X00180702Y00105419
X00168952Y00105409
X00166517Y00082146
X00131064
X00321657Y00081375
X00350187Y00081644
X00374917
X00374823Y00110784
X00350093
X00321415Y00111054
X004065Y00099202
X00399567Y00140772
X00453756Y00159997
X00463578Y00124921
X00467675Y0009172
X00541786Y00077447
X00573Y00068706
X00603965Y00080279
X00635007Y00088787
X00654195Y00083965
X00678Y0008426
Y00113062
X00654195
X0065127Y00160041
Y0019132
X00614537
X00614513Y00159658
X0056021Y00152
X00540463Y00163677
X00501477Y0017062
X0051808Y00190341
X00567Y00209358
X00546128Y00259395
X0051314Y00255613
X00501423
Y0027509
X0051314
Y00291732
X00501591Y00292101
X00532237Y00295773
X00542686Y002955
X00621917Y0030101
X00621271Y00287218
X00628668Y00323459
X00610726Y00322996
X00670553Y00333146
X00670243Y00366898
X00670267Y00398559
Y00429602
X00670243Y00458042
X0057716Y0045525
X00546605Y00440574
X00470274Y0043825
X0041838Y00445048
Y00426065
X00395709
Y00445339
X0034585Y00457539
X00359021Y00406778
X00334698Y00379874
X00334597Y0036375
Y00347722
X003342Y00328842
X00334099Y00307789
X00392Y00333618
X00442783Y00316218
X00443524Y00287218
X00435304Y00251478
X0041314Y00237153
X00377142Y0023665
X00426078Y00199596
X00451582Y00202951
X00300994Y00202182
X00315419Y00397946
X00425293Y00375578
X00482591Y0034954
X0050839Y00374788
X0051964Y0038535
X00670553Y00274261
Y00243218
X00670528Y00211557
X00554759Y00106694
X00699695Y00113062
X00699324Y00084769
X00707285Y0021194
Y00243218
Y00274861
X00707422Y00301868
Y00333146
X00740034Y00333688
Y00301868
X00739898Y00274261
Y0024376
Y0021194
X00739612Y00367281
Y00399101
Y00429602
Y00458425
X00707
Y00430202
Y00398559
Y00367281
Y00489703
Y00521346
X00739612Y00520746
Y00490245
X00759713Y00561651
X00781907Y00561539
X00803213
Y0058738
X00781907Y0058748
X00759713Y0058738
Y00609901
X00781907
X00782108Y00629888
Y0064425
X008035
X00803213Y00629545
X00803213Y00609901
X0082375Y0064425
X00844
X0086425
X008835
X00904
Y00628835
Y0061
Y0058748
X00928
X0095
Y0061
X00928
X00927624Y00629819
X00928Y0056175
X0095
X00904
X00670267Y00520746
Y00489703
X00601521Y00521977
X00588838
X00589277Y00542934
X00601521
X0061319Y00559322
X00508595Y00578338
X00448143Y005836
Y00563577
Y00544594
X00448379Y00522238
Y00502215
Y00483231
X00418283
X0041838Y00465071
X00395709
X00395612Y00483231
Y00502505
Y00522238
X00395376Y00544594
Y00563867
Y005836
X00418047
Y00563577
Y00544594
X00418283Y00522238
Y00502215
X00350169Y00502994
Y00521977
Y00542
X00327498
Y00522267
Y00502994
X00304229Y00503232
Y00522326
Y00542
X00547873Y00471694
X00284507Y00503232
Y00522326
Y00542
X00263873Y00594922
X0026879Y00619562
Y0064086
X00291Y0064125
Y00619562
X00245371
X00224346
Y0064086
X00245371
X00202829
Y00619562
X00153621Y00588822
X00139528Y0058904
X00156004Y0057511
X00160503Y00556678
X00177479
X00164256Y00531843
X0021329Y00515238
X00227661
X00228115Y00497919
X0021329Y00497705
X00252893Y00482563
X00262791
X00182341Y00468127
X0012473Y00488563
Y00500342
X00110937
X00113432Y00559699
X000927
X0007324
X00053971
X0003324
X00013779
Y00536607
X0003324
X00053971
X00079207Y00532208
X00046687Y00498438
T03
X001175Y002904
T04
X00121Y0061425
X00171
T05
X00321998Y00583735
X00353934Y00583912
X00353023Y0062816
X00321998
X002885Y00583735
T06
X002005Y002004
X00713289Y00629217
X00687889
X00662489
X00637089
T07
X00409538Y00404846
X00434938
X00460338
X00485738
X00511138
X00536538
X00561938
X00587338
X00586118Y00629888
X00560718
X00535318
X00509918
X00484518
X00459118
X00433718
X00408318
T08
X00776Y-00198712
T09
X0092625Y-0027675
X0005174Y00587038
T10
X00936Y-00115412
X00776Y00436588
M30
