M48
;Layer_Color=9474304
;FILE_FORMAT=4:3
METRIC,TZ
;TYPE=PLATED
T1F00S00C0.300
T3F00S00C0.700
T4F00S00C0.850
T5F00S00C0.900
T6F00S00C0.914
;TYPE=NON_PLATED
T7F00S00C1.570
T8F00S00C3.200
T9F00S00C3.450
%
T01
X70332Y-28325
X70332Y-24466
X74475Y-28325
X78800Y-30600
X81675Y-30525
X81675Y-28125
X81625Y-25825
X81500Y-23625
X80826Y-13821
X80826Y-9725
X76665Y-9725
X76665Y-13821
X73819Y-15548
X71728Y-13821
X71625Y-9725
X70749Y-7375
X70749Y-6073
X70749Y-4675
X70749Y-3500
X70736Y-2415
X70724Y-1217
X70724Y181
X70724Y1356
X71050Y2707
X71964Y2725
X71844Y6610
X71003Y6610
X75574Y3400
X75574Y2225
X75574Y827
X75574Y-475
X74120Y-4627
X74120Y-6025
X74120Y-7327
X72520Y-7377
X72520Y-6075
X72520Y-4677
X69099Y-4750
X69099Y-3575
X69074Y-2452
X69074Y-1281
X69074Y116
X69074Y1291
X69099Y2693
X69074Y3748
X67574Y3785
X67599Y2700
X67574Y1308
X67574Y133
X67574Y-1265
X67574Y-2452
X67592Y-3575
X67592Y-4750
X67592Y-6148
X67592Y-7450
X69099Y-7450
X69099Y-6148
X66350Y-3750
X61846Y-1800
X61863Y-79
X62793Y1262
X59188Y1362
X57479Y2021
X57479Y614
X57479Y-603
X56000Y-635
X56021Y635
X56021Y2034
X56000Y-2202
X56000Y-3502
X57479Y-3437
X57479Y-2202
X51689Y-3437
X51589Y1257
X51440Y3716
X53009Y3716
X53717Y6271
X55398Y6210
X49595Y3739
X47618Y3716
X46132Y2543
X45679Y-2088
X45654Y-3000
X45705Y-4057
X45344Y-9250
X43920Y-9246
X47094Y-9250
X48900Y-9250
X50075Y-9246
X53075Y-9725
X55847Y-9725
X58900Y-9725
X62453Y-9725
X67036Y-9725
X67036Y-13821
X65375Y-24466
X65375Y-28325
X60500Y-28325
X60500Y-24526
X58679Y-21900
X58679Y-18041
X54518Y-18101
X54518Y-21900
X49582Y-21900
X49526Y-18101
X44875Y-18191
X44906Y-22100
X41350Y-22860
X41350Y-20441
X38785Y-20441
X38785Y-22860
X36150Y-22860
X33782Y-22860
X33706Y-20468
X33755Y-18341
X36150Y-18341
X36150Y-20441
X30525Y-20468
X30525Y-22860
X30525Y-16713
X34163Y-14656
X36000Y-14652
X36150Y-11517
X36150Y-9800
X39726Y-9808
X39726Y-11517
X39878Y-14834
X39878Y-16612
X42400Y-24725
X42400Y-26800
X42400Y-28525
X42400Y-30200
X42400Y-32175
X40714Y-4778
X40714Y-2078
X40714Y1075
X37492Y1089
X35037Y1059
X32141Y1062
X32157Y-1919
X32141Y-4769
X35019Y-4769
X37492Y-4764
X37492Y-2063
X35028Y-2063
X35028Y4672
X37492Y4590
X40714Y4576
X32166Y4680
X61252Y3474
X65420Y5432
X67592Y5646
X69099Y5646
X29313Y4645
X26597Y4625
X23998Y4514
X24115Y950
X26597Y932
X29329Y1032
X29313Y-1925
X26597Y-2018
X24033Y-2090
X24033Y-4769
X26603Y-4769
X29329Y-4769
X29215Y-11261
X26822Y-11261
X24250Y-11261
X21251Y-11261
X21251Y-14271
X24215Y-14271
X26822Y-14271
X29215Y-14271
X26785Y-17739
X24150Y-17739
X24215Y-20441
X24215Y-22860
X26822Y-22860
X28785Y-22860
X28785Y-20468
X26822Y-20441
X21251Y-20475
X21251Y-23006
X21251Y-25675
X17977Y-25675
X17977Y-23006
X17977Y-20475
X18070Y-17739
X21251Y-17739
X18094Y-14271
X18070Y-11261
X18070Y-8850
X18120Y-6459
X18046Y-4314
X18022Y-2238
X17977Y603
X15054Y665
X13106Y665
X11250Y665
X11303Y3912
X13106Y3912
X13106Y5918
X18120Y6325
X18120Y3912
X16652Y3912
X14326Y-2263
X14326Y-4339
X14350Y-6434
X14350Y-8825
X14350Y-11236
X14350Y-14343
X14350Y-17739
X14350Y-20475
X14350Y-23006
X14275Y-25726
X14203Y-28933
X14203Y-32013
X17977Y-32075
X17977Y-28964
X21251Y-28964
X21251Y-32013
X23961Y8000
X26597Y8075
X29310Y8132
X29310Y11129
X26625Y11095
X23961Y11024
X23140Y13303
X21500Y13300
X18200Y13767
X16627Y13767
X14875Y13767
X11750Y13841
X11750Y17112
X8255Y17205
X4877Y17170
X1700Y17081
X1700Y13842
X4877Y13842
X8331Y13841
X7600Y20611
X4877Y21094
X1700Y21054
X1700Y25040
X4877Y25092
X4877Y29090
X1700Y29032
X1700Y32455
X1700Y35571
X4861Y35571
X4877Y32788
X8774Y32788
X8857Y35635
X12386Y35635
X12269Y32788
X16124Y32800
X18987Y32847
X19018Y35571
X16211Y35635
X16546Y39607
X16517Y41729
X19265Y41798
X19265Y39648
X18444Y43884
X16834Y45277
X20025Y45470
X22626Y44708
X28445Y44527
X28850Y42528
X28088Y41153
X26149Y39331
X24950Y35635
X27437Y35635
X29875Y35635
X29875Y32847
X29875Y30415
X28525Y29751
X26478Y30891
X25986Y32209
X24376Y32300
X23275Y31292
X20025Y30019
X24000Y26744
X23740Y22538
X23786Y21108
X27424Y20412
X26346Y19222
X25225Y18079
X27952Y18005
X28876Y22016
X30000Y14200
X25233Y14278
X18900Y17205
X18070Y10542
X16895Y10541
X16652Y8215
X18120Y8215
X13106Y8215
X8774Y29086
X9610Y39604
X7676Y39909
X7844Y42478
X7244Y43380
X5418Y43704
X3868Y43765
X4488Y42491
X3197Y42478
X1378Y42497
X1429Y45507
X1199Y38863
X12664Y44523
X31300Y43825
X31542Y39795
X33470Y37987
X33460Y36375
X33460Y34772
X35250Y34670
X33420Y32884
X33410Y30779
X36175Y30160
X36309Y27054
X36284Y25040
X36284Y22484
X36511Y20317
X34557Y20294
X34557Y17800
X31572Y17803
X30099Y20218
X32486Y23147
X32445Y24602
X30629Y28632
X38778Y27542
X40714Y27861
X40739Y26744
X40765Y25878
X41314Y23715
X42585Y24017
X43600Y24051
X43530Y25148
X43361Y27406
X43361Y28922
X43361Y31028
X43371Y32515
X45534Y32479
X45550Y31028
X45573Y28728
X45557Y27433
X46143Y24219
X47564Y21622
X45158Y20295
X45182Y18182
X43361Y18182
X41323Y18185
X42608Y19960
X42409Y22787
X40425Y22611
X37714Y23665
X37482Y11078
X35009Y11078
X32141Y11105
X32166Y8137
X35019Y8164
X37492Y8164
X40714Y8150
X40650Y9920
X41622Y11201
X41376Y12175
X46358Y12492
X47180Y11942
X46767Y9172
X47583Y8216
X52939Y7285
X54179Y7745
X55560Y8107
X55555Y10282
X57446Y10282
X57480Y12559
X54548Y12571
X54551Y16054
X54767Y17329
X53275Y17209
X52292Y16587
X51808Y19034
X51026Y19903
X51314Y25561
X52433Y25557
X53506Y25543
X54600Y25546
X54600Y27499
X53713Y27517
X52458Y27504
X51314Y27509
X50142Y27509
X50159Y29210
X51314Y29173
X53224Y29577
X54269Y29550
X56797Y32190
X58050Y32764
X59024Y33537
X60520Y35185
X61984Y36732
X63526Y38122
X61909Y39859
X61845Y42478
X64398Y41753
X67027Y42960
X67024Y45804
X67027Y39856
X67024Y36690
X67055Y33315
X66981Y30270
X67055Y27426
X67055Y24322
X64451Y24283
X62640Y24301
X63201Y21200
X63501Y19020
X65875Y18915
X65875Y21243
X68284Y21243
X68284Y18940
X68325Y15966
X65875Y15982
X63501Y15977
X65425Y13400
X65420Y11306
X67800Y11306
X67805Y13429
X67800Y8426
X67592Y6807
X69099Y6839
X65420Y8397
X63501Y8879
X60396Y8028
X57300Y6871
X61119Y13006
X60359Y18028
X60500Y20638
X57361Y19943
X56700Y20936
X56200Y21969
X55632Y23152
X58539Y25565
X61909Y27522
X61073Y32300
X62867Y32346
X55605Y33754
X55560Y35310
X57145Y35310
X56334Y37822
X54580Y37079
X52899Y38660
X51733Y37750
X50277Y37558
X50348Y36044
X50549Y34022
X48259Y34954
X48152Y35970
X46953Y38535
X45791Y38535
X42529Y37558
X41449Y38411
X39138Y37647
X35902Y40678
X34585Y45754
X39109Y44532
X41838Y44505
X41838Y42606
X44840Y44619
X47027Y43825
X48165Y43022
X48434Y44728
X47326Y41587
X52208Y42772
X53482Y42314
X54850Y42295
X54661Y44057
X57361Y45050
X57345Y42640
X44391Y35667
X45299Y34275
X50142Y25561
X56387Y18270
X57578Y16689
X51112Y12824
X45162Y16000
X70575Y15950
X70575Y18915
X70545Y21194
X70729Y24322
X70729Y27486
X70742Y30187
X70742Y33315
X74003Y33369
X74003Y30187
X73990Y27426
X73990Y24376
X73990Y21194
X72125Y13320
X69975Y13400
X69970Y11306
X69932Y8477
X70700Y36728
X70700Y39856
X70700Y43020
X70700Y45842
X73961Y45842
X73961Y42960
X73961Y39910
X73961Y36728
X73961Y49025
X73961Y52075
X70700Y52135
X70700Y48970
X70975Y55725
X70449Y57000
X70449Y58579
X70449Y60272
X75971Y60990
X78191Y60990
X78211Y62989
X78211Y64425
X80350Y64425
X80321Y62954
X80321Y60990
X80321Y58738
X78191Y58748
X75971Y58738
X75971Y56165
X78191Y56154
X80321Y56154
X90400Y56175
X92800Y56175
X95000Y56175
X95000Y58748
X92800Y58748
X92800Y61000
X92762Y62982
X90400Y62884
X90400Y64425
X88350Y64425
X86425Y64425
X84400Y64425
X82375Y64425
X90400Y61000
X90400Y58748
X95000Y61000
X67445Y58579
X67436Y56028
X67027Y52075
X67027Y48970
X64410Y48101
X64419Y50401
X64435Y54289
X61300Y54295
X60152Y54293
X58928Y54293
X58884Y52198
X60152Y52198
X60178Y50726
X58909Y50726
X57638Y48099
X54787Y47169
X53263Y47142
X52234Y47139
X51582Y49816
X52564Y52410
X54278Y52410
X54238Y55114
X54213Y56737
X52252Y57847
X52350Y59474
X50062Y60770
X47734Y61089
X44532Y61003
X44740Y58975
X44814Y56358
X44814Y54459
X44838Y52224
X44838Y50221
X44838Y48323
X44800Y46364
X41838Y46507
X41828Y48323
X41828Y50221
X41828Y52224
X41805Y54459
X41805Y56358
X41805Y58360
X38937Y58318
X38921Y55873
X38920Y52201
X35017Y52198
X35017Y50299
X32750Y50299
X32750Y52227
X32750Y54200
X35017Y54200
X30423Y54200
X30423Y52233
X30423Y50323
X38930Y47920
X49276Y52393
X49275Y54814
X49322Y56845
X52559Y55120
X55926Y59845
X61225Y59845
X64373Y59082
X29100Y61956
X29100Y64125
X26879Y64086
X26879Y61956
X24537Y61956
X22435Y61956
X22435Y64086
X24537Y64086
X20283Y64086
X20283Y61956
X18565Y58391
X17575Y57991
X16832Y58734
X15362Y58882
X13953Y58904
X13613Y59989
X15825Y57845
X16050Y55668
X17748Y55668
X19700Y52925
X19750Y48387
X18234Y46813
X12473Y48856
X12473Y50034
X11094Y50034
X10039Y53961
X9270Y55970
X7324Y55970
X5397Y55970
X3324Y55970
X1378Y55970
X1378Y53661
X1403Y52170
X1403Y50510
X1403Y48945
X1403Y47299
X4669Y49844
X5891Y48925
X6929Y48920
X7892Y53013
X5397Y53661
X3324Y53661
X4568Y52100
X11343Y55970
X23232Y51524
X23060Y49805
X25289Y48256
X26279Y48256
X28451Y50323
X28451Y52233
X28451Y54200
X26387Y59492
T03
X11750Y29040
T04
X12100Y61425
X17100Y61425
T05
X32200Y58374
X35943Y58346
X35302Y62816
X32200Y62816
X28300Y58319
T06
X20050Y20040
X40954Y40485
X43494Y40485
X46034Y40485
X48574Y40485
X51114Y40485
X53654Y40485
X56194Y40485
X58734Y40485
X71329Y62922
X68789Y62922
X66249Y62922
X63709Y62922
X58612Y62989
X56072Y62989
X53532Y62989
X50992Y62989
X48452Y62989
X45912Y62989
X43372Y62989
X40832Y62989
T07
X77600Y-19871
T08
X92625Y-27675
X4974Y58685
T09
X93600Y-11541
X77600Y43659
M30
