G04*
G04 #@! TF.GenerationSoftware,Altium Limited,Altium Designer,22.6.1 (34)*
G04*
G04 Layer_Color=128*
%FSLAX43Y43*%
%MOMM*%
G71*
G04*
G04 #@! TF.SameCoordinates,4B4C5CB4-E38D-440E-882E-72AC839ECC86*
G04*
G04*
G04 #@! TF.FilePolarity,Positive*
G04*
G01*
G75*
%ADD11C,0.200*%
%ADD12C,0.100*%
%ADD13C,0.254*%
%ADD15C,0.127*%
%ADD16C,0.180*%
%ADD17C,0.178*%
%ADD18C,0.150*%
%ADD19C,0.350*%
%ADD115C,0.051*%
G36*
X259352Y-135547D02*
X259440Y-135573D01*
X259542Y-135611D01*
X259631Y-135674D01*
X259720Y-135776D01*
X259783Y-135903D01*
X259809Y-135992D01*
X259809Y-136081D01*
X259809Y-136106D01*
X259796Y-136170D01*
X259783Y-136259D01*
X259745Y-136373D01*
X259682Y-136474D01*
X259580Y-136563D01*
X259440Y-136640D01*
X259364Y-136652D01*
X259263Y-136665D01*
X259225Y-136665D01*
X259174Y-136652D01*
X259123Y-136640D01*
X258983Y-136589D01*
X258907Y-136551D01*
X258844Y-136500D01*
X258831Y-136487D01*
X258818Y-136462D01*
X258793Y-136436D01*
X258767Y-136386D01*
X258704Y-136246D01*
X258691Y-136170D01*
X258678Y-136081D01*
X258678Y-136068D01*
X258678Y-136043D01*
X258691Y-136005D01*
X258704Y-135941D01*
X258755Y-135827D01*
X258805Y-135763D01*
X258856Y-135700D01*
X258869Y-135687D01*
X258882Y-135674D01*
X258920Y-135649D01*
X258971Y-135611D01*
X259098Y-135560D01*
X259174Y-135547D01*
X259263Y-135535D01*
X259288Y-135535D01*
X259352Y-135547D01*
X259352Y-135547D02*
G37*
G36*
X255732Y-135052D02*
X255859Y-135065D01*
X255986Y-135077D01*
X256138Y-135090D01*
X256456Y-135141D01*
X256799Y-135217D01*
X257154Y-135319D01*
X257510Y-135458D01*
X260685Y-140500D01*
X260685Y-140513D01*
X260685Y-140538D01*
X260672Y-140589D01*
X260672Y-140653D01*
X260660Y-140742D01*
X260647Y-140831D01*
X260596Y-141046D01*
X260596Y-141059D01*
X260583Y-141097D01*
X260571Y-141161D01*
X260558Y-141237D01*
X260533Y-141326D01*
X260495Y-141427D01*
X260431Y-141669D01*
X257675Y-137363D01*
X257662Y-137351D01*
X257637Y-137313D01*
X257586Y-137262D01*
X257535Y-137198D01*
X257459Y-137135D01*
X257370Y-137084D01*
X257281Y-137046D01*
X257180Y-137033D01*
X257142Y-137033D01*
X257091Y-137046D01*
X257027Y-137071D01*
X256964Y-137109D01*
X256888Y-137173D01*
X256799Y-137249D01*
X256723Y-137351D01*
X255808Y-138608D01*
X259034Y-143713D01*
X259021Y-143726D01*
X258958Y-143777D01*
X258882Y-143840D01*
X258755Y-143929D01*
X258615Y-144031D01*
X258437Y-144145D01*
X258221Y-144272D01*
X257993Y-144399D01*
X257726Y-144526D01*
X257447Y-144653D01*
X257142Y-144768D01*
X256812Y-144869D01*
X256456Y-144958D01*
X256088Y-145022D01*
X255707Y-145072D01*
X255300Y-145085D01*
X255199Y-145085D01*
X255084Y-145072D01*
X254932Y-145060D01*
X254741Y-145034D01*
X254513Y-144996D01*
X254259Y-144945D01*
X253992Y-144882D01*
X253700Y-144793D01*
X253383Y-144679D01*
X253065Y-144552D01*
X252748Y-144387D01*
X252417Y-144196D01*
X252087Y-143980D01*
X251770Y-143726D01*
X251465Y-143434D01*
X252836Y-141542D01*
X252849Y-141529D01*
X252875Y-141478D01*
X252887Y-141440D01*
X252900Y-141389D01*
X252925Y-141313D01*
X252938Y-141237D01*
X252938Y-141224D01*
X252938Y-141212D01*
X252925Y-141135D01*
X252875Y-141008D01*
X252836Y-140932D01*
X252786Y-140856D01*
X251770Y-139268D01*
X250258Y-141364D01*
X250258Y-141351D01*
X250246Y-141339D01*
X250246Y-141300D01*
X250233Y-141250D01*
X250208Y-141123D01*
X250169Y-140958D01*
X250131Y-140742D01*
X250106Y-140513D01*
X250093Y-140259D01*
X250081Y-139980D01*
X250081Y-139954D01*
X250081Y-139891D01*
X250093Y-139789D01*
X250106Y-139649D01*
X250131Y-139484D01*
X250157Y-139281D01*
X250208Y-139065D01*
X250258Y-138824D01*
X250335Y-138557D01*
X250436Y-138291D01*
X250550Y-138011D01*
X250690Y-137719D01*
X250855Y-137440D01*
X251046Y-137148D01*
X251274Y-136868D01*
X251528Y-136589D01*
X251541Y-136576D01*
X251605Y-136525D01*
X251693Y-136449D01*
X251808Y-136347D01*
X251960Y-136233D01*
X252138Y-136093D01*
X252354Y-135954D01*
X252595Y-135814D01*
X252875Y-135674D01*
X253167Y-135535D01*
X253484Y-135395D01*
X253827Y-135281D01*
X254208Y-135179D01*
X254589Y-135103D01*
X255008Y-135052D01*
X255440Y-135039D01*
X255630Y-135039D01*
X255732Y-135052D01*
X255732Y-135052D02*
G37*
G36*
X260990Y-146520D02*
X261066Y-146520D01*
X261117Y-146533D01*
X261130Y-146533D01*
X261155Y-146546D01*
X261206Y-146571D01*
X261257Y-146596D01*
X261307Y-146647D01*
X261358Y-146698D01*
X261409Y-146774D01*
X261434Y-146876D01*
X261434Y-146888D01*
X261434Y-146914D01*
X261447Y-146952D01*
X261447Y-147015D01*
X261447Y-147092D01*
X261460Y-147181D01*
X261460Y-147295D01*
X261460Y-147435D01*
X259580Y-147384D01*
X259567Y-147384D01*
X259517Y-147396D01*
X259440Y-147422D01*
X259364Y-147460D01*
X259275Y-147549D01*
X259212Y-147676D01*
X259174Y-147752D01*
X259161Y-147854D01*
X259136Y-147955D01*
X259136Y-148082D01*
X259136Y-148463D01*
X259136Y-148476D01*
X259136Y-148489D01*
X259148Y-148565D01*
X259161Y-148679D01*
X259186Y-148806D01*
X259237Y-148933D01*
X259313Y-149047D01*
X259415Y-149124D01*
X259479Y-149136D01*
X259555Y-149149D01*
X261485Y-149149D01*
X261485Y-149174D01*
X261485Y-149238D01*
X261485Y-149327D01*
X261472Y-149441D01*
X261460Y-149568D01*
X261447Y-149682D01*
X261422Y-149771D01*
X261384Y-149848D01*
X261384Y-149860D01*
X261358Y-149873D01*
X261320Y-149898D01*
X261257Y-149936D01*
X261168Y-149975D01*
X261053Y-150000D01*
X260914Y-150013D01*
X260736Y-150025D01*
X259339Y-150025D01*
X259225Y-150000D01*
X259085Y-149975D01*
X258932Y-149936D01*
X258793Y-149873D01*
X258653Y-149784D01*
X258551Y-149657D01*
X258551Y-149644D01*
X258526Y-149606D01*
X258501Y-149543D01*
X258475Y-149441D01*
X258450Y-149327D01*
X258424Y-149174D01*
X258412Y-148997D01*
X258399Y-148793D01*
X258399Y-147765D01*
X258399Y-147752D01*
X258399Y-147727D01*
X258399Y-147676D01*
X258412Y-147625D01*
X258424Y-147473D01*
X258450Y-147295D01*
X258501Y-147104D01*
X258577Y-146914D01*
X258678Y-146761D01*
X258742Y-146685D01*
X258818Y-146634D01*
X258831Y-146634D01*
X258856Y-146609D01*
X258907Y-146596D01*
X258971Y-146571D01*
X259059Y-146546D01*
X259161Y-146533D01*
X259288Y-146507D01*
X260825Y-146507D01*
X260990Y-146520D01*
X260990Y-146520D02*
G37*
G36*
X264914Y-150000D02*
X264178Y-150000D01*
X264178Y-148692D01*
X262628Y-148692D01*
X262628Y-150000D01*
X261942Y-150000D01*
X261942Y-146533D01*
X262628Y-146533D01*
X262628Y-147765D01*
X264178Y-147765D01*
X264178Y-146533D01*
X264914Y-146533D01*
X264914Y-150000D01*
X264914Y-150000D02*
G37*
G36*
X245216Y-145415D02*
X245280Y-145428D01*
X245356Y-145466D01*
X245432Y-145530D01*
X245509Y-145631D01*
X245559Y-145758D01*
X245597Y-145936D01*
X246067Y-150000D01*
X245204Y-150000D01*
X244962Y-147079D01*
X244937Y-147079D01*
X244048Y-149428D01*
X244035Y-149441D01*
X244023Y-149492D01*
X243985Y-149543D01*
X243934Y-149619D01*
X243858Y-149682D01*
X243769Y-149746D01*
X243667Y-149797D01*
X243540Y-149809D01*
X243527Y-149809D01*
X243477Y-149797D01*
X243413Y-149784D01*
X243324Y-149759D01*
X243235Y-149721D01*
X243146Y-149644D01*
X243057Y-149555D01*
X242994Y-149428D01*
X242118Y-147117D01*
X242105Y-147117D01*
X241851Y-150000D01*
X241000Y-150000D01*
X241445Y-145898D01*
X241445Y-145872D01*
X241457Y-145822D01*
X241483Y-145745D01*
X241521Y-145644D01*
X241584Y-145555D01*
X241660Y-145479D01*
X241775Y-145428D01*
X241902Y-145403D01*
X241927Y-145403D01*
X241978Y-145415D01*
X242054Y-145428D01*
X242156Y-145453D01*
X242257Y-145517D01*
X242359Y-145593D01*
X242461Y-145707D01*
X242537Y-145860D01*
X243527Y-148374D01*
X243540Y-148374D01*
X244531Y-145860D01*
X244543Y-145834D01*
X244569Y-145784D01*
X244607Y-145720D01*
X244670Y-145631D01*
X244759Y-145542D01*
X244874Y-145479D01*
X245001Y-145428D01*
X245153Y-145403D01*
X245166Y-145403D01*
X245216Y-145415D01*
X245216Y-145415D02*
G37*
G36*
X269042Y-146546D02*
X269156Y-146558D01*
X269296Y-146609D01*
X269435Y-146673D01*
X269562Y-146774D01*
X269677Y-146927D01*
X269715Y-147015D01*
X269753Y-147117D01*
X269753Y-147130D01*
X269766Y-147155D01*
X269766Y-147219D01*
X269778Y-147282D01*
X269791Y-147371D01*
X269791Y-147473D01*
X269804Y-147600D01*
X269804Y-147727D01*
X269804Y-148006D01*
X269804Y-148019D01*
X269804Y-148031D01*
X269804Y-148108D01*
X269791Y-148209D01*
X269778Y-148349D01*
X269753Y-148489D01*
X269715Y-148641D01*
X269664Y-148781D01*
X269600Y-148895D01*
X269588Y-148908D01*
X269575Y-148933D01*
X269537Y-148971D01*
X269486Y-149009D01*
X269410Y-149047D01*
X269334Y-149086D01*
X269245Y-149111D01*
X269131Y-149124D01*
X267416Y-149124D01*
X267416Y-150000D01*
X266692Y-150000D01*
X266692Y-146533D01*
X268965Y-146533D01*
X269042Y-146546D01*
X269042Y-146546D02*
G37*
G36*
X266235Y-150000D02*
X265422Y-150000D01*
X265422Y-146533D01*
X266235Y-146533D01*
X266235Y-150000D01*
X266235Y-150000D02*
G37*
G36*
X253725Y-146546D02*
X253840Y-146584D01*
X253967Y-146660D01*
X254030Y-146711D01*
X254094Y-146787D01*
X254157Y-146863D01*
X254208Y-146965D01*
X254246Y-147079D01*
X254284Y-147219D01*
X254297Y-147384D01*
X254310Y-147562D01*
X254310Y-147777D01*
X254310Y-147790D01*
X254310Y-147803D01*
X254310Y-147841D01*
X254310Y-147892D01*
X254284Y-148019D01*
X254259Y-148158D01*
X254208Y-148311D01*
X254145Y-148451D01*
X254043Y-148565D01*
X253979Y-148616D01*
X253916Y-148641D01*
X253916Y-148654D01*
X253929Y-148654D01*
X253979Y-148679D01*
X254043Y-148730D01*
X254119Y-148793D01*
X254183Y-148895D01*
X254246Y-149022D01*
X254297Y-149200D01*
X254310Y-149314D01*
X254310Y-149428D01*
X254310Y-150000D01*
X253573Y-150000D01*
X253573Y-149594D01*
X253573Y-149581D01*
X253573Y-149543D01*
X253573Y-149492D01*
X253573Y-149441D01*
X253560Y-149314D01*
X253560Y-149263D01*
X253548Y-149225D01*
X253535Y-149200D01*
X253497Y-149162D01*
X253408Y-149124D01*
X253294Y-149098D01*
X252011Y-149098D01*
X252011Y-150000D01*
X251274Y-150000D01*
X251274Y-146533D01*
X253649Y-146533D01*
X253725Y-146546D01*
X253725Y-146546D02*
G37*
G36*
X247312Y-150000D02*
X246499Y-150000D01*
X246499Y-146533D01*
X247312Y-146533D01*
X247312Y-150000D01*
X247312Y-150000D02*
G37*
G36*
X257154Y-146520D02*
X257281Y-146546D01*
X257421Y-146584D01*
X257561Y-146634D01*
X257675Y-146711D01*
X257777Y-146812D01*
X257789Y-146825D01*
X257815Y-146863D01*
X257840Y-146939D01*
X257891Y-147041D01*
X257929Y-147181D01*
X257954Y-147333D01*
X257980Y-147523D01*
X257993Y-147752D01*
X257993Y-148781D01*
X257993Y-148793D01*
X257993Y-148819D01*
X257993Y-148870D01*
X257980Y-148933D01*
X257967Y-149098D01*
X257929Y-149289D01*
X257866Y-149492D01*
X257777Y-149682D01*
X257650Y-149848D01*
X257574Y-149911D01*
X257485Y-149962D01*
X257472Y-149962D01*
X257447Y-149975D01*
X257408Y-149987D01*
X257345Y-149987D01*
X257269Y-150000D01*
X257180Y-150013D01*
X257066Y-150025D01*
X255694Y-150025D01*
X255592Y-150013D01*
X255453Y-149987D01*
X255313Y-149949D01*
X255173Y-149886D01*
X255034Y-149809D01*
X254932Y-149695D01*
X254919Y-149682D01*
X254907Y-149644D01*
X254868Y-149568D01*
X254843Y-149467D01*
X254805Y-149340D01*
X254767Y-149187D01*
X254754Y-148997D01*
X254741Y-148781D01*
X254741Y-147752D01*
X254741Y-147739D01*
X254741Y-147701D01*
X254741Y-147650D01*
X254754Y-147587D01*
X254754Y-147511D01*
X254780Y-147409D01*
X254818Y-147206D01*
X254894Y-147003D01*
X254995Y-146800D01*
X255059Y-146723D01*
X255148Y-146647D01*
X255237Y-146584D01*
X255338Y-146546D01*
X255351Y-146546D01*
X255376Y-146533D01*
X255415Y-146533D01*
X255465Y-146520D01*
X255529Y-146520D01*
X255605Y-146507D01*
X257053Y-146507D01*
X257154Y-146520D01*
X257154Y-146520D02*
G37*
G36*
X250081Y-146520D02*
X250258Y-146520D01*
X250411Y-146533D01*
X250487Y-146546D01*
X250538Y-146558D01*
X250589Y-146571D01*
X250614Y-146584D01*
X250627Y-146584D01*
X250639Y-146609D01*
X250677Y-146660D01*
X250716Y-146723D01*
X250741Y-146825D01*
X250779Y-146965D01*
X250792Y-147155D01*
X250804Y-147257D01*
X250804Y-147384D01*
X248912Y-147384D01*
X248823Y-147396D01*
X248722Y-147447D01*
X248671Y-147473D01*
X248620Y-147523D01*
X248620Y-147536D01*
X248607Y-147549D01*
X248582Y-147587D01*
X248569Y-147650D01*
X248544Y-147727D01*
X248518Y-147816D01*
X248506Y-147943D01*
X248506Y-148082D01*
X248506Y-148463D01*
X248506Y-148476D01*
X248506Y-148527D01*
X248506Y-148603D01*
X248518Y-148679D01*
X248531Y-148857D01*
X248544Y-148933D01*
X248569Y-148984D01*
X248569Y-148997D01*
X248582Y-149009D01*
X248645Y-149060D01*
X248696Y-149098D01*
X248760Y-149124D01*
X248836Y-149136D01*
X248925Y-149149D01*
X250855Y-149149D01*
X250855Y-149174D01*
X250855Y-149225D01*
X250855Y-149314D01*
X250843Y-149416D01*
X250830Y-149530D01*
X250817Y-149644D01*
X250792Y-149733D01*
X250754Y-149809D01*
X250741Y-149822D01*
X250728Y-149848D01*
X250677Y-149873D01*
X250627Y-149911D01*
X250538Y-149962D01*
X250423Y-149987D01*
X250284Y-150013D01*
X250106Y-150025D01*
X248709Y-150025D01*
X248595Y-150013D01*
X248480Y-149987D01*
X248341Y-149962D01*
X248201Y-149911D01*
X248074Y-149835D01*
X247972Y-149746D01*
X247960Y-149733D01*
X247934Y-149695D01*
X247896Y-149619D01*
X247858Y-149517D01*
X247820Y-149390D01*
X247782Y-149225D01*
X247756Y-149022D01*
X247744Y-148781D01*
X247744Y-147752D01*
X247744Y-147739D01*
X247744Y-147701D01*
X247744Y-147650D01*
X247756Y-147574D01*
X247769Y-147485D01*
X247782Y-147396D01*
X247833Y-147181D01*
X247922Y-146965D01*
X248049Y-146761D01*
X248125Y-146673D01*
X248226Y-146609D01*
X248328Y-146558D01*
X248455Y-146520D01*
X248480Y-146520D01*
X248557Y-146507D01*
X249915Y-146507D01*
X250081Y-146520D01*
X250081Y-146520D02*
G37*
%LPC*%
G36*
X259263Y-135624D02*
X259237Y-135624D01*
X259186Y-135636D01*
X259110Y-135649D01*
X259021Y-135674D01*
X258920Y-135738D01*
X258844Y-135814D01*
X258793Y-135928D01*
X258767Y-136081D01*
X258767Y-136093D01*
X258767Y-136119D01*
X258780Y-136157D01*
X258780Y-136195D01*
X258831Y-136322D01*
X258856Y-136373D01*
X258907Y-136436D01*
X258920Y-136436D01*
X258932Y-136462D01*
X259009Y-136500D01*
X259110Y-136551D01*
X259186Y-136563D01*
X259263Y-136576D01*
X259288Y-136576D01*
X259339Y-136563D01*
X259402Y-136551D01*
X259491Y-136513D01*
X259580Y-136449D01*
X259644Y-136373D01*
X259694Y-136246D01*
X259720Y-136081D01*
X259720Y-136055D01*
X259707Y-136005D01*
X259694Y-135941D01*
X259669Y-135852D01*
X259605Y-135763D01*
X259529Y-135700D01*
X259415Y-135649D01*
X259263Y-135624D01*
X259263Y-135624D02*
G37*
%LPD*%
G36*
X259390Y-135789D02*
X259428Y-135814D01*
X259466Y-135839D01*
X259491Y-135890D01*
X259504Y-135954D01*
X259504Y-135966D01*
X259504Y-135979D01*
X259479Y-136043D01*
X259440Y-136119D01*
X259390Y-136144D01*
X259339Y-136157D01*
X259517Y-136436D01*
X259415Y-136436D01*
X259225Y-136157D01*
X259123Y-136157D01*
X259123Y-136436D01*
X259021Y-136436D01*
X259021Y-135763D01*
X259301Y-135763D01*
X259390Y-135789D01*
X259390Y-135789D02*
G37*
%LPC*%
G36*
X259288Y-135852D02*
X259123Y-135852D01*
X259123Y-136068D01*
X259301Y-136068D01*
X259339Y-136055D01*
X259377Y-136017D01*
X259390Y-135954D01*
X259390Y-135941D01*
X259377Y-135903D01*
X259352Y-135865D01*
X259288Y-135852D01*
X259288Y-135852D02*
G37*
G36*
X253611Y-137021D02*
X253573Y-137021D01*
X253522Y-137033D01*
X253459Y-137059D01*
X253383Y-137097D01*
X253306Y-137160D01*
X253217Y-137236D01*
X253129Y-137338D01*
X252227Y-138595D01*
X254932Y-142875D01*
X254945Y-142888D01*
X254970Y-142939D01*
X255021Y-142990D01*
X255084Y-143066D01*
X255148Y-143129D01*
X255224Y-143193D01*
X255313Y-143244D01*
X255389Y-143256D01*
X255440Y-143256D01*
X255478Y-143244D01*
X255542Y-143218D01*
X255618Y-143193D01*
X255694Y-143142D01*
X255770Y-143066D01*
X255846Y-142977D01*
X256786Y-141618D01*
X254081Y-137351D01*
X254068Y-137338D01*
X254043Y-137300D01*
X254005Y-137249D01*
X253941Y-137186D01*
X253878Y-137122D01*
X253802Y-137071D01*
X253713Y-137033D01*
X253611Y-137021D01*
X253611Y-137021D02*
G37*
G36*
X268775Y-147371D02*
X267416Y-147371D01*
X267416Y-148260D01*
X268864Y-148260D01*
X268889Y-148235D01*
X268940Y-148209D01*
X268978Y-148171D01*
X269004Y-148108D01*
X269029Y-148019D01*
X269042Y-147892D01*
X269042Y-147765D01*
X269042Y-147752D01*
X269042Y-147701D01*
X269029Y-147638D01*
X269004Y-147562D01*
X268978Y-147498D01*
X268927Y-147435D01*
X268864Y-147384D01*
X268775Y-147371D01*
X268775Y-147371D02*
G37*
G36*
X253256Y-147371D02*
X252011Y-147371D01*
X252011Y-148235D01*
X253383Y-148235D01*
X253421Y-148209D01*
X253484Y-148184D01*
X253535Y-148146D01*
X253573Y-148082D01*
X253611Y-147993D01*
X253624Y-147866D01*
X253624Y-147765D01*
X253624Y-147752D01*
X253624Y-147701D01*
X253611Y-147638D01*
X253573Y-147562D01*
X253535Y-147498D01*
X253471Y-147435D01*
X253383Y-147384D01*
X253256Y-147371D01*
X253256Y-147371D02*
G37*
G36*
X256786Y-147371D02*
X255897Y-147371D01*
X255859Y-147384D01*
X255808Y-147396D01*
X255707Y-147435D01*
X255656Y-147485D01*
X255605Y-147536D01*
X255605Y-147549D01*
X255592Y-147562D01*
X255567Y-147600D01*
X255554Y-147663D01*
X255529Y-147739D01*
X255503Y-147828D01*
X255491Y-147943D01*
X255491Y-148082D01*
X255491Y-148463D01*
X255491Y-148476D01*
X255491Y-148527D01*
X255491Y-148590D01*
X255503Y-148679D01*
X255529Y-148857D01*
X255542Y-148946D01*
X255567Y-149009D01*
X255580Y-149035D01*
X255643Y-149073D01*
X255681Y-149098D01*
X255745Y-149124D01*
X255808Y-149136D01*
X255897Y-149149D01*
X256850Y-149149D01*
X256900Y-149136D01*
X256964Y-149111D01*
X257053Y-149060D01*
X257129Y-148984D01*
X257205Y-148857D01*
X257231Y-148781D01*
X257256Y-148692D01*
X257269Y-148578D01*
X257269Y-148463D01*
X257269Y-148082D01*
X257269Y-148070D01*
X257269Y-148019D01*
X257256Y-147955D01*
X257256Y-147866D01*
X257205Y-147689D01*
X257180Y-147600D01*
X257129Y-147536D01*
X257129Y-147523D01*
X257104Y-147511D01*
X257040Y-147447D01*
X256926Y-147396D01*
X256862Y-147384D01*
X256786Y-147371D01*
X256786Y-147371D02*
G37*
%LPD*%
D11*
X337071Y-134893D02*
X337000Y-134822D01*
X337071Y-134750D01*
X337143Y-134822D01*
X337143Y-134965D01*
X337071Y-135107D01*
X337000Y-135179D01*
X337543Y-136107D02*
X337471Y-136179D01*
X337543Y-136250D01*
X337614Y-136179D01*
X337543Y-136107D01*
X337943Y-135536D02*
X338585Y-135536D01*
X338800Y-135464D01*
X338871Y-135393D01*
X338942Y-135250D01*
X338942Y-135036D01*
X338871Y-134893D01*
X338800Y-134822D01*
X338585Y-134750D01*
X337943Y-134750D01*
X337943Y-136250D01*
X339278Y-135250D02*
X339278Y-136250D01*
X339278Y-135679D02*
X339350Y-135464D01*
X339492Y-135322D01*
X339635Y-135250D01*
X339849Y-135250D01*
X340342Y-135250D02*
X340199Y-135322D01*
X340057Y-135464D01*
X339985Y-135679D01*
X339985Y-135821D01*
X340057Y-136036D01*
X340199Y-136179D01*
X340342Y-136250D01*
X340556Y-136250D01*
X340699Y-136179D01*
X340842Y-136036D01*
X340913Y-135821D01*
X340913Y-135679D01*
X340842Y-135464D01*
X340699Y-135322D01*
X340556Y-135250D01*
X340342Y-135250D01*
X341528Y-134750D02*
X341599Y-134822D01*
X341670Y-134750D01*
X341599Y-134679D01*
X341528Y-134750D01*
X341599Y-135250D02*
X341599Y-136464D01*
X341528Y-136678D01*
X341385Y-136750D01*
X341242Y-136750D01*
X341949Y-135679D02*
X342806Y-135679D01*
X342806Y-135536D01*
X342734Y-135393D01*
X342663Y-135322D01*
X342520Y-135250D01*
X342306Y-135250D01*
X342163Y-135322D01*
X342020Y-135464D01*
X341949Y-135679D01*
X341949Y-135821D01*
X342020Y-136036D01*
X342163Y-136179D01*
X342306Y-136250D01*
X342520Y-136250D01*
X342663Y-136179D01*
X342806Y-136036D01*
X343984Y-135464D02*
X343841Y-135322D01*
X343699Y-135250D01*
X343484Y-135250D01*
X343342Y-135322D01*
X343199Y-135464D01*
X343127Y-135679D01*
X343127Y-135821D01*
X343199Y-136036D01*
X343342Y-136179D01*
X343484Y-136250D01*
X343699Y-136250D01*
X343841Y-136179D01*
X343984Y-136036D01*
X344520Y-134750D02*
X344520Y-135964D01*
X344591Y-136179D01*
X344734Y-136250D01*
X344877Y-136250D01*
X344306Y-135250D02*
X344805Y-135250D01*
X345091Y-135250D02*
X345091Y-136750D01*
X345091Y-135464D02*
X345234Y-135322D01*
X345377Y-135250D01*
X345591Y-135250D01*
X345734Y-135322D01*
X345877Y-135464D01*
X345948Y-135679D01*
X345948Y-135821D01*
X345877Y-136036D01*
X345734Y-136179D01*
X345591Y-136250D01*
X345377Y-136250D01*
X345234Y-136179D01*
X345091Y-136036D01*
X347126Y-135250D02*
X347126Y-136250D01*
X347126Y-135464D02*
X346984Y-135322D01*
X346841Y-135250D01*
X346627Y-135250D01*
X346484Y-135322D01*
X346341Y-135464D01*
X346269Y-135679D01*
X346269Y-135821D01*
X346341Y-136036D01*
X346484Y-136179D01*
X346627Y-136250D01*
X346841Y-136250D01*
X346984Y-136179D01*
X347126Y-136036D01*
X347526Y-135250D02*
X347526Y-136250D01*
X347526Y-135679D02*
X347598Y-135464D01*
X347741Y-135322D01*
X347883Y-135250D01*
X348098Y-135250D01*
X348448Y-134750D02*
X348448Y-135964D01*
X348519Y-136179D01*
X348662Y-136250D01*
X348805Y-136250D01*
X348233Y-135250D02*
X348733Y-135250D01*
X349019Y-134750D02*
X349019Y-136250D01*
X349019Y-134750D02*
X350019Y-136250D01*
X350019Y-134750D02*
X350019Y-136250D01*
X350433Y-135250D02*
X350433Y-135964D01*
X350504Y-136179D01*
X350647Y-136250D01*
X350861Y-136250D01*
X351004Y-136179D01*
X351218Y-135964D01*
X351218Y-135250D02*
X351218Y-136250D01*
X351611Y-135250D02*
X351611Y-136250D01*
X351611Y-135536D02*
X351825Y-135322D01*
X351968Y-135250D01*
X352182Y-135250D01*
X352325Y-135322D01*
X352397Y-135536D01*
X352397Y-136250D01*
X352397Y-135536D02*
X352611Y-135322D01*
X352754Y-135250D01*
X352968Y-135250D01*
X353111Y-135322D01*
X353182Y-135536D01*
X353182Y-136250D01*
X353654Y-134750D02*
X353654Y-136250D01*
X353654Y-135464D02*
X353796Y-135322D01*
X353939Y-135250D01*
X354154Y-135250D01*
X354296Y-135322D01*
X354439Y-135464D01*
X354511Y-135679D01*
X354511Y-135821D01*
X354439Y-136036D01*
X354296Y-136179D01*
X354154Y-136250D01*
X353939Y-136250D01*
X353796Y-136179D01*
X353654Y-136036D01*
X354832Y-135679D02*
X355689Y-135679D01*
X355689Y-135536D01*
X355617Y-135393D01*
X355546Y-135322D01*
X355403Y-135250D01*
X355189Y-135250D01*
X355046Y-135322D01*
X354903Y-135464D01*
X354832Y-135679D01*
X354832Y-135821D01*
X354903Y-136036D01*
X355046Y-136179D01*
X355189Y-136250D01*
X355403Y-136250D01*
X355546Y-136179D01*
X355689Y-136036D01*
X356010Y-135250D02*
X356010Y-136250D01*
X356010Y-135679D02*
X356082Y-135464D01*
X356224Y-135322D01*
X356367Y-135250D01*
X356582Y-135250D01*
X356789Y-134893D02*
X356717Y-134822D01*
X356789Y-134750D01*
X356860Y-134822D01*
X356860Y-134965D01*
X356789Y-135107D01*
X356717Y-135179D01*
D12*
X347700Y-156600D02*
X347700Y-156000D01*
X342540Y-158635D02*
X342540Y-157365D01*
X345080Y-158635D02*
X345080Y-157365D01*
X347620Y-158635D02*
X347620Y-157365D01*
X350160Y-158635D02*
X350160Y-157365D01*
X352700Y-158635D02*
X352700Y-157365D01*
X342540Y-158000D02*
X352700Y-158000D01*
X342700Y-156300D02*
X352700Y-156300D01*
X353820Y-137000D02*
X353820Y-137000D01*
X342700Y-156800D02*
X342700Y-155800D01*
X352700Y-156800D02*
X352700Y-155800D01*
X324000Y-137000D02*
X324000Y-134000D01*
X324000Y-137000D02*
X353820Y-137000D01*
X272000Y-141500D02*
X353820Y-141500D01*
X339233Y-157600D02*
X338900Y-158067D01*
X339400Y-158067D01*
X339233Y-157600D02*
X339233Y-158300D01*
X339723Y-157600D02*
X339623Y-157633D01*
X339557Y-157733D01*
X339523Y-157900D01*
X339523Y-158000D01*
X339557Y-158167D01*
X339623Y-158267D01*
X339723Y-158300D01*
X339790Y-158300D01*
X339890Y-158267D01*
X339956Y-158167D01*
X339990Y-158000D01*
X339990Y-157900D01*
X339956Y-157733D01*
X339890Y-157633D01*
X339790Y-157600D01*
X339723Y-157600D01*
X340346Y-157600D02*
X340246Y-157633D01*
X340180Y-157733D01*
X340146Y-157900D01*
X340146Y-158000D01*
X340180Y-158167D01*
X340246Y-158267D01*
X340346Y-158300D01*
X340413Y-158300D01*
X340513Y-158267D01*
X340580Y-158167D01*
X340613Y-158000D01*
X340613Y-157900D01*
X340580Y-157733D01*
X340513Y-157633D01*
X340413Y-157600D01*
X340346Y-157600D01*
X340770Y-157833D02*
X340770Y-158300D01*
X340770Y-157967D02*
X340870Y-157867D01*
X340936Y-157833D01*
X341036Y-157833D01*
X341103Y-157867D01*
X341136Y-157967D01*
X341136Y-158300D01*
X341136Y-157967D02*
X341236Y-157867D01*
X341303Y-157833D01*
X341403Y-157833D01*
X341469Y-157867D01*
X341503Y-157967D01*
X341503Y-158300D01*
X341789Y-157600D02*
X341823Y-157633D01*
X341856Y-157600D01*
X341823Y-157567D01*
X341789Y-157600D01*
X341823Y-157833D02*
X341823Y-158300D01*
X341979Y-157600D02*
X341979Y-158300D01*
X339000Y-156033D02*
X339067Y-156000D01*
X339167Y-155900D01*
X339167Y-156600D01*
X339713Y-155900D02*
X339613Y-155933D01*
X339547Y-156033D01*
X339513Y-156200D01*
X339513Y-156300D01*
X339547Y-156467D01*
X339613Y-156567D01*
X339713Y-156600D01*
X339780Y-156600D01*
X339880Y-156567D01*
X339946Y-156467D01*
X339980Y-156300D01*
X339980Y-156200D01*
X339946Y-156033D01*
X339880Y-155933D01*
X339780Y-155900D01*
X339713Y-155900D01*
X340136Y-156133D02*
X340136Y-156600D01*
X340136Y-156267D02*
X340236Y-156167D01*
X340303Y-156133D01*
X340403Y-156133D01*
X340470Y-156167D01*
X340503Y-156267D01*
X340503Y-156600D01*
X340503Y-156267D02*
X340603Y-156167D01*
X340670Y-156133D01*
X340770Y-156133D01*
X340836Y-156167D01*
X340870Y-156267D01*
X340870Y-156600D01*
X341090Y-156133D02*
X341090Y-156600D01*
X341090Y-156267D02*
X341190Y-156167D01*
X341256Y-156133D01*
X341356Y-156133D01*
X341423Y-156167D01*
X341456Y-156267D01*
X341456Y-156600D01*
X341456Y-156267D02*
X341556Y-156167D01*
X341623Y-156133D01*
X341723Y-156133D01*
X341789Y-156167D01*
X341823Y-156267D01*
X341823Y-156600D01*
D13*
X353820Y62720D02*
X353820Y71720D01*
X232320Y71720D02*
X353820Y71720D01*
X255820Y62720D02*
X255820Y67220D01*
X232320Y67220D02*
X232320Y71720D01*
X232320Y67220D02*
X353820Y67220D01*
X243320Y67220D02*
X243320Y71720D01*
X255820Y67220D02*
X255820Y71720D01*
X334320Y67220D02*
X334320Y71720D01*
X232320Y62720D02*
X232320Y67220D01*
X232320Y62720D02*
X353820Y62720D01*
X334320Y62720D02*
X334320Y67220D01*
X243320Y62720D02*
X243320Y67220D01*
X234820Y68720D02*
X234820Y70244D01*
X235582Y70244D01*
X235836Y69990D01*
X235836Y69482D01*
X235582Y69228D01*
X234820Y69228D01*
X235328Y69228D02*
X235836Y68720D01*
X237359Y70244D02*
X236344Y70244D01*
X236344Y68720D01*
X237359Y68720D01*
X236344Y69482D02*
X236851Y69482D01*
X237867Y70244D02*
X237867Y69228D01*
X238375Y68720D01*
X238883Y69228D01*
X238883Y70244D01*
X245836Y70244D02*
X244820Y70244D01*
X244820Y68720D01*
X245836Y68720D01*
X244820Y69482D02*
X245328Y69482D01*
X247359Y69990D02*
X247105Y70244D01*
X246597Y70244D01*
X246344Y69990D01*
X246344Y68974D01*
X246597Y68720D01*
X247105Y68720D01*
X247359Y68974D01*
X248629Y70244D02*
X248121Y70244D01*
X247867Y69990D01*
X247867Y68974D01*
X248121Y68720D01*
X248629Y68720D01*
X248883Y68974D01*
X248883Y69990D01*
X248629Y70244D01*
X292336Y69490D02*
X292082Y69744D01*
X291574Y69744D01*
X291320Y69490D01*
X291320Y68474D01*
X291574Y68220D01*
X292082Y68220D01*
X292336Y68474D01*
X293097Y68220D02*
X293605Y68220D01*
X293859Y68474D01*
X293859Y68982D01*
X293605Y69236D01*
X293097Y69236D01*
X292844Y68982D01*
X292844Y68474D01*
X293097Y68220D01*
X294367Y68220D02*
X294367Y69236D01*
X294621Y69236D01*
X294875Y68982D01*
X294875Y68220D01*
X294875Y68982D01*
X295129Y69236D01*
X295383Y68982D01*
X295383Y68220D01*
X295891Y68220D02*
X295891Y69236D01*
X296144Y69236D01*
X296398Y68982D01*
X296398Y68220D01*
X296398Y68982D01*
X296652Y69236D01*
X296906Y68982D01*
X296906Y68220D01*
X298176Y68220D02*
X297668Y68220D01*
X297414Y68474D01*
X297414Y68982D01*
X297668Y69236D01*
X298176Y69236D01*
X298430Y68982D01*
X298430Y68728D01*
X297414Y68728D01*
X298938Y68220D02*
X298938Y69236D01*
X299699Y69236D01*
X299953Y68982D01*
X299953Y68220D01*
X300715Y69490D02*
X300715Y69236D01*
X300461Y69236D01*
X300969Y69236D01*
X300715Y69236D01*
X300715Y68474D01*
X300969Y68220D01*
X301731Y68220D02*
X302492Y68220D01*
X302746Y68474D01*
X302492Y68728D01*
X301985Y68728D01*
X301731Y68982D01*
X301985Y69236D01*
X302746Y69236D01*
X339320Y69744D02*
X339320Y68220D01*
X340082Y68220D01*
X340336Y68474D01*
X340336Y69490D01*
X340082Y69744D01*
X339320Y69744D01*
X341097Y69236D02*
X341605Y69236D01*
X341859Y68982D01*
X341859Y68220D01*
X341097Y68220D01*
X340844Y68474D01*
X341097Y68728D01*
X341859Y68728D01*
X342621Y69490D02*
X342621Y69236D01*
X342367Y69236D01*
X342875Y69236D01*
X342621Y69236D01*
X342621Y68474D01*
X342875Y68220D01*
X344398Y68220D02*
X343891Y68220D01*
X343637Y68474D01*
X343637Y68982D01*
X343891Y69236D01*
X344398Y69236D01*
X344652Y68982D01*
X344652Y68728D01*
X343637Y68728D01*
D15*
X331000Y-159420D02*
X331000Y-155000D01*
X300000Y-159420D02*
X300000Y-143000D01*
X318000Y-155000D02*
X318000Y-149000D01*
X338500Y-159420D02*
X338500Y-149000D01*
X238000Y-159420D02*
X238000Y-134000D01*
X272000Y-159420D02*
X272000Y-134000D01*
X353820Y-159420D02*
X353820Y-134000D01*
X238000Y-159420D02*
X353820Y-159420D01*
X272000Y-155000D02*
X353820Y-155000D01*
X272000Y-149000D02*
X353820Y-149000D01*
X272000Y-143000D02*
X353820Y-143000D01*
X238000Y-134000D02*
X353820Y-134000D01*
X203960Y-159420D02*
X239520Y-159420D01*
X41400Y-164500D02*
X41400Y-159420D01*
X-22100Y-104175D02*
X-17020Y-104175D01*
X-22100Y-43850D02*
X-17020Y-43850D01*
X-22100Y16475D02*
X-17020Y16475D01*
X-17020Y-159420D02*
X353820Y-159420D01*
X-17020Y-159420D02*
X-17020Y71720D01*
X-22100Y-164500D02*
X358900Y-164500D01*
X-22100Y-164500D02*
X-22100Y76800D01*
X353820Y-159420D02*
X353820Y-128940D01*
X104900Y-164500D02*
X104900Y-159420D01*
X168400Y-164500D02*
X168400Y-159420D01*
X231900Y-164500D02*
X231900Y-159420D01*
X295400Y-164500D02*
X295400Y-159420D01*
X353820Y-104175D02*
X358900Y-104175D01*
X353820Y-43850D02*
X358900Y-43850D01*
X353820Y16475D02*
X358900Y16475D01*
X358900Y-164500D02*
X358900Y76800D01*
X353820Y-159420D02*
X353820Y71720D01*
X41400Y71720D02*
X41400Y76800D01*
X-22100Y76800D02*
X358900Y76800D01*
X-17020Y71720D02*
X353820Y71720D01*
X104900Y71720D02*
X104900Y76800D01*
X168400Y71720D02*
X168400Y76800D01*
X231900Y71720D02*
X231900Y76800D01*
X295400Y71720D02*
X295400Y76800D01*
X301000Y-155357D02*
X301000Y-156500D01*
X301653Y-156500D01*
X302649Y-156500D02*
X302214Y-155357D01*
X301778Y-156500D01*
X301941Y-156119D02*
X302486Y-156119D01*
X302915Y-155357D02*
X303351Y-155901D01*
X303351Y-156500D01*
X303786Y-155357D02*
X303351Y-155901D01*
X304641Y-155357D02*
X303933Y-155357D01*
X303933Y-156500D01*
X304641Y-156500D01*
X303933Y-155901D02*
X304368Y-155901D01*
X304831Y-155357D02*
X304831Y-156500D01*
X304831Y-155357D02*
X305321Y-155357D01*
X305484Y-155412D01*
X305538Y-155466D01*
X305593Y-155575D01*
X305593Y-155684D01*
X305538Y-155793D01*
X305484Y-155847D01*
X305321Y-155901D01*
X304831Y-155901D01*
X305212Y-155901D02*
X305593Y-156500D01*
X306746Y-155357D02*
X306746Y-156500D01*
X306746Y-155357D02*
X307508Y-156500D01*
X307508Y-155357D02*
X307508Y-156500D01*
X308695Y-156500D02*
X308259Y-155357D01*
X307824Y-156500D01*
X307987Y-156119D02*
X308531Y-156119D01*
X308961Y-155357D02*
X308961Y-156500D01*
X308961Y-155357D02*
X309397Y-156500D01*
X309832Y-155357D02*
X309397Y-156500D01*
X309832Y-155357D02*
X309832Y-156500D01*
X310866Y-155357D02*
X310158Y-155357D01*
X310158Y-156500D01*
X310866Y-156500D01*
X310158Y-155901D02*
X310594Y-155901D01*
X311111Y-155738D02*
X311056Y-155793D01*
X311111Y-155847D01*
X311165Y-155793D01*
X311111Y-155738D01*
X311111Y-156391D02*
X311056Y-156446D01*
X311111Y-156500D01*
X311165Y-156446D01*
X311111Y-156391D01*
X331750Y-155607D02*
X331750Y-156750D01*
X331750Y-155607D02*
X332240Y-155607D01*
X332403Y-155662D01*
X332457Y-155716D01*
X332512Y-155825D01*
X332512Y-155934D01*
X332457Y-156043D01*
X332403Y-156097D01*
X332240Y-156151D01*
X331750Y-156151D01*
X332131Y-156151D02*
X332512Y-156750D01*
X333475Y-155607D02*
X332768Y-155607D01*
X332768Y-156750D01*
X333475Y-156750D01*
X332768Y-156151D02*
X333203Y-156151D01*
X333665Y-155607D02*
X334101Y-156750D01*
X334536Y-155607D02*
X334101Y-156750D01*
X334737Y-155988D02*
X334683Y-156043D01*
X334737Y-156097D01*
X334792Y-156043D01*
X334737Y-155988D01*
X334737Y-156641D02*
X334683Y-156696D01*
X334737Y-156750D01*
X334792Y-156696D01*
X334737Y-156641D01*
X339700Y-149857D02*
X339700Y-151000D01*
X339700Y-149857D02*
X340081Y-149857D01*
X340244Y-149912D01*
X340353Y-150020D01*
X340407Y-150129D01*
X340462Y-150293D01*
X340462Y-150565D01*
X340407Y-150728D01*
X340353Y-150837D01*
X340244Y-150946D01*
X340081Y-151000D01*
X339700Y-151000D01*
X341588Y-151000D02*
X341153Y-149857D01*
X340718Y-151000D01*
X340881Y-150619D02*
X341425Y-150619D01*
X342236Y-149857D02*
X342236Y-151000D01*
X341855Y-149857D02*
X342617Y-149857D01*
X343460Y-149857D02*
X342753Y-149857D01*
X342753Y-151000D01*
X343460Y-151000D01*
X342753Y-150401D02*
X343188Y-150401D01*
X343705Y-150238D02*
X343651Y-150293D01*
X343705Y-150347D01*
X343760Y-150293D01*
X343705Y-150238D01*
X343705Y-150891D02*
X343651Y-150946D01*
X343705Y-151000D01*
X343760Y-150946D01*
X343705Y-150891D01*
X273381Y-135357D02*
X273381Y-136500D01*
X273000Y-135357D02*
X273762Y-135357D01*
X273898Y-135357D02*
X273898Y-136500D01*
X274518Y-135357D02*
X274518Y-136500D01*
X274137Y-135357D02*
X274899Y-135357D01*
X275035Y-135357D02*
X275035Y-136500D01*
X275688Y-136500D01*
X276521Y-135357D02*
X275813Y-135357D01*
X275813Y-136500D01*
X276521Y-136500D01*
X275813Y-135901D02*
X276249Y-135901D01*
X276766Y-135738D02*
X276711Y-135793D01*
X276766Y-135847D01*
X276820Y-135793D01*
X276766Y-135738D01*
X276766Y-136391D02*
X276711Y-136446D01*
X276766Y-136500D01*
X276820Y-136446D01*
X276766Y-136391D01*
D16*
X273076Y-152553D02*
X273000Y-152477D01*
X273076Y-152400D01*
X273152Y-152477D01*
X273152Y-152629D01*
X273076Y-152781D01*
X273000Y-152857D01*
X273579Y-153848D02*
X273503Y-153924D01*
X273579Y-154000D01*
X273655Y-153924D01*
X273579Y-153848D01*
X274006Y-153238D02*
X274691Y-153238D01*
X274920Y-153162D01*
X274996Y-153086D01*
X275072Y-152934D01*
X275072Y-152705D01*
X274996Y-152553D01*
X274920Y-152477D01*
X274691Y-152400D01*
X274006Y-152400D01*
X274006Y-154000D01*
X275430Y-152934D02*
X275430Y-154000D01*
X275430Y-153391D02*
X275506Y-153162D01*
X275658Y-153010D01*
X275811Y-152934D01*
X276039Y-152934D01*
X276565Y-152934D02*
X276413Y-153010D01*
X276260Y-153162D01*
X276184Y-153391D01*
X276184Y-153543D01*
X276260Y-153771D01*
X276413Y-153924D01*
X276565Y-154000D01*
X276793Y-154000D01*
X276946Y-153924D01*
X277098Y-153771D01*
X277174Y-153543D01*
X277174Y-153391D01*
X277098Y-153162D01*
X276946Y-153010D01*
X276793Y-152934D01*
X276565Y-152934D01*
X277829Y-152400D02*
X277906Y-152477D01*
X277982Y-152400D01*
X277906Y-152324D01*
X277829Y-152400D01*
X277906Y-152934D02*
X277906Y-154229D01*
X277829Y-154457D01*
X277677Y-154533D01*
X277525Y-154533D01*
X278279Y-153391D02*
X279193Y-153391D01*
X279193Y-153238D01*
X279117Y-153086D01*
X279041Y-153010D01*
X278888Y-152934D01*
X278660Y-152934D01*
X278507Y-153010D01*
X278355Y-153162D01*
X278279Y-153391D01*
X278279Y-153543D01*
X278355Y-153771D01*
X278507Y-153924D01*
X278660Y-154000D01*
X278888Y-154000D01*
X279041Y-153924D01*
X279193Y-153771D01*
X280450Y-153162D02*
X280297Y-153010D01*
X280145Y-152934D01*
X279917Y-152934D01*
X279764Y-153010D01*
X279612Y-153162D01*
X279536Y-153391D01*
X279536Y-153543D01*
X279612Y-153771D01*
X279764Y-153924D01*
X279917Y-154000D01*
X280145Y-154000D01*
X280297Y-153924D01*
X280450Y-153771D01*
X281021Y-152400D02*
X281021Y-153695D01*
X281097Y-153924D01*
X281250Y-154000D01*
X281402Y-154000D01*
X280793Y-152934D02*
X281326Y-152934D01*
X282621Y-152400D02*
X281631Y-152400D01*
X281631Y-154000D01*
X282621Y-154000D01*
X281631Y-153162D02*
X282240Y-153162D01*
X282887Y-152934D02*
X282887Y-154000D01*
X282887Y-153238D02*
X283116Y-153010D01*
X283268Y-152934D01*
X283497Y-152934D01*
X283649Y-153010D01*
X283725Y-153238D01*
X283725Y-154000D01*
X285058Y-152934D02*
X285058Y-154152D01*
X284982Y-154381D01*
X284906Y-154457D01*
X284754Y-154533D01*
X284525Y-154533D01*
X284373Y-154457D01*
X285058Y-153162D02*
X284906Y-153010D01*
X284754Y-152934D01*
X284525Y-152934D01*
X284373Y-153010D01*
X284220Y-153162D01*
X284144Y-153391D01*
X284144Y-153543D01*
X284220Y-153771D01*
X284373Y-153924D01*
X284525Y-154000D01*
X284754Y-154000D01*
X284906Y-153924D01*
X285058Y-153771D01*
X285637Y-152400D02*
X285713Y-152477D01*
X285790Y-152400D01*
X285713Y-152324D01*
X285637Y-152400D01*
X285713Y-152934D02*
X285713Y-154000D01*
X286072Y-152934D02*
X286072Y-154000D01*
X286072Y-153238D02*
X286300Y-153010D01*
X286452Y-152934D01*
X286681Y-152934D01*
X286833Y-153010D01*
X286909Y-153238D01*
X286909Y-154000D01*
X287328Y-153391D02*
X288242Y-153391D01*
X288242Y-153238D01*
X288166Y-153086D01*
X288090Y-153010D01*
X287938Y-152934D01*
X287709Y-152934D01*
X287557Y-153010D01*
X287405Y-153162D01*
X287328Y-153391D01*
X287328Y-153543D01*
X287405Y-153771D01*
X287557Y-153924D01*
X287709Y-154000D01*
X287938Y-154000D01*
X288090Y-153924D01*
X288242Y-153771D01*
X288585Y-153391D02*
X289499Y-153391D01*
X289499Y-153238D01*
X289423Y-153086D01*
X289347Y-153010D01*
X289195Y-152934D01*
X288966Y-152934D01*
X288814Y-153010D01*
X288661Y-153162D01*
X288585Y-153391D01*
X288585Y-153543D01*
X288661Y-153771D01*
X288814Y-153924D01*
X288966Y-154000D01*
X289195Y-154000D01*
X289347Y-153924D01*
X289499Y-153771D01*
X289842Y-152934D02*
X289842Y-154000D01*
X289842Y-153391D02*
X289918Y-153162D01*
X290071Y-153010D01*
X290223Y-152934D01*
X290452Y-152934D01*
X290672Y-152553D02*
X290596Y-152477D01*
X290672Y-152400D01*
X290749Y-152477D01*
X290749Y-152629D01*
X290672Y-152781D01*
X290596Y-152857D01*
X301457Y-152400D02*
X301229Y-152477D01*
X301076Y-152705D01*
X301000Y-153086D01*
X301000Y-153314D01*
X301076Y-153695D01*
X301229Y-153924D01*
X301457Y-154000D01*
X301609Y-154000D01*
X301838Y-153924D01*
X301990Y-153695D01*
X302066Y-153314D01*
X302066Y-153086D01*
X301990Y-152705D01*
X301838Y-152477D01*
X301609Y-152400D01*
X301457Y-152400D01*
X303186Y-152400D02*
X302424Y-153467D01*
X303567Y-153467D01*
X303186Y-152400D02*
X303186Y-154000D01*
X303849Y-153314D02*
X305220Y-153314D01*
X305769Y-152553D02*
X305692Y-152477D01*
X305769Y-152400D01*
X305845Y-152477D01*
X305845Y-152629D01*
X305769Y-152781D01*
X305692Y-152857D01*
X306271Y-153848D02*
X306195Y-153924D01*
X306271Y-154000D01*
X306347Y-153924D01*
X306271Y-153848D01*
X306698Y-153238D02*
X307383Y-153238D01*
X307612Y-153162D01*
X307688Y-153086D01*
X307764Y-152934D01*
X307764Y-152705D01*
X307688Y-152553D01*
X307612Y-152477D01*
X307383Y-152400D01*
X306698Y-152400D01*
X306698Y-154000D01*
X308122Y-152934D02*
X308122Y-154000D01*
X308122Y-153391D02*
X308198Y-153162D01*
X308351Y-153010D01*
X308503Y-152934D01*
X308732Y-152934D01*
X309257Y-152934D02*
X309105Y-153010D01*
X308953Y-153162D01*
X308876Y-153391D01*
X308876Y-153543D01*
X308953Y-153771D01*
X309105Y-153924D01*
X309257Y-154000D01*
X309486Y-154000D01*
X309638Y-153924D01*
X309790Y-153771D01*
X309867Y-153543D01*
X309867Y-153391D01*
X309790Y-153162D01*
X309638Y-153010D01*
X309486Y-152934D01*
X309257Y-152934D01*
X310522Y-152400D02*
X310598Y-152477D01*
X310674Y-152400D01*
X310598Y-152324D01*
X310522Y-152400D01*
X310598Y-152934D02*
X310598Y-154229D01*
X310522Y-154457D01*
X310369Y-154533D01*
X310217Y-154533D01*
X310971Y-153391D02*
X311885Y-153391D01*
X311885Y-153238D01*
X311809Y-153086D01*
X311733Y-153010D01*
X311581Y-152934D01*
X311352Y-152934D01*
X311200Y-153010D01*
X311047Y-153162D01*
X310971Y-153391D01*
X310971Y-153543D01*
X311047Y-153771D01*
X311200Y-153924D01*
X311352Y-154000D01*
X311581Y-154000D01*
X311733Y-153924D01*
X311885Y-153771D01*
X313142Y-153162D02*
X312990Y-153010D01*
X312837Y-152934D01*
X312609Y-152934D01*
X312457Y-153010D01*
X312304Y-153162D01*
X312228Y-153391D01*
X312228Y-153543D01*
X312304Y-153771D01*
X312457Y-153924D01*
X312609Y-154000D01*
X312837Y-154000D01*
X312990Y-153924D01*
X313142Y-153771D01*
X313713Y-152400D02*
X313713Y-153695D01*
X313790Y-153924D01*
X313942Y-154000D01*
X314094Y-154000D01*
X313485Y-152934D02*
X314018Y-152934D01*
X314323Y-153238D02*
X315008Y-153238D01*
X315237Y-153162D01*
X315313Y-153086D01*
X315389Y-152934D01*
X315389Y-152705D01*
X315313Y-152553D01*
X315237Y-152477D01*
X315008Y-152400D01*
X314323Y-152400D01*
X314323Y-154000D01*
X316890Y-152781D02*
X316814Y-152629D01*
X316661Y-152477D01*
X316509Y-152400D01*
X316204Y-152400D01*
X316052Y-152477D01*
X315900Y-152629D01*
X315823Y-152781D01*
X315747Y-153010D01*
X315747Y-153391D01*
X315823Y-153619D01*
X315900Y-153771D01*
X316052Y-153924D01*
X316204Y-154000D01*
X316509Y-154000D01*
X316661Y-153924D01*
X316814Y-153771D01*
X316890Y-153619D01*
X317339Y-152400D02*
X317339Y-154000D01*
X317339Y-152400D02*
X318025Y-152400D01*
X318253Y-152477D01*
X318330Y-152553D01*
X318406Y-152705D01*
X318406Y-152857D01*
X318330Y-153010D01*
X318253Y-153086D01*
X318025Y-153162D01*
X317339Y-153162D02*
X318025Y-153162D01*
X318253Y-153238D01*
X318330Y-153314D01*
X318406Y-153467D01*
X318406Y-153695D01*
X318330Y-153848D01*
X318253Y-153924D01*
X318025Y-154000D01*
X317339Y-154000D01*
X318764Y-152400D02*
X318764Y-154000D01*
X318764Y-152400D02*
X319830Y-154000D01*
X319830Y-152400D02*
X319830Y-154000D01*
X320272Y-152934D02*
X320272Y-153695D01*
X320348Y-153924D01*
X320501Y-154000D01*
X320729Y-154000D01*
X320881Y-153924D01*
X321110Y-153695D01*
X321110Y-152934D02*
X321110Y-154000D01*
X321529Y-152934D02*
X321529Y-154000D01*
X321529Y-153238D02*
X321757Y-153010D01*
X321910Y-152934D01*
X322138Y-152934D01*
X322291Y-153010D01*
X322367Y-153238D01*
X322367Y-154000D01*
X322367Y-153238D02*
X322595Y-153010D01*
X322748Y-152934D01*
X322976Y-152934D01*
X323129Y-153010D01*
X323205Y-153238D01*
X323205Y-154000D01*
X323708Y-152400D02*
X323708Y-154000D01*
X323708Y-153162D02*
X323860Y-153010D01*
X324012Y-152934D01*
X324241Y-152934D01*
X324393Y-153010D01*
X324545Y-153162D01*
X324622Y-153391D01*
X324622Y-153543D01*
X324545Y-153771D01*
X324393Y-153924D01*
X324241Y-154000D01*
X324012Y-154000D01*
X323860Y-153924D01*
X323708Y-153771D01*
X324964Y-153391D02*
X325878Y-153391D01*
X325878Y-153238D01*
X325802Y-153086D01*
X325726Y-153010D01*
X325574Y-152934D01*
X325345Y-152934D01*
X325193Y-153010D01*
X325041Y-153162D01*
X324964Y-153391D01*
X324964Y-153543D01*
X325041Y-153771D01*
X325193Y-153924D01*
X325345Y-154000D01*
X325574Y-154000D01*
X325726Y-153924D01*
X325878Y-153771D01*
X326221Y-152934D02*
X326221Y-154000D01*
X326221Y-153391D02*
X326297Y-153162D01*
X326450Y-153010D01*
X326602Y-152934D01*
X326831Y-152934D01*
X327052Y-152553D02*
X326975Y-152477D01*
X327052Y-152400D01*
X327128Y-152477D01*
X327128Y-152629D01*
X327052Y-152781D01*
X326975Y-152857D01*
D17*
X273076Y-146553D02*
X273000Y-146477D01*
X273076Y-146400D01*
X273152Y-146477D01*
X273152Y-146629D01*
X273076Y-146781D01*
X273000Y-146857D01*
X273579Y-147848D02*
X273503Y-147924D01*
X273579Y-148000D01*
X273655Y-147924D01*
X273579Y-147848D01*
X274006Y-147238D02*
X274691Y-147238D01*
X274920Y-147162D01*
X274996Y-147086D01*
X275072Y-146934D01*
X275072Y-146705D01*
X274996Y-146553D01*
X274920Y-146477D01*
X274691Y-146400D01*
X274006Y-146400D01*
X274006Y-148000D01*
X275430Y-146934D02*
X275430Y-148000D01*
X275430Y-147391D02*
X275506Y-147162D01*
X275658Y-147010D01*
X275811Y-146934D01*
X276039Y-146934D01*
X276565Y-146934D02*
X276413Y-147010D01*
X276260Y-147162D01*
X276184Y-147391D01*
X276184Y-147543D01*
X276260Y-147771D01*
X276413Y-147924D01*
X276565Y-148000D01*
X276793Y-148000D01*
X276946Y-147924D01*
X277098Y-147771D01*
X277174Y-147543D01*
X277174Y-147391D01*
X277098Y-147162D01*
X276946Y-147010D01*
X276793Y-146934D01*
X276565Y-146934D01*
X277829Y-146400D02*
X277906Y-146477D01*
X277982Y-146400D01*
X277906Y-146324D01*
X277829Y-146400D01*
X277906Y-146934D02*
X277906Y-148229D01*
X277829Y-148457D01*
X277677Y-148533D01*
X277525Y-148533D01*
X278279Y-147391D02*
X279193Y-147391D01*
X279193Y-147238D01*
X279117Y-147086D01*
X279041Y-147010D01*
X278888Y-146934D01*
X278660Y-146934D01*
X278507Y-147010D01*
X278355Y-147162D01*
X278279Y-147391D01*
X278279Y-147543D01*
X278355Y-147771D01*
X278507Y-147924D01*
X278660Y-148000D01*
X278888Y-148000D01*
X279041Y-147924D01*
X279193Y-147771D01*
X280450Y-147162D02*
X280297Y-147010D01*
X280145Y-146934D01*
X279917Y-146934D01*
X279764Y-147010D01*
X279612Y-147162D01*
X279536Y-147391D01*
X279536Y-147543D01*
X279612Y-147771D01*
X279764Y-147924D01*
X279917Y-148000D01*
X280145Y-148000D01*
X280297Y-147924D01*
X280450Y-147771D01*
X281021Y-146400D02*
X281021Y-147695D01*
X281097Y-147924D01*
X281250Y-148000D01*
X281402Y-148000D01*
X280793Y-146934D02*
X281326Y-146934D01*
X281631Y-146400D02*
X281631Y-148000D01*
X281631Y-146400D02*
X282164Y-146400D01*
X282392Y-146477D01*
X282545Y-146629D01*
X282621Y-146781D01*
X282697Y-147010D01*
X282697Y-147391D01*
X282621Y-147619D01*
X282545Y-147771D01*
X282392Y-147924D01*
X282164Y-148000D01*
X281631Y-148000D01*
X283055Y-146934D02*
X283055Y-148000D01*
X283055Y-147391D02*
X283131Y-147162D01*
X283284Y-147010D01*
X283436Y-146934D01*
X283664Y-146934D01*
X284723Y-146934D02*
X284723Y-148000D01*
X284723Y-147162D02*
X284571Y-147010D01*
X284419Y-146934D01*
X284190Y-146934D01*
X284038Y-147010D01*
X283885Y-147162D01*
X283809Y-147391D01*
X283809Y-147543D01*
X283885Y-147771D01*
X284038Y-147924D01*
X284190Y-148000D01*
X284419Y-148000D01*
X284571Y-147924D01*
X284723Y-147771D01*
X285150Y-146934D02*
X285454Y-148000D01*
X285759Y-146934D02*
X285454Y-148000D01*
X285759Y-146934D02*
X286064Y-148000D01*
X286369Y-146934D02*
X286064Y-148000D01*
X286742Y-146934D02*
X286742Y-148000D01*
X286742Y-147238D02*
X286970Y-147010D01*
X287123Y-146934D01*
X287351Y-146934D01*
X287504Y-147010D01*
X287580Y-147238D01*
X287580Y-148000D01*
X287999Y-146400D02*
X287999Y-148000D01*
X287999Y-146400D02*
X288684Y-146400D01*
X288913Y-146477D01*
X288989Y-146553D01*
X289065Y-146705D01*
X289065Y-146857D01*
X288989Y-147010D01*
X288913Y-147086D01*
X288684Y-147162D01*
X287999Y-147162D02*
X288684Y-147162D01*
X288913Y-147238D01*
X288989Y-147314D01*
X289065Y-147467D01*
X289065Y-147695D01*
X288989Y-147848D01*
X288913Y-147924D01*
X288684Y-148000D01*
X287999Y-148000D01*
X289499Y-146934D02*
X289956Y-148000D01*
X290413Y-146934D02*
X289956Y-148000D01*
X289804Y-148305D01*
X289652Y-148457D01*
X289499Y-148533D01*
X289423Y-148533D01*
X290756Y-146553D02*
X290680Y-146477D01*
X290756Y-146400D01*
X290832Y-146477D01*
X290832Y-146629D01*
X290756Y-146781D01*
X290680Y-146857D01*
X243270Y-157146D02*
X243185Y-156976D01*
X243016Y-156807D01*
X242846Y-156722D01*
X242508Y-156722D01*
X242339Y-156807D01*
X242169Y-156976D01*
X242085Y-157146D01*
X242000Y-157400D01*
X242000Y-157823D01*
X242085Y-158077D01*
X242169Y-158246D01*
X242339Y-158415D01*
X242508Y-158500D01*
X242846Y-158500D01*
X243016Y-158415D01*
X243185Y-158246D01*
X243270Y-158077D01*
X243769Y-156722D02*
X243769Y-158500D01*
X243769Y-157654D02*
X244023Y-157400D01*
X244192Y-157315D01*
X244446Y-157315D01*
X244616Y-157400D01*
X244700Y-157654D01*
X244700Y-158500D01*
X246182Y-157315D02*
X246182Y-158500D01*
X246182Y-157569D02*
X246012Y-157400D01*
X245843Y-157315D01*
X245589Y-157315D01*
X245420Y-157400D01*
X245251Y-157569D01*
X245166Y-157823D01*
X245166Y-157992D01*
X245251Y-158246D01*
X245420Y-158415D01*
X245589Y-158500D01*
X245843Y-158500D01*
X246012Y-158415D01*
X246182Y-158246D01*
X246656Y-157315D02*
X246656Y-158500D01*
X246656Y-157654D02*
X246910Y-157400D01*
X247079Y-157315D01*
X247333Y-157315D01*
X247502Y-157400D01*
X247587Y-157654D01*
X247587Y-158500D01*
X249068Y-156722D02*
X249068Y-158500D01*
X249068Y-157569D02*
X248899Y-157400D01*
X248730Y-157315D01*
X248476Y-157315D01*
X248306Y-157400D01*
X248137Y-157569D01*
X248052Y-157823D01*
X248052Y-157992D01*
X248137Y-158246D01*
X248306Y-158415D01*
X248476Y-158500D01*
X248730Y-158500D01*
X248899Y-158415D01*
X249068Y-158246D01*
X249542Y-156722D02*
X249542Y-158500D01*
X249915Y-157823D02*
X250930Y-157823D01*
X250930Y-157654D01*
X250846Y-157484D01*
X250761Y-157400D01*
X250592Y-157315D01*
X250338Y-157315D01*
X250169Y-157400D01*
X249999Y-157569D01*
X249915Y-157823D01*
X249915Y-157992D01*
X249999Y-158246D01*
X250169Y-158415D01*
X250338Y-158500D01*
X250592Y-158500D01*
X250761Y-158415D01*
X250930Y-158246D01*
X251311Y-157315D02*
X251311Y-158500D01*
X251311Y-157823D02*
X251396Y-157569D01*
X251565Y-157400D01*
X251735Y-157315D01*
X251989Y-157315D01*
X252319Y-158415D02*
X252234Y-158500D01*
X252149Y-158415D01*
X252234Y-158331D01*
X252319Y-158415D01*
X252319Y-158585D01*
X252234Y-158754D01*
X252149Y-158839D01*
X255459Y-158500D02*
X254782Y-156722D01*
X254105Y-158500D01*
X254359Y-157907D02*
X255205Y-157907D01*
X257059Y-156722D02*
X255874Y-158500D01*
X255874Y-156722D02*
X257059Y-156722D01*
X255874Y-158500D02*
X257059Y-158500D01*
X260673Y-156722D02*
X260420Y-156807D01*
X260335Y-156976D01*
X260335Y-157146D01*
X260420Y-157315D01*
X260589Y-157400D01*
X260927Y-157484D01*
X261181Y-157569D01*
X261351Y-157738D01*
X261435Y-157907D01*
X261435Y-158161D01*
X261351Y-158331D01*
X261266Y-158415D01*
X261012Y-158500D01*
X260673Y-158500D01*
X260420Y-158415D01*
X260335Y-158331D01*
X260250Y-158161D01*
X260250Y-157907D01*
X260335Y-157738D01*
X260504Y-157569D01*
X260758Y-157484D01*
X261097Y-157400D01*
X261266Y-157315D01*
X261351Y-157146D01*
X261351Y-156976D01*
X261266Y-156807D01*
X261012Y-156722D01*
X260673Y-156722D01*
X262849Y-156722D02*
X262002Y-156722D01*
X261918Y-157484D01*
X262002Y-157400D01*
X262256Y-157315D01*
X262510Y-157315D01*
X262764Y-157400D01*
X262934Y-157569D01*
X263018Y-157823D01*
X263018Y-157992D01*
X262934Y-158246D01*
X262764Y-158415D01*
X262510Y-158500D01*
X262256Y-158500D01*
X262002Y-158415D01*
X261918Y-158331D01*
X261833Y-158161D01*
X263501Y-157146D02*
X263501Y-157061D01*
X263585Y-156892D01*
X263670Y-156807D01*
X263839Y-156722D01*
X264178Y-156722D01*
X264347Y-156807D01*
X264432Y-156892D01*
X264517Y-157061D01*
X264517Y-157230D01*
X264432Y-157400D01*
X264263Y-157654D01*
X263416Y-158500D01*
X264601Y-158500D01*
X265084Y-157146D02*
X265084Y-157061D01*
X265168Y-156892D01*
X265253Y-156807D01*
X265422Y-156722D01*
X265761Y-156722D01*
X265930Y-156807D01*
X266015Y-156892D01*
X266099Y-157061D01*
X266099Y-157230D01*
X266015Y-157400D01*
X265845Y-157654D01*
X264999Y-158500D01*
X266184Y-158500D01*
X267428Y-156722D02*
X266582Y-157907D01*
X267852Y-157907D01*
X267428Y-156722D02*
X267428Y-158500D01*
X241085Y-154646D02*
X241085Y-154561D01*
X241169Y-154392D01*
X241254Y-154307D01*
X241423Y-154222D01*
X241762Y-154222D01*
X241931Y-154307D01*
X242016Y-154392D01*
X242100Y-154561D01*
X242100Y-154730D01*
X242016Y-154900D01*
X241846Y-155154D01*
X241000Y-156000D01*
X242185Y-156000D01*
X242752Y-154222D02*
X243683Y-154222D01*
X243175Y-154900D01*
X243429Y-154900D01*
X243599Y-154984D01*
X243683Y-155069D01*
X243768Y-155323D01*
X243768Y-155492D01*
X243683Y-155746D01*
X243514Y-155915D01*
X243260Y-156000D01*
X243006Y-156000D01*
X242752Y-155915D01*
X242668Y-155831D01*
X242583Y-155661D01*
X245182Y-154222D02*
X244335Y-154222D01*
X244251Y-154984D01*
X244335Y-154900D01*
X244589Y-154815D01*
X244843Y-154815D01*
X245097Y-154900D01*
X245266Y-155069D01*
X245351Y-155323D01*
X245351Y-155492D01*
X245266Y-155746D01*
X245097Y-155915D01*
X244843Y-156000D01*
X244589Y-156000D01*
X244335Y-155915D01*
X244251Y-155831D01*
X244166Y-155661D01*
X246765Y-154222D02*
X245918Y-154222D01*
X245833Y-154984D01*
X245918Y-154900D01*
X246172Y-154815D01*
X246426Y-154815D01*
X246680Y-154900D01*
X246849Y-155069D01*
X246934Y-155323D01*
X246934Y-155492D01*
X246849Y-155746D01*
X246680Y-155915D01*
X246426Y-156000D01*
X246172Y-156000D01*
X245918Y-155915D01*
X245833Y-155831D01*
X245749Y-155661D01*
X248728Y-154222D02*
X249152Y-156000D01*
X249575Y-154222D02*
X249152Y-156000D01*
X249575Y-154222D02*
X249998Y-156000D01*
X250421Y-154222D02*
X249998Y-156000D01*
X250862Y-155831D02*
X250777Y-155915D01*
X250862Y-156000D01*
X250946Y-155915D01*
X250862Y-155831D01*
X254002Y-154646D02*
X253917Y-154476D01*
X253748Y-154307D01*
X253579Y-154222D01*
X253240Y-154222D01*
X253071Y-154307D01*
X252902Y-154476D01*
X252817Y-154646D01*
X252732Y-154900D01*
X252732Y-155323D01*
X252817Y-155577D01*
X252902Y-155746D01*
X253071Y-155915D01*
X253240Y-156000D01*
X253579Y-156000D01*
X253748Y-155915D01*
X253917Y-155746D01*
X254002Y-155577D01*
X254501Y-154222D02*
X254501Y-156000D01*
X254501Y-155154D02*
X254755Y-154900D01*
X254925Y-154815D01*
X255179Y-154815D01*
X255348Y-154900D01*
X255433Y-155154D01*
X255433Y-156000D01*
X256914Y-154815D02*
X256914Y-156000D01*
X256914Y-155069D02*
X256745Y-154900D01*
X256575Y-154815D01*
X256321Y-154815D01*
X256152Y-154900D01*
X255983Y-155069D01*
X255898Y-155323D01*
X255898Y-155492D01*
X255983Y-155746D01*
X256152Y-155915D01*
X256321Y-156000D01*
X256575Y-156000D01*
X256745Y-155915D01*
X256914Y-155746D01*
X257388Y-154815D02*
X257388Y-156000D01*
X257388Y-155154D02*
X257642Y-154900D01*
X257811Y-154815D01*
X258065Y-154815D01*
X258234Y-154900D01*
X258319Y-155154D01*
X258319Y-156000D01*
X259800Y-154222D02*
X259800Y-156000D01*
X259800Y-155069D02*
X259631Y-154900D01*
X259462Y-154815D01*
X259208Y-154815D01*
X259039Y-154900D01*
X258869Y-155069D01*
X258785Y-155323D01*
X258785Y-155492D01*
X258869Y-155746D01*
X259039Y-155915D01*
X259208Y-156000D01*
X259462Y-156000D01*
X259631Y-155915D01*
X259800Y-155746D01*
X260274Y-154222D02*
X260274Y-156000D01*
X260647Y-155323D02*
X261663Y-155323D01*
X261663Y-155154D01*
X261578Y-154984D01*
X261493Y-154900D01*
X261324Y-154815D01*
X261070Y-154815D01*
X260901Y-154900D01*
X260732Y-155069D01*
X260647Y-155323D01*
X260647Y-155492D01*
X260732Y-155746D01*
X260901Y-155915D01*
X261070Y-156000D01*
X261324Y-156000D01*
X261493Y-155915D01*
X261663Y-155746D01*
X262044Y-154815D02*
X262044Y-156000D01*
X262044Y-155323D02*
X262128Y-155069D01*
X262298Y-154900D01*
X262467Y-154815D01*
X262721Y-154815D01*
X264278Y-154222D02*
X264278Y-156000D01*
X264278Y-154222D02*
X265040Y-154222D01*
X265294Y-154307D01*
X265379Y-154392D01*
X265463Y-154561D01*
X265463Y-154730D01*
X265379Y-154900D01*
X265294Y-154984D01*
X265040Y-155069D01*
X264278Y-155069D02*
X265040Y-155069D01*
X265294Y-155154D01*
X265379Y-155238D01*
X265463Y-155407D01*
X265463Y-155661D01*
X265379Y-155831D01*
X265294Y-155915D01*
X265040Y-156000D01*
X264278Y-156000D01*
X265861Y-154222D02*
X265861Y-156000D01*
X266234Y-154815D02*
X266742Y-156000D01*
X267250Y-154815D02*
X266742Y-156000D01*
X268553Y-154222D02*
X268553Y-156000D01*
X268553Y-155069D02*
X268384Y-154900D01*
X268215Y-154815D01*
X267961Y-154815D01*
X267791Y-154900D01*
X267622Y-155069D01*
X267537Y-155323D01*
X267537Y-155492D01*
X267622Y-155746D01*
X267791Y-155915D01*
X267961Y-156000D01*
X268215Y-156000D01*
X268384Y-155915D01*
X268553Y-155746D01*
X269112Y-155831D02*
X269027Y-155915D01*
X269112Y-156000D01*
X269196Y-155915D01*
X269112Y-155831D01*
X239770Y-151482D02*
X239770Y-153260D01*
X239770Y-151482D02*
X240447Y-153260D01*
X241124Y-151482D02*
X240447Y-153260D01*
X241124Y-151482D02*
X241124Y-153260D01*
X241802Y-151482D02*
X241886Y-151567D01*
X241971Y-151482D01*
X241886Y-151398D01*
X241802Y-151482D01*
X241886Y-152075D02*
X241886Y-153260D01*
X243300Y-152329D02*
X243131Y-152160D01*
X242961Y-152075D01*
X242707Y-152075D01*
X242538Y-152160D01*
X242369Y-152329D01*
X242284Y-152583D01*
X242284Y-152752D01*
X242369Y-153006D01*
X242538Y-153175D01*
X242707Y-153260D01*
X242961Y-153260D01*
X243131Y-153175D01*
X243300Y-153006D01*
X243681Y-152075D02*
X243681Y-153260D01*
X243681Y-152583D02*
X243765Y-152329D01*
X243935Y-152160D01*
X244104Y-152075D01*
X244358Y-152075D01*
X244942Y-152075D02*
X244773Y-152160D01*
X244603Y-152329D01*
X244519Y-152583D01*
X244519Y-152752D01*
X244603Y-153006D01*
X244773Y-153175D01*
X244942Y-153260D01*
X245196Y-153260D01*
X245365Y-153175D01*
X245535Y-153006D01*
X245619Y-152752D01*
X245619Y-152583D01*
X245535Y-152329D01*
X245365Y-152160D01*
X245196Y-152075D01*
X244942Y-152075D01*
X247024Y-152329D02*
X246855Y-152160D01*
X246686Y-152075D01*
X246432Y-152075D01*
X246263Y-152160D01*
X246093Y-152329D01*
X246009Y-152583D01*
X246009Y-152752D01*
X246093Y-153006D01*
X246263Y-153175D01*
X246432Y-153260D01*
X246686Y-153260D01*
X246855Y-153175D01*
X247024Y-153006D01*
X247405Y-151482D02*
X247405Y-153260D01*
X247405Y-152413D02*
X247659Y-152160D01*
X247829Y-152075D01*
X248083Y-152075D01*
X248252Y-152160D01*
X248336Y-152413D01*
X248336Y-153260D01*
X248971Y-151482D02*
X249056Y-151567D01*
X249141Y-151482D01*
X249056Y-151398D01*
X248971Y-151482D01*
X249056Y-152075D02*
X249056Y-153260D01*
X249454Y-152075D02*
X249454Y-153853D01*
X249454Y-152329D02*
X249623Y-152160D01*
X249792Y-152075D01*
X250046Y-152075D01*
X250216Y-152160D01*
X250385Y-152329D01*
X250470Y-152583D01*
X250470Y-152752D01*
X250385Y-153006D01*
X250216Y-153175D01*
X250046Y-153260D01*
X249792Y-153260D01*
X249623Y-153175D01*
X249454Y-153006D01*
X252840Y-151482D02*
X252840Y-153260D01*
X252247Y-151482D02*
X253432Y-151482D01*
X253644Y-152583D02*
X254660Y-152583D01*
X254660Y-152413D01*
X254575Y-152244D01*
X254490Y-152160D01*
X254321Y-152075D01*
X254067Y-152075D01*
X253898Y-152160D01*
X253729Y-152329D01*
X253644Y-152583D01*
X253644Y-152752D01*
X253729Y-153006D01*
X253898Y-153175D01*
X254067Y-153260D01*
X254321Y-153260D01*
X254490Y-153175D01*
X254660Y-153006D01*
X256056Y-152329D02*
X255887Y-152160D01*
X255718Y-152075D01*
X255464Y-152075D01*
X255295Y-152160D01*
X255125Y-152329D01*
X255041Y-152583D01*
X255041Y-152752D01*
X255125Y-153006D01*
X255295Y-153175D01*
X255464Y-153260D01*
X255718Y-153260D01*
X255887Y-153175D01*
X256056Y-153006D01*
X256437Y-151482D02*
X256437Y-153260D01*
X256437Y-152413D02*
X256691Y-152160D01*
X256861Y-152075D01*
X257115Y-152075D01*
X257284Y-152160D01*
X257368Y-152413D01*
X257368Y-153260D01*
X257834Y-152075D02*
X257834Y-153260D01*
X257834Y-152413D02*
X258088Y-152160D01*
X258257Y-152075D01*
X258511Y-152075D01*
X258680Y-152160D01*
X258765Y-152413D01*
X258765Y-153260D01*
X259654Y-152075D02*
X259485Y-152160D01*
X259315Y-152329D01*
X259231Y-152583D01*
X259231Y-152752D01*
X259315Y-153006D01*
X259485Y-153175D01*
X259654Y-153260D01*
X259908Y-153260D01*
X260077Y-153175D01*
X260246Y-153006D01*
X260331Y-152752D01*
X260331Y-152583D01*
X260246Y-152329D01*
X260077Y-152160D01*
X259908Y-152075D01*
X259654Y-152075D01*
X260721Y-151482D02*
X260721Y-153260D01*
X261516Y-152075D02*
X261347Y-152160D01*
X261178Y-152329D01*
X261093Y-152583D01*
X261093Y-152752D01*
X261178Y-153006D01*
X261347Y-153175D01*
X261516Y-153260D01*
X261770Y-153260D01*
X261939Y-153175D01*
X262109Y-153006D01*
X262193Y-152752D01*
X262193Y-152583D01*
X262109Y-152329D01*
X261939Y-152160D01*
X261770Y-152075D01*
X261516Y-152075D01*
X263599Y-152075D02*
X263599Y-153429D01*
X263514Y-153683D01*
X263429Y-153768D01*
X263260Y-153853D01*
X263006Y-153853D01*
X262837Y-153768D01*
X263599Y-152329D02*
X263429Y-152160D01*
X263260Y-152075D01*
X263006Y-152075D01*
X262837Y-152160D01*
X262667Y-152329D01*
X262583Y-152583D01*
X262583Y-152752D01*
X262667Y-153006D01*
X262837Y-153175D01*
X263006Y-153260D01*
X263260Y-153260D01*
X263429Y-153175D01*
X263599Y-153006D01*
X264157Y-152075D02*
X264665Y-153260D01*
X265173Y-152075D02*
X264665Y-153260D01*
X264496Y-153599D01*
X264327Y-153768D01*
X264157Y-153853D01*
X264073Y-153853D01*
X266866Y-151482D02*
X266866Y-153260D01*
X267238Y-152075D02*
X267238Y-153260D01*
X267238Y-152413D02*
X267492Y-152160D01*
X267662Y-152075D01*
X267916Y-152075D01*
X268085Y-152160D01*
X268170Y-152413D01*
X268170Y-153260D01*
X269651Y-152329D02*
X269482Y-152160D01*
X269312Y-152075D01*
X269058Y-152075D01*
X268889Y-152160D01*
X268720Y-152329D01*
X268635Y-152583D01*
X268635Y-152752D01*
X268720Y-153006D01*
X268889Y-153175D01*
X269058Y-153260D01*
X269312Y-153260D01*
X269482Y-153175D01*
X269651Y-153006D01*
X270117Y-153091D02*
X270032Y-153175D01*
X270117Y-153260D01*
X270201Y-153175D01*
X270117Y-153091D01*
X301071Y-146643D02*
X301000Y-146572D01*
X301071Y-146500D01*
X301143Y-146572D01*
X301143Y-146715D01*
X301071Y-146857D01*
X301000Y-146929D01*
X301900Y-146500D02*
X301686Y-146572D01*
X301543Y-146786D01*
X301471Y-147143D01*
X301471Y-147357D01*
X301543Y-147714D01*
X301686Y-147929D01*
X301900Y-148000D01*
X302043Y-148000D01*
X302257Y-147929D01*
X302400Y-147714D01*
X302471Y-147357D01*
X302471Y-147143D01*
X302400Y-146786D01*
X302257Y-146572D01*
X302043Y-146500D01*
X301900Y-146500D01*
X303664Y-146500D02*
X302950Y-146500D01*
X302878Y-147143D01*
X302950Y-147072D01*
X303164Y-147000D01*
X303378Y-147000D01*
X303592Y-147072D01*
X303735Y-147214D01*
X303807Y-147429D01*
X303807Y-147572D01*
X303735Y-147786D01*
X303592Y-147929D01*
X303378Y-148000D01*
X303164Y-148000D01*
X302950Y-147929D01*
X302878Y-147857D01*
X302807Y-147714D01*
X304142Y-147357D02*
X305428Y-147357D01*
X305870Y-147286D02*
X306513Y-147286D01*
X306727Y-147214D01*
X306799Y-147143D01*
X306870Y-147000D01*
X306870Y-146786D01*
X306799Y-146643D01*
X306727Y-146572D01*
X306513Y-146500D01*
X305870Y-146500D01*
X305870Y-148000D01*
X307206Y-147000D02*
X307206Y-148000D01*
X307206Y-147429D02*
X307277Y-147214D01*
X307420Y-147072D01*
X307563Y-147000D01*
X307777Y-147000D01*
X308270Y-147000D02*
X308127Y-147072D01*
X307984Y-147214D01*
X307913Y-147429D01*
X307913Y-147572D01*
X307984Y-147786D01*
X308127Y-147929D01*
X308270Y-148000D01*
X308484Y-148000D01*
X308627Y-147929D01*
X308770Y-147786D01*
X308841Y-147572D01*
X308841Y-147429D01*
X308770Y-147214D01*
X308627Y-147072D01*
X308484Y-147000D01*
X308270Y-147000D01*
X309455Y-146500D02*
X309527Y-146572D01*
X309598Y-146500D01*
X309527Y-146429D01*
X309455Y-146500D01*
X309527Y-147000D02*
X309527Y-148214D01*
X309455Y-148428D01*
X309313Y-148500D01*
X309170Y-148500D01*
X309877Y-147429D02*
X310734Y-147429D01*
X310734Y-147286D01*
X310662Y-147143D01*
X310591Y-147072D01*
X310448Y-147000D01*
X310234Y-147000D01*
X310091Y-147072D01*
X309948Y-147214D01*
X309877Y-147429D01*
X309877Y-147572D01*
X309948Y-147786D01*
X310091Y-147929D01*
X310234Y-148000D01*
X310448Y-148000D01*
X310591Y-147929D01*
X310734Y-147786D01*
X311912Y-147214D02*
X311769Y-147072D01*
X311626Y-147000D01*
X311412Y-147000D01*
X311269Y-147072D01*
X311126Y-147214D01*
X311055Y-147429D01*
X311055Y-147572D01*
X311126Y-147786D01*
X311269Y-147929D01*
X311412Y-148000D01*
X311626Y-148000D01*
X311769Y-147929D01*
X311912Y-147786D01*
X312448Y-146500D02*
X312448Y-147714D01*
X312519Y-147929D01*
X312662Y-148000D01*
X312805Y-148000D01*
X312233Y-147000D02*
X312733Y-147000D01*
X313019Y-147286D02*
X313662Y-147286D01*
X313876Y-147214D01*
X313947Y-147143D01*
X314019Y-147000D01*
X314019Y-146786D01*
X313947Y-146643D01*
X313876Y-146572D01*
X313662Y-146500D01*
X313019Y-146500D01*
X313019Y-148000D01*
X315425Y-146857D02*
X315354Y-146715D01*
X315211Y-146572D01*
X315068Y-146500D01*
X314783Y-146500D01*
X314640Y-146572D01*
X314497Y-146715D01*
X314426Y-146857D01*
X314354Y-147072D01*
X314354Y-147429D01*
X314426Y-147643D01*
X314497Y-147786D01*
X314640Y-147929D01*
X314783Y-148000D01*
X315068Y-148000D01*
X315211Y-147929D01*
X315354Y-147786D01*
X315425Y-147643D01*
X315847Y-146500D02*
X315847Y-148000D01*
X315847Y-146500D02*
X316490Y-146500D01*
X316704Y-146572D01*
X316775Y-146643D01*
X316847Y-146786D01*
X316847Y-146929D01*
X316775Y-147072D01*
X316704Y-147143D01*
X316490Y-147214D01*
X315847Y-147214D02*
X316490Y-147214D01*
X316704Y-147286D01*
X316775Y-147357D01*
X316847Y-147500D01*
X316847Y-147714D01*
X316775Y-147857D01*
X316704Y-147929D01*
X316490Y-148000D01*
X315847Y-148000D01*
X317182Y-146500D02*
X317182Y-148000D01*
X317182Y-146500D02*
X318182Y-148000D01*
X318182Y-146500D02*
X318182Y-148000D01*
X318596Y-147000D02*
X318596Y-147714D01*
X318668Y-147929D01*
X318810Y-148000D01*
X319025Y-148000D01*
X319168Y-147929D01*
X319382Y-147714D01*
X319382Y-147000D02*
X319382Y-148000D01*
X319775Y-147000D02*
X319775Y-148000D01*
X319775Y-147286D02*
X319989Y-147072D01*
X320132Y-147000D01*
X320346Y-147000D01*
X320489Y-147072D01*
X320560Y-147286D01*
X320560Y-148000D01*
X320560Y-147286D02*
X320774Y-147072D01*
X320917Y-147000D01*
X321131Y-147000D01*
X321274Y-147072D01*
X321346Y-147286D01*
X321346Y-148000D01*
X321817Y-146500D02*
X321817Y-148000D01*
X321817Y-147214D02*
X321960Y-147072D01*
X322103Y-147000D01*
X322317Y-147000D01*
X322460Y-147072D01*
X322603Y-147214D01*
X322674Y-147429D01*
X322674Y-147572D01*
X322603Y-147786D01*
X322460Y-147929D01*
X322317Y-148000D01*
X322103Y-148000D01*
X321960Y-147929D01*
X321817Y-147786D01*
X322995Y-147429D02*
X323852Y-147429D01*
X323852Y-147286D01*
X323781Y-147143D01*
X323709Y-147072D01*
X323567Y-147000D01*
X323352Y-147000D01*
X323210Y-147072D01*
X323067Y-147214D01*
X322995Y-147429D01*
X322995Y-147572D01*
X323067Y-147786D01*
X323210Y-147929D01*
X323352Y-148000D01*
X323567Y-148000D01*
X323709Y-147929D01*
X323852Y-147786D01*
X324174Y-147000D02*
X324174Y-148000D01*
X324174Y-147429D02*
X324245Y-147214D01*
X324388Y-147072D01*
X324531Y-147000D01*
X324745Y-147000D01*
X324881Y-147357D02*
X326166Y-147357D01*
X326609Y-146500D02*
X326609Y-148000D01*
X326609Y-146500D02*
X327252Y-146500D01*
X327466Y-146572D01*
X327537Y-146643D01*
X327609Y-146786D01*
X327609Y-146929D01*
X327537Y-147072D01*
X327466Y-147143D01*
X327252Y-147214D01*
X326609Y-147214D01*
X327109Y-147214D02*
X327609Y-148000D01*
X327944Y-147286D02*
X328587Y-147286D01*
X328801Y-147214D01*
X328873Y-147143D01*
X328944Y-147000D01*
X328944Y-146786D01*
X328873Y-146643D01*
X328801Y-146572D01*
X328587Y-146500D01*
X327944Y-146500D01*
X327944Y-148000D01*
X329280Y-147000D02*
X329280Y-148000D01*
X329280Y-147429D02*
X329351Y-147214D01*
X329494Y-147072D01*
X329637Y-147000D01*
X329851Y-147000D01*
X330344Y-147000D02*
X330201Y-147072D01*
X330058Y-147214D01*
X329987Y-147429D01*
X329987Y-147572D01*
X330058Y-147786D01*
X330201Y-147929D01*
X330344Y-148000D01*
X330558Y-148000D01*
X330701Y-147929D01*
X330844Y-147786D01*
X330915Y-147572D01*
X330915Y-147429D01*
X330844Y-147214D01*
X330701Y-147072D01*
X330558Y-147000D01*
X330344Y-147000D01*
X331529Y-146500D02*
X331601Y-146572D01*
X331672Y-146500D01*
X331601Y-146429D01*
X331529Y-146500D01*
X331601Y-147000D02*
X331601Y-148214D01*
X331529Y-148428D01*
X331386Y-148500D01*
X331244Y-148500D01*
X331951Y-147429D02*
X332807Y-147429D01*
X332807Y-147286D01*
X332736Y-147143D01*
X332665Y-147072D01*
X332522Y-147000D01*
X332308Y-147000D01*
X332165Y-147072D01*
X332022Y-147214D01*
X331951Y-147429D01*
X331951Y-147572D01*
X332022Y-147786D01*
X332165Y-147929D01*
X332308Y-148000D01*
X332522Y-148000D01*
X332665Y-147929D01*
X332807Y-147786D01*
X333986Y-147214D02*
X333843Y-147072D01*
X333700Y-147000D01*
X333486Y-147000D01*
X333343Y-147072D01*
X333200Y-147214D01*
X333129Y-147429D01*
X333129Y-147572D01*
X333200Y-147786D01*
X333343Y-147929D01*
X333486Y-148000D01*
X333700Y-148000D01*
X333843Y-147929D01*
X333986Y-147786D01*
X334521Y-146500D02*
X334521Y-147714D01*
X334593Y-147929D01*
X334736Y-148000D01*
X334878Y-148000D01*
X334307Y-147000D02*
X334807Y-147000D01*
X335093Y-146500D02*
X335093Y-148000D01*
X335093Y-146500D02*
X335735Y-146500D01*
X335950Y-146572D01*
X336021Y-146643D01*
X336092Y-146786D01*
X336092Y-146929D01*
X336021Y-147072D01*
X335950Y-147143D01*
X335735Y-147214D01*
X335093Y-147214D01*
X335593Y-147214D02*
X336092Y-148000D01*
X336428Y-147429D02*
X337285Y-147429D01*
X337285Y-147286D01*
X337214Y-147143D01*
X337142Y-147072D01*
X336999Y-147000D01*
X336785Y-147000D01*
X336642Y-147072D01*
X336500Y-147214D01*
X336428Y-147429D01*
X336428Y-147572D01*
X336500Y-147786D01*
X336642Y-147929D01*
X336785Y-148000D01*
X336999Y-148000D01*
X337142Y-147929D01*
X337285Y-147786D01*
X337606Y-147000D02*
X338035Y-148000D01*
X338463Y-147000D02*
X338035Y-148000D01*
X338849Y-146500D02*
X338920Y-146572D01*
X338992Y-146500D01*
X338920Y-146429D01*
X338849Y-146500D01*
X338920Y-147000D02*
X338920Y-148000D01*
X340042Y-147214D02*
X339970Y-147072D01*
X339756Y-147000D01*
X339542Y-147000D01*
X339328Y-147072D01*
X339256Y-147214D01*
X339328Y-147357D01*
X339470Y-147429D01*
X339827Y-147500D01*
X339970Y-147572D01*
X340042Y-147714D01*
X340042Y-147786D01*
X339970Y-147929D01*
X339756Y-148000D01*
X339542Y-148000D01*
X339328Y-147929D01*
X339256Y-147786D01*
X340499Y-146500D02*
X340570Y-146572D01*
X340642Y-146500D01*
X340570Y-146429D01*
X340499Y-146500D01*
X340570Y-147000D02*
X340570Y-148000D01*
X341263Y-147000D02*
X341120Y-147072D01*
X340977Y-147214D01*
X340906Y-147429D01*
X340906Y-147572D01*
X340977Y-147786D01*
X341120Y-147929D01*
X341263Y-148000D01*
X341477Y-148000D01*
X341620Y-147929D01*
X341763Y-147786D01*
X341834Y-147572D01*
X341834Y-147429D01*
X341763Y-147214D01*
X341620Y-147072D01*
X341477Y-147000D01*
X341263Y-147000D01*
X342163Y-147000D02*
X342163Y-148000D01*
X342163Y-147286D02*
X342377Y-147072D01*
X342520Y-147000D01*
X342734Y-147000D01*
X342877Y-147072D01*
X342948Y-147286D01*
X342948Y-148000D01*
X344484Y-148000D02*
X343912Y-146500D01*
X343341Y-148000D01*
X343555Y-147500D02*
X344269Y-147500D01*
X344833Y-146500D02*
X344833Y-148000D01*
X344833Y-146500D02*
X345476Y-146500D01*
X345690Y-146572D01*
X345762Y-146643D01*
X345833Y-146786D01*
X345833Y-146929D01*
X345762Y-147072D01*
X345690Y-147143D01*
X345476Y-147214D01*
X344833Y-147214D01*
X345333Y-147214D02*
X345833Y-148000D01*
X346669Y-146500D02*
X346669Y-148000D01*
X346169Y-146500D02*
X347169Y-146500D01*
X347419Y-147857D02*
X347347Y-147929D01*
X347419Y-148000D01*
X347490Y-147929D01*
X347419Y-147857D01*
X348890Y-146857D02*
X348818Y-146715D01*
X348676Y-146572D01*
X348533Y-146500D01*
X348247Y-146500D01*
X348104Y-146572D01*
X347961Y-146715D01*
X347890Y-146857D01*
X347819Y-147072D01*
X347819Y-147429D01*
X347890Y-147643D01*
X347961Y-147786D01*
X348104Y-147929D01*
X348247Y-148000D01*
X348533Y-148000D01*
X348676Y-147929D01*
X348818Y-147786D01*
X348890Y-147643D01*
X348890Y-147429D01*
X348533Y-147429D02*
X348890Y-147429D01*
X350304Y-146857D02*
X350232Y-146715D01*
X350089Y-146572D01*
X349947Y-146500D01*
X349661Y-146500D01*
X349518Y-146572D01*
X349375Y-146715D01*
X349304Y-146857D01*
X349233Y-147072D01*
X349233Y-147429D01*
X349304Y-147643D01*
X349375Y-147786D01*
X349518Y-147929D01*
X349661Y-148000D01*
X349947Y-148000D01*
X350089Y-147929D01*
X350232Y-147786D01*
X350304Y-147643D01*
X350304Y-147429D01*
X349947Y-147429D02*
X350304Y-147429D01*
X350647Y-146786D02*
X350789Y-146715D01*
X351004Y-146500D01*
X351004Y-148000D01*
X351818Y-146643D02*
X351746Y-146572D01*
X351818Y-146500D01*
X351889Y-146572D01*
X351889Y-146715D01*
X351818Y-146857D01*
X351746Y-146929D01*
X327582Y-161198D02*
X327497Y-161029D01*
X327243Y-160944D01*
X327074Y-160944D01*
X326820Y-161029D01*
X326650Y-161283D01*
X326566Y-161706D01*
X326566Y-162129D01*
X326650Y-162468D01*
X326820Y-162637D01*
X327074Y-162722D01*
X327158Y-162722D01*
X327412Y-162637D01*
X327582Y-162468D01*
X327666Y-162214D01*
X327666Y-162129D01*
X327582Y-161876D01*
X327412Y-161706D01*
X327158Y-161622D01*
X327074Y-161622D01*
X326820Y-161706D01*
X326650Y-161876D01*
X326566Y-162129D01*
X263955Y-160944D02*
X263108Y-160944D01*
X263023Y-161706D01*
X263108Y-161622D01*
X263362Y-161537D01*
X263616Y-161537D01*
X263870Y-161622D01*
X264039Y-161791D01*
X264124Y-162045D01*
X264124Y-162214D01*
X264039Y-162468D01*
X263870Y-162637D01*
X263616Y-162722D01*
X263362Y-162722D01*
X263108Y-162637D01*
X263023Y-162553D01*
X262939Y-162383D01*
X200311Y-160944D02*
X199464Y-162129D01*
X200734Y-162129D01*
X200311Y-160944D02*
X200311Y-162722D01*
X135964Y-160944D02*
X136896Y-160944D01*
X136388Y-161622D01*
X136642Y-161622D01*
X136811Y-161706D01*
X136896Y-161791D01*
X136980Y-162045D01*
X136980Y-162214D01*
X136896Y-162468D01*
X136726Y-162637D01*
X136472Y-162722D01*
X136218Y-162722D01*
X135964Y-162637D01*
X135880Y-162553D01*
X135795Y-162383D01*
X72650Y-161368D02*
X72650Y-161283D01*
X72735Y-161114D01*
X72820Y-161029D01*
X72989Y-160944D01*
X73328Y-160944D01*
X73497Y-161029D01*
X73582Y-161114D01*
X73666Y-161283D01*
X73666Y-161452D01*
X73582Y-161622D01*
X73412Y-161876D01*
X72566Y-162722D01*
X73751Y-162722D01*
X9176Y-161283D02*
X9345Y-161198D01*
X9599Y-160944D01*
X9599Y-162722D01*
X-20195Y-134732D02*
X-20195Y-136509D01*
X-20195Y-134732D02*
X-19602Y-134732D01*
X-19348Y-134816D01*
X-19179Y-134986D01*
X-19095Y-135155D01*
X-19010Y-135409D01*
X-19010Y-135832D01*
X-19095Y-136086D01*
X-19179Y-136255D01*
X-19348Y-136425D01*
X-19602Y-136509D01*
X-20195Y-136509D01*
X-18925Y-74957D02*
X-19010Y-74788D01*
X-19179Y-74618D01*
X-19348Y-74534D01*
X-19687Y-74534D01*
X-19856Y-74618D01*
X-20026Y-74788D01*
X-20110Y-74957D01*
X-20195Y-75211D01*
X-20195Y-75634D01*
X-20110Y-75888D01*
X-20026Y-76057D01*
X-19856Y-76227D01*
X-19687Y-76311D01*
X-19348Y-76311D01*
X-19179Y-76227D01*
X-19010Y-76057D01*
X-18925Y-75888D01*
X-20195Y-14209D02*
X-20195Y-15986D01*
X-20195Y-14209D02*
X-19433Y-14209D01*
X-19179Y-14293D01*
X-19095Y-14378D01*
X-19010Y-14547D01*
X-19010Y-14716D01*
X-19095Y-14886D01*
X-19179Y-14970D01*
X-19433Y-15055D01*
X-20195Y-15055D02*
X-19433Y-15055D01*
X-19179Y-15140D01*
X-19095Y-15224D01*
X-19010Y-15394D01*
X-19010Y-15648D01*
X-19095Y-15817D01*
X-19179Y-15902D01*
X-19433Y-15986D01*
X-20195Y-15986D01*
X-18841Y44466D02*
X-19518Y46243D01*
X-20195Y44466D01*
X-19941Y45058D02*
X-19095Y45058D01*
X355725Y-134732D02*
X355725Y-136509D01*
X355725Y-134732D02*
X356318Y-134732D01*
X356572Y-134816D01*
X356741Y-134986D01*
X356825Y-135155D01*
X356910Y-135409D01*
X356910Y-135832D01*
X356825Y-136086D01*
X356741Y-136255D01*
X356572Y-136425D01*
X356318Y-136509D01*
X355725Y-136509D01*
X356995Y-74957D02*
X356910Y-74788D01*
X356741Y-74618D01*
X356572Y-74534D01*
X356233Y-74534D01*
X356064Y-74618D01*
X355894Y-74788D01*
X355810Y-74957D01*
X355725Y-75211D01*
X355725Y-75634D01*
X355810Y-75888D01*
X355894Y-76057D01*
X356064Y-76227D01*
X356233Y-76311D01*
X356572Y-76311D01*
X356741Y-76227D01*
X356910Y-76057D01*
X356995Y-75888D01*
X355725Y-14209D02*
X355725Y-15986D01*
X355725Y-14209D02*
X356487Y-14209D01*
X356741Y-14293D01*
X356825Y-14378D01*
X356910Y-14547D01*
X356910Y-14716D01*
X356825Y-14886D01*
X356741Y-14970D01*
X356487Y-15055D01*
X355725Y-15055D02*
X356487Y-15055D01*
X356741Y-15140D01*
X356825Y-15224D01*
X356910Y-15394D01*
X356910Y-15648D01*
X356825Y-15817D01*
X356741Y-15902D01*
X356487Y-15986D01*
X355725Y-15986D01*
X357079Y44466D02*
X356402Y46243D01*
X355725Y44466D01*
X355979Y45058D02*
X356825Y45058D01*
X327582Y75022D02*
X327497Y75191D01*
X327243Y75276D01*
X327074Y75276D01*
X326820Y75191D01*
X326650Y74937D01*
X326566Y74514D01*
X326566Y74091D01*
X326650Y73752D01*
X326820Y73583D01*
X327074Y73498D01*
X327158Y73498D01*
X327412Y73583D01*
X327582Y73752D01*
X327666Y74006D01*
X327666Y74091D01*
X327582Y74344D01*
X327412Y74514D01*
X327158Y74598D01*
X327074Y74598D01*
X326820Y74514D01*
X326650Y74344D01*
X326566Y74091D01*
X263955Y75276D02*
X263108Y75276D01*
X263023Y74514D01*
X263108Y74598D01*
X263362Y74683D01*
X263616Y74683D01*
X263870Y74598D01*
X264039Y74429D01*
X264124Y74175D01*
X264124Y74006D01*
X264039Y73752D01*
X263870Y73583D01*
X263616Y73498D01*
X263362Y73498D01*
X263108Y73583D01*
X263023Y73667D01*
X262939Y73837D01*
X200311Y75276D02*
X199464Y74091D01*
X200734Y74091D01*
X200311Y75276D02*
X200311Y73498D01*
X135964Y75276D02*
X136896Y75276D01*
X136388Y74598D01*
X136642Y74598D01*
X136811Y74514D01*
X136896Y74429D01*
X136980Y74175D01*
X136980Y74006D01*
X136896Y73752D01*
X136726Y73583D01*
X136472Y73498D01*
X136218Y73498D01*
X135964Y73583D01*
X135880Y73667D01*
X135795Y73837D01*
X72650Y74852D02*
X72650Y74937D01*
X72735Y75106D01*
X72820Y75191D01*
X72989Y75276D01*
X73328Y75276D01*
X73497Y75191D01*
X73582Y75106D01*
X73666Y74937D01*
X73666Y74768D01*
X73582Y74598D01*
X73412Y74344D01*
X72566Y73498D01*
X73751Y73498D01*
X9176Y74937D02*
X9345Y75022D01*
X9599Y75276D01*
X9599Y73498D01*
D18*
X273000Y-156202D02*
X273493Y-156202D01*
X273657Y-156148D01*
X273712Y-156093D01*
X273767Y-155983D01*
X273767Y-155819D01*
X273712Y-155710D01*
X273657Y-155655D01*
X273493Y-155600D01*
X273000Y-155600D01*
X273000Y-156750D01*
X274845Y-155874D02*
X274790Y-155764D01*
X274681Y-155655D01*
X274571Y-155600D01*
X274352Y-155600D01*
X274243Y-155655D01*
X274133Y-155764D01*
X274079Y-155874D01*
X274024Y-156038D01*
X274024Y-156312D01*
X274079Y-156476D01*
X274133Y-156586D01*
X274243Y-156695D01*
X274352Y-156750D01*
X274571Y-156750D01*
X274681Y-156695D01*
X274790Y-156586D01*
X274845Y-156476D01*
X275168Y-155600D02*
X275168Y-156750D01*
X275168Y-155600D02*
X275661Y-155600D01*
X275825Y-155655D01*
X275880Y-155710D01*
X275935Y-155819D01*
X275935Y-155929D01*
X275880Y-156038D01*
X275825Y-156093D01*
X275661Y-156148D01*
X275168Y-156148D02*
X275661Y-156148D01*
X275825Y-156202D01*
X275880Y-156257D01*
X275935Y-156367D01*
X275935Y-156531D01*
X275880Y-156640D01*
X275825Y-156695D01*
X275661Y-156750D01*
X275168Y-156750D01*
X277095Y-155600D02*
X277095Y-156750D01*
X277095Y-155600D02*
X277807Y-155600D01*
X277095Y-156148D02*
X277533Y-156148D01*
X277938Y-155600D02*
X277938Y-156750D01*
X278179Y-155600D02*
X278179Y-156750D01*
X278836Y-156750D01*
X279674Y-155600D02*
X278962Y-155600D01*
X278962Y-156750D01*
X279674Y-156750D01*
X278962Y-156148D02*
X279400Y-156148D01*
X280769Y-155600D02*
X280769Y-156750D01*
X280769Y-155600D02*
X281536Y-156750D01*
X281536Y-155600D02*
X281536Y-156750D01*
X282729Y-156750D02*
X282291Y-155600D01*
X281853Y-156750D01*
X282017Y-156367D02*
X282565Y-156367D01*
X282997Y-155600D02*
X282997Y-156750D01*
X282997Y-155600D02*
X283435Y-156750D01*
X283873Y-155600D02*
X283435Y-156750D01*
X283873Y-155600D02*
X283873Y-156750D01*
X284914Y-155600D02*
X284202Y-155600D01*
X284202Y-156750D01*
X284914Y-156750D01*
X284202Y-156148D02*
X284640Y-156148D01*
X285160Y-155983D02*
X285105Y-156038D01*
X285160Y-156093D01*
X285215Y-156038D01*
X285160Y-155983D01*
X285160Y-156640D02*
X285105Y-156695D01*
X285160Y-156750D01*
X285215Y-156695D01*
X285160Y-156640D01*
X273714Y-157988D02*
X273667Y-157893D01*
X273571Y-157798D01*
X273476Y-157750D01*
X273286Y-157750D01*
X273190Y-157798D01*
X273095Y-157893D01*
X273048Y-157988D01*
X273000Y-158131D01*
X273000Y-158369D01*
X273048Y-158512D01*
X273095Y-158607D01*
X273190Y-158702D01*
X273286Y-158750D01*
X273476Y-158750D01*
X273571Y-158702D01*
X273667Y-158607D01*
X273714Y-158512D01*
X273714Y-158369D01*
X273476Y-158369D02*
X273714Y-158369D01*
X273943Y-158274D02*
X274371Y-158274D01*
X274514Y-158226D01*
X274562Y-158179D01*
X274609Y-158083D01*
X274609Y-157941D01*
X274562Y-157845D01*
X274514Y-157798D01*
X274371Y-157750D01*
X273943Y-157750D01*
X273943Y-158750D01*
X275499Y-157893D02*
X275404Y-157798D01*
X275261Y-157750D01*
X275071Y-157750D01*
X274928Y-157798D01*
X274833Y-157893D01*
X274833Y-157988D01*
X274881Y-158083D01*
X274928Y-158131D01*
X275023Y-158179D01*
X275309Y-158274D01*
X275404Y-158322D01*
X275452Y-158369D01*
X275499Y-158464D01*
X275499Y-158607D01*
X275404Y-158702D01*
X275261Y-158750D01*
X275071Y-158750D01*
X274928Y-158702D01*
X274833Y-158607D01*
X275723Y-159083D02*
X276485Y-159083D01*
X276947Y-157750D02*
X276947Y-158750D01*
X276614Y-157750D02*
X277280Y-157750D01*
X277399Y-157750D02*
X277399Y-158750D01*
X277399Y-157750D02*
X277828Y-157750D01*
X277970Y-157798D01*
X278018Y-157845D01*
X278066Y-157941D01*
X278066Y-158036D01*
X278018Y-158131D01*
X277970Y-158179D01*
X277828Y-158226D01*
X277399Y-158226D01*
X277732Y-158226D02*
X278066Y-158750D01*
X279051Y-158750D02*
X278670Y-157750D01*
X278289Y-158750D01*
X278432Y-158417D02*
X278908Y-158417D01*
X279999Y-157988D02*
X279951Y-157893D01*
X279856Y-157798D01*
X279760Y-157750D01*
X279570Y-157750D01*
X279475Y-157798D01*
X279380Y-157893D01*
X279332Y-157988D01*
X279284Y-158131D01*
X279284Y-158369D01*
X279332Y-158512D01*
X279380Y-158607D01*
X279475Y-158702D01*
X279570Y-158750D01*
X279760Y-158750D01*
X279856Y-158702D01*
X279951Y-158607D01*
X279999Y-158512D01*
X280279Y-157750D02*
X280279Y-158750D01*
X280946Y-157750D02*
X280279Y-158417D01*
X280517Y-158179D02*
X280946Y-158750D01*
X281789Y-157750D02*
X281170Y-157750D01*
X281170Y-158750D01*
X281789Y-158750D01*
X281170Y-158226D02*
X281551Y-158226D01*
X281955Y-157750D02*
X281955Y-158750D01*
X281955Y-157750D02*
X282384Y-157750D01*
X282527Y-157798D01*
X282574Y-157845D01*
X282622Y-157941D01*
X282622Y-158036D01*
X282574Y-158131D01*
X282527Y-158179D01*
X282384Y-158226D01*
X281955Y-158226D01*
X282289Y-158226D02*
X282622Y-158750D01*
X282893Y-158655D02*
X282846Y-158702D01*
X282893Y-158750D01*
X282941Y-158702D01*
X282893Y-158655D01*
X283160Y-158274D02*
X283588Y-158274D01*
X283731Y-158226D01*
X283779Y-158179D01*
X283826Y-158083D01*
X283826Y-157941D01*
X283779Y-157845D01*
X283731Y-157798D01*
X283588Y-157750D01*
X283160Y-157750D01*
X283160Y-158750D01*
X284621Y-158226D02*
X284526Y-158131D01*
X284431Y-158083D01*
X284288Y-158083D01*
X284193Y-158131D01*
X284098Y-158226D01*
X284050Y-158369D01*
X284050Y-158464D01*
X284098Y-158607D01*
X284193Y-158702D01*
X284288Y-158750D01*
X284431Y-158750D01*
X284526Y-158702D01*
X284621Y-158607D01*
X284836Y-157750D02*
X284836Y-158750D01*
X284836Y-158226D02*
X284931Y-158131D01*
X285026Y-158083D01*
X285169Y-158083D01*
X285264Y-158131D01*
X285359Y-158226D01*
X285407Y-158369D01*
X285407Y-158464D01*
X285359Y-158607D01*
X285264Y-158702D01*
X285169Y-158750D01*
X285026Y-158750D01*
X284931Y-158702D01*
X284836Y-158607D01*
X285621Y-157750D02*
X285621Y-158750D01*
X285621Y-157750D02*
X285954Y-157750D01*
X286097Y-157798D01*
X286192Y-157893D01*
X286240Y-157988D01*
X286288Y-158131D01*
X286288Y-158369D01*
X286240Y-158512D01*
X286192Y-158607D01*
X286097Y-158702D01*
X285954Y-158750D01*
X285621Y-158750D01*
X286749Y-158083D02*
X286654Y-158131D01*
X286559Y-158226D01*
X286511Y-158369D01*
X286511Y-158464D01*
X286559Y-158607D01*
X286654Y-158702D01*
X286749Y-158750D01*
X286892Y-158750D01*
X286987Y-158702D01*
X287083Y-158607D01*
X287130Y-158464D01*
X287130Y-158369D01*
X287083Y-158226D01*
X286987Y-158131D01*
X286892Y-158083D01*
X286749Y-158083D01*
X287921Y-158226D02*
X287825Y-158131D01*
X287730Y-158083D01*
X287587Y-158083D01*
X287492Y-158131D01*
X287397Y-158226D01*
X287349Y-158369D01*
X287349Y-158464D01*
X287397Y-158607D01*
X287492Y-158702D01*
X287587Y-158750D01*
X287730Y-158750D01*
X287825Y-158702D01*
X287921Y-158607D01*
X273000Y-144452D02*
X273493Y-144452D01*
X273657Y-144398D01*
X273712Y-144343D01*
X273767Y-144233D01*
X273767Y-144069D01*
X273712Y-143960D01*
X273657Y-143905D01*
X273493Y-143850D01*
X273000Y-143850D01*
X273000Y-145000D01*
X274845Y-144124D02*
X274790Y-144014D01*
X274681Y-143905D01*
X274571Y-143850D01*
X274352Y-143850D01*
X274243Y-143905D01*
X274133Y-144014D01*
X274079Y-144124D01*
X274024Y-144288D01*
X274024Y-144562D01*
X274079Y-144726D01*
X274133Y-144836D01*
X274243Y-144945D01*
X274352Y-145000D01*
X274571Y-145000D01*
X274681Y-144945D01*
X274790Y-144836D01*
X274845Y-144726D01*
X275168Y-143850D02*
X275168Y-145000D01*
X275168Y-143850D02*
X275661Y-143850D01*
X275825Y-143905D01*
X275880Y-143960D01*
X275935Y-144069D01*
X275935Y-144179D01*
X275880Y-144288D01*
X275825Y-144343D01*
X275661Y-144398D01*
X275168Y-144398D02*
X275661Y-144398D01*
X275825Y-144452D01*
X275880Y-144507D01*
X275935Y-144617D01*
X275935Y-144781D01*
X275880Y-144890D01*
X275825Y-144945D01*
X275661Y-145000D01*
X275168Y-145000D01*
X277095Y-143850D02*
X277095Y-145000D01*
X277752Y-145000D01*
X278535Y-144233D02*
X278535Y-145000D01*
X278535Y-144398D02*
X278426Y-144288D01*
X278316Y-144233D01*
X278152Y-144233D01*
X278043Y-144288D01*
X277933Y-144398D01*
X277878Y-144562D01*
X277878Y-144671D01*
X277933Y-144836D01*
X278043Y-144945D01*
X278152Y-145000D01*
X278316Y-145000D01*
X278426Y-144945D01*
X278535Y-144836D01*
X278897Y-144233D02*
X279225Y-145000D01*
X279554Y-144233D02*
X279225Y-145000D01*
X279116Y-145219D01*
X279006Y-145328D01*
X278897Y-145383D01*
X278842Y-145383D01*
X280019Y-144233D02*
X279909Y-144288D01*
X279800Y-144398D01*
X279745Y-144562D01*
X279745Y-144671D01*
X279800Y-144836D01*
X279909Y-144945D01*
X280019Y-145000D01*
X280183Y-145000D01*
X280293Y-144945D01*
X280402Y-144836D01*
X280457Y-144671D01*
X280457Y-144562D01*
X280402Y-144398D01*
X280293Y-144288D01*
X280183Y-144233D01*
X280019Y-144233D01*
X280709Y-144233D02*
X280709Y-144781D01*
X280764Y-144945D01*
X280873Y-145000D01*
X281037Y-145000D01*
X281147Y-144945D01*
X281311Y-144781D01*
X281311Y-144233D02*
X281311Y-145000D01*
X281776Y-143850D02*
X281776Y-144781D01*
X281831Y-144945D01*
X281941Y-145000D01*
X282050Y-145000D01*
X281612Y-144233D02*
X281995Y-144233D01*
X283939Y-144124D02*
X283884Y-144014D01*
X283775Y-143905D01*
X283665Y-143850D01*
X283446Y-143850D01*
X283337Y-143905D01*
X283227Y-144014D01*
X283173Y-144124D01*
X283118Y-144288D01*
X283118Y-144562D01*
X283173Y-144726D01*
X283227Y-144836D01*
X283337Y-144945D01*
X283446Y-145000D01*
X283665Y-145000D01*
X283775Y-144945D01*
X283884Y-144836D01*
X283939Y-144726D01*
X284536Y-144233D02*
X284426Y-144288D01*
X284317Y-144398D01*
X284262Y-144562D01*
X284262Y-144671D01*
X284317Y-144836D01*
X284426Y-144945D01*
X284536Y-145000D01*
X284700Y-145000D01*
X284810Y-144945D01*
X284919Y-144836D01*
X284974Y-144671D01*
X284974Y-144562D01*
X284919Y-144398D01*
X284810Y-144288D01*
X284700Y-144233D01*
X284536Y-144233D01*
X285226Y-144233D02*
X285226Y-145000D01*
X285226Y-144452D02*
X285390Y-144288D01*
X285499Y-144233D01*
X285664Y-144233D01*
X285773Y-144288D01*
X285828Y-144452D01*
X285828Y-145000D01*
X286293Y-143850D02*
X286293Y-144781D01*
X286348Y-144945D01*
X286458Y-145000D01*
X286567Y-145000D01*
X286129Y-144233D02*
X286512Y-144233D01*
X287388Y-144233D02*
X287388Y-145000D01*
X287388Y-144398D02*
X287279Y-144288D01*
X287169Y-144233D01*
X287005Y-144233D01*
X286896Y-144288D01*
X286786Y-144398D01*
X286731Y-144562D01*
X286731Y-144671D01*
X286786Y-144836D01*
X286896Y-144945D01*
X287005Y-145000D01*
X287169Y-145000D01*
X287279Y-144945D01*
X287388Y-144836D01*
X288352Y-144398D02*
X288242Y-144288D01*
X288133Y-144233D01*
X287969Y-144233D01*
X287859Y-144288D01*
X287750Y-144398D01*
X287695Y-144562D01*
X287695Y-144671D01*
X287750Y-144836D01*
X287859Y-144945D01*
X287969Y-145000D01*
X288133Y-145000D01*
X288242Y-144945D01*
X288352Y-144836D01*
X288763Y-143850D02*
X288763Y-144781D01*
X288817Y-144945D01*
X288927Y-145000D01*
X289036Y-145000D01*
X288598Y-144233D02*
X288982Y-144233D01*
X289255Y-144233D02*
X289201Y-144288D01*
X289255Y-144343D01*
X289310Y-144288D01*
X289255Y-144233D01*
X289255Y-144890D02*
X289201Y-144945D01*
X289255Y-145000D01*
X289310Y-144945D01*
X289255Y-144890D01*
X273000Y-150452D02*
X273493Y-150452D01*
X273657Y-150398D01*
X273712Y-150343D01*
X273767Y-150233D01*
X273767Y-150069D01*
X273712Y-149960D01*
X273657Y-149905D01*
X273493Y-149850D01*
X273000Y-149850D01*
X273000Y-151000D01*
X274024Y-150233D02*
X274024Y-151000D01*
X274024Y-150562D02*
X274079Y-150398D01*
X274188Y-150288D01*
X274298Y-150233D01*
X274462Y-150233D01*
X274840Y-150233D02*
X274730Y-150288D01*
X274621Y-150398D01*
X274566Y-150562D01*
X274566Y-150671D01*
X274621Y-150836D01*
X274730Y-150945D01*
X274840Y-151000D01*
X275004Y-151000D01*
X275113Y-150945D01*
X275223Y-150836D01*
X275278Y-150671D01*
X275278Y-150562D01*
X275223Y-150398D01*
X275113Y-150288D01*
X275004Y-150233D01*
X274840Y-150233D01*
X275748Y-149850D02*
X275803Y-149905D01*
X275858Y-149850D01*
X275803Y-149795D01*
X275748Y-149850D01*
X275803Y-150233D02*
X275803Y-151164D01*
X275748Y-151328D01*
X275639Y-151383D01*
X275529Y-151383D01*
X276072Y-150562D02*
X276728Y-150562D01*
X276728Y-150452D01*
X276674Y-150343D01*
X276619Y-150288D01*
X276509Y-150233D01*
X276345Y-150233D01*
X276236Y-150288D01*
X276126Y-150398D01*
X276072Y-150562D01*
X276072Y-150671D01*
X276126Y-150836D01*
X276236Y-150945D01*
X276345Y-151000D01*
X276509Y-151000D01*
X276619Y-150945D01*
X276728Y-150836D01*
X277632Y-150398D02*
X277522Y-150288D01*
X277413Y-150233D01*
X277249Y-150233D01*
X277139Y-150288D01*
X277030Y-150398D01*
X276975Y-150562D01*
X276975Y-150671D01*
X277030Y-150836D01*
X277139Y-150945D01*
X277249Y-151000D01*
X277413Y-151000D01*
X277522Y-150945D01*
X277632Y-150836D01*
X278043Y-149850D02*
X278043Y-150781D01*
X278097Y-150945D01*
X278207Y-151000D01*
X278316Y-151000D01*
X277878Y-150233D02*
X278262Y-150233D01*
X279712Y-149850D02*
X279603Y-149905D01*
X279493Y-150014D01*
X279439Y-150124D01*
X279384Y-150288D01*
X279384Y-150562D01*
X279439Y-150726D01*
X279493Y-150836D01*
X279603Y-150945D01*
X279712Y-151000D01*
X279931Y-151000D01*
X280041Y-150945D01*
X280150Y-150836D01*
X280205Y-150726D01*
X280260Y-150562D01*
X280260Y-150288D01*
X280205Y-150124D01*
X280150Y-150014D01*
X280041Y-149905D01*
X279931Y-149850D01*
X279712Y-149850D01*
X280528Y-150233D02*
X280747Y-151000D01*
X280966Y-150233D02*
X280747Y-151000D01*
X280966Y-150233D02*
X281185Y-151000D01*
X281404Y-150233D02*
X281185Y-151000D01*
X281672Y-150233D02*
X281672Y-151000D01*
X281672Y-150452D02*
X281837Y-150288D01*
X281946Y-150233D01*
X282110Y-150233D01*
X282220Y-150288D01*
X282275Y-150452D01*
X282275Y-151000D01*
X282576Y-150562D02*
X283233Y-150562D01*
X283233Y-150452D01*
X283178Y-150343D01*
X283123Y-150288D01*
X283014Y-150233D01*
X282850Y-150233D01*
X282740Y-150288D01*
X282631Y-150398D01*
X282576Y-150562D01*
X282576Y-150671D01*
X282631Y-150836D01*
X282740Y-150945D01*
X282850Y-151000D01*
X283014Y-151000D01*
X283123Y-150945D01*
X283233Y-150836D01*
X283479Y-150233D02*
X283479Y-151000D01*
X283479Y-150562D02*
X283534Y-150398D01*
X283643Y-150288D01*
X283753Y-150233D01*
X283917Y-150233D01*
X284076Y-150233D02*
X284021Y-150288D01*
X284076Y-150343D01*
X284131Y-150288D01*
X284076Y-150233D01*
X284076Y-150890D02*
X284021Y-150945D01*
X284076Y-151000D01*
X284131Y-150945D01*
X284076Y-150890D01*
X301000Y-149850D02*
X301000Y-151000D01*
X301000Y-149850D02*
X301493Y-149850D01*
X301657Y-149905D01*
X301712Y-149960D01*
X301767Y-150069D01*
X301767Y-150179D01*
X301712Y-150288D01*
X301657Y-150343D01*
X301493Y-150398D01*
X301000Y-150398D02*
X301493Y-150398D01*
X301657Y-150452D01*
X301712Y-150507D01*
X301767Y-150617D01*
X301767Y-150781D01*
X301712Y-150890D01*
X301657Y-150945D01*
X301493Y-151000D01*
X301000Y-151000D01*
X302352Y-149850D02*
X302243Y-149905D01*
X302133Y-150014D01*
X302079Y-150124D01*
X302024Y-150288D01*
X302024Y-150562D01*
X302079Y-150726D01*
X302133Y-150836D01*
X302243Y-150945D01*
X302352Y-151000D01*
X302571Y-151000D01*
X302681Y-150945D01*
X302790Y-150836D01*
X302845Y-150726D01*
X302900Y-150562D01*
X302900Y-150288D01*
X302845Y-150124D01*
X302790Y-150014D01*
X302681Y-149905D01*
X302571Y-149850D01*
X302352Y-149850D01*
X304044Y-151000D02*
X303606Y-149850D01*
X303168Y-151000D01*
X303332Y-150617D02*
X303880Y-150617D01*
X304312Y-149850D02*
X304312Y-151000D01*
X304312Y-149850D02*
X304805Y-149850D01*
X304969Y-149905D01*
X305024Y-149960D01*
X305079Y-150069D01*
X305079Y-150179D01*
X305024Y-150288D01*
X304969Y-150343D01*
X304805Y-150398D01*
X304312Y-150398D01*
X304696Y-150398D02*
X305079Y-151000D01*
X305336Y-149850D02*
X305336Y-151000D01*
X305336Y-149850D02*
X305719Y-149850D01*
X305884Y-149905D01*
X305993Y-150014D01*
X306048Y-150124D01*
X306103Y-150288D01*
X306103Y-150562D01*
X306048Y-150726D01*
X305993Y-150836D01*
X305884Y-150945D01*
X305719Y-151000D01*
X305336Y-151000D01*
X307263Y-149850D02*
X307263Y-151000D01*
X307263Y-149850D02*
X308030Y-151000D01*
X308030Y-149850D02*
X308030Y-151000D01*
X308348Y-149850D02*
X308348Y-150671D01*
X308402Y-150836D01*
X308512Y-150945D01*
X308676Y-151000D01*
X308785Y-151000D01*
X308950Y-150945D01*
X309059Y-150836D01*
X309114Y-150671D01*
X309114Y-149850D01*
X309432Y-149850D02*
X309432Y-151000D01*
X309432Y-149850D02*
X309870Y-151000D01*
X310308Y-149850D02*
X309870Y-151000D01*
X310308Y-149850D02*
X310308Y-151000D01*
X310636Y-149850D02*
X310636Y-151000D01*
X310636Y-149850D02*
X311129Y-149850D01*
X311293Y-149905D01*
X311348Y-149960D01*
X311403Y-150069D01*
X311403Y-150179D01*
X311348Y-150288D01*
X311293Y-150343D01*
X311129Y-150398D01*
X310636Y-150398D02*
X311129Y-150398D01*
X311293Y-150452D01*
X311348Y-150507D01*
X311403Y-150617D01*
X311403Y-150781D01*
X311348Y-150890D01*
X311293Y-150945D01*
X311129Y-151000D01*
X310636Y-151000D01*
X312372Y-149850D02*
X311660Y-149850D01*
X311660Y-151000D01*
X312372Y-151000D01*
X311660Y-150398D02*
X312098Y-150398D01*
X312563Y-149850D02*
X312563Y-151000D01*
X312563Y-149850D02*
X313056Y-149850D01*
X313220Y-149905D01*
X313275Y-149960D01*
X313330Y-150069D01*
X313330Y-150179D01*
X313275Y-150288D01*
X313220Y-150343D01*
X313056Y-150398D01*
X312563Y-150398D01*
X312947Y-150398D02*
X313330Y-151000D01*
X313642Y-150233D02*
X313587Y-150288D01*
X313642Y-150343D01*
X313697Y-150288D01*
X313642Y-150233D01*
X313642Y-150890D02*
X313587Y-150945D01*
X313642Y-151000D01*
X313697Y-150945D01*
X313642Y-150890D01*
X301821Y-144124D02*
X301767Y-144014D01*
X301657Y-143905D01*
X301548Y-143850D01*
X301329Y-143850D01*
X301219Y-143905D01*
X301109Y-144014D01*
X301055Y-144124D01*
X301000Y-144288D01*
X301000Y-144562D01*
X301055Y-144726D01*
X301109Y-144836D01*
X301219Y-144945D01*
X301329Y-145000D01*
X301548Y-145000D01*
X301657Y-144945D01*
X301767Y-144836D01*
X301821Y-144726D01*
X301821Y-144562D01*
X301548Y-144562D02*
X301821Y-144562D01*
X302796Y-143850D02*
X302084Y-143850D01*
X302084Y-145000D01*
X302796Y-145000D01*
X302084Y-144398D02*
X302522Y-144398D01*
X302987Y-143850D02*
X302987Y-145000D01*
X302987Y-143850D02*
X303480Y-143850D01*
X303644Y-143905D01*
X303699Y-143960D01*
X303754Y-144069D01*
X303754Y-144179D01*
X303699Y-144288D01*
X303644Y-144343D01*
X303480Y-144398D01*
X302987Y-144398D01*
X303371Y-144398D02*
X303754Y-145000D01*
X304011Y-143850D02*
X304011Y-145000D01*
X304011Y-143850D02*
X304504Y-143850D01*
X304668Y-143905D01*
X304723Y-143960D01*
X304778Y-144069D01*
X304778Y-144179D01*
X304723Y-144288D01*
X304668Y-144343D01*
X304504Y-144398D01*
X304011Y-144398D02*
X304504Y-144398D01*
X304668Y-144452D01*
X304723Y-144507D01*
X304778Y-144617D01*
X304778Y-144781D01*
X304723Y-144890D01*
X304668Y-144945D01*
X304504Y-145000D01*
X304011Y-145000D01*
X305747Y-143850D02*
X305035Y-143850D01*
X305035Y-145000D01*
X305747Y-145000D01*
X305035Y-144398D02*
X305473Y-144398D01*
X305938Y-143850D02*
X305938Y-145000D01*
X305938Y-143850D02*
X306431Y-143850D01*
X306595Y-143905D01*
X306650Y-143960D01*
X306705Y-144069D01*
X306705Y-144179D01*
X306650Y-144288D01*
X306595Y-144343D01*
X306431Y-144398D01*
X305938Y-144398D01*
X306322Y-144398D02*
X306705Y-145000D01*
X307866Y-143850D02*
X307866Y-145000D01*
X307866Y-143850D02*
X308577Y-143850D01*
X307866Y-144398D02*
X308304Y-144398D01*
X308709Y-143850D02*
X308709Y-145000D01*
X308950Y-143850D02*
X308950Y-145000D01*
X309607Y-145000D01*
X310444Y-143850D02*
X309733Y-143850D01*
X309733Y-145000D01*
X310444Y-145000D01*
X309733Y-144398D02*
X310171Y-144398D01*
X310691Y-144233D02*
X310636Y-144288D01*
X310691Y-144343D01*
X310746Y-144288D01*
X310691Y-144233D01*
X310691Y-144890D02*
X310636Y-144945D01*
X310691Y-145000D01*
X310746Y-144945D01*
X310691Y-144890D01*
X340700Y-152500D02*
X339986Y-154000D01*
X339700Y-152500D02*
X340700Y-152500D01*
X341035Y-154214D02*
X342035Y-152500D01*
X342849Y-152500D02*
X342135Y-153500D01*
X343206Y-153500D01*
X342849Y-152500D02*
X342849Y-154000D01*
X343471Y-154214D02*
X344470Y-152500D01*
X344642Y-152857D02*
X344642Y-152786D01*
X344713Y-152643D01*
X344785Y-152572D01*
X344927Y-152500D01*
X345213Y-152500D01*
X345356Y-152572D01*
X345427Y-152643D01*
X345499Y-152786D01*
X345499Y-152929D01*
X345427Y-153072D01*
X345285Y-153286D01*
X344570Y-154000D01*
X345570Y-154000D01*
X346334Y-152500D02*
X346120Y-152572D01*
X345977Y-152786D01*
X345906Y-153143D01*
X345906Y-153357D01*
X345977Y-153714D01*
X346120Y-153929D01*
X346334Y-154000D01*
X346477Y-154000D01*
X346691Y-153929D01*
X346834Y-153714D01*
X346906Y-153357D01*
X346906Y-153143D01*
X346834Y-152786D01*
X346691Y-152572D01*
X346477Y-152500D01*
X346334Y-152500D01*
X347313Y-152857D02*
X347313Y-152786D01*
X347384Y-152643D01*
X347455Y-152572D01*
X347598Y-152500D01*
X347884Y-152500D01*
X348027Y-152572D01*
X348098Y-152643D01*
X348170Y-152786D01*
X348170Y-152929D01*
X348098Y-153072D01*
X347955Y-153286D01*
X347241Y-154000D01*
X348241Y-154000D01*
X348648Y-152857D02*
X348648Y-152786D01*
X348720Y-152643D01*
X348791Y-152572D01*
X348934Y-152500D01*
X349219Y-152500D01*
X349362Y-152572D01*
X349434Y-152643D01*
X349505Y-152786D01*
X349505Y-152929D01*
X349434Y-153072D01*
X349291Y-153286D01*
X348577Y-154000D01*
X349576Y-154000D01*
X325000Y-135524D02*
X325428Y-135524D01*
X325571Y-135476D01*
X325619Y-135429D01*
X325667Y-135333D01*
X325667Y-135191D01*
X325619Y-135095D01*
X325571Y-135048D01*
X325428Y-135000D01*
X325000Y-135000D01*
X325000Y-136000D01*
X326652Y-136000D02*
X326271Y-135000D01*
X325890Y-136000D01*
X326033Y-135667D02*
X326509Y-135667D01*
X326885Y-135000D02*
X326885Y-136000D01*
X326885Y-135000D02*
X327314Y-135000D01*
X327457Y-135048D01*
X327504Y-135095D01*
X327552Y-135191D01*
X327552Y-135286D01*
X327504Y-135381D01*
X327457Y-135429D01*
X327314Y-135476D01*
X326885Y-135476D01*
X327219Y-135476D02*
X327552Y-136000D01*
X328109Y-135000D02*
X328109Y-136000D01*
X327776Y-135000D02*
X328442Y-135000D01*
X329347Y-135000D02*
X329347Y-136000D01*
X329347Y-135000D02*
X330013Y-136000D01*
X330013Y-135000D02*
X330013Y-136000D01*
X330289Y-135000D02*
X330289Y-135714D01*
X330337Y-135857D01*
X330432Y-135952D01*
X330575Y-136000D01*
X330670Y-136000D01*
X330813Y-135952D01*
X330908Y-135857D01*
X330956Y-135714D01*
X330956Y-135000D01*
X331232Y-135000D02*
X331232Y-136000D01*
X331232Y-135000D02*
X331613Y-136000D01*
X331994Y-135000D02*
X331613Y-136000D01*
X331994Y-135000D02*
X331994Y-136000D01*
X332279Y-135000D02*
X332279Y-136000D01*
X332279Y-135000D02*
X332708Y-135000D01*
X332851Y-135048D01*
X332898Y-135095D01*
X332946Y-135191D01*
X332946Y-135286D01*
X332898Y-135381D01*
X332851Y-135429D01*
X332708Y-135476D01*
X332279Y-135476D02*
X332708Y-135476D01*
X332851Y-135524D01*
X332898Y-135571D01*
X332946Y-135667D01*
X332946Y-135810D01*
X332898Y-135905D01*
X332851Y-135952D01*
X332708Y-136000D01*
X332279Y-136000D01*
X333789Y-135000D02*
X333170Y-135000D01*
X333170Y-136000D01*
X333789Y-136000D01*
X333170Y-135476D02*
X333551Y-135476D01*
X333955Y-135000D02*
X333955Y-136000D01*
X333955Y-135000D02*
X334384Y-135000D01*
X334527Y-135048D01*
X334574Y-135095D01*
X334622Y-135191D01*
X334622Y-135286D01*
X334574Y-135381D01*
X334527Y-135429D01*
X334384Y-135476D01*
X333955Y-135476D01*
X334289Y-135476D02*
X334622Y-136000D01*
X334893Y-135333D02*
X334846Y-135381D01*
X334893Y-135429D01*
X334941Y-135381D01*
X334893Y-135333D01*
X334893Y-135905D02*
X334846Y-135952D01*
X334893Y-136000D01*
X334941Y-135952D01*
X334893Y-135905D01*
D19*
X273119Y-138239D02*
X273000Y-138120D01*
X273119Y-138001D01*
X273238Y-138120D01*
X273238Y-138358D01*
X273119Y-138596D01*
X273000Y-138715D01*
X273905Y-140262D02*
X273786Y-140381D01*
X273905Y-140500D01*
X274024Y-140381D01*
X273905Y-140262D01*
X274571Y-139310D02*
X275642Y-139310D01*
X275999Y-139191D01*
X276118Y-139072D01*
X276237Y-138834D01*
X276237Y-138477D01*
X276118Y-138239D01*
X275999Y-138120D01*
X275642Y-138001D01*
X274571Y-138001D01*
X274571Y-140500D01*
X276797Y-138834D02*
X276797Y-140500D01*
X276797Y-139548D02*
X276916Y-139191D01*
X277154Y-138953D01*
X277392Y-138834D01*
X277749Y-138834D01*
X278570Y-138834D02*
X278332Y-138953D01*
X278094Y-139191D01*
X277975Y-139548D01*
X277975Y-139786D01*
X278094Y-140143D01*
X278332Y-140381D01*
X278570Y-140500D01*
X278927Y-140500D01*
X279165Y-140381D01*
X279403Y-140143D01*
X279522Y-139786D01*
X279522Y-139548D01*
X279403Y-139191D01*
X279165Y-138953D01*
X278927Y-138834D01*
X278570Y-138834D01*
X280546Y-138001D02*
X280665Y-138120D01*
X280784Y-138001D01*
X280665Y-137882D01*
X280546Y-138001D01*
X280665Y-138834D02*
X280665Y-140857D01*
X280546Y-141214D01*
X280308Y-141333D01*
X280070Y-141333D01*
X281248Y-139548D02*
X282677Y-139548D01*
X282677Y-139310D01*
X282557Y-139072D01*
X282438Y-138953D01*
X282200Y-138834D01*
X281843Y-138834D01*
X281605Y-138953D01*
X281367Y-139191D01*
X281248Y-139548D01*
X281248Y-139786D01*
X281367Y-140143D01*
X281605Y-140381D01*
X281843Y-140500D01*
X282200Y-140500D01*
X282438Y-140381D01*
X282677Y-140143D01*
X284640Y-139191D02*
X284402Y-138953D01*
X284164Y-138834D01*
X283807Y-138834D01*
X283569Y-138953D01*
X283331Y-139191D01*
X283212Y-139548D01*
X283212Y-139786D01*
X283331Y-140143D01*
X283569Y-140381D01*
X283807Y-140500D01*
X284164Y-140500D01*
X284402Y-140381D01*
X284640Y-140143D01*
X285533Y-138001D02*
X285533Y-140024D01*
X285652Y-140381D01*
X285890Y-140500D01*
X286128Y-140500D01*
X285176Y-138834D02*
X286009Y-138834D01*
X287318Y-138001D02*
X287318Y-140500D01*
X286485Y-138001D02*
X288152Y-138001D01*
X288687Y-138001D02*
X288806Y-138120D01*
X288925Y-138001D01*
X288806Y-137882D01*
X288687Y-138001D01*
X288806Y-138834D02*
X288806Y-140500D01*
X289723Y-138001D02*
X289723Y-140024D01*
X289842Y-140381D01*
X290080Y-140500D01*
X290318Y-140500D01*
X289366Y-138834D02*
X290199Y-138834D01*
X290675Y-138001D02*
X290675Y-140500D01*
X291198Y-139548D02*
X292627Y-139548D01*
X292627Y-139310D01*
X292508Y-139072D01*
X292389Y-138953D01*
X292151Y-138834D01*
X291794Y-138834D01*
X291556Y-138953D01*
X291318Y-139191D01*
X291198Y-139548D01*
X291198Y-139786D01*
X291318Y-140143D01*
X291556Y-140381D01*
X291794Y-140500D01*
X292151Y-140500D01*
X292389Y-140381D01*
X292627Y-140143D01*
X293281Y-138239D02*
X293162Y-138120D01*
X293281Y-138001D01*
X293400Y-138120D01*
X293400Y-138358D01*
X293281Y-138596D01*
X293162Y-138715D01*
D115*
X3374Y58685D02*
X6574Y58685D01*
X4974Y57085D02*
X4974Y60285D01*
X76815Y-19871D02*
X78385Y-19871D01*
X77600Y-20656D02*
X77600Y-19086D01*
X91875Y-11541D02*
X95325Y-11541D01*
X93600Y-13266D02*
X93600Y-9816D01*
X75875Y43659D02*
X79325Y43659D01*
X77600Y41934D02*
X77600Y45384D01*
X58155Y62989D02*
X59069Y62989D01*
X58612Y62532D02*
X58612Y63446D01*
X55615Y62989D02*
X56529Y62989D01*
X56072Y62532D02*
X56072Y63446D01*
X47995Y62989D02*
X48909Y62989D01*
X48452Y62532D02*
X48452Y63446D01*
X45455Y62989D02*
X46369Y62989D01*
X45912Y62532D02*
X45912Y63446D01*
X42915Y62989D02*
X43829Y62989D01*
X43372Y62532D02*
X43372Y63446D01*
X40375Y62989D02*
X41289Y62989D01*
X40832Y62532D02*
X40832Y63446D01*
X50535Y62989D02*
X51449Y62989D01*
X50992Y62532D02*
X50992Y63446D01*
X53075Y62989D02*
X53989Y62989D01*
X53532Y62532D02*
X53532Y63446D01*
X31750Y62816D02*
X32650Y62816D01*
X32200Y62366D02*
X32200Y63266D01*
X31750Y58374D02*
X32650Y58374D01*
X32200Y57924D02*
X32200Y58824D01*
X27850Y58319D02*
X28750Y58319D01*
X28300Y57868D02*
X28300Y58769D01*
X35493Y58346D02*
X36393Y58346D01*
X35943Y57896D02*
X35943Y58796D01*
X34852Y62816D02*
X35752Y62816D01*
X35302Y62366D02*
X35302Y63266D01*
X91025Y-27675D02*
X94225Y-27675D01*
X92625Y-29275D02*
X92625Y-26075D01*
X58277Y40485D02*
X59191Y40485D01*
X58734Y40027D02*
X58734Y40942D01*
X55737Y40485D02*
X56651Y40485D01*
X56194Y40027D02*
X56194Y40942D01*
X48117Y40485D02*
X49031Y40485D01*
X48574Y40027D02*
X48574Y40942D01*
X45577Y40485D02*
X46491Y40485D01*
X46034Y40027D02*
X46034Y40942D01*
X43037Y40485D02*
X43951Y40485D01*
X43494Y40027D02*
X43494Y40942D01*
X40497Y40485D02*
X41411Y40485D01*
X40954Y40027D02*
X40954Y40942D01*
X50657Y40485D02*
X51571Y40485D01*
X51114Y40027D02*
X51114Y40942D01*
X53197Y40485D02*
X54111Y40485D01*
X53654Y40027D02*
X53654Y40942D01*
X19593Y20040D02*
X20507Y20040D01*
X20050Y19583D02*
X20050Y20497D01*
X11400Y29040D02*
X12100Y29040D01*
X11750Y28690D02*
X11750Y29390D01*
X17800Y64125D02*
X18400Y64125D01*
X18100Y63825D02*
X18100Y64425D01*
X10800Y64125D02*
X11400Y64125D01*
X11100Y63825D02*
X11100Y64425D01*
X16675Y61425D02*
X17525Y61425D01*
X17100Y61000D02*
X17100Y61850D01*
X11675Y61425D02*
X12525Y61425D01*
X12100Y61000D02*
X12100Y61850D01*
X65792Y62922D02*
X66706Y62922D01*
X66249Y62465D02*
X66249Y63379D01*
X63252Y62922D02*
X64166Y62922D01*
X63709Y62465D02*
X63709Y63379D01*
X70872Y62922D02*
X71786Y62922D01*
X71329Y62465D02*
X71329Y63379D01*
X68332Y62922D02*
X69246Y62922D01*
X68789Y62465D02*
X68789Y63379D01*
X66200Y-3750D02*
X66500Y-3750D01*
X66350Y-3900D02*
X66350Y-3600D01*
X40564Y8150D02*
X40864Y8150D01*
X40714Y8000D02*
X40714Y8300D01*
X40564Y4576D02*
X40864Y4576D01*
X40714Y4426D02*
X40714Y4726D01*
X40564Y1075D02*
X40864Y1075D01*
X40714Y925D02*
X40714Y1225D01*
X40564Y-2078D02*
X40864Y-2078D01*
X40714Y-2228D02*
X40714Y-1928D01*
X40564Y-4778D02*
X40864Y-4778D01*
X40714Y-4928D02*
X40714Y-4628D01*
X23850Y26744D02*
X24150Y26744D01*
X24000Y26594D02*
X24000Y26894D01*
X23590Y22538D02*
X23890Y22538D01*
X23740Y22388D02*
X23740Y22688D01*
X28375Y29751D02*
X28675Y29751D01*
X28525Y29601D02*
X28525Y29901D01*
X50198Y36044D02*
X50498Y36044D01*
X50348Y35894D02*
X50348Y36194D01*
X50876Y19903D02*
X51176Y19903D01*
X51026Y19753D02*
X51026Y20053D01*
X51432Y49816D02*
X51732Y49816D01*
X51582Y49666D02*
X51582Y49966D01*
X57195Y42640D02*
X57495Y42640D01*
X57345Y42490D02*
X57345Y42790D01*
X62303Y-9725D02*
X62603Y-9725D01*
X62453Y-9875D02*
X62453Y-9575D01*
X58750Y-9725D02*
X59050Y-9725D01*
X58900Y-9875D02*
X58900Y-9575D01*
X55697Y-9725D02*
X55997Y-9725D01*
X55847Y-9875D02*
X55847Y-9575D01*
X78650Y-30600D02*
X78950Y-30600D01*
X78800Y-30750D02*
X78800Y-30450D01*
X74325Y-28325D02*
X74625Y-28325D01*
X74475Y-28475D02*
X74475Y-28175D01*
X81525Y-30525D02*
X81825Y-30525D01*
X81675Y-30675D02*
X81675Y-30375D01*
X81350Y-23625D02*
X81650Y-23625D01*
X81500Y-23775D02*
X81500Y-23475D01*
X81475Y-25825D02*
X81775Y-25825D01*
X81625Y-25975D02*
X81625Y-25675D01*
X81525Y-28125D02*
X81825Y-28125D01*
X81675Y-28275D02*
X81675Y-27975D01*
X70395Y21194D02*
X70695Y21194D01*
X70545Y21044D02*
X70545Y21344D01*
X47414Y21622D02*
X47714Y21622D01*
X47564Y21472D02*
X47564Y21772D01*
X70825Y55725D02*
X71125Y55725D01*
X70975Y55575D02*
X70975Y55875D01*
X70299Y58579D02*
X70599Y58579D01*
X70449Y58429D02*
X70449Y58729D01*
X70299Y60272D02*
X70599Y60272D01*
X70449Y60122D02*
X70449Y60422D01*
X52200Y59474D02*
X52500Y59474D01*
X52350Y59324D02*
X52350Y59624D01*
X18415Y58391D02*
X18715Y58391D01*
X18565Y58241D02*
X18565Y58541D01*
X13463Y59989D02*
X13763Y59989D01*
X13613Y59839D02*
X13613Y60139D01*
X12514Y44523D02*
X12814Y44523D01*
X12664Y44373D02*
X12664Y44673D01*
X16684Y45277D02*
X16984Y45277D01*
X16834Y45127D02*
X16834Y45427D01*
X8624Y29086D02*
X8924Y29086D01*
X8774Y28936D02*
X8774Y29236D01*
X17827Y603D02*
X18127Y603D01*
X17977Y453D02*
X17977Y753D01*
X17970Y3912D02*
X18270Y3912D01*
X18120Y3762D02*
X18120Y4062D01*
X17970Y6325D02*
X18270Y6325D01*
X18120Y6175D02*
X18120Y6475D01*
X17970Y8215D02*
X18270Y8215D01*
X18120Y8065D02*
X18120Y8365D01*
X49925Y-9246D02*
X50225Y-9246D01*
X50075Y-9396D02*
X50075Y-9096D01*
X43770Y-9246D02*
X44070Y-9246D01*
X43920Y-9396D02*
X43920Y-9096D01*
X61696Y-1800D02*
X61996Y-1800D01*
X61846Y-1950D02*
X61846Y-1650D01*
X61713Y-79D02*
X62013Y-79D01*
X61863Y-229D02*
X61863Y71D01*
X50399Y34022D02*
X50699Y34022D01*
X50549Y33872D02*
X50549Y34172D01*
X56995Y35310D02*
X57295Y35310D01*
X57145Y35160D02*
X57145Y35460D01*
X55455Y33754D02*
X55755Y33754D01*
X55605Y33604D02*
X55605Y33904D01*
X55410Y35310D02*
X55710Y35310D01*
X55560Y35160D02*
X55560Y35460D01*
X54430Y37079D02*
X54730Y37079D01*
X54580Y36929D02*
X54580Y37229D01*
X69825Y13400D02*
X70125Y13400D01*
X69975Y13250D02*
X69975Y13550D01*
X67655Y13429D02*
X67955Y13429D01*
X67805Y13279D02*
X67805Y13579D01*
X65275Y13400D02*
X65575Y13400D01*
X65425Y13250D02*
X65425Y13550D01*
X55410Y8107D02*
X55710Y8107D01*
X55560Y7957D02*
X55560Y8257D01*
X55405Y10282D02*
X55705Y10282D01*
X55555Y10132D02*
X55555Y10432D01*
X57296Y10282D02*
X57596Y10282D01*
X57446Y10132D02*
X57446Y10432D01*
X70299Y57000D02*
X70599Y57000D01*
X70449Y56850D02*
X70449Y57150D01*
X15675Y57845D02*
X15975Y57845D01*
X15825Y57695D02*
X15825Y57995D01*
X17425Y57991D02*
X17725Y57991D01*
X17575Y57841D02*
X17575Y58141D01*
X4338Y42491D02*
X4638Y42491D01*
X4488Y42341D02*
X4488Y42641D01*
X19875Y45470D02*
X20175Y45470D01*
X20025Y45320D02*
X20025Y45620D01*
X51439Y1257D02*
X51739Y1257D01*
X51589Y1107D02*
X51589Y1407D01*
X51539Y-3437D02*
X51839Y-3437D01*
X51689Y-3586D02*
X51689Y-3286D01*
X55248Y6210D02*
X55548Y6210D01*
X55398Y6060D02*
X55398Y6360D01*
X71975Y13320D02*
X72275Y13320D01*
X72125Y13170D02*
X72125Y13470D01*
X38787Y58318D02*
X39087Y58318D01*
X38937Y58168D02*
X38937Y58468D01*
X44690Y44619D02*
X44990Y44619D01*
X44840Y44469D02*
X44840Y44769D01*
X44650Y46364D02*
X44950Y46364D01*
X44800Y46214D02*
X44800Y46514D01*
X41299Y38411D02*
X41599Y38411D01*
X41449Y38261D02*
X41449Y38561D01*
X52749Y38660D02*
X53049Y38660D01*
X52899Y38510D02*
X52899Y38810D01*
X54700Y42295D02*
X55000Y42295D01*
X54850Y42145D02*
X54850Y42445D01*
X48015Y43022D02*
X48315Y43022D01*
X48165Y42872D02*
X48165Y43172D01*
X47176Y41587D02*
X47476Y41587D01*
X47326Y41437D02*
X47326Y41737D01*
X45555Y-4057D02*
X45855Y-4057D01*
X45705Y-4207D02*
X45705Y-3907D01*
X45504Y-3000D02*
X45804Y-3000D01*
X45654Y-3150D02*
X45654Y-2850D01*
X45529Y-2088D02*
X45829Y-2088D01*
X45679Y-2238D02*
X45679Y-1938D01*
X19875Y30019D02*
X20175Y30019D01*
X20025Y29869D02*
X20025Y30169D01*
X30479Y28632D02*
X30779Y28632D01*
X30629Y28482D02*
X30629Y28782D01*
X32336Y23147D02*
X32636Y23147D01*
X32486Y22997D02*
X32486Y23297D01*
X34407Y17800D02*
X34707Y17800D01*
X34557Y17650D02*
X34557Y17950D01*
X31150Y43825D02*
X31450Y43825D01*
X31300Y43675D02*
X31300Y43975D01*
X28295Y44527D02*
X28595Y44527D01*
X28445Y44377D02*
X28445Y44677D01*
X28700Y42528D02*
X29000Y42528D01*
X28850Y42378D02*
X28850Y42678D01*
X19115Y39648D02*
X19415Y39648D01*
X19265Y39498D02*
X19265Y39798D01*
X16396Y39607D02*
X16696Y39607D01*
X16546Y39457D02*
X16546Y39757D01*
X19115Y41798D02*
X19415Y41798D01*
X19265Y41648D02*
X19265Y41948D01*
X16367Y41729D02*
X16667Y41729D01*
X16517Y41579D02*
X16517Y41879D01*
X1228Y42497D02*
X1528Y42497D01*
X1378Y42347D02*
X1378Y42647D01*
X1279Y45507D02*
X1579Y45507D01*
X1429Y45357D02*
X1429Y45657D01*
X1253Y47299D02*
X1553Y47299D01*
X1403Y47149D02*
X1403Y47449D01*
X1253Y48945D02*
X1553Y48945D01*
X1403Y48795D02*
X1403Y49095D01*
X1253Y50510D02*
X1553Y50510D01*
X1403Y50360D02*
X1403Y50660D01*
X1253Y52170D02*
X1553Y52170D01*
X1403Y52020D02*
X1403Y52320D01*
X6779Y48920D02*
X7079Y48920D01*
X6929Y48770D02*
X6929Y49070D01*
X3047Y42478D02*
X3347Y42478D01*
X3197Y42328D02*
X3197Y42628D01*
X49172Y56845D02*
X49472Y56845D01*
X49322Y56695D02*
X49322Y56995D01*
X54063Y56737D02*
X54363Y56737D01*
X54213Y56587D02*
X54213Y56887D01*
X60028Y50726D02*
X60328Y50726D01*
X60178Y50576D02*
X60178Y50876D01*
X58759Y50726D02*
X59059Y50726D01*
X58909Y50576D02*
X58909Y50876D01*
X58389Y25565D02*
X58689Y25565D01*
X58539Y25415D02*
X58539Y25715D01*
X56050Y21969D02*
X56350Y21969D01*
X56200Y21819D02*
X56200Y22119D01*
X55482Y23152D02*
X55782Y23152D01*
X55632Y23002D02*
X55632Y23302D01*
X53356Y25543D02*
X53656Y25543D01*
X53506Y25393D02*
X53506Y25693D01*
X52283Y25557D02*
X52583Y25557D01*
X52433Y25407D02*
X52433Y25707D01*
X53563Y27517D02*
X53863Y27517D01*
X53713Y27367D02*
X53713Y27667D01*
X52308Y27504D02*
X52608Y27504D01*
X52458Y27354D02*
X52458Y27654D01*
X54450Y27499D02*
X54750Y27499D01*
X54600Y27349D02*
X54600Y27649D01*
X45993Y24219D02*
X46293Y24219D01*
X46143Y24069D02*
X46143Y24369D01*
X9889Y53961D02*
X10189Y53961D01*
X10039Y53811D02*
X10039Y54111D01*
X5741Y48925D02*
X6041Y48925D01*
X5891Y48775D02*
X5891Y49075D01*
X48002Y35970D02*
X48302Y35970D01*
X48152Y35820D02*
X48152Y36120D01*
X41472Y11201D02*
X41772Y11201D01*
X41622Y11051D02*
X41622Y11351D01*
X41226Y12175D02*
X41526Y12175D01*
X41376Y12025D02*
X41376Y12325D01*
X40275Y22611D02*
X40575Y22611D01*
X40425Y22461D02*
X40425Y22761D01*
X43450Y24051D02*
X43750Y24051D01*
X43600Y23901D02*
X43600Y24201D01*
X42435Y24017D02*
X42735Y24017D01*
X42585Y23867D02*
X42585Y24167D01*
X42259Y22787D02*
X42559Y22787D01*
X42409Y22637D02*
X42409Y22937D01*
X40615Y25878D02*
X40915Y25878D01*
X40765Y25728D02*
X40765Y26028D01*
X40589Y26744D02*
X40889Y26744D01*
X40739Y26594D02*
X40739Y26894D01*
X52859Y3716D02*
X53159Y3716D01*
X53009Y3566D02*
X53009Y3866D01*
X51290Y3716D02*
X51590Y3716D01*
X51440Y3566D02*
X51440Y3866D01*
X49445Y3739D02*
X49745Y3739D01*
X49595Y3589D02*
X49595Y3889D01*
X47468Y3716D02*
X47768Y3716D01*
X47618Y3566D02*
X47618Y3866D01*
X57211Y19943D02*
X57511Y19943D01*
X57361Y19793D02*
X57361Y20093D01*
X64223Y59082D02*
X64523Y59082D01*
X64373Y58932D02*
X64373Y59232D01*
X64248Y41753D02*
X64548Y41753D01*
X64398Y41603D02*
X64398Y41903D01*
X64285Y54289D02*
X64585Y54289D01*
X64435Y54139D02*
X64435Y54439D01*
X64260Y48101D02*
X64560Y48101D01*
X64410Y47951D02*
X64410Y48251D01*
X63376Y38122D02*
X63676Y38122D01*
X63526Y37972D02*
X63526Y38272D01*
X56647Y32190D02*
X56947Y32190D01*
X56797Y32040D02*
X56797Y32340D01*
X52142Y16587D02*
X52442Y16587D01*
X52292Y16437D02*
X52292Y16737D01*
X26196Y19222D02*
X26496Y19222D01*
X26346Y19072D02*
X26346Y19372D01*
X7694Y42478D02*
X7994Y42478D01*
X7844Y42328D02*
X7844Y42628D01*
X36159Y27054D02*
X36459Y27054D01*
X36309Y26904D02*
X36309Y27204D01*
X36134Y25040D02*
X36434Y25040D01*
X36284Y24890D02*
X36284Y25190D01*
X52789Y7285D02*
X53089Y7285D01*
X52939Y7135D02*
X52939Y7435D01*
X35100Y34670D02*
X35400Y34670D01*
X35250Y34520D02*
X35250Y34820D01*
X38959Y44532D02*
X39259Y44532D01*
X39109Y44382D02*
X39109Y44682D01*
X38628Y27542D02*
X38928Y27542D01*
X38778Y27392D02*
X38778Y27692D01*
X7742Y53013D02*
X8042Y53013D01*
X7892Y52863D02*
X7892Y53163D01*
X4418Y52100D02*
X4718Y52100D01*
X4568Y51950D02*
X4568Y52250D01*
X4519Y49844D02*
X4819Y49844D01*
X4669Y49694D02*
X4669Y49994D01*
X52058Y42772D02*
X52358Y42772D01*
X52208Y42622D02*
X52208Y42922D01*
X53332Y42314D02*
X53632Y42314D01*
X53482Y42164D02*
X53482Y42464D01*
X53113Y47142D02*
X53413Y47142D01*
X53263Y46992D02*
X53263Y47292D01*
X52084Y47139D02*
X52384Y47139D01*
X52234Y46989D02*
X52234Y47289D01*
X38988Y37647D02*
X39288Y37647D01*
X39138Y37497D02*
X39138Y37797D01*
X61759Y27522D02*
X62059Y27522D01*
X61909Y27372D02*
X61909Y27672D01*
X48284Y44728D02*
X48584Y44728D01*
X48434Y44578D02*
X48434Y44878D01*
X49126Y52393D02*
X49426Y52393D01*
X49276Y52243D02*
X49276Y52543D01*
X47584Y61089D02*
X47884Y61089D01*
X47734Y60939D02*
X47734Y61239D01*
X44382Y61003D02*
X44681Y61003D01*
X44532Y60853D02*
X44532Y61153D01*
X61834Y36732D02*
X62134Y36732D01*
X61984Y36582D02*
X61984Y36882D01*
X61759Y39859D02*
X62059Y39859D01*
X61909Y39709D02*
X61909Y40009D01*
X31422Y17803D02*
X31722Y17803D01*
X31572Y17653D02*
X31572Y17953D01*
X32295Y24602D02*
X32595Y24602D01*
X32445Y24452D02*
X32445Y24752D01*
X36361Y20317D02*
X36661Y20317D01*
X36511Y20167D02*
X36511Y20467D01*
X34407Y20294D02*
X34707Y20294D01*
X34557Y20144D02*
X34557Y20444D01*
X36134Y22484D02*
X36434Y22484D01*
X36284Y22334D02*
X36284Y22634D01*
X56184Y37822D02*
X56484Y37822D01*
X56334Y37672D02*
X56334Y37972D01*
X61695Y42478D02*
X61995Y42478D01*
X61845Y42328D02*
X61845Y42628D01*
X45032Y18182D02*
X45332Y18182D01*
X45182Y18032D02*
X45182Y18332D01*
X43211Y18182D02*
X43511Y18182D01*
X43361Y18032D02*
X43361Y18332D01*
X41173Y18185D02*
X41473Y18185D01*
X41323Y18035D02*
X41323Y18335D01*
X50962Y12824D02*
X51262Y12824D01*
X51112Y12674D02*
X51112Y12974D01*
X60969Y13006D02*
X61269Y13006D01*
X61119Y12856D02*
X61119Y13156D01*
X54401Y16054D02*
X54701Y16054D01*
X54551Y15904D02*
X54551Y16204D01*
X57330Y12559D02*
X57630Y12559D01*
X57480Y12409D02*
X57480Y12709D01*
X54398Y12571D02*
X54698Y12571D01*
X54548Y12421D02*
X54548Y12721D01*
X47433Y8216D02*
X47733Y8216D01*
X47583Y8066D02*
X47583Y8366D01*
X40564Y27861D02*
X40864Y27861D01*
X40714Y27711D02*
X40714Y28011D01*
X36025Y30160D02*
X36325Y30160D01*
X36175Y30010D02*
X36175Y30310D01*
X38780Y47920D02*
X39080Y47920D01*
X38930Y47770D02*
X38930Y48070D01*
X38771Y55873D02*
X39071Y55873D01*
X38921Y55723D02*
X38921Y56023D01*
X38770Y52201D02*
X39070Y52201D01*
X38920Y52051D02*
X38920Y52351D01*
X25083Y14278D02*
X25383Y14278D01*
X25233Y14128D02*
X25233Y14428D01*
X68949Y2693D02*
X69249Y2693D01*
X69099Y2543D02*
X69099Y2843D01*
X68924Y3748D02*
X69224Y3748D01*
X69074Y3598D02*
X69074Y3898D01*
X68949Y5646D02*
X69249Y5646D01*
X69099Y5496D02*
X69099Y5796D01*
X68949Y6839D02*
X69249Y6839D01*
X69099Y6689D02*
X69099Y6989D01*
X23636Y21108D02*
X23936Y21108D01*
X23786Y20958D02*
X23786Y21258D01*
X43211Y27406D02*
X43511Y27406D01*
X43361Y27256D02*
X43361Y27556D01*
X43211Y28922D02*
X43511Y28922D01*
X43361Y28772D02*
X43361Y29072D01*
X43211Y31028D02*
X43511Y31028D01*
X43361Y30878D02*
X43361Y31178D01*
X43221Y32515D02*
X43521Y32515D01*
X43371Y32365D02*
X43371Y32665D01*
X45384Y32479D02*
X45684Y32479D01*
X45534Y32329D02*
X45534Y32629D01*
X45400Y31028D02*
X45700Y31028D01*
X45550Y30878D02*
X45550Y31178D01*
X45423Y28728D02*
X45723Y28728D01*
X45573Y28578D02*
X45573Y28878D01*
X45407Y27433D02*
X45707Y27433D01*
X45557Y27283D02*
X45557Y27583D01*
X47030Y11942D02*
X47330Y11942D01*
X47180Y11792D02*
X47180Y12092D01*
X66886Y-9725D02*
X67186Y-9725D01*
X67036Y-9875D02*
X67036Y-9575D01*
X71475Y-9725D02*
X71775Y-9725D01*
X71625Y-9875D02*
X71625Y-9575D01*
X76515Y-9725D02*
X76815Y-9725D01*
X76665Y-9875D02*
X76665Y-9575D01*
X80676Y-9725D02*
X80976Y-9725D01*
X80826Y-9875D02*
X80826Y-9575D01*
X66886Y-13821D02*
X67186Y-13821D01*
X67036Y-13971D02*
X67036Y-13671D01*
X71578Y-13821D02*
X71878Y-13821D01*
X71728Y-13971D02*
X71728Y-13671D01*
X76515Y-13821D02*
X76815Y-13821D01*
X76665Y-13971D02*
X76665Y-13671D01*
X80676Y-13821D02*
X80976Y-13821D01*
X80826Y-13971D02*
X80826Y-13671D01*
X67286Y56028D02*
X67586Y56028D01*
X67436Y55878D02*
X67436Y56178D01*
X61075Y59845D02*
X61375Y59845D01*
X61225Y59695D02*
X61225Y59995D01*
X55776Y59845D02*
X56076Y59845D01*
X55926Y59695D02*
X55926Y59995D01*
X49912Y60770D02*
X50212Y60770D01*
X50062Y60620D02*
X50062Y60920D01*
X49125Y54814D02*
X49425Y54814D01*
X49275Y54664D02*
X49275Y54964D01*
X45641Y38535D02*
X45941Y38535D01*
X45791Y38385D02*
X45791Y38685D01*
X46803Y38535D02*
X47103Y38535D01*
X46953Y38385D02*
X46953Y38685D01*
X60370Y35185D02*
X60670Y35185D01*
X60520Y35035D02*
X60520Y35335D01*
X58874Y33537D02*
X59174Y33537D01*
X59024Y33387D02*
X59024Y33687D01*
X57900Y32764D02*
X58200Y32764D01*
X58050Y32614D02*
X58050Y32914D01*
X64269Y50401D02*
X64569Y50401D01*
X64419Y50251D02*
X64419Y50551D01*
X57488Y48099D02*
X57788Y48099D01*
X57638Y47949D02*
X57638Y48249D01*
X54088Y55114D02*
X54388Y55114D01*
X54238Y54964D02*
X54238Y55264D01*
X52409Y55120D02*
X52709Y55120D01*
X52559Y54970D02*
X52559Y55270D01*
X54128Y52410D02*
X54428Y52410D01*
X54278Y52260D02*
X54278Y52560D01*
X52414Y52410D02*
X52714Y52410D01*
X52564Y52260D02*
X52564Y52560D01*
X67295Y58579D02*
X67595Y58579D01*
X67445Y58429D02*
X67445Y58729D01*
X57428Y16689D02*
X57728Y16689D01*
X57578Y16539D02*
X57578Y16839D01*
X66831Y30270D02*
X67131Y30270D01*
X66981Y30120D02*
X66981Y30420D01*
X62490Y24301D02*
X62790Y24301D01*
X62640Y24151D02*
X62640Y24451D01*
X64301Y24283D02*
X64601Y24283D01*
X64451Y24133D02*
X64451Y24433D01*
X56237Y18270D02*
X56537Y18270D01*
X56387Y18120D02*
X56387Y18420D01*
X60209Y18028D02*
X60509Y18028D01*
X60359Y17878D02*
X60359Y18178D01*
X60350Y20638D02*
X60650Y20638D01*
X60500Y20488D02*
X60500Y20788D01*
X63051Y21200D02*
X63351Y21200D01*
X63201Y21050D02*
X63201Y21350D01*
X70425Y18915D02*
X70725Y18915D01*
X70575Y18765D02*
X70575Y19065D01*
X68134Y18940D02*
X68434Y18940D01*
X68284Y18790D02*
X68284Y19090D01*
X70425Y15950D02*
X70725Y15950D01*
X70575Y15800D02*
X70575Y16100D01*
X68175Y15966D02*
X68475Y15966D01*
X68325Y15816D02*
X68325Y16116D01*
X73970Y-7327D02*
X74270Y-7327D01*
X74120Y-7477D02*
X74120Y-7177D01*
X73970Y-6025D02*
X74270Y-6025D01*
X74120Y-6175D02*
X74120Y-5875D01*
X73970Y-4627D02*
X74270Y-4627D01*
X74120Y-4777D02*
X74120Y-4477D01*
X72370Y-7377D02*
X72670Y-7377D01*
X72520Y-7527D02*
X72520Y-7227D01*
X72370Y-6075D02*
X72670Y-6075D01*
X72520Y-6225D02*
X72520Y-5925D01*
X72370Y-4677D02*
X72670Y-4677D01*
X72520Y-4827D02*
X72520Y-4527D01*
X70853Y6610D02*
X71153Y6610D01*
X71003Y6460D02*
X71003Y6760D01*
X70900Y2707D02*
X71200Y2707D01*
X71050Y2557D02*
X71050Y2857D01*
X71814Y2725D02*
X72114Y2725D01*
X71964Y2575D02*
X71964Y2875D01*
X71694Y6610D02*
X71994Y6610D01*
X71844Y6460D02*
X71844Y6760D01*
X70599Y-3500D02*
X70899Y-3500D01*
X70749Y-3650D02*
X70749Y-3350D01*
X70599Y-4675D02*
X70899Y-4675D01*
X70749Y-4825D02*
X70749Y-4525D01*
X70599Y-6073D02*
X70899Y-6073D01*
X70749Y-6223D02*
X70749Y-5923D01*
X70599Y-7375D02*
X70899Y-7375D01*
X70749Y-7525D02*
X70749Y-7225D01*
X70574Y1356D02*
X70874Y1356D01*
X70724Y1206D02*
X70724Y1506D01*
X70574Y181D02*
X70874Y181D01*
X70724Y31D02*
X70724Y331D01*
X70574Y-1217D02*
X70874Y-1217D01*
X70724Y-1367D02*
X70724Y-1067D01*
X70586Y-2415D02*
X70886Y-2415D01*
X70736Y-2565D02*
X70736Y-2265D01*
X68949Y-3575D02*
X69249Y-3575D01*
X69099Y-3725D02*
X69099Y-3425D01*
X68949Y-4750D02*
X69249Y-4750D01*
X69099Y-4900D02*
X69099Y-4600D01*
X68949Y-6148D02*
X69249Y-6148D01*
X69099Y-6298D02*
X69099Y-5998D01*
X68949Y-7450D02*
X69249Y-7450D01*
X69099Y-7600D02*
X69099Y-7300D01*
X67442Y-3575D02*
X67742Y-3575D01*
X67592Y-3725D02*
X67592Y-3425D01*
X67442Y-4750D02*
X67742Y-4750D01*
X67592Y-4900D02*
X67592Y-4600D01*
X67442Y-6148D02*
X67742Y-6148D01*
X67592Y-6298D02*
X67592Y-5998D01*
X67442Y-7450D02*
X67742Y-7450D01*
X67592Y-7600D02*
X67592Y-7300D01*
X68924Y1291D02*
X69224Y1291D01*
X69074Y1141D02*
X69074Y1441D01*
X68924Y116D02*
X69224Y116D01*
X69074Y-34D02*
X69074Y266D01*
X68924Y-1281D02*
X69224Y-1281D01*
X69074Y-1431D02*
X69074Y-1131D01*
X68924Y-2452D02*
X69224Y-2452D01*
X69074Y-2602D02*
X69074Y-2302D01*
X67424Y1308D02*
X67724Y1308D01*
X67574Y1158D02*
X67574Y1458D01*
X67424Y133D02*
X67724Y133D01*
X67574Y-17D02*
X67574Y283D01*
X67424Y-1265D02*
X67724Y-1265D01*
X67574Y-1415D02*
X67574Y-1115D01*
X67424Y-2452D02*
X67724Y-2452D01*
X67574Y-2602D02*
X67574Y-2302D01*
X67442Y6807D02*
X67742Y6807D01*
X67592Y6657D02*
X67592Y6957D01*
X67442Y5646D02*
X67742Y5646D01*
X67592Y5496D02*
X67592Y5796D01*
X67424Y3785D02*
X67724Y3785D01*
X67574Y3635D02*
X67574Y3935D01*
X67449Y2700D02*
X67749Y2700D01*
X67599Y2550D02*
X67599Y2850D01*
X75424Y-475D02*
X75724Y-475D01*
X75574Y-625D02*
X75574Y-325D01*
X75424Y827D02*
X75724Y827D01*
X75574Y677D02*
X75574Y977D01*
X1228Y53661D02*
X1528Y53661D01*
X1378Y53511D02*
X1378Y53811D01*
X3174Y53661D02*
X3474Y53661D01*
X3324Y53511D02*
X3324Y53811D01*
X5247Y53661D02*
X5547Y53661D01*
X5397Y53511D02*
X5397Y53811D01*
X7174Y55970D02*
X7474Y55970D01*
X7324Y55820D02*
X7324Y56120D01*
X9120Y55970D02*
X9420Y55970D01*
X9270Y55820D02*
X9270Y56120D01*
X11193Y55970D02*
X11493Y55970D01*
X11343Y55820D02*
X11343Y56120D01*
X1228Y55970D02*
X1528Y55970D01*
X1378Y55820D02*
X1378Y56120D01*
X3174Y55970D02*
X3474Y55970D01*
X3324Y55820D02*
X3324Y56120D01*
X5247Y55970D02*
X5547Y55970D01*
X5397Y55820D02*
X5397Y56120D01*
X66905Y33315D02*
X67205Y33315D01*
X67055Y33165D02*
X67055Y33465D01*
X73811Y45842D02*
X74111Y45842D01*
X73961Y45692D02*
X73961Y45992D01*
X70550Y45842D02*
X70850Y45842D01*
X70700Y45692D02*
X70700Y45992D01*
X66874Y45804D02*
X67174Y45804D01*
X67024Y45654D02*
X67024Y45954D01*
X73811Y49025D02*
X74111Y49025D01*
X73961Y48875D02*
X73961Y49175D01*
X70550Y48970D02*
X70850Y48970D01*
X70700Y48820D02*
X70700Y49120D01*
X66877Y48970D02*
X67177Y48970D01*
X67027Y48820D02*
X67027Y49120D01*
X70550Y52135D02*
X70850Y52135D01*
X70700Y51985D02*
X70700Y52285D01*
X66877Y52075D02*
X67177Y52075D01*
X67027Y51925D02*
X67027Y52225D01*
X73811Y52075D02*
X74111Y52075D01*
X73961Y51925D02*
X73961Y52225D01*
X66874Y36690D02*
X67174Y36690D01*
X67024Y36540D02*
X67024Y36840D01*
X73811Y36728D02*
X74111Y36728D01*
X73961Y36578D02*
X73961Y36878D01*
X66877Y39856D02*
X67177Y39856D01*
X67027Y39706D02*
X67027Y40006D01*
X70550Y39856D02*
X70850Y39856D01*
X70700Y39706D02*
X70700Y40006D01*
X70550Y43020D02*
X70850Y43020D01*
X70700Y42870D02*
X70700Y43170D01*
X73811Y39910D02*
X74111Y39910D01*
X73961Y39760D02*
X73961Y40060D01*
X70550Y36728D02*
X70850Y36728D01*
X70700Y36578D02*
X70700Y36878D01*
X66877Y42960D02*
X67177Y42960D01*
X67027Y42810D02*
X67027Y43110D01*
X73811Y42960D02*
X74111Y42960D01*
X73961Y42810D02*
X73961Y43110D01*
X70592Y33315D02*
X70892Y33315D01*
X70742Y33165D02*
X70742Y33465D01*
X73853Y33369D02*
X74153Y33369D01*
X74003Y33219D02*
X74003Y33519D01*
X70592Y30187D02*
X70892Y30187D01*
X70742Y30037D02*
X70742Y30337D01*
X73853Y30187D02*
X74153Y30187D01*
X74003Y30037D02*
X74003Y30337D01*
X44664Y54459D02*
X44964Y54459D01*
X44814Y54309D02*
X44814Y54609D01*
X44664Y56358D02*
X44964Y56358D01*
X44814Y56208D02*
X44814Y56508D01*
X44590Y58975D02*
X44890Y58975D01*
X44740Y58825D02*
X44740Y59125D01*
X44688Y48323D02*
X44988Y48323D01*
X44838Y48173D02*
X44838Y48473D01*
X44688Y50221D02*
X44988Y50221D01*
X44838Y50071D02*
X44838Y50371D01*
X44688Y52224D02*
X44988Y52224D01*
X44838Y52074D02*
X44838Y52374D01*
X41688Y46507D02*
X41988Y46507D01*
X41838Y46357D02*
X41838Y46657D01*
X41688Y44505D02*
X41988Y44505D01*
X41838Y44355D02*
X41838Y44655D01*
X41688Y42606D02*
X41988Y42606D01*
X41838Y42456D02*
X41838Y42756D01*
X41678Y52224D02*
X41978Y52224D01*
X41828Y52074D02*
X41828Y52374D01*
X41678Y50221D02*
X41978Y50221D01*
X41828Y50071D02*
X41828Y50371D01*
X41678Y48323D02*
X41978Y48323D01*
X41828Y48173D02*
X41828Y48473D01*
X41655Y58360D02*
X41955Y58360D01*
X41805Y58210D02*
X41805Y58510D01*
X41655Y56358D02*
X41955Y56358D01*
X41805Y56208D02*
X41805Y56508D01*
X41655Y54459D02*
X41955Y54459D01*
X41805Y54309D02*
X41805Y54609D01*
X33260Y30779D02*
X33560Y30779D01*
X33410Y30629D02*
X33410Y30929D01*
X33270Y32884D02*
X33570Y32884D01*
X33420Y32734D02*
X33420Y33034D01*
X33310Y34772D02*
X33610Y34772D01*
X33460Y34622D02*
X33460Y34922D01*
X33310Y36375D02*
X33610Y36375D01*
X33460Y36225D02*
X33460Y36525D01*
X63351Y19020D02*
X63651Y19020D01*
X63501Y18870D02*
X63501Y19170D01*
X65725Y18915D02*
X66025Y18915D01*
X65875Y18765D02*
X65875Y19065D01*
X63351Y15977D02*
X63651Y15977D01*
X63501Y15827D02*
X63501Y16127D01*
X65725Y15982D02*
X66025Y15982D01*
X65875Y15832D02*
X65875Y16132D01*
X73840Y21194D02*
X74140Y21194D01*
X73990Y21044D02*
X73990Y21344D01*
X68134Y21243D02*
X68434Y21243D01*
X68284Y21093D02*
X68284Y21393D01*
X65725Y21243D02*
X66025Y21243D01*
X65875Y21093D02*
X65875Y21393D01*
X73840Y24376D02*
X74140Y24376D01*
X73990Y24226D02*
X73990Y24526D01*
X70579Y24322D02*
X70879Y24322D01*
X70729Y24172D02*
X70729Y24472D01*
X66905Y24322D02*
X67205Y24322D01*
X67055Y24172D02*
X67055Y24472D01*
X73840Y27426D02*
X74140Y27426D01*
X73990Y27276D02*
X73990Y27576D01*
X70579Y27486D02*
X70879Y27486D01*
X70729Y27336D02*
X70729Y27636D01*
X66905Y27426D02*
X67205Y27426D01*
X67055Y27276D02*
X67055Y27576D01*
X62717Y32346D02*
X63017Y32346D01*
X62867Y32196D02*
X62867Y32496D01*
X60923Y32300D02*
X61223Y32300D01*
X61073Y32150D02*
X61073Y32450D01*
X57329Y-3437D02*
X57629Y-3437D01*
X57479Y-3586D02*
X57479Y-3286D01*
X57329Y-2202D02*
X57629Y-2202D01*
X57479Y-2352D02*
X57479Y-2052D01*
X57329Y-603D02*
X57629Y-603D01*
X57479Y-753D02*
X57479Y-453D01*
X57329Y614D02*
X57629Y614D01*
X57479Y464D02*
X57479Y764D01*
X57329Y2021D02*
X57629Y2021D01*
X57479Y1871D02*
X57479Y2171D01*
X55850Y-3502D02*
X56150Y-3502D01*
X56000Y-3652D02*
X56000Y-3352D01*
X55850Y-2202D02*
X56150Y-2202D01*
X56000Y-2352D02*
X56000Y-2052D01*
X55850Y-635D02*
X56150Y-635D01*
X56000Y-785D02*
X56000Y-485D01*
X55871Y635D02*
X56171Y635D01*
X56021Y485D02*
X56021Y785D01*
X55871Y2034D02*
X56171Y2034D01*
X56021Y1884D02*
X56021Y2184D01*
X65270Y5432D02*
X65570Y5432D01*
X65420Y5282D02*
X65420Y5582D01*
X69820Y11306D02*
X70120Y11306D01*
X69970Y11156D02*
X69970Y11456D01*
X67650Y11306D02*
X67950Y11306D01*
X67800Y11156D02*
X67800Y11456D01*
X65270Y11306D02*
X65570Y11306D01*
X65420Y11156D02*
X65420Y11456D01*
X65270Y8397D02*
X65570Y8397D01*
X65420Y8247D02*
X65420Y8547D01*
X67650Y8426D02*
X67950Y8426D01*
X67800Y8276D02*
X67800Y8576D01*
X70182Y-24466D02*
X70482Y-24466D01*
X70332Y-24616D02*
X70332Y-24316D01*
X65225Y-24466D02*
X65525Y-24466D01*
X65375Y-24616D02*
X65375Y-24316D01*
X70182Y-28325D02*
X70482Y-28325D01*
X70332Y-28475D02*
X70332Y-28175D01*
X65225Y-28325D02*
X65525Y-28325D01*
X65375Y-28475D02*
X65375Y-28175D01*
X60350Y-28325D02*
X60650Y-28325D01*
X60500Y-28475D02*
X60500Y-28175D01*
X58529Y-21900D02*
X58829Y-21900D01*
X58679Y-22050D02*
X58679Y-21750D01*
X54368Y-21900D02*
X54668Y-21900D01*
X54518Y-22050D02*
X54518Y-21750D01*
X49432Y-21900D02*
X49732Y-21900D01*
X49582Y-22050D02*
X49582Y-21750D01*
X44756Y-22100D02*
X45056Y-22100D01*
X44906Y-22250D02*
X44906Y-21950D01*
X60350Y-24526D02*
X60650Y-24526D01*
X60500Y-24676D02*
X60500Y-24376D01*
X58529Y-18041D02*
X58829Y-18041D01*
X58679Y-18191D02*
X58679Y-17891D01*
X54368Y-18101D02*
X54668Y-18101D01*
X54518Y-18250D02*
X54518Y-17951D01*
X49376Y-18101D02*
X49676Y-18101D01*
X49526Y-18250D02*
X49526Y-17951D01*
X44725Y-18191D02*
X45025Y-18191D01*
X44875Y-18341D02*
X44875Y-18041D01*
X75424Y2225D02*
X75724Y2225D01*
X75574Y2075D02*
X75574Y2375D01*
X75424Y3400D02*
X75724Y3400D01*
X75574Y3250D02*
X75574Y3550D01*
X60002Y52198D02*
X60302Y52198D01*
X60152Y52048D02*
X60152Y52348D01*
X28950Y61956D02*
X29250Y61956D01*
X29100Y61806D02*
X29100Y62106D01*
X26729Y61956D02*
X27029Y61956D01*
X26879Y61806D02*
X26879Y62106D01*
X24387Y61956D02*
X24687Y61956D01*
X24537Y61806D02*
X24537Y62106D01*
X22285Y61956D02*
X22585Y61956D01*
X22435Y61806D02*
X22435Y62106D01*
X20133Y61956D02*
X20433Y61956D01*
X20283Y61806D02*
X20283Y62106D01*
X28950Y64125D02*
X29250Y64125D01*
X29100Y63975D02*
X29100Y64275D01*
X26729Y64086D02*
X27029Y64086D01*
X26879Y63936D02*
X26879Y64236D01*
X24387Y64086D02*
X24687Y64086D01*
X24537Y63936D02*
X24537Y64236D01*
X22285Y64086D02*
X22585Y64086D01*
X22435Y63936D02*
X22435Y64236D01*
X20133Y64086D02*
X20433Y64086D01*
X20283Y63936D02*
X20283Y64236D01*
X33320Y37987D02*
X33620Y37987D01*
X33470Y37837D02*
X33470Y38137D01*
X51164Y29173D02*
X51464Y29173D01*
X51314Y29023D02*
X51314Y29323D01*
X50009Y29210D02*
X50309Y29210D01*
X50159Y29060D02*
X50159Y29360D01*
X51164Y27509D02*
X51464Y27509D01*
X51314Y27359D02*
X51314Y27659D01*
X49992Y27509D02*
X50292Y27509D01*
X50142Y27359D02*
X50142Y27659D01*
X51164Y25561D02*
X51464Y25561D01*
X51314Y25411D02*
X51314Y25711D01*
X49992Y25561D02*
X50292Y25561D01*
X50142Y25411D02*
X50142Y25711D01*
X34867Y50299D02*
X35167Y50299D01*
X35017Y50149D02*
X35017Y50449D01*
X32600Y50299D02*
X32900Y50299D01*
X32750Y50149D02*
X32750Y50449D01*
X30273Y50323D02*
X30573Y50323D01*
X30423Y50173D02*
X30423Y50473D01*
X28301Y50323D02*
X28601Y50323D01*
X28451Y50173D02*
X28451Y50473D01*
X34867Y52198D02*
X35167Y52198D01*
X35017Y52048D02*
X35017Y52348D01*
X32600Y52227D02*
X32900Y52227D01*
X32750Y52077D02*
X32750Y52377D01*
X30273Y52233D02*
X30573Y52233D01*
X30423Y52083D02*
X30423Y52383D01*
X28301Y52233D02*
X28601Y52233D01*
X28451Y52083D02*
X28451Y52383D01*
X34867Y54200D02*
X35167Y54200D01*
X35017Y54050D02*
X35017Y54350D01*
X32600Y54200D02*
X32900Y54200D01*
X32750Y54050D02*
X32750Y54350D01*
X30273Y54200D02*
X30573Y54200D01*
X30423Y54050D02*
X30423Y54350D01*
X28301Y54200D02*
X28601Y54200D01*
X28451Y54050D02*
X28451Y54350D01*
X12323Y48856D02*
X12623Y48856D01*
X12473Y48706D02*
X12473Y49006D01*
X12323Y50034D02*
X12623Y50034D01*
X12473Y49884D02*
X12473Y50184D01*
X17598Y55668D02*
X17898Y55668D01*
X17748Y55518D02*
X17748Y55818D01*
X15900Y55668D02*
X16200Y55668D01*
X16050Y55518D02*
X16050Y55818D01*
X22910Y49805D02*
X23210Y49805D01*
X23060Y49655D02*
X23060Y49955D01*
X23082Y51524D02*
X23382Y51524D01*
X23232Y51374D02*
X23232Y51674D01*
X19550Y52925D02*
X19850Y52925D01*
X19700Y52775D02*
X19700Y53075D01*
X24226Y32300D02*
X24526Y32300D01*
X24376Y32150D02*
X24376Y32450D01*
X26328Y30891D02*
X26628Y30891D01*
X26478Y30741D02*
X26478Y31041D01*
X3718Y43765D02*
X4018Y43765D01*
X3868Y43615D02*
X3868Y43915D01*
X16682Y58734D02*
X16982Y58734D01*
X16832Y58584D02*
X16832Y58884D01*
X7526Y39909D02*
X7826Y39909D01*
X7676Y39759D02*
X7676Y40059D01*
X5268Y43704D02*
X5568Y43704D01*
X5418Y43554D02*
X5418Y43854D01*
X58734Y52198D02*
X59034Y52198D01*
X58884Y52048D02*
X58884Y52348D01*
X60002Y54293D02*
X60302Y54293D01*
X60152Y54143D02*
X60152Y54443D01*
X58778Y54293D02*
X59078Y54293D01*
X58928Y54143D02*
X58928Y54443D01*
X25139Y48256D02*
X25439Y48256D01*
X25289Y48106D02*
X25289Y48406D01*
X26129Y48256D02*
X26429Y48256D01*
X26279Y48106D02*
X26279Y48406D01*
X52102Y57847D02*
X52402Y57847D01*
X52252Y57697D02*
X52252Y57997D01*
X61150Y54295D02*
X61450Y54295D01*
X61300Y54145D02*
X61300Y54445D01*
X54511Y44057D02*
X54811Y44057D01*
X54661Y43907D02*
X54661Y44207D01*
X54637Y47169D02*
X54937Y47169D01*
X54787Y47019D02*
X54787Y47319D01*
X60246Y8028D02*
X60546Y8028D01*
X60396Y7878D02*
X60396Y8178D01*
X54617Y17329D02*
X54917Y17329D01*
X54767Y17179D02*
X54767Y17479D01*
X9460Y39604D02*
X9760Y39604D01*
X9610Y39454D02*
X9610Y39754D01*
X52925Y-9725D02*
X53225Y-9725D01*
X53075Y-9875D02*
X53075Y-9575D01*
X39576Y-11517D02*
X39876Y-11517D01*
X39726Y-11667D02*
X39726Y-11367D01*
X29065Y-14271D02*
X29365Y-14271D01*
X29215Y-14421D02*
X29215Y-14121D01*
X29065Y-11261D02*
X29365Y-11261D01*
X29215Y-11411D02*
X29215Y-11111D01*
X26635Y-17739D02*
X26935Y-17739D01*
X26785Y-17889D02*
X26785Y-17589D01*
X28635Y-22860D02*
X28935Y-22860D01*
X28785Y-23010D02*
X28785Y-22710D01*
X28635Y-20468D02*
X28935Y-20468D01*
X28785Y-20618D02*
X28785Y-20318D01*
X42250Y-32175D02*
X42550Y-32175D01*
X42400Y-32325D02*
X42400Y-32025D01*
X42250Y-30200D02*
X42550Y-30200D01*
X42400Y-30350D02*
X42400Y-30050D01*
X42250Y-28525D02*
X42550Y-28525D01*
X42400Y-28675D02*
X42400Y-28375D01*
X42250Y-26800D02*
X42550Y-26800D01*
X42400Y-26950D02*
X42400Y-26650D01*
X42250Y-24725D02*
X42550Y-24725D01*
X42400Y-24875D02*
X42400Y-24575D01*
X29725Y32847D02*
X30025Y32847D01*
X29875Y32697D02*
X29875Y32997D01*
X29725Y35635D02*
X30025Y35635D01*
X29875Y35485D02*
X29875Y35785D01*
X18837Y32847D02*
X19137Y32847D01*
X18987Y32697D02*
X18987Y32997D01*
X73669Y-15548D02*
X73969Y-15548D01*
X73819Y-15698D02*
X73819Y-15398D01*
X37342Y-4764D02*
X37642Y-4764D01*
X37492Y-4914D02*
X37492Y-4614D01*
X34869Y-4769D02*
X35169Y-4769D01*
X35019Y-4919D02*
X35019Y-4619D01*
X31991Y-4769D02*
X32291Y-4769D01*
X32141Y-4919D02*
X32141Y-4619D01*
X29179Y-4769D02*
X29479Y-4769D01*
X29329Y-4919D02*
X29329Y-4619D01*
X26453Y-4769D02*
X26753Y-4769D01*
X26603Y-4919D02*
X26603Y-4619D01*
X23883Y-4769D02*
X24183Y-4769D01*
X24033Y-4919D02*
X24033Y-4619D01*
X37342Y-2063D02*
X37642Y-2063D01*
X37492Y-2213D02*
X37492Y-1913D01*
X37342Y1089D02*
X37642Y1089D01*
X37492Y939D02*
X37492Y1239D01*
X37342Y4590D02*
X37642Y4590D01*
X37492Y4440D02*
X37492Y4740D01*
X37342Y8164D02*
X37642Y8164D01*
X37492Y8014D02*
X37492Y8314D01*
X37332Y11078D02*
X37632Y11078D01*
X37482Y10928D02*
X37482Y11228D01*
X34878Y-2063D02*
X35178Y-2063D01*
X35028Y-2213D02*
X35028Y-1913D01*
X34887Y1059D02*
X35187Y1059D01*
X35037Y909D02*
X35037Y1209D01*
X34878Y4672D02*
X35178Y4672D01*
X35028Y4522D02*
X35028Y4822D01*
X34869Y8164D02*
X35169Y8164D01*
X35019Y8014D02*
X35019Y8314D01*
X34859Y11078D02*
X35159Y11078D01*
X35009Y10928D02*
X35009Y11228D01*
X82225Y64425D02*
X82525Y64425D01*
X82375Y64275D02*
X82375Y64575D01*
X78061Y64425D02*
X78361Y64425D01*
X78211Y64275D02*
X78211Y64575D01*
X80200Y64425D02*
X80500Y64425D01*
X80350Y64275D02*
X80350Y64575D01*
X90250Y64425D02*
X90550Y64425D01*
X90400Y64275D02*
X90400Y64575D01*
X88200Y64425D02*
X88500Y64425D01*
X88350Y64275D02*
X88350Y64575D01*
X86275Y64425D02*
X86575Y64425D01*
X86425Y64275D02*
X86425Y64575D01*
X84250Y64425D02*
X84550Y64425D01*
X84400Y64275D02*
X84400Y64575D01*
X92612Y62982D02*
X92912Y62982D01*
X92762Y62832D02*
X92762Y63132D01*
X90250Y62884D02*
X90550Y62884D01*
X90400Y62734D02*
X90400Y63034D01*
X78061Y62989D02*
X78361Y62989D01*
X78211Y62839D02*
X78211Y63139D01*
X80171Y62954D02*
X80471Y62954D01*
X80321Y62804D02*
X80321Y63104D01*
X27938Y41153D02*
X28238Y41153D01*
X28088Y41003D02*
X28088Y41303D01*
X35752Y40678D02*
X36052Y40678D01*
X35902Y40528D02*
X35902Y40828D01*
X59038Y1362D02*
X59338Y1362D01*
X59188Y1212D02*
X59188Y1512D01*
X62643Y1262D02*
X62943Y1262D01*
X62793Y1112D02*
X62793Y1412D01*
X34435Y45754D02*
X34735Y45754D01*
X34585Y45604D02*
X34585Y45904D01*
X22476Y44708D02*
X22776Y44708D01*
X22626Y44558D02*
X22626Y44858D01*
X18750Y17205D02*
X19050Y17205D01*
X18900Y17055D02*
X18900Y17355D01*
X31392Y39795D02*
X31692Y39795D01*
X31542Y39645D02*
X31542Y39945D01*
X25999Y39331D02*
X26299Y39331D01*
X26149Y39181D02*
X26149Y39481D01*
X15212Y58882D02*
X15512Y58882D01*
X15362Y58732D02*
X15362Y59032D01*
X13803Y58904D02*
X14103Y58904D01*
X13953Y58754D02*
X13953Y59054D01*
X69782Y8477D02*
X70082Y8477D01*
X69932Y8327D02*
X69932Y8627D01*
X57150Y6871D02*
X57450Y6871D01*
X57300Y6721D02*
X57300Y7021D01*
X31991Y1062D02*
X32291Y1062D01*
X32141Y912D02*
X32141Y1212D01*
X17872Y-2238D02*
X18172Y-2238D01*
X18022Y-2388D02*
X18022Y-2088D01*
X17896Y-4314D02*
X18196Y-4314D01*
X18046Y-4464D02*
X18046Y-4164D01*
X14176Y-2263D02*
X14476Y-2263D01*
X14326Y-2413D02*
X14326Y-2113D01*
X14176Y-4339D02*
X14476Y-4339D01*
X14326Y-4489D02*
X14326Y-4189D01*
X17970Y-6459D02*
X18270Y-6459D01*
X18120Y-6609D02*
X18120Y-6309D01*
X11153Y3912D02*
X11453Y3912D01*
X11303Y3762D02*
X11303Y4062D01*
X16745Y10541D02*
X17045Y10541D01*
X16895Y10391D02*
X16895Y10691D01*
X26672Y-14271D02*
X26972Y-14271D01*
X26822Y-14421D02*
X26822Y-14121D01*
X35850Y-14652D02*
X36150Y-14652D01*
X36000Y-14802D02*
X36000Y-14502D01*
X36000Y-11517D02*
X36300Y-11517D01*
X36150Y-11667D02*
X36150Y-11367D01*
X39728Y-14834D02*
X40028Y-14834D01*
X39878Y-14984D02*
X39878Y-14684D01*
X39728Y-16612D02*
X40028Y-16612D01*
X39878Y-16762D02*
X39878Y-16462D01*
X26672Y-22860D02*
X26972Y-22860D01*
X26822Y-23010D02*
X26822Y-22710D01*
X26672Y-20441D02*
X26972Y-20441D01*
X26822Y-20591D02*
X26822Y-20291D01*
X24065Y-22860D02*
X24365Y-22860D01*
X24215Y-23010D02*
X24215Y-22710D01*
X11600Y13841D02*
X11900Y13841D01*
X11750Y13691D02*
X11750Y13991D01*
X11600Y17112D02*
X11900Y17112D01*
X11750Y16962D02*
X11750Y17262D01*
X17920Y10542D02*
X18220Y10542D01*
X18070Y10392D02*
X18070Y10692D01*
X14725Y13767D02*
X15025Y13767D01*
X14875Y13617D02*
X14875Y13917D01*
X16477Y13767D02*
X16777Y13767D01*
X16627Y13617D02*
X16627Y13917D01*
X18050Y13767D02*
X18350Y13767D01*
X18200Y13617D02*
X18200Y13917D01*
X14904Y665D02*
X15204Y665D01*
X15054Y515D02*
X15054Y815D01*
X12956Y665D02*
X13256Y665D01*
X13106Y515D02*
X13106Y815D01*
X11100Y665D02*
X11400Y665D01*
X11250Y515D02*
X11250Y815D01*
X12956Y3912D02*
X13256Y3912D01*
X13106Y3762D02*
X13106Y4062D01*
X12956Y5918D02*
X13256Y5918D01*
X13106Y5768D02*
X13106Y6068D01*
X12956Y8215D02*
X13256Y8215D01*
X13106Y8065D02*
X13106Y8365D01*
X36000Y-9800D02*
X36300Y-9800D01*
X36150Y-9950D02*
X36150Y-9650D01*
X39576Y-9808D02*
X39876Y-9808D01*
X39726Y-9958D02*
X39726Y-9658D01*
X33556Y-20468D02*
X33856Y-20468D01*
X33706Y-20618D02*
X33706Y-20318D01*
X33632Y-22860D02*
X33932Y-22860D01*
X33782Y-23010D02*
X33782Y-22710D01*
X36000Y-18341D02*
X36300Y-18341D01*
X36150Y-18491D02*
X36150Y-18191D01*
X33605Y-18341D02*
X33905Y-18341D01*
X33755Y-18491D02*
X33755Y-18191D01*
X34013Y-14656D02*
X34313Y-14656D01*
X34163Y-14806D02*
X34163Y-14506D01*
X30375Y-16713D02*
X30675Y-16713D01*
X30525Y-16863D02*
X30525Y-16563D01*
X57211Y45050D02*
X57511Y45050D01*
X57361Y44900D02*
X57361Y45200D01*
X16502Y8215D02*
X16802Y8215D01*
X16652Y8065D02*
X16652Y8365D01*
X16502Y3912D02*
X16802Y3912D01*
X16652Y3762D02*
X16652Y4062D01*
X8181Y13841D02*
X8481Y13841D01*
X8331Y13691D02*
X8331Y13991D01*
X80171Y56154D02*
X80471Y56154D01*
X80321Y56004D02*
X80321Y56304D01*
X80171Y58738D02*
X80471Y58738D01*
X80321Y58588D02*
X80321Y58888D01*
X80171Y60990D02*
X80471Y60990D01*
X80321Y60840D02*
X80321Y61140D01*
X94850Y56175D02*
X95150Y56175D01*
X95000Y56025D02*
X95000Y56325D01*
X94850Y58748D02*
X95150Y58748D01*
X95000Y58598D02*
X95000Y58898D01*
X94850Y61000D02*
X95150Y61000D01*
X95000Y60850D02*
X95000Y61150D01*
X92650Y61000D02*
X92950Y61000D01*
X92800Y60850D02*
X92800Y61150D01*
X10944Y50034D02*
X11244Y50034D01*
X11094Y49884D02*
X11094Y50184D01*
X25836Y32209D02*
X26136Y32209D01*
X25986Y32059D02*
X25986Y32359D01*
X42379Y37558D02*
X42679Y37558D01*
X42529Y37408D02*
X42529Y37708D01*
X50127Y37558D02*
X50427Y37558D01*
X50277Y37408D02*
X50277Y37708D01*
X51583Y37750D02*
X51883Y37750D01*
X51733Y37600D02*
X51733Y37900D01*
X46877Y43825D02*
X47177Y43825D01*
X47027Y43675D02*
X47027Y43975D01*
X30375Y-20468D02*
X30675Y-20468D01*
X30525Y-20618D02*
X30525Y-20318D01*
X30375Y-22860D02*
X30675Y-22860D01*
X30525Y-23010D02*
X30525Y-22710D01*
X24065Y-20441D02*
X24365Y-20441D01*
X24215Y-20591D02*
X24215Y-20291D01*
X24000Y-17739D02*
X24300Y-17739D01*
X24150Y-17889D02*
X24150Y-17589D01*
X24065Y-14271D02*
X24365Y-14271D01*
X24215Y-14421D02*
X24215Y-14121D01*
X41200Y-22860D02*
X41500Y-22860D01*
X41350Y-23010D02*
X41350Y-22710D01*
X41200Y-20441D02*
X41500Y-20441D01*
X41350Y-20591D02*
X41350Y-20291D01*
X38635Y-22860D02*
X38935Y-22860D01*
X38785Y-23010D02*
X38785Y-22710D01*
X38635Y-20441D02*
X38935Y-20441D01*
X38785Y-20591D02*
X38785Y-20291D01*
X36000Y-22860D02*
X36300Y-22860D01*
X36150Y-23010D02*
X36150Y-22710D01*
X36000Y-20441D02*
X36300Y-20441D01*
X36150Y-20591D02*
X36150Y-20291D01*
X21101Y-11261D02*
X21401Y-11261D01*
X21251Y-11411D02*
X21251Y-11111D01*
X21101Y-14271D02*
X21401Y-14271D01*
X21251Y-14421D02*
X21251Y-14121D01*
X21350Y13300D02*
X21650Y13300D01*
X21500Y13150D02*
X21500Y13450D01*
X22990Y13303D02*
X23290Y13303D01*
X23140Y13153D02*
X23140Y13453D01*
X92650Y58748D02*
X92950Y58748D01*
X92800Y58598D02*
X92800Y58898D01*
X92650Y56175D02*
X92950Y56175D01*
X92800Y56025D02*
X92800Y56325D01*
X90250Y56175D02*
X90550Y56175D01*
X90400Y56025D02*
X90400Y56325D01*
X78041Y60990D02*
X78341Y60990D01*
X78191Y60840D02*
X78191Y61140D01*
X75821Y60990D02*
X76121Y60990D01*
X75971Y60840D02*
X75971Y61140D01*
X32007Y-1919D02*
X32307Y-1919D01*
X32157Y-2069D02*
X32157Y-1769D01*
X32016Y4680D02*
X32316Y4680D01*
X32166Y4530D02*
X32166Y4830D01*
X32016Y8137D02*
X32316Y8137D01*
X32166Y7987D02*
X32166Y8287D01*
X31991Y11105D02*
X32291Y11105D01*
X32141Y10955D02*
X32141Y11255D01*
X21101Y-17739D02*
X21401Y-17739D01*
X21251Y-17889D02*
X21251Y-17589D01*
X17920Y-17739D02*
X18220Y-17739D01*
X18070Y-17889D02*
X18070Y-17589D01*
X17944Y-14271D02*
X18244Y-14271D01*
X18094Y-14421D02*
X18094Y-14121D01*
X17920Y-8850D02*
X18220Y-8850D01*
X18070Y-9000D02*
X18070Y-8700D01*
X14053Y-28933D02*
X14353Y-28933D01*
X14203Y-29083D02*
X14203Y-28783D01*
X14053Y-32013D02*
X14353Y-32013D01*
X14203Y-32162D02*
X14203Y-31862D01*
X29163Y-1925D02*
X29463Y-1925D01*
X29313Y-2075D02*
X29313Y-1775D01*
X26447Y-2018D02*
X26747Y-2018D01*
X26597Y-2168D02*
X26597Y-1868D01*
X23883Y-2090D02*
X24183Y-2090D01*
X24033Y-2240D02*
X24033Y-1940D01*
X17827Y-32075D02*
X18127Y-32075D01*
X17977Y-32225D02*
X17977Y-31925D01*
X17827Y-28964D02*
X18127Y-28964D01*
X17977Y-29114D02*
X17977Y-28814D01*
X17827Y-20475D02*
X18127Y-20475D01*
X17977Y-20625D02*
X17977Y-20325D01*
X17827Y-23006D02*
X18127Y-23006D01*
X17977Y-23156D02*
X17977Y-22856D01*
X17827Y-25675D02*
X18127Y-25675D01*
X17977Y-25825D02*
X17977Y-25525D01*
X21101Y-20475D02*
X21401Y-20475D01*
X21251Y-20625D02*
X21251Y-20325D01*
X21101Y-23006D02*
X21401Y-23006D01*
X21251Y-23156D02*
X21251Y-22856D01*
X21101Y-25675D02*
X21401Y-25675D01*
X21251Y-25825D02*
X21251Y-25525D01*
X21101Y-28964D02*
X21401Y-28964D01*
X21251Y-29114D02*
X21251Y-28814D01*
X21101Y-32013D02*
X21401Y-32013D01*
X21251Y-32162D02*
X21251Y-31862D01*
X14125Y-25726D02*
X14425Y-25726D01*
X14275Y-25876D02*
X14275Y-25576D01*
X14200Y-23006D02*
X14500Y-23006D01*
X14350Y-23156D02*
X14350Y-22856D01*
X14200Y-20475D02*
X14500Y-20475D01*
X14350Y-20625D02*
X14350Y-20325D01*
X14200Y-17739D02*
X14500Y-17739D01*
X14350Y-17889D02*
X14350Y-17589D01*
X14200Y-14343D02*
X14500Y-14343D01*
X14350Y-14493D02*
X14350Y-14193D01*
X14200Y-11236D02*
X14500Y-11236D01*
X14350Y-11386D02*
X14350Y-11086D01*
X14200Y-8825D02*
X14500Y-8825D01*
X14350Y-8975D02*
X14350Y-8675D01*
X14200Y-6434D02*
X14500Y-6434D01*
X14350Y-6584D02*
X14350Y-6284D01*
X29179Y1032D02*
X29479Y1032D01*
X29329Y882D02*
X29329Y1182D01*
X29163Y4645D02*
X29463Y4645D01*
X29313Y4495D02*
X29313Y4795D01*
X29160Y8132D02*
X29460Y8132D01*
X29310Y7982D02*
X29310Y8282D01*
X29160Y11129D02*
X29460Y11129D01*
X29310Y10979D02*
X29310Y11279D01*
X26447Y932D02*
X26747Y932D01*
X26597Y782D02*
X26597Y1082D01*
X26447Y4625D02*
X26747Y4625D01*
X26597Y4475D02*
X26597Y4775D01*
X26447Y8075D02*
X26747Y8075D01*
X26597Y7925D02*
X26597Y8225D01*
X26475Y11095D02*
X26775Y11095D01*
X26625Y10945D02*
X26625Y11245D01*
X23965Y950D02*
X24265Y950D01*
X24115Y800D02*
X24115Y1100D01*
X23848Y4514D02*
X24148Y4514D01*
X23998Y4364D02*
X23998Y4663D01*
X23811Y8000D02*
X24111Y8000D01*
X23961Y7850D02*
X23961Y8150D01*
X23811Y11024D02*
X24111Y11024D01*
X23961Y10874D02*
X23961Y11174D01*
X15974Y32800D02*
X16274Y32800D01*
X16124Y32650D02*
X16124Y32950D01*
X12119Y32788D02*
X12419Y32788D01*
X12269Y32638D02*
X12269Y32938D01*
X8624Y32788D02*
X8924Y32788D01*
X8774Y32638D02*
X8774Y32938D01*
X4727Y32788D02*
X5027Y32788D01*
X4877Y32638D02*
X4877Y32938D01*
X4727Y29090D02*
X5027Y29090D01*
X4877Y28940D02*
X4877Y29240D01*
X4727Y25092D02*
X5027Y25092D01*
X4877Y24942D02*
X4877Y25242D01*
X4727Y21094D02*
X5027Y21094D01*
X4877Y20944D02*
X4877Y21244D01*
X4727Y13842D02*
X5027Y13842D01*
X4877Y13692D02*
X4877Y13992D01*
X1550Y13842D02*
X1850Y13842D01*
X1700Y13692D02*
X1700Y13992D01*
X1550Y17081D02*
X1850Y17081D01*
X1700Y16931D02*
X1700Y17231D01*
X1550Y21054D02*
X1850Y21054D01*
X1700Y20904D02*
X1700Y21204D01*
X1550Y25040D02*
X1850Y25040D01*
X1700Y24890D02*
X1700Y25190D01*
X1550Y29032D02*
X1850Y29032D01*
X1700Y28882D02*
X1700Y29182D01*
X1550Y32455D02*
X1850Y32455D01*
X1700Y32305D02*
X1700Y32605D01*
X1550Y35571D02*
X1850Y35571D01*
X1700Y35421D02*
X1700Y35721D01*
X4711Y35571D02*
X5011Y35571D01*
X4861Y35421D02*
X4861Y35721D01*
X8707Y35635D02*
X9007Y35635D01*
X8857Y35485D02*
X8857Y35785D01*
X12236Y35635D02*
X12536Y35635D01*
X12386Y35485D02*
X12386Y35785D01*
X16061Y35635D02*
X16361Y35635D01*
X16211Y35485D02*
X16211Y35785D01*
X18868Y35571D02*
X19168Y35571D01*
X19018Y35421D02*
X19018Y35721D01*
X24800Y35635D02*
X25100Y35635D01*
X24950Y35485D02*
X24950Y35785D01*
X27287Y35635D02*
X27587Y35635D01*
X27437Y35485D02*
X27437Y35785D01*
X41164Y23715D02*
X41464Y23715D01*
X41314Y23565D02*
X41314Y23865D01*
X42458Y19960D02*
X42758Y19960D01*
X42608Y19810D02*
X42608Y20110D01*
X29850Y14200D02*
X30150Y14200D01*
X30000Y14050D02*
X30000Y14350D01*
X56550Y20936D02*
X56850Y20936D01*
X56700Y20786D02*
X56700Y21086D01*
X45149Y34275D02*
X45449Y34275D01*
X45299Y34125D02*
X45299Y34425D01*
X45012Y16000D02*
X45312Y16000D01*
X45162Y15850D02*
X45162Y16150D01*
X37564Y23665D02*
X37864Y23665D01*
X37714Y23515D02*
X37714Y23815D01*
X48109Y34954D02*
X48409Y34954D01*
X48259Y34804D02*
X48259Y35104D01*
X90250Y61000D02*
X90550Y61000D01*
X90400Y60850D02*
X90400Y61150D01*
X78041Y58748D02*
X78341Y58748D01*
X78191Y58598D02*
X78191Y58898D01*
X90250Y58748D02*
X90550Y58748D01*
X90400Y58598D02*
X90400Y58898D01*
X75821Y56165D02*
X76121Y56165D01*
X75971Y56015D02*
X75971Y56315D01*
X75821Y58738D02*
X76121Y58738D01*
X75971Y58588D02*
X75971Y58888D01*
X78041Y56154D02*
X78341Y56154D01*
X78191Y56004D02*
X78191Y56304D01*
X18084Y46813D02*
X18384Y46813D01*
X18234Y46663D02*
X18234Y46963D01*
X18294Y43884D02*
X18594Y43884D01*
X18444Y43734D02*
X18444Y44034D01*
X19600Y48387D02*
X19900Y48387D01*
X19750Y48237D02*
X19750Y48537D01*
X7094Y43380D02*
X7394Y43380D01*
X7244Y43230D02*
X7244Y43530D01*
X1049Y38863D02*
X1349Y38863D01*
X1199Y38713D02*
X1199Y39013D01*
X26237Y59492D02*
X26537Y59492D01*
X26387Y59342D02*
X26387Y59642D01*
X46208Y12492D02*
X46508Y12492D01*
X46358Y12342D02*
X46358Y12642D01*
X51658Y19034D02*
X51958Y19034D01*
X51808Y18884D02*
X51808Y19184D01*
X17920Y-11261D02*
X18220Y-11261D01*
X18070Y-11411D02*
X18070Y-11111D01*
X8105Y17205D02*
X8405Y17205D01*
X8255Y17055D02*
X8255Y17355D01*
X4727Y17170D02*
X5027Y17170D01*
X4877Y17020D02*
X4877Y17320D01*
X26672Y-11261D02*
X26972Y-11261D01*
X26822Y-11411D02*
X26822Y-11111D01*
X24100Y-11261D02*
X24400Y-11261D01*
X24250Y-11411D02*
X24250Y-11111D01*
X63351Y8879D02*
X63651Y8879D01*
X63501Y8729D02*
X63501Y9029D01*
X23125Y31292D02*
X23425Y31292D01*
X23275Y31142D02*
X23275Y31442D01*
X40500Y9920D02*
X40800Y9920D01*
X40650Y9770D02*
X40650Y10070D01*
X45008Y20295D02*
X45308Y20295D01*
X45158Y20145D02*
X45158Y20445D01*
X53125Y17209D02*
X53425Y17209D01*
X53275Y17059D02*
X53275Y17359D01*
X54029Y7745D02*
X54329Y7745D01*
X54179Y7595D02*
X54179Y7895D01*
X53567Y6271D02*
X53867Y6271D01*
X53717Y6121D02*
X53717Y6421D01*
X61102Y3474D02*
X61402Y3474D01*
X61252Y3324D02*
X61252Y3624D01*
X46617Y9172D02*
X46917Y9172D01*
X46767Y9022D02*
X46767Y9322D01*
X45982Y2543D02*
X46282Y2543D01*
X46132Y2393D02*
X46132Y2693D01*
X27274Y20412D02*
X27574Y20412D01*
X27424Y20262D02*
X27424Y20562D01*
X27802Y18005D02*
X28102Y18005D01*
X27952Y17855D02*
X27952Y18155D01*
X45194Y-9250D02*
X45494Y-9250D01*
X45344Y-9400D02*
X45344Y-9100D01*
X46944Y-9250D02*
X47244Y-9250D01*
X47094Y-9400D02*
X47094Y-9100D01*
X48750Y-9250D02*
X49050Y-9250D01*
X48900Y-9400D02*
X48900Y-9100D01*
X25075Y18079D02*
X25375Y18079D01*
X25225Y17929D02*
X25225Y18229D01*
X29949Y20218D02*
X30249Y20218D01*
X30099Y20068D02*
X30099Y20368D01*
X28726Y22016D02*
X29026Y22016D01*
X28876Y21866D02*
X28876Y22166D01*
X7450Y20611D02*
X7750Y20611D01*
X7600Y20461D02*
X7600Y20761D01*
X29725Y30415D02*
X30025Y30415D01*
X29875Y30265D02*
X29875Y30565D01*
X44241Y35667D02*
X44541Y35667D01*
X44391Y35517D02*
X44391Y35817D01*
X54119Y29550D02*
X54419Y29550D01*
X54269Y29400D02*
X54269Y29700D01*
X53074Y29577D02*
X53374Y29577D01*
X53224Y29427D02*
X53224Y29727D01*
X43380Y25148D02*
X43680Y25148D01*
X43530Y24998D02*
X43530Y25298D01*
X54450Y25546D02*
X54750Y25546D01*
X54600Y25396D02*
X54600Y25696D01*
M02*
