G04*
G04 #@! TF.GenerationSoftware,Altium Limited,Altium Designer,22.6.1 (34)*
G04*
G04 Layer_Physical_Order=2*
G04 Layer_Color=16711680*
%FSLAX43Y43*%
%MOMM*%
G71*
G04*
G04 #@! TF.SameCoordinates,D55714FD-7612-40EE-B6C0-6C4E7D2459FC*
G04*
G04*
G04 #@! TF.FilePolarity,Positive*
G04*
G01*
G75*
%ADD10C,0.250*%
%ADD11C,0.200*%
%ADD12C,0.100*%
%ADD13C,0.254*%
%ADD14C,0.600*%
%ADD15C,0.127*%
%ADD16C,0.180*%
%ADD17C,0.178*%
%ADD18C,0.150*%
%ADD19C,0.350*%
%ADD22C,0.500*%
%ADD83C,1.400*%
%ADD84C,1.200*%
%ADD93C,0.300*%
%ADD99C,1.570*%
%ADD100C,3.450*%
%ADD101C,1.295*%
%ADD102P,1.402X8X22.5*%
%ADD103P,1.840X8X22.5*%
%ADD104C,1.450*%
%ADD105C,1.700*%
%ADD106R,1.700X1.700*%
%ADD107C,0.700*%
G36*
X97694Y59573D02*
X97694Y-27773D01*
X91773Y-33694D01*
X41454Y-33694D01*
X41375Y-33600D01*
X41375Y-33567D01*
X41375Y-23600D01*
X23074Y-23600D01*
X23074Y-33567D01*
X23074Y-33600D01*
X22995Y-33694D01*
X10693Y-33694D01*
X10693Y13137D01*
X306Y13137D01*
X306Y59573D01*
X5609Y64876D01*
X10559Y64883D01*
X10627Y64757D01*
X10582Y64690D01*
X10539Y64475D01*
X10539Y63775D01*
X10582Y63560D01*
X10703Y63378D01*
X10885Y63257D01*
X11100Y63214D01*
X11315Y63257D01*
X11497Y63378D01*
X11618Y63560D01*
X11661Y63775D01*
X11661Y64475D01*
X11618Y64690D01*
X11572Y64758D01*
X11640Y64885D01*
X17566Y64894D01*
X17634Y64767D01*
X17582Y64690D01*
X17539Y64475D01*
X17539Y63775D01*
X17582Y63560D01*
X17703Y63378D01*
X17885Y63257D01*
X18100Y63214D01*
X18315Y63257D01*
X18497Y63378D01*
X18618Y63560D01*
X18661Y63775D01*
X18661Y64475D01*
X18618Y64690D01*
X18565Y64768D01*
X18633Y64896D01*
X92262Y65006D01*
X97694Y59573D01*
X97694Y59573D02*
G37*
G36*
X259352Y-135547D02*
X259440Y-135573D01*
X259542Y-135611D01*
X259631Y-135674D01*
X259720Y-135776D01*
X259783Y-135903D01*
X259809Y-135992D01*
X259809Y-136081D01*
X259809Y-136106D01*
X259796Y-136170D01*
X259783Y-136259D01*
X259745Y-136373D01*
X259682Y-136474D01*
X259580Y-136563D01*
X259440Y-136640D01*
X259364Y-136652D01*
X259263Y-136665D01*
X259225Y-136665D01*
X259174Y-136652D01*
X259123Y-136640D01*
X258983Y-136589D01*
X258907Y-136551D01*
X258844Y-136500D01*
X258831Y-136487D01*
X258818Y-136462D01*
X258793Y-136436D01*
X258767Y-136386D01*
X258704Y-136246D01*
X258691Y-136170D01*
X258678Y-136081D01*
X258678Y-136068D01*
X258678Y-136043D01*
X258691Y-136005D01*
X258704Y-135941D01*
X258755Y-135827D01*
X258805Y-135763D01*
X258856Y-135700D01*
X258869Y-135687D01*
X258882Y-135674D01*
X258920Y-135649D01*
X258971Y-135611D01*
X259098Y-135560D01*
X259174Y-135547D01*
X259263Y-135535D01*
X259288Y-135535D01*
X259352Y-135547D01*
X259352Y-135547D02*
G37*
G36*
X255732Y-135052D02*
X255859Y-135065D01*
X255986Y-135077D01*
X256138Y-135090D01*
X256456Y-135141D01*
X256799Y-135217D01*
X257154Y-135319D01*
X257510Y-135458D01*
X260685Y-140500D01*
X260685Y-140513D01*
X260685Y-140538D01*
X260672Y-140589D01*
X260672Y-140653D01*
X260660Y-140742D01*
X260647Y-140831D01*
X260596Y-141046D01*
X260596Y-141059D01*
X260583Y-141097D01*
X260571Y-141161D01*
X260558Y-141237D01*
X260533Y-141326D01*
X260495Y-141427D01*
X260431Y-141669D01*
X257675Y-137363D01*
X257662Y-137351D01*
X257637Y-137313D01*
X257586Y-137262D01*
X257535Y-137198D01*
X257459Y-137135D01*
X257370Y-137084D01*
X257281Y-137046D01*
X257180Y-137033D01*
X257142Y-137033D01*
X257091Y-137046D01*
X257027Y-137071D01*
X256964Y-137109D01*
X256888Y-137173D01*
X256799Y-137249D01*
X256723Y-137351D01*
X255808Y-138608D01*
X259034Y-143713D01*
X259021Y-143726D01*
X258958Y-143777D01*
X258882Y-143840D01*
X258755Y-143929D01*
X258615Y-144031D01*
X258437Y-144145D01*
X258221Y-144272D01*
X257993Y-144399D01*
X257726Y-144526D01*
X257447Y-144653D01*
X257142Y-144768D01*
X256812Y-144869D01*
X256456Y-144958D01*
X256088Y-145022D01*
X255707Y-145072D01*
X255300Y-145085D01*
X255199Y-145085D01*
X255084Y-145072D01*
X254932Y-145060D01*
X254741Y-145034D01*
X254513Y-144996D01*
X254259Y-144945D01*
X253992Y-144882D01*
X253700Y-144793D01*
X253383Y-144679D01*
X253065Y-144552D01*
X252748Y-144387D01*
X252417Y-144196D01*
X252087Y-143980D01*
X251770Y-143726D01*
X251465Y-143434D01*
X252836Y-141542D01*
X252849Y-141529D01*
X252875Y-141478D01*
X252887Y-141440D01*
X252900Y-141389D01*
X252925Y-141313D01*
X252938Y-141237D01*
X252938Y-141224D01*
X252938Y-141212D01*
X252925Y-141135D01*
X252875Y-141008D01*
X252836Y-140932D01*
X252786Y-140856D01*
X251770Y-139268D01*
X250258Y-141364D01*
X250258Y-141351D01*
X250246Y-141339D01*
X250246Y-141300D01*
X250233Y-141250D01*
X250208Y-141123D01*
X250169Y-140958D01*
X250131Y-140742D01*
X250106Y-140513D01*
X250093Y-140259D01*
X250081Y-139980D01*
X250081Y-139954D01*
X250081Y-139891D01*
X250093Y-139789D01*
X250106Y-139649D01*
X250131Y-139484D01*
X250157Y-139281D01*
X250208Y-139065D01*
X250258Y-138824D01*
X250335Y-138557D01*
X250436Y-138291D01*
X250550Y-138011D01*
X250690Y-137719D01*
X250855Y-137440D01*
X251046Y-137148D01*
X251274Y-136868D01*
X251528Y-136589D01*
X251541Y-136576D01*
X251605Y-136525D01*
X251693Y-136449D01*
X251808Y-136347D01*
X251960Y-136233D01*
X252138Y-136093D01*
X252354Y-135954D01*
X252595Y-135814D01*
X252875Y-135674D01*
X253167Y-135535D01*
X253484Y-135395D01*
X253827Y-135281D01*
X254208Y-135179D01*
X254589Y-135103D01*
X255008Y-135052D01*
X255440Y-135039D01*
X255630Y-135039D01*
X255732Y-135052D01*
X255732Y-135052D02*
G37*
G36*
X260990Y-146520D02*
X261066Y-146520D01*
X261117Y-146533D01*
X261130Y-146533D01*
X261155Y-146546D01*
X261206Y-146571D01*
X261257Y-146596D01*
X261307Y-146647D01*
X261358Y-146698D01*
X261409Y-146774D01*
X261434Y-146876D01*
X261434Y-146888D01*
X261434Y-146914D01*
X261447Y-146952D01*
X261447Y-147015D01*
X261447Y-147092D01*
X261460Y-147181D01*
X261460Y-147295D01*
X261460Y-147435D01*
X259580Y-147384D01*
X259567Y-147384D01*
X259517Y-147396D01*
X259440Y-147422D01*
X259364Y-147460D01*
X259275Y-147549D01*
X259212Y-147676D01*
X259174Y-147752D01*
X259161Y-147854D01*
X259136Y-147955D01*
X259136Y-148082D01*
X259136Y-148463D01*
X259136Y-148476D01*
X259136Y-148489D01*
X259148Y-148565D01*
X259161Y-148679D01*
X259186Y-148806D01*
X259237Y-148933D01*
X259313Y-149047D01*
X259415Y-149124D01*
X259479Y-149136D01*
X259555Y-149149D01*
X261485Y-149149D01*
X261485Y-149174D01*
X261485Y-149238D01*
X261485Y-149327D01*
X261472Y-149441D01*
X261460Y-149568D01*
X261447Y-149682D01*
X261422Y-149771D01*
X261384Y-149848D01*
X261384Y-149860D01*
X261358Y-149873D01*
X261320Y-149898D01*
X261257Y-149936D01*
X261168Y-149975D01*
X261053Y-150000D01*
X260914Y-150013D01*
X260736Y-150025D01*
X259339Y-150025D01*
X259225Y-150000D01*
X259085Y-149975D01*
X258932Y-149936D01*
X258793Y-149873D01*
X258653Y-149784D01*
X258551Y-149657D01*
X258551Y-149644D01*
X258526Y-149606D01*
X258501Y-149543D01*
X258475Y-149441D01*
X258450Y-149327D01*
X258424Y-149174D01*
X258412Y-148997D01*
X258399Y-148793D01*
X258399Y-147765D01*
X258399Y-147752D01*
X258399Y-147727D01*
X258399Y-147676D01*
X258412Y-147625D01*
X258424Y-147473D01*
X258450Y-147295D01*
X258501Y-147104D01*
X258577Y-146914D01*
X258678Y-146761D01*
X258742Y-146685D01*
X258818Y-146634D01*
X258831Y-146634D01*
X258856Y-146609D01*
X258907Y-146596D01*
X258971Y-146571D01*
X259059Y-146546D01*
X259161Y-146533D01*
X259288Y-146507D01*
X260825Y-146507D01*
X260990Y-146520D01*
X260990Y-146520D02*
G37*
G36*
X264914Y-150000D02*
X264178Y-150000D01*
X264178Y-148692D01*
X262628Y-148692D01*
X262628Y-150000D01*
X261942Y-150000D01*
X261942Y-146533D01*
X262628Y-146533D01*
X262628Y-147765D01*
X264178Y-147765D01*
X264178Y-146533D01*
X264914Y-146533D01*
X264914Y-150000D01*
X264914Y-150000D02*
G37*
G36*
X245216Y-145415D02*
X245280Y-145428D01*
X245356Y-145466D01*
X245432Y-145530D01*
X245509Y-145631D01*
X245559Y-145758D01*
X245597Y-145936D01*
X246067Y-150000D01*
X245204Y-150000D01*
X244962Y-147079D01*
X244937Y-147079D01*
X244048Y-149428D01*
X244035Y-149441D01*
X244023Y-149492D01*
X243985Y-149543D01*
X243934Y-149619D01*
X243858Y-149682D01*
X243769Y-149746D01*
X243667Y-149797D01*
X243540Y-149809D01*
X243527Y-149809D01*
X243477Y-149797D01*
X243413Y-149784D01*
X243324Y-149759D01*
X243235Y-149721D01*
X243146Y-149644D01*
X243057Y-149555D01*
X242994Y-149428D01*
X242118Y-147117D01*
X242105Y-147117D01*
X241851Y-150000D01*
X241000Y-150000D01*
X241445Y-145898D01*
X241445Y-145872D01*
X241457Y-145822D01*
X241483Y-145745D01*
X241521Y-145644D01*
X241584Y-145555D01*
X241660Y-145479D01*
X241775Y-145428D01*
X241902Y-145403D01*
X241927Y-145403D01*
X241978Y-145415D01*
X242054Y-145428D01*
X242156Y-145453D01*
X242257Y-145517D01*
X242359Y-145593D01*
X242461Y-145707D01*
X242537Y-145860D01*
X243527Y-148374D01*
X243540Y-148374D01*
X244531Y-145860D01*
X244543Y-145834D01*
X244569Y-145784D01*
X244607Y-145720D01*
X244670Y-145631D01*
X244759Y-145542D01*
X244874Y-145479D01*
X245001Y-145428D01*
X245153Y-145403D01*
X245166Y-145403D01*
X245216Y-145415D01*
X245216Y-145415D02*
G37*
G36*
X269042Y-146546D02*
X269156Y-146558D01*
X269296Y-146609D01*
X269435Y-146673D01*
X269562Y-146774D01*
X269677Y-146927D01*
X269715Y-147015D01*
X269753Y-147117D01*
X269753Y-147130D01*
X269766Y-147155D01*
X269766Y-147219D01*
X269778Y-147282D01*
X269791Y-147371D01*
X269791Y-147473D01*
X269804Y-147600D01*
X269804Y-147727D01*
X269804Y-148006D01*
X269804Y-148019D01*
X269804Y-148031D01*
X269804Y-148108D01*
X269791Y-148209D01*
X269778Y-148349D01*
X269753Y-148489D01*
X269715Y-148641D01*
X269664Y-148781D01*
X269600Y-148895D01*
X269588Y-148908D01*
X269575Y-148933D01*
X269537Y-148971D01*
X269486Y-149009D01*
X269410Y-149047D01*
X269334Y-149086D01*
X269245Y-149111D01*
X269131Y-149124D01*
X267416Y-149124D01*
X267416Y-150000D01*
X266692Y-150000D01*
X266692Y-146533D01*
X268965Y-146533D01*
X269042Y-146546D01*
X269042Y-146546D02*
G37*
G36*
X266235Y-150000D02*
X265422Y-150000D01*
X265422Y-146533D01*
X266235Y-146533D01*
X266235Y-150000D01*
X266235Y-150000D02*
G37*
G36*
X253725Y-146546D02*
X253840Y-146584D01*
X253967Y-146660D01*
X254030Y-146711D01*
X254094Y-146787D01*
X254157Y-146863D01*
X254208Y-146965D01*
X254246Y-147079D01*
X254284Y-147219D01*
X254297Y-147384D01*
X254310Y-147562D01*
X254310Y-147777D01*
X254310Y-147790D01*
X254310Y-147803D01*
X254310Y-147841D01*
X254310Y-147892D01*
X254284Y-148019D01*
X254259Y-148158D01*
X254208Y-148311D01*
X254145Y-148451D01*
X254043Y-148565D01*
X253979Y-148616D01*
X253916Y-148641D01*
X253916Y-148654D01*
X253929Y-148654D01*
X253979Y-148679D01*
X254043Y-148730D01*
X254119Y-148793D01*
X254183Y-148895D01*
X254246Y-149022D01*
X254297Y-149200D01*
X254310Y-149314D01*
X254310Y-149428D01*
X254310Y-150000D01*
X253573Y-150000D01*
X253573Y-149594D01*
X253573Y-149581D01*
X253573Y-149543D01*
X253573Y-149492D01*
X253573Y-149441D01*
X253560Y-149314D01*
X253560Y-149263D01*
X253548Y-149225D01*
X253535Y-149200D01*
X253497Y-149162D01*
X253408Y-149124D01*
X253294Y-149098D01*
X252011Y-149098D01*
X252011Y-150000D01*
X251274Y-150000D01*
X251274Y-146533D01*
X253649Y-146533D01*
X253725Y-146546D01*
X253725Y-146546D02*
G37*
G36*
X247312Y-150000D02*
X246499Y-150000D01*
X246499Y-146533D01*
X247312Y-146533D01*
X247312Y-150000D01*
X247312Y-150000D02*
G37*
G36*
X257154Y-146520D02*
X257281Y-146546D01*
X257421Y-146584D01*
X257561Y-146634D01*
X257675Y-146711D01*
X257777Y-146812D01*
X257789Y-146825D01*
X257815Y-146863D01*
X257840Y-146939D01*
X257891Y-147041D01*
X257929Y-147181D01*
X257954Y-147333D01*
X257980Y-147523D01*
X257993Y-147752D01*
X257993Y-148781D01*
X257993Y-148793D01*
X257993Y-148819D01*
X257993Y-148870D01*
X257980Y-148933D01*
X257967Y-149098D01*
X257929Y-149289D01*
X257866Y-149492D01*
X257777Y-149682D01*
X257650Y-149848D01*
X257574Y-149911D01*
X257485Y-149962D01*
X257472Y-149962D01*
X257447Y-149975D01*
X257408Y-149987D01*
X257345Y-149987D01*
X257269Y-150000D01*
X257180Y-150013D01*
X257066Y-150025D01*
X255694Y-150025D01*
X255592Y-150013D01*
X255453Y-149987D01*
X255313Y-149949D01*
X255173Y-149886D01*
X255034Y-149809D01*
X254932Y-149695D01*
X254919Y-149682D01*
X254907Y-149644D01*
X254868Y-149568D01*
X254843Y-149467D01*
X254805Y-149340D01*
X254767Y-149187D01*
X254754Y-148997D01*
X254741Y-148781D01*
X254741Y-147752D01*
X254741Y-147739D01*
X254741Y-147701D01*
X254741Y-147650D01*
X254754Y-147587D01*
X254754Y-147511D01*
X254780Y-147409D01*
X254818Y-147206D01*
X254894Y-147003D01*
X254995Y-146800D01*
X255059Y-146723D01*
X255148Y-146647D01*
X255237Y-146584D01*
X255338Y-146546D01*
X255351Y-146546D01*
X255376Y-146533D01*
X255415Y-146533D01*
X255465Y-146520D01*
X255529Y-146520D01*
X255605Y-146507D01*
X257053Y-146507D01*
X257154Y-146520D01*
X257154Y-146520D02*
G37*
G36*
X250081Y-146520D02*
X250258Y-146520D01*
X250411Y-146533D01*
X250487Y-146546D01*
X250538Y-146558D01*
X250589Y-146571D01*
X250614Y-146584D01*
X250627Y-146584D01*
X250639Y-146609D01*
X250677Y-146660D01*
X250716Y-146723D01*
X250741Y-146825D01*
X250779Y-146965D01*
X250792Y-147155D01*
X250804Y-147257D01*
X250804Y-147384D01*
X248912Y-147384D01*
X248823Y-147396D01*
X248722Y-147447D01*
X248671Y-147473D01*
X248620Y-147523D01*
X248620Y-147536D01*
X248607Y-147549D01*
X248582Y-147587D01*
X248569Y-147650D01*
X248544Y-147727D01*
X248518Y-147816D01*
X248506Y-147943D01*
X248506Y-148082D01*
X248506Y-148463D01*
X248506Y-148476D01*
X248506Y-148527D01*
X248506Y-148603D01*
X248518Y-148679D01*
X248531Y-148857D01*
X248544Y-148933D01*
X248569Y-148984D01*
X248569Y-148997D01*
X248582Y-149009D01*
X248645Y-149060D01*
X248696Y-149098D01*
X248760Y-149124D01*
X248836Y-149136D01*
X248925Y-149149D01*
X250855Y-149149D01*
X250855Y-149174D01*
X250855Y-149225D01*
X250855Y-149314D01*
X250843Y-149416D01*
X250830Y-149530D01*
X250817Y-149644D01*
X250792Y-149733D01*
X250754Y-149809D01*
X250741Y-149822D01*
X250728Y-149848D01*
X250677Y-149873D01*
X250627Y-149911D01*
X250538Y-149962D01*
X250423Y-149987D01*
X250284Y-150013D01*
X250106Y-150025D01*
X248709Y-150025D01*
X248595Y-150013D01*
X248480Y-149987D01*
X248341Y-149962D01*
X248201Y-149911D01*
X248074Y-149835D01*
X247972Y-149746D01*
X247960Y-149733D01*
X247934Y-149695D01*
X247896Y-149619D01*
X247858Y-149517D01*
X247820Y-149390D01*
X247782Y-149225D01*
X247756Y-149022D01*
X247744Y-148781D01*
X247744Y-147752D01*
X247744Y-147739D01*
X247744Y-147701D01*
X247744Y-147650D01*
X247756Y-147574D01*
X247769Y-147485D01*
X247782Y-147396D01*
X247833Y-147181D01*
X247922Y-146965D01*
X248049Y-146761D01*
X248125Y-146673D01*
X248226Y-146609D01*
X248328Y-146558D01*
X248455Y-146520D01*
X248480Y-146520D01*
X248557Y-146507D01*
X249915Y-146507D01*
X250081Y-146520D01*
X250081Y-146520D02*
G37*
%LPC*%
G36*
X58912Y63842D02*
X58912Y63289D01*
X59465Y63289D01*
X59452Y63337D01*
X59333Y63542D01*
X59165Y63710D01*
X58960Y63829D01*
X58912Y63842D01*
X58912Y63842D02*
G37*
G36*
X58312Y63842D02*
X58264Y63829D01*
X58058Y63710D01*
X57890Y63542D01*
X57772Y63337D01*
X57759Y63289D01*
X58312Y63289D01*
X58312Y63842D01*
X58312Y63842D02*
G37*
G36*
X66549Y63984D02*
X66549Y63222D01*
X67311Y63222D01*
X67278Y63348D01*
X67132Y63600D01*
X66927Y63805D01*
X66675Y63950D01*
X66549Y63984D01*
X66549Y63984D02*
G37*
G36*
X65949Y63984D02*
X65823Y63950D01*
X65571Y63805D01*
X65365Y63600D01*
X65220Y63348D01*
X65186Y63222D01*
X65949Y63222D01*
X65949Y63984D01*
X65949Y63984D02*
G37*
G36*
X59465Y62689D02*
X58912Y62689D01*
X58912Y62136D01*
X58960Y62149D01*
X59165Y62267D01*
X59333Y62435D01*
X59452Y62641D01*
X59465Y62689D01*
X59465Y62689D02*
G37*
G36*
X58312Y62689D02*
X57759Y62689D01*
X57772Y62641D01*
X57890Y62435D01*
X58058Y62267D01*
X58264Y62149D01*
X58312Y62136D01*
X58312Y62689D01*
X58312Y62689D02*
G37*
G36*
X56190Y63887D02*
X55954Y63887D01*
X55725Y63825D01*
X55521Y63707D01*
X55353Y63540D01*
X55235Y63335D01*
X55174Y63107D01*
X55174Y62871D01*
X55235Y62642D01*
X55353Y62438D01*
X55521Y62271D01*
X55725Y62152D01*
X55954Y62091D01*
X56190Y62091D01*
X56418Y62152D01*
X56623Y62271D01*
X56790Y62438D01*
X56908Y62642D01*
X56970Y62871D01*
X56970Y63107D01*
X56908Y63335D01*
X56790Y63540D01*
X56623Y63707D01*
X56418Y63825D01*
X56190Y63887D01*
X56190Y63887D02*
G37*
G36*
X53650Y63887D02*
X53414Y63887D01*
X53185Y63825D01*
X52981Y63707D01*
X52813Y63540D01*
X52695Y63335D01*
X52634Y63107D01*
X52634Y62871D01*
X52677Y62711D01*
X49753Y59787D01*
X49664Y59654D01*
X49633Y59498D01*
X49633Y59498D01*
X49633Y53011D01*
X49633Y53011D01*
X49664Y52855D01*
X49753Y52723D01*
X54380Y48096D01*
X54380Y47610D01*
X54279Y47509D01*
X54187Y47289D01*
X54187Y47050D01*
X54279Y46830D01*
X54367Y46741D01*
X54367Y44585D01*
X54321Y44566D01*
X54152Y44397D01*
X54061Y44177D01*
X54061Y43938D01*
X54152Y43718D01*
X54321Y43549D01*
X54541Y43457D01*
X54780Y43457D01*
X55000Y43549D01*
X55169Y43718D01*
X55261Y43938D01*
X55261Y44177D01*
X55169Y44397D01*
X55081Y44486D01*
X55081Y46642D01*
X55127Y46661D01*
X55296Y46830D01*
X55387Y47050D01*
X55387Y47289D01*
X55296Y47509D01*
X55195Y47610D01*
X55195Y48265D01*
X55195Y48265D01*
X55164Y48421D01*
X55076Y48553D01*
X55076Y48553D01*
X50449Y53180D01*
X50449Y59329D01*
X53254Y62134D01*
X53414Y62091D01*
X53650Y62091D01*
X53878Y62152D01*
X54083Y62271D01*
X54250Y62438D01*
X54368Y62642D01*
X54430Y62871D01*
X54430Y63107D01*
X54368Y63335D01*
X54250Y63540D01*
X54083Y63707D01*
X53878Y63825D01*
X53650Y63887D01*
X53650Y63887D02*
G37*
G36*
X51110Y63887D02*
X50874Y63887D01*
X50645Y63825D01*
X50441Y63707D01*
X50273Y63540D01*
X50155Y63335D01*
X50094Y63107D01*
X50094Y62871D01*
X50155Y62644D01*
X48241Y60729D01*
X48152Y60597D01*
X48121Y60441D01*
X48121Y60441D01*
X48121Y51218D01*
X48121Y51218D01*
X48152Y51062D01*
X48241Y50930D01*
X49276Y49894D01*
X49276Y41218D01*
X49159Y41169D01*
X49125Y41203D01*
X48920Y41321D01*
X48692Y41382D01*
X48456Y41382D01*
X48227Y41321D01*
X48023Y41203D01*
X47855Y41036D01*
X47737Y40831D01*
X47676Y40603D01*
X47676Y40366D01*
X47737Y40138D01*
X47855Y39933D01*
X48023Y39766D01*
X48227Y39648D01*
X48456Y39587D01*
X48692Y39587D01*
X48920Y39648D01*
X49125Y39766D01*
X49159Y39800D01*
X49276Y39752D01*
X49276Y38829D01*
X45323Y34875D01*
X45180Y34875D01*
X44959Y34784D01*
X44791Y34615D01*
X44699Y34394D01*
X44699Y34156D01*
X44791Y33935D01*
X44959Y33766D01*
X45180Y33675D01*
X45419Y33675D01*
X45639Y33766D01*
X45808Y33935D01*
X45899Y34156D01*
X45899Y34298D01*
X49972Y38371D01*
X49972Y38371D01*
X50061Y38504D01*
X50092Y38660D01*
X50092Y38660D01*
X50092Y40360D01*
X50216Y40366D01*
X50277Y40138D01*
X50395Y39933D01*
X50563Y39766D01*
X50767Y39648D01*
X50996Y39587D01*
X51232Y39587D01*
X51460Y39648D01*
X51665Y39766D01*
X51832Y39933D01*
X51950Y40138D01*
X52011Y40366D01*
X52011Y40603D01*
X51950Y40831D01*
X51832Y41036D01*
X51665Y41203D01*
X51460Y41321D01*
X51232Y41382D01*
X50996Y41382D01*
X50767Y41321D01*
X50563Y41203D01*
X50395Y41036D01*
X50277Y40831D01*
X50216Y40603D01*
X50092Y40610D01*
X50092Y50063D01*
X50092Y50063D01*
X50061Y50219D01*
X49972Y50352D01*
X49972Y50352D01*
X48937Y51387D01*
X48937Y60272D01*
X50781Y62116D01*
X50874Y62091D01*
X51110Y62091D01*
X51338Y62152D01*
X51543Y62271D01*
X51710Y62438D01*
X51828Y62642D01*
X51890Y62871D01*
X51890Y63107D01*
X51828Y63335D01*
X51710Y63540D01*
X51543Y63707D01*
X51338Y63825D01*
X51110Y63887D01*
X51110Y63887D02*
G37*
G36*
X48570Y63887D02*
X48334Y63887D01*
X48105Y63825D01*
X47901Y63707D01*
X47733Y63540D01*
X47615Y63335D01*
X47554Y63107D01*
X47554Y62871D01*
X47615Y62642D01*
X47733Y62438D01*
X47901Y62271D01*
X48105Y62152D01*
X48334Y62091D01*
X48570Y62091D01*
X48798Y62152D01*
X49003Y62271D01*
X49170Y62438D01*
X49288Y62642D01*
X49350Y62871D01*
X49350Y63107D01*
X49288Y63335D01*
X49170Y63540D01*
X49003Y63707D01*
X48798Y63825D01*
X48570Y63887D01*
X48570Y63887D02*
G37*
G36*
X46030Y63887D02*
X45794Y63887D01*
X45565Y63825D01*
X45361Y63707D01*
X45193Y63540D01*
X45075Y63335D01*
X45014Y63107D01*
X45014Y62871D01*
X45075Y62642D01*
X45193Y62438D01*
X45361Y62271D01*
X45565Y62152D01*
X45794Y62091D01*
X46030Y62091D01*
X46258Y62152D01*
X46463Y62271D01*
X46630Y62438D01*
X46748Y62642D01*
X46810Y62871D01*
X46810Y63107D01*
X46748Y63335D01*
X46630Y63540D01*
X46463Y63707D01*
X46258Y63825D01*
X46030Y63887D01*
X46030Y63887D02*
G37*
G36*
X43490Y63887D02*
X43254Y63887D01*
X43025Y63825D01*
X42821Y63707D01*
X42653Y63540D01*
X42535Y63335D01*
X42474Y63107D01*
X42474Y62871D01*
X42535Y62642D01*
X42653Y62438D01*
X42821Y62271D01*
X43025Y62152D01*
X43254Y62091D01*
X43490Y62091D01*
X43718Y62152D01*
X43923Y62271D01*
X44090Y62438D01*
X44208Y62642D01*
X44270Y62871D01*
X44270Y63107D01*
X44208Y63335D01*
X44090Y63540D01*
X43923Y63707D01*
X43718Y63825D01*
X43490Y63887D01*
X43490Y63887D02*
G37*
G36*
X41281Y63887D02*
X40383Y63887D01*
X39934Y63438D01*
X39934Y62540D01*
X40383Y62091D01*
X41281Y62091D01*
X41730Y62540D01*
X41730Y63438D01*
X41281Y63887D01*
X41281Y63887D02*
G37*
G36*
X72429Y64022D02*
X70229Y64022D01*
X70229Y61870D01*
X69422Y61870D01*
X69388Y61997D01*
X69464Y62041D01*
X69669Y62246D01*
X69814Y62497D01*
X69889Y62777D01*
X69889Y63066D01*
X69814Y63346D01*
X69669Y63597D01*
X69464Y63802D01*
X69213Y63947D01*
X68934Y64022D01*
X68644Y64022D01*
X68364Y63947D01*
X68113Y63802D01*
X67909Y63597D01*
X67764Y63346D01*
X67689Y63066D01*
X67689Y62777D01*
X67764Y62497D01*
X67909Y62246D01*
X68113Y62041D01*
X68190Y61997D01*
X68156Y61870D01*
X66890Y61870D01*
X66856Y61997D01*
X66927Y62038D01*
X67132Y62244D01*
X67278Y62496D01*
X67311Y62622D01*
X66249Y62622D01*
X65186Y62622D01*
X65220Y62496D01*
X65365Y62244D01*
X65571Y62038D01*
X65642Y61997D01*
X65608Y61870D01*
X65350Y61870D01*
X65350Y61870D01*
X65194Y61839D01*
X65062Y61751D01*
X65062Y61751D01*
X64886Y61575D01*
X64797Y61443D01*
X64766Y61287D01*
X64766Y61287D01*
X64766Y38098D01*
X58391Y31722D01*
X56033Y31722D01*
X56032Y31722D01*
X55970Y31839D01*
X63944Y39813D01*
X63944Y39813D01*
X64032Y39945D01*
X64063Y40102D01*
X64063Y61878D01*
X64133Y61897D01*
X64384Y62041D01*
X64589Y62246D01*
X64734Y62497D01*
X64809Y62777D01*
X64809Y63066D01*
X64734Y63346D01*
X64589Y63597D01*
X64384Y63802D01*
X64133Y63947D01*
X63854Y64022D01*
X63564Y64022D01*
X63284Y63947D01*
X63033Y63802D01*
X62829Y63597D01*
X62684Y63346D01*
X62609Y63066D01*
X62609Y62777D01*
X62684Y62497D01*
X62829Y62246D01*
X63033Y62041D01*
X63248Y61918D01*
X63248Y40271D01*
X53155Y30177D01*
X53104Y30177D01*
X52884Y30086D01*
X52715Y29917D01*
X52624Y29697D01*
X52624Y29458D01*
X52715Y29237D01*
X52884Y29069D01*
X53104Y28977D01*
X53343Y28977D01*
X53564Y29069D01*
X53649Y29155D01*
X53760Y29210D01*
X53815Y29155D01*
X53929Y29041D01*
X54149Y28950D01*
X54388Y28950D01*
X54608Y29041D01*
X54777Y29210D01*
X54869Y29431D01*
X54869Y29573D01*
X56202Y30907D01*
X58559Y30907D01*
X58559Y30907D01*
X58716Y30938D01*
X58848Y31026D01*
X65463Y37641D01*
X65463Y37641D01*
X65551Y37773D01*
X65582Y37929D01*
X65582Y61055D01*
X71403Y61055D01*
X71403Y61055D01*
X71559Y61086D01*
X71691Y61174D01*
X71867Y61350D01*
X71867Y61350D01*
X71955Y61482D01*
X71986Y61638D01*
X71986Y61638D01*
X71986Y61822D01*
X72429Y61822D01*
X72429Y64022D01*
X72429Y64022D02*
G37*
G36*
X35852Y63916D02*
X34752Y63916D01*
X34202Y63366D01*
X34202Y62266D01*
X34659Y61809D01*
X34607Y61682D01*
X33911Y61682D01*
X33300Y62293D01*
X33300Y63366D01*
X32750Y63916D01*
X31650Y63916D01*
X31100Y63366D01*
X31100Y62266D01*
X31650Y61716D01*
X32723Y61716D01*
X33453Y60986D01*
X33453Y60986D01*
X33586Y60897D01*
X33742Y60866D01*
X37628Y60866D01*
X39514Y58980D01*
X39514Y41088D01*
X39321Y40895D01*
X39233Y40763D01*
X39202Y40607D01*
X39202Y40607D01*
X39202Y38415D01*
X39202Y38415D01*
X39233Y38259D01*
X39321Y38127D01*
X40178Y37269D01*
X40178Y37269D01*
X40311Y37181D01*
X40467Y37150D01*
X42089Y37150D01*
X42189Y37049D01*
X42410Y36958D01*
X42649Y36958D01*
X42869Y37049D01*
X43038Y37218D01*
X43129Y37438D01*
X43129Y37677D01*
X43038Y37898D01*
X42869Y38066D01*
X42649Y38158D01*
X42410Y38158D01*
X42189Y38066D01*
X42089Y37966D01*
X40636Y37966D01*
X40017Y38584D01*
X40017Y39895D01*
X40144Y39947D01*
X40505Y39587D01*
X41403Y39587D01*
X41851Y40036D01*
X41851Y40933D01*
X41403Y41382D01*
X40505Y41382D01*
X40447Y41325D01*
X40330Y41373D01*
X40330Y59149D01*
X40299Y59305D01*
X40210Y59437D01*
X40210Y59437D01*
X38085Y61563D01*
X37953Y61651D01*
X37797Y61682D01*
X37797Y61682D01*
X35998Y61682D01*
X35945Y61809D01*
X36402Y62266D01*
X36402Y63366D01*
X35852Y63916D01*
X35852Y63916D02*
G37*
G36*
X17228Y62400D02*
X16972Y62400D01*
X16724Y62334D01*
X16501Y62205D01*
X16320Y62024D01*
X16191Y61801D01*
X16125Y61553D01*
X16125Y61297D01*
X16191Y61049D01*
X16320Y60826D01*
X16501Y60645D01*
X16724Y60516D01*
X16972Y60450D01*
X17228Y60450D01*
X17476Y60516D01*
X17699Y60645D01*
X17880Y60826D01*
X18009Y61049D01*
X18075Y61297D01*
X18075Y61553D01*
X18009Y61801D01*
X17880Y62024D01*
X17699Y62205D01*
X17476Y62334D01*
X17228Y62400D01*
X17228Y62400D02*
G37*
G36*
X12228Y62400D02*
X11972Y62400D01*
X11724Y62334D01*
X11501Y62205D01*
X11320Y62024D01*
X11191Y61801D01*
X11125Y61553D01*
X11125Y61297D01*
X11191Y61049D01*
X11320Y60826D01*
X11501Y60645D01*
X11724Y60516D01*
X11972Y60450D01*
X12228Y60450D01*
X12476Y60516D01*
X12699Y60645D01*
X12880Y60826D01*
X13009Y61049D01*
X13075Y61297D01*
X13075Y61553D01*
X13009Y61801D01*
X12880Y62024D01*
X12699Y62205D01*
X12476Y62334D01*
X12228Y62400D01*
X12228Y62400D02*
G37*
G36*
X14072Y59504D02*
X13833Y59504D01*
X13613Y59413D01*
X13444Y59244D01*
X13353Y59023D01*
X13353Y58785D01*
X13444Y58564D01*
X13613Y58395D01*
X13833Y58304D01*
X14072Y58304D01*
X14293Y58395D01*
X14419Y58522D01*
X14874Y58522D01*
X15022Y58374D01*
X15243Y58282D01*
X15481Y58282D01*
X15702Y58374D01*
X15871Y58542D01*
X15962Y58763D01*
X15962Y59002D01*
X15871Y59222D01*
X15702Y59391D01*
X15481Y59482D01*
X15243Y59482D01*
X15022Y59391D01*
X14918Y59286D01*
X14419Y59286D01*
X14293Y59413D01*
X14072Y59504D01*
X14072Y59504D02*
G37*
G36*
X32750Y59474D02*
X31650Y59474D01*
X31100Y58924D01*
X31100Y58756D01*
X30693Y58756D01*
X30547Y58727D01*
X30423Y58644D01*
X29512Y57733D01*
X29400Y57801D01*
X29400Y58868D01*
X28850Y59418D01*
X27750Y59418D01*
X27200Y58868D01*
X27200Y57769D01*
X27750Y57218D01*
X27871Y57218D01*
X27871Y56844D01*
X25019Y53992D01*
X24936Y53868D01*
X24907Y53722D01*
X24907Y48722D01*
X24781Y48596D01*
X24689Y48376D01*
X24689Y48137D01*
X24781Y47916D01*
X24799Y47898D01*
X24750Y47781D01*
X21392Y47781D01*
X21246Y47752D01*
X21122Y47669D01*
X20648Y47195D01*
X18700Y47195D01*
X18574Y47321D01*
X18353Y47413D01*
X18115Y47413D01*
X17894Y47321D01*
X17725Y47153D01*
X17634Y46932D01*
X17634Y46693D01*
X17725Y46473D01*
X17894Y46304D01*
X18115Y46213D01*
X18353Y46213D01*
X18574Y46304D01*
X18700Y46430D01*
X20685Y46430D01*
X20696Y46424D01*
X20779Y46303D01*
X20763Y46224D01*
X20763Y44267D01*
X18910Y44267D01*
X18783Y44393D01*
X18563Y44484D01*
X18324Y44484D01*
X18104Y44393D01*
X17935Y44224D01*
X17844Y44004D01*
X17844Y43765D01*
X17935Y43545D01*
X18104Y43376D01*
X18324Y43284D01*
X18563Y43284D01*
X18783Y43376D01*
X18910Y43502D01*
X20999Y43502D01*
X21079Y43437D01*
X21079Y24599D01*
X21079Y24599D01*
X21092Y24531D01*
X21092Y20327D01*
X20965Y20311D01*
X20939Y20408D01*
X20813Y20626D01*
X20636Y20803D01*
X20418Y20929D01*
X20350Y20947D01*
X20350Y20040D01*
X20350Y19133D01*
X20418Y19151D01*
X20636Y19277D01*
X20813Y19454D01*
X20939Y19672D01*
X20965Y19769D01*
X21092Y19753D01*
X21092Y13741D01*
X20991Y13640D01*
X20900Y13419D01*
X20900Y13181D01*
X20991Y12960D01*
X21160Y12791D01*
X21381Y12700D01*
X21619Y12700D01*
X21840Y12791D01*
X22009Y12960D01*
X22100Y13181D01*
X22100Y13331D01*
X22227Y13383D01*
X22519Y13091D01*
X22519Y13091D01*
X22601Y13037D01*
X22631Y12963D01*
X22800Y12795D01*
X23021Y12703D01*
X23259Y12703D01*
X23480Y12795D01*
X23649Y12963D01*
X23740Y13184D01*
X23740Y13423D01*
X23649Y13643D01*
X23480Y13812D01*
X23259Y13903D01*
X23021Y13903D01*
X22907Y13856D01*
X22508Y14256D01*
X22508Y42495D01*
X25533Y45521D01*
X34032Y45521D01*
X34076Y45414D01*
X34245Y45245D01*
X34466Y45154D01*
X34704Y45154D01*
X34925Y45245D01*
X35094Y45414D01*
X35185Y45635D01*
X35185Y45650D01*
X35302Y45698D01*
X36175Y44826D01*
X36175Y41328D01*
X36069Y41258D01*
X36021Y41278D01*
X35783Y41278D01*
X35562Y41186D01*
X35393Y41018D01*
X35302Y40797D01*
X35302Y40558D01*
X35393Y40338D01*
X35562Y40169D01*
X35594Y40156D01*
X35594Y31454D01*
X35594Y31454D01*
X35625Y31298D01*
X35714Y31165D01*
X39112Y27767D01*
X39112Y26894D01*
X38985Y26841D01*
X34878Y30948D01*
X34878Y39206D01*
X34878Y39206D01*
X34847Y39362D01*
X34758Y39495D01*
X32811Y41442D01*
X32679Y41530D01*
X32523Y41561D01*
X32523Y41561D01*
X28528Y41561D01*
X28428Y41662D01*
X28207Y41753D01*
X27968Y41753D01*
X27748Y41662D01*
X27579Y41493D01*
X27488Y41273D01*
X27488Y41034D01*
X27579Y40813D01*
X27748Y40645D01*
X27968Y40553D01*
X28207Y40553D01*
X28428Y40645D01*
X28528Y40745D01*
X32354Y40745D01*
X34062Y39037D01*
X34062Y30779D01*
X34062Y30779D01*
X34093Y30623D01*
X34182Y30491D01*
X38378Y26295D01*
X38378Y23963D01*
X38251Y23938D01*
X38223Y24005D01*
X38054Y24174D01*
X37834Y24265D01*
X37595Y24265D01*
X37374Y24174D01*
X37206Y24005D01*
X37114Y23784D01*
X37114Y23546D01*
X37206Y23325D01*
X37306Y23224D01*
X37306Y15771D01*
X37306Y15771D01*
X37337Y15615D01*
X37426Y15483D01*
X40242Y12666D01*
X40242Y10361D01*
X40141Y10260D01*
X40050Y10040D01*
X40050Y9801D01*
X40141Y9580D01*
X40310Y9412D01*
X40531Y9320D01*
X40769Y9320D01*
X40990Y9412D01*
X41159Y9580D01*
X41250Y9801D01*
X41250Y10040D01*
X41159Y10260D01*
X41058Y10361D01*
X41058Y12770D01*
X41185Y12823D01*
X44424Y9584D01*
X44424Y9584D01*
X44556Y9496D01*
X44712Y9465D01*
X44712Y9465D01*
X45843Y9465D01*
X45896Y9338D01*
X45866Y9307D01*
X45788Y9191D01*
X45761Y9055D01*
X45761Y3021D01*
X45623Y2883D01*
X45532Y2662D01*
X45532Y2423D01*
X45623Y2203D01*
X45792Y2034D01*
X46012Y1943D01*
X46251Y1943D01*
X46472Y2034D01*
X46640Y2203D01*
X46732Y2423D01*
X46732Y2662D01*
X46640Y2883D01*
X46475Y3048D01*
X46475Y8529D01*
X46580Y8600D01*
X46648Y8572D01*
X46887Y8572D01*
X47107Y8663D01*
X47276Y8832D01*
X47367Y9053D01*
X47367Y9291D01*
X47340Y9359D01*
X47410Y9465D01*
X47989Y9465D01*
X54672Y2782D01*
X54672Y2782D01*
X54804Y2693D01*
X54960Y2662D01*
X57310Y2662D01*
X58588Y1385D01*
X58588Y1243D01*
X58679Y1022D01*
X58848Y853D01*
X59068Y762D01*
X59307Y762D01*
X59527Y853D01*
X59696Y1022D01*
X59788Y1243D01*
X59788Y1481D01*
X59746Y1583D01*
X59816Y1688D01*
X61789Y1688D01*
X62193Y1285D01*
X62193Y1142D01*
X62284Y922D01*
X62453Y753D01*
X62674Y662D01*
X62912Y662D01*
X63133Y753D01*
X63302Y922D01*
X63393Y1142D01*
X63393Y1381D01*
X63302Y1601D01*
X63133Y1770D01*
X62912Y1862D01*
X62770Y1862D01*
X62247Y2385D01*
X62114Y2473D01*
X61958Y2504D01*
X61958Y2504D01*
X61593Y2504D01*
X61535Y2631D01*
X61582Y2701D01*
X61609Y2838D01*
X61609Y2982D01*
X61761Y3134D01*
X61852Y3355D01*
X61852Y3593D01*
X61761Y3814D01*
X61592Y3983D01*
X61371Y4074D01*
X61133Y4074D01*
X60912Y3983D01*
X60743Y3814D01*
X60652Y3593D01*
X60652Y3355D01*
X60718Y3196D01*
X60643Y3069D01*
X59541Y3069D01*
X58286Y4324D01*
X58170Y4402D01*
X58033Y4429D01*
X55995Y4429D01*
X54304Y6120D01*
X54317Y6151D01*
X54317Y6390D01*
X54225Y6610D01*
X54056Y6779D01*
X53836Y6871D01*
X53597Y6871D01*
X53377Y6779D01*
X53208Y6610D01*
X53129Y6420D01*
X52999Y6370D01*
X48758Y10611D01*
X48626Y10699D01*
X48583Y10708D01*
X48521Y10749D01*
X48365Y10780D01*
X48365Y10780D01*
X45652Y10780D01*
X39947Y16485D01*
X39947Y23317D01*
X40074Y23385D01*
X40109Y23362D01*
X40255Y23333D01*
X40848Y23333D01*
X40974Y23207D01*
X41195Y23115D01*
X41433Y23115D01*
X41654Y23207D01*
X41823Y23375D01*
X41914Y23596D01*
X41914Y23835D01*
X41823Y24055D01*
X41654Y24224D01*
X41433Y24315D01*
X41195Y24315D01*
X40974Y24224D01*
X40848Y24098D01*
X40414Y24098D01*
X40397Y24115D01*
X40397Y25015D01*
X40377Y25114D01*
X40377Y28460D01*
X40494Y28509D01*
X40621Y28383D01*
X40675Y28347D01*
X41118Y27903D01*
X41118Y25294D01*
X41147Y25148D01*
X41230Y25024D01*
X41376Y24877D01*
X41500Y24795D01*
X41647Y24765D01*
X43064Y24765D01*
X43191Y24639D01*
X43411Y24548D01*
X43650Y24548D01*
X43870Y24639D01*
X44039Y24808D01*
X44183Y24823D01*
X44229Y24784D01*
X44229Y22157D01*
X42631Y20560D01*
X42488Y20560D01*
X42268Y20468D01*
X42099Y20299D01*
X42008Y20079D01*
X42008Y19840D01*
X42099Y19620D01*
X42268Y19451D01*
X42488Y19360D01*
X42727Y19360D01*
X42948Y19451D01*
X43116Y19620D01*
X43208Y19840D01*
X43208Y19983D01*
X44925Y21700D01*
X44925Y21700D01*
X45013Y21832D01*
X45045Y21988D01*
X45045Y21988D01*
X45045Y25031D01*
X45045Y25032D01*
X45013Y25188D01*
X44925Y25320D01*
X44109Y26136D01*
X43976Y26225D01*
X43920Y26236D01*
X42383Y27773D01*
X42383Y28258D01*
X42375Y28302D01*
X42375Y28491D01*
X42375Y28491D01*
X42344Y28647D01*
X42255Y28779D01*
X42255Y28779D01*
X38278Y32756D01*
X38278Y58215D01*
X38278Y58215D01*
X38247Y58372D01*
X38159Y58504D01*
X38158Y58504D01*
X37983Y58680D01*
X37850Y58768D01*
X37694Y58799D01*
X37694Y58799D01*
X37043Y58799D01*
X37043Y58896D01*
X36493Y59446D01*
X35393Y59446D01*
X34843Y58896D01*
X34843Y57796D01*
X35393Y57246D01*
X36493Y57246D01*
X37043Y57796D01*
X37043Y57983D01*
X37462Y57983D01*
X37462Y45629D01*
X37345Y45580D01*
X35256Y47669D01*
X35132Y47752D01*
X34985Y47781D01*
X26818Y47781D01*
X26770Y47898D01*
X26788Y47916D01*
X26879Y48137D01*
X26879Y48376D01*
X26788Y48596D01*
X26668Y48716D01*
X26668Y53807D01*
X30852Y57991D01*
X31100Y57991D01*
X31100Y57824D01*
X31650Y57274D01*
X32750Y57274D01*
X33300Y57824D01*
X33300Y58924D01*
X32750Y59474D01*
X32750Y59474D02*
G37*
G36*
X5156Y60535D02*
X4792Y60535D01*
X4434Y60464D01*
X4098Y60325D01*
X3795Y60122D01*
X3537Y59864D01*
X3335Y59561D01*
X3195Y59225D01*
X3124Y58867D01*
X3124Y58503D01*
X3195Y58145D01*
X3335Y57809D01*
X3537Y57506D01*
X3795Y57248D01*
X4098Y57046D01*
X4434Y56906D01*
X4792Y56835D01*
X5156Y56835D01*
X5514Y56906D01*
X5850Y57046D01*
X6153Y57248D01*
X6411Y57506D01*
X6613Y57809D01*
X6753Y58145D01*
X6824Y58503D01*
X6824Y58867D01*
X6753Y59225D01*
X6613Y59561D01*
X6411Y59864D01*
X6153Y60122D01*
X5850Y60325D01*
X5514Y60464D01*
X5156Y60535D01*
X5156Y60535D02*
G37*
G36*
X52372Y58447D02*
X52133Y58447D01*
X51913Y58356D01*
X51744Y58187D01*
X51652Y57967D01*
X51652Y57728D01*
X51744Y57507D01*
X51913Y57339D01*
X52133Y57247D01*
X52372Y57247D01*
X52592Y57339D01*
X52693Y57440D01*
X57578Y57440D01*
X60700Y54318D01*
X60700Y54175D01*
X60791Y53955D01*
X60960Y53786D01*
X61181Y53695D01*
X61419Y53695D01*
X61640Y53786D01*
X61809Y53955D01*
X61900Y54175D01*
X61900Y54414D01*
X61809Y54634D01*
X61640Y54803D01*
X61419Y54895D01*
X61277Y54895D01*
X58036Y58136D01*
X57903Y58224D01*
X57747Y58255D01*
X57747Y58255D01*
X52693Y58255D01*
X52592Y58356D01*
X52372Y58447D01*
X52372Y58447D02*
G37*
G36*
X47147Y44425D02*
X46908Y44425D01*
X46687Y44334D01*
X46587Y44233D01*
X46017Y44233D01*
X46017Y44233D01*
X45861Y44202D01*
X45729Y44113D01*
X45729Y44113D01*
X44163Y42548D01*
X44075Y42415D01*
X44044Y42259D01*
X44044Y42259D01*
X44044Y41331D01*
X43934Y41267D01*
X43840Y41321D01*
X43612Y41382D01*
X43376Y41382D01*
X43147Y41321D01*
X42943Y41203D01*
X42775Y41036D01*
X42657Y40831D01*
X42596Y40603D01*
X42596Y40366D01*
X42657Y40138D01*
X42775Y39933D01*
X42943Y39766D01*
X43147Y39648D01*
X43376Y39587D01*
X43612Y39587D01*
X43840Y39648D01*
X43934Y39702D01*
X44044Y39638D01*
X44044Y36167D01*
X43883Y36007D01*
X43791Y35786D01*
X43791Y35547D01*
X43883Y35327D01*
X44052Y35158D01*
X44272Y35067D01*
X44511Y35067D01*
X44731Y35158D01*
X44900Y35327D01*
X44991Y35547D01*
X44991Y35786D01*
X44900Y36007D01*
X44859Y36048D01*
X44859Y39902D01*
X44868Y39915D01*
X44899Y40071D01*
X44899Y40071D01*
X44899Y40898D01*
X44899Y40898D01*
X44868Y41054D01*
X44859Y41067D01*
X44859Y42090D01*
X46186Y43417D01*
X46587Y43417D01*
X46687Y43316D01*
X46908Y43225D01*
X47147Y43225D01*
X47367Y43316D01*
X47536Y43485D01*
X47627Y43706D01*
X47627Y43944D01*
X47536Y44165D01*
X47367Y44334D01*
X47147Y44425D01*
X47147Y44425D02*
G37*
G36*
X77795Y45634D02*
X77405Y45634D01*
X77024Y45558D01*
X76664Y45409D01*
X76341Y45193D01*
X76066Y44918D01*
X75850Y44594D01*
X75701Y44235D01*
X75625Y43853D01*
X75625Y43464D01*
X75701Y43083D01*
X75850Y42723D01*
X76066Y42400D01*
X76341Y42125D01*
X76664Y41909D01*
X77024Y41760D01*
X77405Y41684D01*
X77795Y41684D01*
X78176Y41760D01*
X78536Y41909D01*
X78859Y42125D01*
X79134Y42400D01*
X79350Y42723D01*
X79499Y43083D01*
X79575Y43464D01*
X79575Y43853D01*
X79499Y44235D01*
X79350Y44594D01*
X79134Y44918D01*
X78859Y45193D01*
X78536Y45409D01*
X78176Y45558D01*
X77795Y45634D01*
X77795Y45634D02*
G37*
G36*
X59034Y41338D02*
X59034Y40785D01*
X59587Y40785D01*
X59574Y40833D01*
X59455Y41038D01*
X59287Y41206D01*
X59082Y41325D01*
X59034Y41338D01*
X59034Y41338D02*
G37*
G36*
X58434Y41338D02*
X58386Y41325D01*
X58180Y41206D01*
X58012Y41038D01*
X57894Y40833D01*
X57881Y40785D01*
X58434Y40785D01*
X58434Y41338D01*
X58434Y41338D02*
G37*
G36*
X59587Y40185D02*
X59034Y40185D01*
X59034Y39631D01*
X59082Y39644D01*
X59287Y39763D01*
X59455Y39931D01*
X59574Y40137D01*
X59587Y40185D01*
X59587Y40185D02*
G37*
G36*
X58434Y40185D02*
X57881Y40185D01*
X57894Y40137D01*
X58012Y39931D01*
X58180Y39763D01*
X58386Y39644D01*
X58434Y39631D01*
X58434Y40185D01*
X58434Y40185D02*
G37*
G36*
X56312Y41382D02*
X56076Y41382D01*
X55847Y41321D01*
X55643Y41203D01*
X55475Y41036D01*
X55357Y40831D01*
X55296Y40603D01*
X55296Y40366D01*
X55357Y40138D01*
X55475Y39933D01*
X55643Y39766D01*
X55847Y39648D01*
X56076Y39587D01*
X56312Y39587D01*
X56540Y39648D01*
X56745Y39766D01*
X56912Y39933D01*
X57030Y40138D01*
X57091Y40366D01*
X57091Y40603D01*
X57030Y40831D01*
X56912Y41036D01*
X56745Y41203D01*
X56540Y41321D01*
X56312Y41382D01*
X56312Y41382D02*
G37*
G36*
X53772Y41382D02*
X53536Y41382D01*
X53307Y41321D01*
X53103Y41203D01*
X52935Y41036D01*
X52817Y40831D01*
X52756Y40603D01*
X52756Y40366D01*
X52817Y40138D01*
X52935Y39933D01*
X53103Y39766D01*
X53307Y39648D01*
X53536Y39587D01*
X53772Y39587D01*
X54000Y39648D01*
X54205Y39766D01*
X54372Y39933D01*
X54490Y40138D01*
X54551Y40366D01*
X54551Y40603D01*
X54490Y40831D01*
X54372Y41036D01*
X54205Y41203D01*
X54000Y41321D01*
X53772Y41382D01*
X53772Y41382D02*
G37*
G36*
X46152Y41382D02*
X45916Y41382D01*
X45687Y41321D01*
X45483Y41203D01*
X45315Y41036D01*
X45197Y40831D01*
X45136Y40603D01*
X45136Y40366D01*
X45197Y40138D01*
X45315Y39933D01*
X45483Y39766D01*
X45687Y39648D01*
X45916Y39587D01*
X46152Y39587D01*
X46380Y39648D01*
X46585Y39766D01*
X46752Y39933D01*
X46870Y40138D01*
X46931Y40366D01*
X46931Y40603D01*
X46870Y40831D01*
X46752Y41036D01*
X46585Y41203D01*
X46380Y41321D01*
X46152Y41382D01*
X46152Y41382D02*
G37*
G36*
X16951Y59334D02*
X16712Y59334D01*
X16492Y59243D01*
X16323Y59074D01*
X16232Y58853D01*
X16232Y58615D01*
X16323Y58394D01*
X16492Y58225D01*
X16587Y58186D01*
X16818Y57955D01*
X15934Y57071D01*
X15256Y57071D01*
X15061Y57032D01*
X14896Y56922D01*
X13654Y55680D01*
X5213Y55680D01*
X5018Y55641D01*
X4852Y55530D01*
X3933Y54611D01*
X3822Y54445D01*
X3783Y54250D01*
X3783Y53529D01*
X3408Y53154D01*
X3297Y52988D01*
X3258Y52793D01*
X3258Y48356D01*
X3297Y48161D01*
X3358Y48070D01*
X3358Y44102D01*
X3268Y43884D01*
X3268Y43646D01*
X3360Y43425D01*
X3528Y43256D01*
X3749Y43165D01*
X3988Y43165D01*
X4208Y43256D01*
X4377Y43425D01*
X4468Y43646D01*
X4468Y43884D01*
X4413Y44017D01*
X4426Y44047D01*
X4494Y44073D01*
X4580Y44081D01*
X4689Y44008D01*
X4752Y43995D01*
X4831Y43854D01*
X4818Y43823D01*
X4818Y43584D01*
X4909Y43364D01*
X5078Y43195D01*
X5298Y43104D01*
X5392Y43104D01*
X6629Y41867D01*
X6683Y41786D01*
X7166Y41303D01*
X7166Y40246D01*
X7076Y40028D01*
X7076Y39790D01*
X7167Y39569D01*
X7336Y39400D01*
X7557Y39309D01*
X7795Y39309D01*
X8016Y39400D01*
X8185Y39569D01*
X8276Y39790D01*
X8276Y40028D01*
X8186Y40246D01*
X8186Y41514D01*
X8147Y41709D01*
X8036Y41875D01*
X7459Y42453D01*
X7404Y42534D01*
X7276Y42663D01*
X7324Y42780D01*
X7363Y42780D01*
X7584Y42871D01*
X7752Y43040D01*
X7844Y43261D01*
X7844Y43499D01*
X7752Y43720D01*
X7584Y43889D01*
X7363Y43980D01*
X7124Y43980D01*
X6904Y43889D01*
X6852Y43836D01*
X5996Y44692D01*
X5864Y44781D01*
X5708Y44812D01*
X5708Y44812D01*
X5128Y44812D01*
X5128Y44812D01*
X5077Y44853D01*
X5077Y49404D01*
X5177Y49504D01*
X5269Y49724D01*
X5269Y49963D01*
X5177Y50184D01*
X5009Y50352D01*
X4788Y50444D01*
X4549Y50444D01*
X4405Y50384D01*
X4278Y50468D01*
X4278Y52582D01*
X4653Y52958D01*
X4764Y53123D01*
X4803Y53318D01*
X4803Y54039D01*
X5424Y54660D01*
X13865Y54660D01*
X14060Y54699D01*
X14225Y54809D01*
X15467Y56052D01*
X16145Y56052D01*
X16340Y56090D01*
X16505Y56201D01*
X17697Y57392D01*
X17914Y57483D01*
X18083Y57651D01*
X18175Y57872D01*
X18175Y58111D01*
X18083Y58331D01*
X17914Y58500D01*
X17820Y58539D01*
X17380Y58979D01*
X17340Y59074D01*
X17172Y59243D01*
X16951Y59334D01*
X16951Y59334D02*
G37*
G36*
X8012Y53613D02*
X7773Y53613D01*
X7552Y53521D01*
X7384Y53353D01*
X7292Y53132D01*
X7292Y52893D01*
X7384Y52673D01*
X7552Y52504D01*
X7584Y52491D01*
X9100Y50975D01*
X9100Y39941D01*
X9010Y39723D01*
X9010Y39484D01*
X9101Y39264D01*
X9270Y39095D01*
X9491Y39004D01*
X9729Y39004D01*
X9950Y39095D01*
X10119Y39264D01*
X10210Y39484D01*
X10210Y39723D01*
X10120Y39941D01*
X10120Y51186D01*
X10081Y51381D01*
X9970Y51546D01*
X8492Y53024D01*
X8492Y53132D01*
X8401Y53353D01*
X8232Y53521D01*
X8012Y53613D01*
X8012Y53613D02*
G37*
G36*
X12050Y29844D02*
X12050Y29340D01*
X12554Y29340D01*
X12546Y29370D01*
X12433Y29564D01*
X12274Y29723D01*
X12080Y29836D01*
X12050Y29844D01*
X12050Y29844D02*
G37*
G36*
X11450Y29844D02*
X11420Y29836D01*
X11226Y29723D01*
X11067Y29564D01*
X10954Y29370D01*
X10946Y29340D01*
X11450Y29340D01*
X11450Y29844D01*
X11450Y29844D02*
G37*
G36*
X12554Y28740D02*
X12050Y28740D01*
X12050Y28236D01*
X12080Y28244D01*
X12274Y28357D01*
X12433Y28516D01*
X12546Y28710D01*
X12554Y28740D01*
X12554Y28740D02*
G37*
G36*
X11450Y28740D02*
X10946Y28740D01*
X10954Y28710D01*
X11067Y28516D01*
X11226Y28357D01*
X11420Y28244D01*
X11450Y28236D01*
X11450Y28740D01*
X11450Y28740D02*
G37*
G36*
X12250Y27935D02*
X11250Y27935D01*
X11153Y27916D01*
X11070Y27861D01*
X11015Y27778D01*
X10995Y27680D01*
X10995Y26480D01*
X11015Y26383D01*
X11070Y26300D01*
X11153Y26245D01*
X11250Y26225D01*
X12250Y26225D01*
X12348Y26245D01*
X12430Y26300D01*
X12486Y26383D01*
X12505Y26480D01*
X12505Y27680D01*
X12486Y27778D01*
X12430Y27861D01*
X12348Y27916D01*
X12250Y27935D01*
X12250Y27935D02*
G37*
G36*
X12250Y25395D02*
X11250Y25395D01*
X11153Y25376D01*
X11070Y25321D01*
X11015Y25238D01*
X10995Y25140D01*
X10995Y23940D01*
X11015Y23843D01*
X11070Y23760D01*
X11153Y23705D01*
X11250Y23685D01*
X12250Y23685D01*
X12348Y23705D01*
X12430Y23760D01*
X12486Y23843D01*
X12505Y23940D01*
X12505Y25140D01*
X12486Y25238D01*
X12430Y25321D01*
X12348Y25376D01*
X12250Y25395D01*
X12250Y25395D02*
G37*
G36*
X23394Y31892D02*
X23155Y31892D01*
X22935Y31800D01*
X22766Y31632D01*
X22675Y31411D01*
X22675Y31172D01*
X22766Y30952D01*
X22935Y30783D01*
X23155Y30692D01*
X23394Y30692D01*
X23615Y30783D01*
X23723Y30891D01*
X27584Y27029D01*
X27584Y22900D01*
X27584Y22900D01*
X27615Y22744D01*
X27704Y22611D01*
X28276Y22039D01*
X28276Y21896D01*
X28367Y21676D01*
X28536Y21507D01*
X28757Y21416D01*
X28995Y21416D01*
X29216Y21507D01*
X29385Y21676D01*
X29476Y21896D01*
X29476Y22135D01*
X29385Y22356D01*
X29216Y22524D01*
X28995Y22616D01*
X28853Y22616D01*
X28400Y23069D01*
X28400Y27198D01*
X28400Y27198D01*
X28369Y27354D01*
X28280Y27487D01*
X28280Y27487D01*
X24141Y31626D01*
X24008Y31715D01*
X23852Y31746D01*
X23852Y31746D01*
X23669Y31746D01*
X23615Y31800D01*
X23394Y31892D01*
X23394Y31892D02*
G37*
G36*
X12250Y22855D02*
X11250Y22855D01*
X11153Y22836D01*
X11070Y22781D01*
X11015Y22698D01*
X10995Y22600D01*
X10995Y21400D01*
X11015Y21303D01*
X11070Y21220D01*
X11153Y21165D01*
X11250Y21145D01*
X12250Y21145D01*
X12348Y21165D01*
X12430Y21220D01*
X12486Y21303D01*
X12505Y21400D01*
X12505Y22600D01*
X12486Y22698D01*
X12430Y22781D01*
X12348Y22836D01*
X12250Y22855D01*
X12250Y22855D02*
G37*
G36*
X18600Y28370D02*
X13750Y28370D01*
X13653Y28351D01*
X13570Y28296D01*
X13515Y28213D01*
X13495Y28115D01*
X13495Y20965D01*
X13515Y20868D01*
X13570Y20785D01*
X13653Y20730D01*
X13750Y20710D01*
X18600Y20710D01*
X18698Y20730D01*
X18780Y20785D01*
X18836Y20868D01*
X18855Y20965D01*
X18855Y21145D01*
X19850Y21145D01*
X19948Y21165D01*
X20030Y21220D01*
X20086Y21303D01*
X20105Y21400D01*
X20105Y22600D01*
X20086Y22698D01*
X20030Y22781D01*
X19948Y22836D01*
X19850Y22855D01*
X18855Y22855D01*
X18855Y23685D01*
X19850Y23685D01*
X19948Y23705D01*
X20030Y23760D01*
X20086Y23843D01*
X20105Y23940D01*
X20105Y25140D01*
X20086Y25238D01*
X20030Y25321D01*
X19948Y25376D01*
X19850Y25395D01*
X18855Y25395D01*
X18855Y26225D01*
X19850Y26225D01*
X19948Y26245D01*
X20030Y26300D01*
X20086Y26383D01*
X20105Y26480D01*
X20105Y27680D01*
X20086Y27778D01*
X20030Y27861D01*
X19948Y27916D01*
X19850Y27935D01*
X18855Y27935D01*
X18855Y28115D01*
X18836Y28213D01*
X18780Y28296D01*
X18698Y28351D01*
X18600Y28370D01*
X18600Y28370D02*
G37*
G36*
X19750Y20947D02*
X19682Y20929D01*
X19464Y20803D01*
X19287Y20626D01*
X19161Y20408D01*
X19143Y20340D01*
X19750Y20340D01*
X19750Y20947D01*
X19750Y20947D02*
G37*
G36*
X51852Y38350D02*
X51614Y38350D01*
X51393Y38259D01*
X51224Y38090D01*
X51133Y37870D01*
X51133Y37631D01*
X51224Y37410D01*
X51262Y37372D01*
X51262Y36440D01*
X48888Y34066D01*
X48800Y33934D01*
X48769Y33778D01*
X48769Y33778D01*
X48769Y24676D01*
X48769Y24676D01*
X48800Y24520D01*
X48888Y24387D01*
X52613Y20663D01*
X52745Y20574D01*
X52902Y20543D01*
X52902Y20543D01*
X56244Y20543D01*
X56360Y20427D01*
X56581Y20336D01*
X56819Y20336D01*
X57040Y20427D01*
X57209Y20596D01*
X57300Y20816D01*
X57300Y21055D01*
X57209Y21276D01*
X57040Y21444D01*
X56819Y21536D01*
X56581Y21536D01*
X56360Y21444D01*
X56275Y21359D01*
X53070Y21359D01*
X49584Y24845D01*
X49584Y33609D01*
X51959Y35983D01*
X51959Y35983D01*
X52047Y36115D01*
X52078Y36271D01*
X52078Y37247D01*
X52242Y37410D01*
X52333Y37631D01*
X52333Y37870D01*
X52242Y38090D01*
X52073Y38259D01*
X51852Y38350D01*
X51852Y38350D02*
G37*
G36*
X50397Y38158D02*
X50158Y38158D01*
X49937Y38066D01*
X49769Y37898D01*
X49677Y37677D01*
X49677Y37474D01*
X48564Y36361D01*
X48476Y36228D01*
X48445Y36072D01*
X48445Y36072D01*
X48445Y35849D01*
X48170Y35575D01*
X48156Y35554D01*
X48140Y35554D01*
X47919Y35463D01*
X47750Y35294D01*
X47659Y35073D01*
X47659Y34857D01*
X47595Y34761D01*
X47564Y34605D01*
X47564Y34605D01*
X47564Y24113D01*
X47564Y24113D01*
X47595Y23957D01*
X47683Y23825D01*
X51757Y19751D01*
X51708Y19634D01*
X51689Y19634D01*
X51468Y19543D01*
X51367Y19442D01*
X51182Y19442D01*
X51182Y19442D01*
X51026Y19411D01*
X50894Y19322D01*
X50894Y19322D01*
X46069Y14498D01*
X45981Y14366D01*
X45950Y14209D01*
X45950Y14209D01*
X45950Y12933D01*
X45849Y12832D01*
X45758Y12611D01*
X45758Y12373D01*
X45849Y12152D01*
X46018Y11983D01*
X46238Y11892D01*
X46477Y11892D01*
X46698Y11983D01*
X46866Y12152D01*
X46958Y12373D01*
X46958Y12611D01*
X46866Y12832D01*
X46766Y12933D01*
X46766Y14041D01*
X51273Y18548D01*
X51446Y18548D01*
X51468Y18525D01*
X51689Y18434D01*
X51927Y18434D01*
X52148Y18525D01*
X52317Y18694D01*
X52408Y18915D01*
X52408Y19053D01*
X52516Y19160D01*
X52525Y19161D01*
X56384Y19161D01*
X63093Y12452D01*
X63093Y9319D01*
X62992Y9219D01*
X62901Y8998D01*
X62901Y8759D01*
X62992Y8539D01*
X63161Y8370D01*
X63381Y8279D01*
X63620Y8279D01*
X63841Y8370D01*
X64009Y8539D01*
X64101Y8759D01*
X64101Y8998D01*
X64009Y9219D01*
X63909Y9319D01*
X63909Y12621D01*
X63909Y12621D01*
X63877Y12777D01*
X63789Y12909D01*
X63789Y12909D01*
X56841Y19857D01*
X56709Y19946D01*
X56552Y19977D01*
X56552Y19977D01*
X52685Y19977D01*
X48379Y24282D01*
X48379Y34354D01*
X48599Y34445D01*
X48768Y34614D01*
X48859Y34835D01*
X48859Y35073D01*
X48848Y35100D01*
X49141Y35392D01*
X49141Y35392D01*
X49229Y35524D01*
X49260Y35680D01*
X49260Y35680D01*
X49260Y35903D01*
X50315Y36958D01*
X50397Y36958D01*
X50617Y37049D01*
X50786Y37218D01*
X50877Y37438D01*
X50877Y37677D01*
X50786Y37898D01*
X50617Y38066D01*
X50397Y38158D01*
X50397Y38158D02*
G37*
G36*
X19750Y19740D02*
X19143Y19740D01*
X19161Y19672D01*
X19287Y19454D01*
X19464Y19277D01*
X19682Y19151D01*
X19750Y19133D01*
X19750Y19740D01*
X19750Y19740D02*
G37*
G36*
X27543Y21012D02*
X27305Y21012D01*
X27084Y20920D01*
X26915Y20752D01*
X26893Y20698D01*
X26089Y20698D01*
X25953Y20671D01*
X25837Y20594D01*
X24315Y19072D01*
X24237Y18956D01*
X24210Y18819D01*
X24210Y17478D01*
X24237Y17341D01*
X24315Y17225D01*
X24432Y17108D01*
X24548Y17031D01*
X24684Y17004D01*
X26178Y17004D01*
X26315Y17031D01*
X26430Y17108D01*
X26983Y17661D01*
X27447Y17661D01*
X27612Y17496D01*
X27832Y17405D01*
X28071Y17405D01*
X28292Y17496D01*
X28460Y17665D01*
X28552Y17886D01*
X28552Y18124D01*
X28460Y18345D01*
X28408Y18397D01*
X28461Y18524D01*
X28762Y18524D01*
X28899Y18551D01*
X29014Y18628D01*
X30004Y19618D01*
X30219Y19618D01*
X30439Y19710D01*
X30608Y19878D01*
X30699Y20099D01*
X30699Y20338D01*
X30608Y20558D01*
X30439Y20727D01*
X30219Y20818D01*
X29980Y20818D01*
X29760Y20727D01*
X29591Y20558D01*
X29499Y20338D01*
X29499Y20123D01*
X28614Y19238D01*
X27057Y19238D01*
X26920Y19211D01*
X26804Y19133D01*
X26107Y18436D01*
X25717Y18436D01*
X25565Y18588D01*
X25344Y18679D01*
X25111Y18679D01*
X25097Y18695D01*
X25044Y18791D01*
X26237Y19984D01*
X27003Y19984D01*
X27084Y19903D01*
X27305Y19812D01*
X27543Y19812D01*
X27764Y19903D01*
X27933Y20072D01*
X28024Y20292D01*
X28024Y20531D01*
X27933Y20752D01*
X27764Y20920D01*
X27543Y21012D01*
X27543Y21012D02*
G37*
G36*
X7719Y21211D02*
X7481Y21211D01*
X7260Y21120D01*
X7091Y20951D01*
X7000Y20731D01*
X7000Y20492D01*
X7090Y20274D01*
X7090Y19947D01*
X7129Y19752D01*
X7240Y19587D01*
X9275Y17551D01*
X9441Y17441D01*
X9636Y17402D01*
X11870Y17402D01*
X12428Y16844D01*
X12593Y16734D01*
X12788Y16695D01*
X18563Y16695D01*
X18781Y16605D01*
X19019Y16605D01*
X19240Y16696D01*
X19409Y16865D01*
X19500Y17086D01*
X19500Y17324D01*
X19409Y17545D01*
X19240Y17714D01*
X19019Y17805D01*
X18781Y17805D01*
X18563Y17715D01*
X12999Y17715D01*
X12442Y18272D01*
X12276Y18383D01*
X12081Y18422D01*
X9847Y18422D01*
X8110Y20159D01*
X8110Y20274D01*
X8200Y20492D01*
X8200Y20731D01*
X8109Y20951D01*
X7940Y21120D01*
X7719Y21211D01*
X7719Y21211D02*
G37*
G36*
X54886Y17929D02*
X54647Y17929D01*
X54427Y17837D01*
X54258Y17669D01*
X54167Y17448D01*
X54167Y17209D01*
X54258Y16989D01*
X54427Y16820D01*
X54647Y16729D01*
X54662Y16729D01*
X54676Y16707D01*
X59989Y11395D01*
X59989Y8469D01*
X59888Y8368D01*
X59796Y8147D01*
X59796Y7909D01*
X59888Y7688D01*
X60057Y7519D01*
X60277Y7428D01*
X60516Y7428D01*
X60736Y7519D01*
X60905Y7688D01*
X60996Y7909D01*
X60996Y8147D01*
X60905Y8368D01*
X60804Y8469D01*
X60804Y11564D01*
X60804Y11564D01*
X60773Y11720D01*
X60685Y11852D01*
X55355Y17182D01*
X55367Y17209D01*
X55367Y17448D01*
X55275Y17669D01*
X55106Y17837D01*
X54886Y17929D01*
X54886Y17929D02*
G37*
G36*
X53394Y17809D02*
X53156Y17809D01*
X52935Y17718D01*
X52766Y17549D01*
X52675Y17329D01*
X52675Y17090D01*
X52735Y16945D01*
X52735Y8679D01*
X52774Y8484D01*
X52884Y8318D01*
X53580Y7623D01*
X53670Y7405D01*
X53839Y7236D01*
X54059Y7145D01*
X54298Y7145D01*
X54518Y7236D01*
X54687Y7405D01*
X54779Y7625D01*
X54779Y7864D01*
X54687Y8085D01*
X54518Y8253D01*
X54301Y8344D01*
X53755Y8890D01*
X53755Y16840D01*
X53784Y16870D01*
X53875Y17090D01*
X53875Y17329D01*
X53784Y17549D01*
X53615Y17718D01*
X53394Y17809D01*
X53394Y17809D02*
G37*
G36*
X74471Y7639D02*
X67067Y7639D01*
X67036Y7633D01*
X67005Y7631D01*
X66988Y7623D01*
X66970Y7619D01*
X66943Y7602D01*
X66915Y7588D01*
X66902Y7574D01*
X66887Y7564D01*
X66869Y7538D01*
X66848Y7514D01*
X66781Y7402D01*
X66775Y7384D01*
X66765Y7369D01*
X66758Y7338D01*
X66748Y7308D01*
X66749Y7290D01*
X66745Y7271D01*
X66745Y-7811D01*
X66765Y-7909D01*
X66820Y-7991D01*
X66903Y-8047D01*
X67000Y-8066D01*
X74471Y-8066D01*
X74569Y-8047D01*
X74651Y-7991D01*
X74707Y-7909D01*
X74726Y-7811D01*
X74726Y-7014D01*
X74726Y7384D01*
X74707Y7481D01*
X74651Y7564D01*
X74569Y7619D01*
X74471Y7639D01*
X74471Y7639D02*
G37*
G36*
X93795Y-9566D02*
X93405Y-9566D01*
X93024Y-9642D01*
X92664Y-9791D01*
X92341Y-10007D01*
X92066Y-10282D01*
X91850Y-10606D01*
X91701Y-10965D01*
X91625Y-11347D01*
X91625Y-11736D01*
X91701Y-12117D01*
X91850Y-12477D01*
X92066Y-12800D01*
X92341Y-13075D01*
X92664Y-13291D01*
X93024Y-13440D01*
X93405Y-13516D01*
X93795Y-13516D01*
X94176Y-13440D01*
X94536Y-13291D01*
X94859Y-13075D01*
X95134Y-12800D01*
X95350Y-12477D01*
X95499Y-12117D01*
X95575Y-11736D01*
X95575Y-11347D01*
X95499Y-10965D01*
X95350Y-10606D01*
X95134Y-10282D01*
X94859Y-10007D01*
X94536Y-9791D01*
X94176Y-9642D01*
X93795Y-9566D01*
X93795Y-9566D02*
G37*
G36*
X77736Y-18836D02*
X77464Y-18836D01*
X77201Y-18907D01*
X76965Y-19043D01*
X76772Y-19236D01*
X76636Y-19472D01*
X76565Y-19735D01*
X76565Y-20007D01*
X76636Y-20271D01*
X76772Y-20507D01*
X76965Y-20699D01*
X77201Y-20836D01*
X77464Y-20906D01*
X77736Y-20906D01*
X77999Y-20836D01*
X78236Y-20699D01*
X78428Y-20507D01*
X78564Y-20271D01*
X78635Y-20007D01*
X78635Y-19735D01*
X78564Y-19472D01*
X78428Y-19236D01*
X78236Y-19043D01*
X77999Y-18907D01*
X77736Y-18836D01*
X77736Y-18836D02*
G37*
G36*
X92807Y-25825D02*
X92443Y-25825D01*
X92085Y-25896D01*
X91749Y-26036D01*
X91446Y-26238D01*
X91188Y-26496D01*
X90986Y-26799D01*
X90846Y-27135D01*
X90775Y-27493D01*
X90775Y-27857D01*
X90846Y-28215D01*
X90986Y-28551D01*
X91188Y-28854D01*
X91446Y-29112D01*
X91749Y-29314D01*
X92085Y-29454D01*
X92443Y-29525D01*
X92807Y-29525D01*
X93165Y-29454D01*
X93501Y-29314D01*
X93804Y-29112D01*
X94062Y-28854D01*
X94264Y-28551D01*
X94404Y-28215D01*
X94475Y-27857D01*
X94475Y-27493D01*
X94404Y-27135D01*
X94264Y-26799D01*
X94062Y-26496D01*
X93804Y-26238D01*
X93501Y-26036D01*
X93165Y-25896D01*
X92807Y-25825D01*
X92807Y-25825D02*
G37*
%LPD*%
G36*
X74471Y-7014D02*
X74471Y-7811D01*
X67000Y-7811D01*
X67000Y7271D01*
X67067Y7384D01*
X74471Y7384D01*
X74471Y-7014D01*
X74471Y-7014D02*
G37*
%LPC*%
G36*
X259263Y-135624D02*
X259237Y-135624D01*
X259186Y-135636D01*
X259110Y-135649D01*
X259021Y-135674D01*
X258920Y-135738D01*
X258844Y-135814D01*
X258793Y-135928D01*
X258767Y-136081D01*
X258767Y-136093D01*
X258767Y-136119D01*
X258780Y-136157D01*
X258780Y-136195D01*
X258831Y-136322D01*
X258856Y-136373D01*
X258907Y-136436D01*
X258920Y-136436D01*
X258932Y-136462D01*
X259009Y-136500D01*
X259110Y-136551D01*
X259186Y-136563D01*
X259263Y-136576D01*
X259288Y-136576D01*
X259339Y-136563D01*
X259402Y-136551D01*
X259491Y-136513D01*
X259580Y-136449D01*
X259644Y-136373D01*
X259694Y-136246D01*
X259720Y-136081D01*
X259720Y-136055D01*
X259707Y-136005D01*
X259694Y-135941D01*
X259669Y-135852D01*
X259605Y-135763D01*
X259529Y-135700D01*
X259415Y-135649D01*
X259263Y-135624D01*
X259263Y-135624D02*
G37*
%LPD*%
G36*
X259390Y-135789D02*
X259428Y-135814D01*
X259466Y-135839D01*
X259491Y-135890D01*
X259504Y-135954D01*
X259504Y-135966D01*
X259504Y-135979D01*
X259479Y-136043D01*
X259440Y-136119D01*
X259390Y-136144D01*
X259339Y-136157D01*
X259517Y-136436D01*
X259415Y-136436D01*
X259225Y-136157D01*
X259123Y-136157D01*
X259123Y-136436D01*
X259021Y-136436D01*
X259021Y-135763D01*
X259301Y-135763D01*
X259390Y-135789D01*
X259390Y-135789D02*
G37*
%LPC*%
G36*
X259288Y-135852D02*
X259123Y-135852D01*
X259123Y-136068D01*
X259301Y-136068D01*
X259339Y-136055D01*
X259377Y-136017D01*
X259390Y-135954D01*
X259390Y-135941D01*
X259377Y-135903D01*
X259352Y-135865D01*
X259288Y-135852D01*
X259288Y-135852D02*
G37*
G36*
X253611Y-137021D02*
X253573Y-137021D01*
X253522Y-137033D01*
X253459Y-137059D01*
X253383Y-137097D01*
X253306Y-137160D01*
X253217Y-137236D01*
X253129Y-137338D01*
X252227Y-138595D01*
X254932Y-142875D01*
X254945Y-142888D01*
X254970Y-142939D01*
X255021Y-142990D01*
X255084Y-143066D01*
X255148Y-143129D01*
X255224Y-143193D01*
X255313Y-143244D01*
X255389Y-143256D01*
X255440Y-143256D01*
X255478Y-143244D01*
X255542Y-143218D01*
X255618Y-143193D01*
X255694Y-143142D01*
X255770Y-143066D01*
X255846Y-142977D01*
X256786Y-141618D01*
X254081Y-137351D01*
X254068Y-137338D01*
X254043Y-137300D01*
X254005Y-137249D01*
X253941Y-137186D01*
X253878Y-137122D01*
X253802Y-137071D01*
X253713Y-137033D01*
X253611Y-137021D01*
X253611Y-137021D02*
G37*
G36*
X268775Y-147371D02*
X267416Y-147371D01*
X267416Y-148260D01*
X268864Y-148260D01*
X268889Y-148235D01*
X268940Y-148209D01*
X268978Y-148171D01*
X269004Y-148108D01*
X269029Y-148019D01*
X269042Y-147892D01*
X269042Y-147765D01*
X269042Y-147752D01*
X269042Y-147701D01*
X269029Y-147638D01*
X269004Y-147562D01*
X268978Y-147498D01*
X268927Y-147435D01*
X268864Y-147384D01*
X268775Y-147371D01*
X268775Y-147371D02*
G37*
G36*
X253256Y-147371D02*
X252011Y-147371D01*
X252011Y-148235D01*
X253383Y-148235D01*
X253421Y-148209D01*
X253484Y-148184D01*
X253535Y-148146D01*
X253573Y-148082D01*
X253611Y-147993D01*
X253624Y-147866D01*
X253624Y-147765D01*
X253624Y-147752D01*
X253624Y-147701D01*
X253611Y-147638D01*
X253573Y-147562D01*
X253535Y-147498D01*
X253471Y-147435D01*
X253383Y-147384D01*
X253256Y-147371D01*
X253256Y-147371D02*
G37*
G36*
X256786Y-147371D02*
X255897Y-147371D01*
X255859Y-147384D01*
X255808Y-147396D01*
X255707Y-147435D01*
X255656Y-147485D01*
X255605Y-147536D01*
X255605Y-147549D01*
X255592Y-147562D01*
X255567Y-147600D01*
X255554Y-147663D01*
X255529Y-147739D01*
X255503Y-147828D01*
X255491Y-147943D01*
X255491Y-148082D01*
X255491Y-148463D01*
X255491Y-148476D01*
X255491Y-148527D01*
X255491Y-148590D01*
X255503Y-148679D01*
X255529Y-148857D01*
X255542Y-148946D01*
X255567Y-149009D01*
X255580Y-149035D01*
X255643Y-149073D01*
X255681Y-149098D01*
X255745Y-149124D01*
X255808Y-149136D01*
X255897Y-149149D01*
X256850Y-149149D01*
X256900Y-149136D01*
X256964Y-149111D01*
X257053Y-149060D01*
X257129Y-148984D01*
X257205Y-148857D01*
X257231Y-148781D01*
X257256Y-148692D01*
X257269Y-148578D01*
X257269Y-148463D01*
X257269Y-148082D01*
X257269Y-148070D01*
X257269Y-148019D01*
X257256Y-147955D01*
X257256Y-147866D01*
X257205Y-147689D01*
X257180Y-147600D01*
X257129Y-147536D01*
X257129Y-147523D01*
X257104Y-147511D01*
X257040Y-147447D01*
X256926Y-147396D01*
X256862Y-147384D01*
X256786Y-147371D01*
X256786Y-147371D02*
G37*
%LPD*%
D10*
X21146Y46224D02*
X21622Y46700D01*
X21146Y44031D02*
X21146Y46224D01*
X21622Y46700D02*
X34841Y46700D01*
X20999Y43884D02*
X21146Y44031D01*
X18444Y43884D02*
X20999Y43884D01*
X34841Y46700D02*
X36557Y44984D01*
X40255Y23715D02*
X41314Y23715D01*
X39995Y25035D02*
X40014Y25015D01*
X40014Y23956D02*
X40255Y23715D01*
X39995Y25035D02*
X39995Y28637D01*
X40014Y23956D02*
X40014Y25015D01*
X40909Y28653D02*
X41500Y28062D01*
X40891Y28653D02*
X40909Y28653D01*
X41500Y25294D02*
X41500Y28062D01*
X37284Y32261D02*
X37284Y45101D01*
X37284Y32261D02*
X40891Y28653D01*
X34985Y47399D02*
X37284Y45101D01*
X36557Y32074D02*
X39995Y28637D01*
X36557Y32074D02*
X36557Y40378D01*
X36557Y40977D02*
X36557Y44984D01*
X36577Y40398D02*
X36577Y40957D01*
X36557Y40977D02*
X36577Y40957D01*
X36557Y40378D02*
X36577Y40398D01*
X41647Y25148D02*
X43530Y25148D01*
X41500Y25294D02*
X41647Y25148D01*
X25289Y53722D02*
X28253Y56686D01*
X28253Y58272D01*
X28300Y58319D01*
X26285Y53965D02*
X30693Y58374D01*
X26285Y48262D02*
X26285Y53965D01*
X25289Y48256D02*
X25289Y53722D01*
X30693Y58374D02*
X32200Y58374D01*
X20806Y46813D02*
X21392Y47399D01*
X34985Y47399D01*
X18234Y46813D02*
X20806Y46813D01*
X13953Y58904D02*
X15340Y58904D01*
X13891Y58904D02*
X13953Y58904D01*
X15340Y58904D02*
X15362Y58882D01*
X13869Y58926D02*
X13891Y58904D01*
D11*
X26835Y18018D02*
X28059Y18018D01*
X28138Y17939D01*
X26178Y17361D02*
X26835Y18018D01*
X24684Y17361D02*
X26178Y17361D01*
X24567Y17478D02*
X24684Y17361D01*
X24567Y17478D02*
X24567Y18819D01*
X59393Y2712D02*
X61126Y2712D01*
X61252Y2838D01*
X61252Y3474D01*
X58033Y4072D02*
X59393Y2712D01*
X53717Y6202D02*
X55847Y4072D01*
X58033Y4072D01*
X46118Y9055D02*
X46235Y9172D01*
X46118Y2767D02*
X46118Y9055D01*
X46235Y9172D02*
X46767Y9172D01*
X26255Y18079D02*
X27057Y18881D01*
X28762Y18881D01*
X30099Y20218D01*
X54724Y44121D02*
X54724Y47106D01*
X54787Y47169D01*
X54661Y44057D02*
X54724Y44121D01*
X24567Y18819D02*
X26089Y20341D01*
X27354Y20341D01*
X25225Y18079D02*
X26255Y18079D01*
X53717Y6202D02*
X53717Y6271D01*
X27354Y20341D02*
X27424Y20412D01*
X337071Y-134893D02*
X337000Y-134822D01*
X337071Y-134750D01*
X337143Y-134822D01*
X337143Y-134965D01*
X337071Y-135107D01*
X337000Y-135179D01*
X337543Y-136107D02*
X337471Y-136179D01*
X337543Y-136250D01*
X337614Y-136179D01*
X337543Y-136107D01*
X337943Y-135536D02*
X338585Y-135536D01*
X338800Y-135464D01*
X338871Y-135393D01*
X338942Y-135250D01*
X338942Y-135036D01*
X338871Y-134893D01*
X338800Y-134822D01*
X338585Y-134750D01*
X337943Y-134750D01*
X337943Y-136250D01*
X339278Y-135250D02*
X339278Y-136250D01*
X339278Y-135679D02*
X339350Y-135464D01*
X339492Y-135322D01*
X339635Y-135250D01*
X339849Y-135250D01*
X340342Y-135250D02*
X340199Y-135322D01*
X340057Y-135464D01*
X339985Y-135679D01*
X339985Y-135821D01*
X340057Y-136036D01*
X340199Y-136179D01*
X340342Y-136250D01*
X340556Y-136250D01*
X340699Y-136179D01*
X340842Y-136036D01*
X340913Y-135821D01*
X340913Y-135679D01*
X340842Y-135464D01*
X340699Y-135322D01*
X340556Y-135250D01*
X340342Y-135250D01*
X341528Y-134750D02*
X341599Y-134822D01*
X341670Y-134750D01*
X341599Y-134679D01*
X341528Y-134750D01*
X341599Y-135250D02*
X341599Y-136464D01*
X341528Y-136678D01*
X341385Y-136750D01*
X341242Y-136750D01*
X341949Y-135679D02*
X342806Y-135679D01*
X342806Y-135536D01*
X342734Y-135393D01*
X342663Y-135322D01*
X342520Y-135250D01*
X342306Y-135250D01*
X342163Y-135322D01*
X342020Y-135464D01*
X341949Y-135679D01*
X341949Y-135821D01*
X342020Y-136036D01*
X342163Y-136179D01*
X342306Y-136250D01*
X342520Y-136250D01*
X342663Y-136179D01*
X342806Y-136036D01*
X343984Y-135464D02*
X343841Y-135322D01*
X343699Y-135250D01*
X343484Y-135250D01*
X343342Y-135322D01*
X343199Y-135464D01*
X343127Y-135679D01*
X343127Y-135821D01*
X343199Y-136036D01*
X343342Y-136179D01*
X343484Y-136250D01*
X343699Y-136250D01*
X343841Y-136179D01*
X343984Y-136036D01*
X344520Y-134750D02*
X344520Y-135964D01*
X344591Y-136179D01*
X344734Y-136250D01*
X344877Y-136250D01*
X344306Y-135250D02*
X344805Y-135250D01*
X345091Y-135250D02*
X345091Y-136750D01*
X345091Y-135464D02*
X345234Y-135322D01*
X345377Y-135250D01*
X345591Y-135250D01*
X345734Y-135322D01*
X345877Y-135464D01*
X345948Y-135679D01*
X345948Y-135821D01*
X345877Y-136036D01*
X345734Y-136179D01*
X345591Y-136250D01*
X345377Y-136250D01*
X345234Y-136179D01*
X345091Y-136036D01*
X347126Y-135250D02*
X347126Y-136250D01*
X347126Y-135464D02*
X346984Y-135322D01*
X346841Y-135250D01*
X346627Y-135250D01*
X346484Y-135322D01*
X346341Y-135464D01*
X346269Y-135679D01*
X346269Y-135821D01*
X346341Y-136036D01*
X346484Y-136179D01*
X346627Y-136250D01*
X346841Y-136250D01*
X346984Y-136179D01*
X347126Y-136036D01*
X347526Y-135250D02*
X347526Y-136250D01*
X347526Y-135679D02*
X347598Y-135464D01*
X347741Y-135322D01*
X347883Y-135250D01*
X348098Y-135250D01*
X348448Y-134750D02*
X348448Y-135964D01*
X348519Y-136179D01*
X348662Y-136250D01*
X348805Y-136250D01*
X348233Y-135250D02*
X348733Y-135250D01*
X349019Y-134750D02*
X349019Y-136250D01*
X349019Y-134750D02*
X350019Y-136250D01*
X350019Y-134750D02*
X350019Y-136250D01*
X350433Y-135250D02*
X350433Y-135964D01*
X350504Y-136179D01*
X350647Y-136250D01*
X350861Y-136250D01*
X351004Y-136179D01*
X351218Y-135964D01*
X351218Y-135250D02*
X351218Y-136250D01*
X351611Y-135250D02*
X351611Y-136250D01*
X351611Y-135536D02*
X351825Y-135322D01*
X351968Y-135250D01*
X352182Y-135250D01*
X352325Y-135322D01*
X352397Y-135536D01*
X352397Y-136250D01*
X352397Y-135536D02*
X352611Y-135322D01*
X352754Y-135250D01*
X352968Y-135250D01*
X353111Y-135322D01*
X353182Y-135536D01*
X353182Y-136250D01*
X353654Y-134750D02*
X353654Y-136250D01*
X353654Y-135464D02*
X353796Y-135322D01*
X353939Y-135250D01*
X354154Y-135250D01*
X354296Y-135322D01*
X354439Y-135464D01*
X354511Y-135679D01*
X354511Y-135821D01*
X354439Y-136036D01*
X354296Y-136179D01*
X354154Y-136250D01*
X353939Y-136250D01*
X353796Y-136179D01*
X353654Y-136036D01*
X354832Y-135679D02*
X355689Y-135679D01*
X355689Y-135536D01*
X355617Y-135393D01*
X355546Y-135322D01*
X355403Y-135250D01*
X355189Y-135250D01*
X355046Y-135322D01*
X354903Y-135464D01*
X354832Y-135679D01*
X354832Y-135821D01*
X354903Y-136036D01*
X355046Y-136179D01*
X355189Y-136250D01*
X355403Y-136250D01*
X355546Y-136179D01*
X355689Y-136036D01*
X356010Y-135250D02*
X356010Y-136250D01*
X356010Y-135679D02*
X356082Y-135464D01*
X356224Y-135322D01*
X356367Y-135250D01*
X356582Y-135250D01*
X356789Y-134893D02*
X356717Y-134822D01*
X356789Y-134750D01*
X356860Y-134822D01*
X356860Y-134965D01*
X356789Y-135107D01*
X356717Y-135179D01*
D12*
X347700Y-156600D02*
X347700Y-156000D01*
X342540Y-158635D02*
X342540Y-157365D01*
X345080Y-158635D02*
X345080Y-157365D01*
X347620Y-158635D02*
X347620Y-157365D01*
X350160Y-158635D02*
X350160Y-157365D01*
X352700Y-158635D02*
X352700Y-157365D01*
X342540Y-158000D02*
X352700Y-158000D01*
X342700Y-156300D02*
X352700Y-156300D01*
X353820Y-137000D02*
X353820Y-137000D01*
X342700Y-156800D02*
X342700Y-155800D01*
X352700Y-156800D02*
X352700Y-155800D01*
X324000Y-137000D02*
X324000Y-134000D01*
X324000Y-137000D02*
X353820Y-137000D01*
X272000Y-141500D02*
X353820Y-141500D01*
X339233Y-157600D02*
X338900Y-158067D01*
X339400Y-158067D01*
X339233Y-157600D02*
X339233Y-158300D01*
X339723Y-157600D02*
X339623Y-157633D01*
X339557Y-157733D01*
X339523Y-157900D01*
X339523Y-158000D01*
X339557Y-158167D01*
X339623Y-158267D01*
X339723Y-158300D01*
X339790Y-158300D01*
X339890Y-158267D01*
X339956Y-158167D01*
X339990Y-158000D01*
X339990Y-157900D01*
X339956Y-157733D01*
X339890Y-157633D01*
X339790Y-157600D01*
X339723Y-157600D01*
X340346Y-157600D02*
X340246Y-157633D01*
X340180Y-157733D01*
X340146Y-157900D01*
X340146Y-158000D01*
X340180Y-158167D01*
X340246Y-158267D01*
X340346Y-158300D01*
X340413Y-158300D01*
X340513Y-158267D01*
X340580Y-158167D01*
X340613Y-158000D01*
X340613Y-157900D01*
X340580Y-157733D01*
X340513Y-157633D01*
X340413Y-157600D01*
X340346Y-157600D01*
X340770Y-157833D02*
X340770Y-158300D01*
X340770Y-157967D02*
X340870Y-157867D01*
X340936Y-157833D01*
X341036Y-157833D01*
X341103Y-157867D01*
X341136Y-157967D01*
X341136Y-158300D01*
X341136Y-157967D02*
X341236Y-157867D01*
X341303Y-157833D01*
X341403Y-157833D01*
X341469Y-157867D01*
X341503Y-157967D01*
X341503Y-158300D01*
X341789Y-157600D02*
X341823Y-157633D01*
X341856Y-157600D01*
X341823Y-157567D01*
X341789Y-157600D01*
X341823Y-157833D02*
X341823Y-158300D01*
X341979Y-157600D02*
X341979Y-158300D01*
X339000Y-156033D02*
X339067Y-156000D01*
X339167Y-155900D01*
X339167Y-156600D01*
X339713Y-155900D02*
X339613Y-155933D01*
X339547Y-156033D01*
X339513Y-156200D01*
X339513Y-156300D01*
X339547Y-156467D01*
X339613Y-156567D01*
X339713Y-156600D01*
X339780Y-156600D01*
X339880Y-156567D01*
X339946Y-156467D01*
X339980Y-156300D01*
X339980Y-156200D01*
X339946Y-156033D01*
X339880Y-155933D01*
X339780Y-155900D01*
X339713Y-155900D01*
X340136Y-156133D02*
X340136Y-156600D01*
X340136Y-156267D02*
X340236Y-156167D01*
X340303Y-156133D01*
X340403Y-156133D01*
X340470Y-156167D01*
X340503Y-156267D01*
X340503Y-156600D01*
X340503Y-156267D02*
X340603Y-156167D01*
X340670Y-156133D01*
X340770Y-156133D01*
X340836Y-156167D01*
X340870Y-156267D01*
X340870Y-156600D01*
X341090Y-156133D02*
X341090Y-156600D01*
X341090Y-156267D02*
X341190Y-156167D01*
X341256Y-156133D01*
X341356Y-156133D01*
X341423Y-156167D01*
X341456Y-156267D01*
X341456Y-156600D01*
X341456Y-156267D02*
X341556Y-156167D01*
X341623Y-156133D01*
X341723Y-156133D01*
X341789Y-156167D01*
X341823Y-156267D01*
X341823Y-156600D01*
D13*
X353820Y62720D02*
X353820Y71720D01*
X232320Y71720D02*
X353820Y71720D01*
X255820Y62720D02*
X255820Y67220D01*
X232320Y67220D02*
X232320Y71720D01*
X232320Y67220D02*
X353820Y67220D01*
X243320Y67220D02*
X243320Y71720D01*
X255820Y67220D02*
X255820Y71720D01*
X334320Y67220D02*
X334320Y71720D01*
X232320Y62720D02*
X232320Y67220D01*
X232320Y62720D02*
X353820Y62720D01*
X334320Y62720D02*
X334320Y67220D01*
X243320Y62720D02*
X243320Y67220D01*
X234820Y68720D02*
X234820Y70244D01*
X235582Y70244D01*
X235836Y69990D01*
X235836Y69482D01*
X235582Y69228D01*
X234820Y69228D01*
X235328Y69228D02*
X235836Y68720D01*
X237359Y70244D02*
X236344Y70244D01*
X236344Y68720D01*
X237359Y68720D01*
X236344Y69482D02*
X236851Y69482D01*
X237867Y70244D02*
X237867Y69228D01*
X238375Y68720D01*
X238883Y69228D01*
X238883Y70244D01*
X245836Y70244D02*
X244820Y70244D01*
X244820Y68720D01*
X245836Y68720D01*
X244820Y69482D02*
X245328Y69482D01*
X247359Y69990D02*
X247105Y70244D01*
X246597Y70244D01*
X246344Y69990D01*
X246344Y68974D01*
X246597Y68720D01*
X247105Y68720D01*
X247359Y68974D01*
X248629Y70244D02*
X248121Y70244D01*
X247867Y69990D01*
X247867Y68974D01*
X248121Y68720D01*
X248629Y68720D01*
X248883Y68974D01*
X248883Y69990D01*
X248629Y70244D01*
X292336Y69490D02*
X292082Y69744D01*
X291574Y69744D01*
X291320Y69490D01*
X291320Y68474D01*
X291574Y68220D01*
X292082Y68220D01*
X292336Y68474D01*
X293097Y68220D02*
X293605Y68220D01*
X293859Y68474D01*
X293859Y68982D01*
X293605Y69236D01*
X293097Y69236D01*
X292844Y68982D01*
X292844Y68474D01*
X293097Y68220D01*
X294367Y68220D02*
X294367Y69236D01*
X294621Y69236D01*
X294875Y68982D01*
X294875Y68220D01*
X294875Y68982D01*
X295129Y69236D01*
X295383Y68982D01*
X295383Y68220D01*
X295891Y68220D02*
X295891Y69236D01*
X296144Y69236D01*
X296398Y68982D01*
X296398Y68220D01*
X296398Y68982D01*
X296652Y69236D01*
X296906Y68982D01*
X296906Y68220D01*
X298176Y68220D02*
X297668Y68220D01*
X297414Y68474D01*
X297414Y68982D01*
X297668Y69236D01*
X298176Y69236D01*
X298430Y68982D01*
X298430Y68728D01*
X297414Y68728D01*
X298938Y68220D02*
X298938Y69236D01*
X299699Y69236D01*
X299953Y68982D01*
X299953Y68220D01*
X300715Y69490D02*
X300715Y69236D01*
X300461Y69236D01*
X300969Y69236D01*
X300715Y69236D01*
X300715Y68474D01*
X300969Y68220D01*
X301731Y68220D02*
X302492Y68220D01*
X302746Y68474D01*
X302492Y68728D01*
X301985Y68728D01*
X301731Y68982D01*
X301985Y69236D01*
X302746Y69236D01*
X339320Y69744D02*
X339320Y68220D01*
X340082Y68220D01*
X340336Y68474D01*
X340336Y69490D01*
X340082Y69744D01*
X339320Y69744D01*
X341097Y69236D02*
X341605Y69236D01*
X341859Y68982D01*
X341859Y68220D01*
X341097Y68220D01*
X340844Y68474D01*
X341097Y68728D01*
X341859Y68728D01*
X342621Y69490D02*
X342621Y69236D01*
X342367Y69236D01*
X342875Y69236D01*
X342621Y69236D01*
X342621Y68474D01*
X342875Y68220D01*
X344398Y68220D02*
X343891Y68220D01*
X343637Y68474D01*
X343637Y68982D01*
X343891Y69236D01*
X344398Y69236D01*
X344652Y68982D01*
X344652Y68728D01*
X343637Y68728D01*
D14*
X16832Y58734D02*
X17575Y57991D01*
D15*
X331000Y-159420D02*
X331000Y-155000D01*
X300000Y-159420D02*
X300000Y-143000D01*
X318000Y-155000D02*
X318000Y-149000D01*
X338500Y-159420D02*
X338500Y-149000D01*
X238000Y-159420D02*
X238000Y-134000D01*
X272000Y-159420D02*
X272000Y-134000D01*
X353820Y-159420D02*
X353820Y-134000D01*
X238000Y-159420D02*
X353820Y-159420D01*
X272000Y-155000D02*
X353820Y-155000D01*
X272000Y-149000D02*
X353820Y-149000D01*
X272000Y-143000D02*
X353820Y-143000D01*
X238000Y-134000D02*
X353820Y-134000D01*
X203960Y-159420D02*
X239520Y-159420D01*
X41400Y-164500D02*
X41400Y-159420D01*
X-22100Y-104175D02*
X-17020Y-104175D01*
X-22100Y-43850D02*
X-17020Y-43850D01*
X-22100Y16475D02*
X-17020Y16475D01*
X-17020Y-159420D02*
X353820Y-159420D01*
X-17020Y-159420D02*
X-17020Y71720D01*
X-22100Y-164500D02*
X358900Y-164500D01*
X-22100Y-164500D02*
X-22100Y76800D01*
X353820Y-159420D02*
X353820Y-128940D01*
X104900Y-164500D02*
X104900Y-159420D01*
X168400Y-164500D02*
X168400Y-159420D01*
X231900Y-164500D02*
X231900Y-159420D01*
X295400Y-164500D02*
X295400Y-159420D01*
X353820Y-104175D02*
X358900Y-104175D01*
X353820Y-43850D02*
X358900Y-43850D01*
X353820Y16475D02*
X358900Y16475D01*
X358900Y-164500D02*
X358900Y76800D01*
X353820Y-159420D02*
X353820Y71720D01*
X41400Y71720D02*
X41400Y76800D01*
X-22100Y76800D02*
X358900Y76800D01*
X-17020Y71720D02*
X353820Y71720D01*
X104900Y71720D02*
X104900Y76800D01*
X168400Y71720D02*
X168400Y76800D01*
X231900Y71720D02*
X231900Y76800D01*
X295400Y71720D02*
X295400Y76800D01*
X301000Y-155357D02*
X301000Y-156500D01*
X301653Y-156500D01*
X302649Y-156500D02*
X302214Y-155357D01*
X301778Y-156500D01*
X301941Y-156119D02*
X302486Y-156119D01*
X302915Y-155357D02*
X303351Y-155901D01*
X303351Y-156500D01*
X303786Y-155357D02*
X303351Y-155901D01*
X304641Y-155357D02*
X303933Y-155357D01*
X303933Y-156500D01*
X304641Y-156500D01*
X303933Y-155901D02*
X304368Y-155901D01*
X304831Y-155357D02*
X304831Y-156500D01*
X304831Y-155357D02*
X305321Y-155357D01*
X305484Y-155412D01*
X305538Y-155466D01*
X305593Y-155575D01*
X305593Y-155684D01*
X305538Y-155793D01*
X305484Y-155847D01*
X305321Y-155901D01*
X304831Y-155901D01*
X305212Y-155901D02*
X305593Y-156500D01*
X306746Y-155357D02*
X306746Y-156500D01*
X306746Y-155357D02*
X307508Y-156500D01*
X307508Y-155357D02*
X307508Y-156500D01*
X308695Y-156500D02*
X308259Y-155357D01*
X307824Y-156500D01*
X307987Y-156119D02*
X308531Y-156119D01*
X308961Y-155357D02*
X308961Y-156500D01*
X308961Y-155357D02*
X309397Y-156500D01*
X309832Y-155357D02*
X309397Y-156500D01*
X309832Y-155357D02*
X309832Y-156500D01*
X310866Y-155357D02*
X310158Y-155357D01*
X310158Y-156500D01*
X310866Y-156500D01*
X310158Y-155901D02*
X310594Y-155901D01*
X311111Y-155738D02*
X311056Y-155793D01*
X311111Y-155847D01*
X311165Y-155793D01*
X311111Y-155738D01*
X311111Y-156391D02*
X311056Y-156446D01*
X311111Y-156500D01*
X311165Y-156446D01*
X311111Y-156391D01*
X331750Y-155607D02*
X331750Y-156750D01*
X331750Y-155607D02*
X332240Y-155607D01*
X332403Y-155662D01*
X332457Y-155716D01*
X332512Y-155825D01*
X332512Y-155934D01*
X332457Y-156043D01*
X332403Y-156097D01*
X332240Y-156151D01*
X331750Y-156151D01*
X332131Y-156151D02*
X332512Y-156750D01*
X333475Y-155607D02*
X332768Y-155607D01*
X332768Y-156750D01*
X333475Y-156750D01*
X332768Y-156151D02*
X333203Y-156151D01*
X333665Y-155607D02*
X334101Y-156750D01*
X334536Y-155607D02*
X334101Y-156750D01*
X334737Y-155988D02*
X334683Y-156043D01*
X334737Y-156097D01*
X334792Y-156043D01*
X334737Y-155988D01*
X334737Y-156641D02*
X334683Y-156696D01*
X334737Y-156750D01*
X334792Y-156696D01*
X334737Y-156641D01*
X339700Y-149857D02*
X339700Y-151000D01*
X339700Y-149857D02*
X340081Y-149857D01*
X340244Y-149912D01*
X340353Y-150020D01*
X340407Y-150129D01*
X340462Y-150293D01*
X340462Y-150565D01*
X340407Y-150728D01*
X340353Y-150837D01*
X340244Y-150946D01*
X340081Y-151000D01*
X339700Y-151000D01*
X341588Y-151000D02*
X341153Y-149857D01*
X340718Y-151000D01*
X340881Y-150619D02*
X341425Y-150619D01*
X342236Y-149857D02*
X342236Y-151000D01*
X341855Y-149857D02*
X342617Y-149857D01*
X343460Y-149857D02*
X342753Y-149857D01*
X342753Y-151000D01*
X343460Y-151000D01*
X342753Y-150401D02*
X343188Y-150401D01*
X343705Y-150238D02*
X343651Y-150293D01*
X343705Y-150347D01*
X343760Y-150293D01*
X343705Y-150238D01*
X343705Y-150891D02*
X343651Y-150946D01*
X343705Y-151000D01*
X343760Y-150946D01*
X343705Y-150891D01*
X273381Y-135357D02*
X273381Y-136500D01*
X273000Y-135357D02*
X273762Y-135357D01*
X273898Y-135357D02*
X273898Y-136500D01*
X274518Y-135357D02*
X274518Y-136500D01*
X274137Y-135357D02*
X274899Y-135357D01*
X275035Y-135357D02*
X275035Y-136500D01*
X275688Y-136500D01*
X276521Y-135357D02*
X275813Y-135357D01*
X275813Y-136500D01*
X276521Y-136500D01*
X275813Y-135901D02*
X276249Y-135901D01*
X276766Y-135738D02*
X276711Y-135793D01*
X276766Y-135847D01*
X276820Y-135793D01*
X276766Y-135738D01*
X276766Y-136391D02*
X276711Y-136446D01*
X276766Y-136500D01*
X276820Y-136446D01*
X276766Y-136391D01*
D16*
X273076Y-152553D02*
X273000Y-152477D01*
X273076Y-152400D01*
X273152Y-152477D01*
X273152Y-152629D01*
X273076Y-152781D01*
X273000Y-152857D01*
X273579Y-153848D02*
X273503Y-153924D01*
X273579Y-154000D01*
X273655Y-153924D01*
X273579Y-153848D01*
X274006Y-153238D02*
X274691Y-153238D01*
X274920Y-153162D01*
X274996Y-153086D01*
X275072Y-152934D01*
X275072Y-152705D01*
X274996Y-152553D01*
X274920Y-152477D01*
X274691Y-152400D01*
X274006Y-152400D01*
X274006Y-154000D01*
X275430Y-152934D02*
X275430Y-154000D01*
X275430Y-153391D02*
X275506Y-153162D01*
X275658Y-153010D01*
X275811Y-152934D01*
X276039Y-152934D01*
X276565Y-152934D02*
X276413Y-153010D01*
X276260Y-153162D01*
X276184Y-153391D01*
X276184Y-153543D01*
X276260Y-153771D01*
X276413Y-153924D01*
X276565Y-154000D01*
X276793Y-154000D01*
X276946Y-153924D01*
X277098Y-153771D01*
X277174Y-153543D01*
X277174Y-153391D01*
X277098Y-153162D01*
X276946Y-153010D01*
X276793Y-152934D01*
X276565Y-152934D01*
X277829Y-152400D02*
X277906Y-152477D01*
X277982Y-152400D01*
X277906Y-152324D01*
X277829Y-152400D01*
X277906Y-152934D02*
X277906Y-154229D01*
X277829Y-154457D01*
X277677Y-154533D01*
X277525Y-154533D01*
X278279Y-153391D02*
X279193Y-153391D01*
X279193Y-153238D01*
X279117Y-153086D01*
X279041Y-153010D01*
X278888Y-152934D01*
X278660Y-152934D01*
X278507Y-153010D01*
X278355Y-153162D01*
X278279Y-153391D01*
X278279Y-153543D01*
X278355Y-153771D01*
X278507Y-153924D01*
X278660Y-154000D01*
X278888Y-154000D01*
X279041Y-153924D01*
X279193Y-153771D01*
X280450Y-153162D02*
X280297Y-153010D01*
X280145Y-152934D01*
X279917Y-152934D01*
X279764Y-153010D01*
X279612Y-153162D01*
X279536Y-153391D01*
X279536Y-153543D01*
X279612Y-153771D01*
X279764Y-153924D01*
X279917Y-154000D01*
X280145Y-154000D01*
X280297Y-153924D01*
X280450Y-153771D01*
X281021Y-152400D02*
X281021Y-153695D01*
X281097Y-153924D01*
X281250Y-154000D01*
X281402Y-154000D01*
X280793Y-152934D02*
X281326Y-152934D01*
X282621Y-152400D02*
X281631Y-152400D01*
X281631Y-154000D01*
X282621Y-154000D01*
X281631Y-153162D02*
X282240Y-153162D01*
X282887Y-152934D02*
X282887Y-154000D01*
X282887Y-153238D02*
X283116Y-153010D01*
X283268Y-152934D01*
X283497Y-152934D01*
X283649Y-153010D01*
X283725Y-153238D01*
X283725Y-154000D01*
X285058Y-152934D02*
X285058Y-154152D01*
X284982Y-154381D01*
X284906Y-154457D01*
X284754Y-154533D01*
X284525Y-154533D01*
X284373Y-154457D01*
X285058Y-153162D02*
X284906Y-153010D01*
X284754Y-152934D01*
X284525Y-152934D01*
X284373Y-153010D01*
X284220Y-153162D01*
X284144Y-153391D01*
X284144Y-153543D01*
X284220Y-153771D01*
X284373Y-153924D01*
X284525Y-154000D01*
X284754Y-154000D01*
X284906Y-153924D01*
X285058Y-153771D01*
X285637Y-152400D02*
X285713Y-152477D01*
X285790Y-152400D01*
X285713Y-152324D01*
X285637Y-152400D01*
X285713Y-152934D02*
X285713Y-154000D01*
X286072Y-152934D02*
X286072Y-154000D01*
X286072Y-153238D02*
X286300Y-153010D01*
X286452Y-152934D01*
X286681Y-152934D01*
X286833Y-153010D01*
X286909Y-153238D01*
X286909Y-154000D01*
X287328Y-153391D02*
X288242Y-153391D01*
X288242Y-153238D01*
X288166Y-153086D01*
X288090Y-153010D01*
X287938Y-152934D01*
X287709Y-152934D01*
X287557Y-153010D01*
X287405Y-153162D01*
X287328Y-153391D01*
X287328Y-153543D01*
X287405Y-153771D01*
X287557Y-153924D01*
X287709Y-154000D01*
X287938Y-154000D01*
X288090Y-153924D01*
X288242Y-153771D01*
X288585Y-153391D02*
X289499Y-153391D01*
X289499Y-153238D01*
X289423Y-153086D01*
X289347Y-153010D01*
X289195Y-152934D01*
X288966Y-152934D01*
X288814Y-153010D01*
X288661Y-153162D01*
X288585Y-153391D01*
X288585Y-153543D01*
X288661Y-153771D01*
X288814Y-153924D01*
X288966Y-154000D01*
X289195Y-154000D01*
X289347Y-153924D01*
X289499Y-153771D01*
X289842Y-152934D02*
X289842Y-154000D01*
X289842Y-153391D02*
X289918Y-153162D01*
X290071Y-153010D01*
X290223Y-152934D01*
X290452Y-152934D01*
X290672Y-152553D02*
X290596Y-152477D01*
X290672Y-152400D01*
X290749Y-152477D01*
X290749Y-152629D01*
X290672Y-152781D01*
X290596Y-152857D01*
X301457Y-152400D02*
X301229Y-152477D01*
X301076Y-152705D01*
X301000Y-153086D01*
X301000Y-153314D01*
X301076Y-153695D01*
X301229Y-153924D01*
X301457Y-154000D01*
X301609Y-154000D01*
X301838Y-153924D01*
X301990Y-153695D01*
X302066Y-153314D01*
X302066Y-153086D01*
X301990Y-152705D01*
X301838Y-152477D01*
X301609Y-152400D01*
X301457Y-152400D01*
X303186Y-152400D02*
X302424Y-153467D01*
X303567Y-153467D01*
X303186Y-152400D02*
X303186Y-154000D01*
X303849Y-153314D02*
X305220Y-153314D01*
X305769Y-152553D02*
X305692Y-152477D01*
X305769Y-152400D01*
X305845Y-152477D01*
X305845Y-152629D01*
X305769Y-152781D01*
X305692Y-152857D01*
X306271Y-153848D02*
X306195Y-153924D01*
X306271Y-154000D01*
X306347Y-153924D01*
X306271Y-153848D01*
X306698Y-153238D02*
X307383Y-153238D01*
X307612Y-153162D01*
X307688Y-153086D01*
X307764Y-152934D01*
X307764Y-152705D01*
X307688Y-152553D01*
X307612Y-152477D01*
X307383Y-152400D01*
X306698Y-152400D01*
X306698Y-154000D01*
X308122Y-152934D02*
X308122Y-154000D01*
X308122Y-153391D02*
X308198Y-153162D01*
X308351Y-153010D01*
X308503Y-152934D01*
X308732Y-152934D01*
X309257Y-152934D02*
X309105Y-153010D01*
X308953Y-153162D01*
X308876Y-153391D01*
X308876Y-153543D01*
X308953Y-153771D01*
X309105Y-153924D01*
X309257Y-154000D01*
X309486Y-154000D01*
X309638Y-153924D01*
X309790Y-153771D01*
X309867Y-153543D01*
X309867Y-153391D01*
X309790Y-153162D01*
X309638Y-153010D01*
X309486Y-152934D01*
X309257Y-152934D01*
X310522Y-152400D02*
X310598Y-152477D01*
X310674Y-152400D01*
X310598Y-152324D01*
X310522Y-152400D01*
X310598Y-152934D02*
X310598Y-154229D01*
X310522Y-154457D01*
X310369Y-154533D01*
X310217Y-154533D01*
X310971Y-153391D02*
X311885Y-153391D01*
X311885Y-153238D01*
X311809Y-153086D01*
X311733Y-153010D01*
X311581Y-152934D01*
X311352Y-152934D01*
X311200Y-153010D01*
X311047Y-153162D01*
X310971Y-153391D01*
X310971Y-153543D01*
X311047Y-153771D01*
X311200Y-153924D01*
X311352Y-154000D01*
X311581Y-154000D01*
X311733Y-153924D01*
X311885Y-153771D01*
X313142Y-153162D02*
X312990Y-153010D01*
X312837Y-152934D01*
X312609Y-152934D01*
X312457Y-153010D01*
X312304Y-153162D01*
X312228Y-153391D01*
X312228Y-153543D01*
X312304Y-153771D01*
X312457Y-153924D01*
X312609Y-154000D01*
X312837Y-154000D01*
X312990Y-153924D01*
X313142Y-153771D01*
X313713Y-152400D02*
X313713Y-153695D01*
X313790Y-153924D01*
X313942Y-154000D01*
X314094Y-154000D01*
X313485Y-152934D02*
X314018Y-152934D01*
X314323Y-153238D02*
X315008Y-153238D01*
X315237Y-153162D01*
X315313Y-153086D01*
X315389Y-152934D01*
X315389Y-152705D01*
X315313Y-152553D01*
X315237Y-152477D01*
X315008Y-152400D01*
X314323Y-152400D01*
X314323Y-154000D01*
X316890Y-152781D02*
X316814Y-152629D01*
X316661Y-152477D01*
X316509Y-152400D01*
X316204Y-152400D01*
X316052Y-152477D01*
X315900Y-152629D01*
X315823Y-152781D01*
X315747Y-153010D01*
X315747Y-153391D01*
X315823Y-153619D01*
X315900Y-153771D01*
X316052Y-153924D01*
X316204Y-154000D01*
X316509Y-154000D01*
X316661Y-153924D01*
X316814Y-153771D01*
X316890Y-153619D01*
X317339Y-152400D02*
X317339Y-154000D01*
X317339Y-152400D02*
X318025Y-152400D01*
X318253Y-152477D01*
X318330Y-152553D01*
X318406Y-152705D01*
X318406Y-152857D01*
X318330Y-153010D01*
X318253Y-153086D01*
X318025Y-153162D01*
X317339Y-153162D02*
X318025Y-153162D01*
X318253Y-153238D01*
X318330Y-153314D01*
X318406Y-153467D01*
X318406Y-153695D01*
X318330Y-153848D01*
X318253Y-153924D01*
X318025Y-154000D01*
X317339Y-154000D01*
X318764Y-152400D02*
X318764Y-154000D01*
X318764Y-152400D02*
X319830Y-154000D01*
X319830Y-152400D02*
X319830Y-154000D01*
X320272Y-152934D02*
X320272Y-153695D01*
X320348Y-153924D01*
X320501Y-154000D01*
X320729Y-154000D01*
X320881Y-153924D01*
X321110Y-153695D01*
X321110Y-152934D02*
X321110Y-154000D01*
X321529Y-152934D02*
X321529Y-154000D01*
X321529Y-153238D02*
X321757Y-153010D01*
X321910Y-152934D01*
X322138Y-152934D01*
X322291Y-153010D01*
X322367Y-153238D01*
X322367Y-154000D01*
X322367Y-153238D02*
X322595Y-153010D01*
X322748Y-152934D01*
X322976Y-152934D01*
X323129Y-153010D01*
X323205Y-153238D01*
X323205Y-154000D01*
X323708Y-152400D02*
X323708Y-154000D01*
X323708Y-153162D02*
X323860Y-153010D01*
X324012Y-152934D01*
X324241Y-152934D01*
X324393Y-153010D01*
X324545Y-153162D01*
X324622Y-153391D01*
X324622Y-153543D01*
X324545Y-153771D01*
X324393Y-153924D01*
X324241Y-154000D01*
X324012Y-154000D01*
X323860Y-153924D01*
X323708Y-153771D01*
X324964Y-153391D02*
X325878Y-153391D01*
X325878Y-153238D01*
X325802Y-153086D01*
X325726Y-153010D01*
X325574Y-152934D01*
X325345Y-152934D01*
X325193Y-153010D01*
X325041Y-153162D01*
X324964Y-153391D01*
X324964Y-153543D01*
X325041Y-153771D01*
X325193Y-153924D01*
X325345Y-154000D01*
X325574Y-154000D01*
X325726Y-153924D01*
X325878Y-153771D01*
X326221Y-152934D02*
X326221Y-154000D01*
X326221Y-153391D02*
X326297Y-153162D01*
X326450Y-153010D01*
X326602Y-152934D01*
X326831Y-152934D01*
X327052Y-152553D02*
X326975Y-152477D01*
X327052Y-152400D01*
X327128Y-152477D01*
X327128Y-152629D01*
X327052Y-152781D01*
X326975Y-152857D01*
D17*
X273076Y-146553D02*
X273000Y-146477D01*
X273076Y-146400D01*
X273152Y-146477D01*
X273152Y-146629D01*
X273076Y-146781D01*
X273000Y-146857D01*
X273579Y-147848D02*
X273503Y-147924D01*
X273579Y-148000D01*
X273655Y-147924D01*
X273579Y-147848D01*
X274006Y-147238D02*
X274691Y-147238D01*
X274920Y-147162D01*
X274996Y-147086D01*
X275072Y-146934D01*
X275072Y-146705D01*
X274996Y-146553D01*
X274920Y-146477D01*
X274691Y-146400D01*
X274006Y-146400D01*
X274006Y-148000D01*
X275430Y-146934D02*
X275430Y-148000D01*
X275430Y-147391D02*
X275506Y-147162D01*
X275658Y-147010D01*
X275811Y-146934D01*
X276039Y-146934D01*
X276565Y-146934D02*
X276413Y-147010D01*
X276260Y-147162D01*
X276184Y-147391D01*
X276184Y-147543D01*
X276260Y-147771D01*
X276413Y-147924D01*
X276565Y-148000D01*
X276793Y-148000D01*
X276946Y-147924D01*
X277098Y-147771D01*
X277174Y-147543D01*
X277174Y-147391D01*
X277098Y-147162D01*
X276946Y-147010D01*
X276793Y-146934D01*
X276565Y-146934D01*
X277829Y-146400D02*
X277906Y-146477D01*
X277982Y-146400D01*
X277906Y-146324D01*
X277829Y-146400D01*
X277906Y-146934D02*
X277906Y-148229D01*
X277829Y-148457D01*
X277677Y-148533D01*
X277525Y-148533D01*
X278279Y-147391D02*
X279193Y-147391D01*
X279193Y-147238D01*
X279117Y-147086D01*
X279041Y-147010D01*
X278888Y-146934D01*
X278660Y-146934D01*
X278507Y-147010D01*
X278355Y-147162D01*
X278279Y-147391D01*
X278279Y-147543D01*
X278355Y-147771D01*
X278507Y-147924D01*
X278660Y-148000D01*
X278888Y-148000D01*
X279041Y-147924D01*
X279193Y-147771D01*
X280450Y-147162D02*
X280297Y-147010D01*
X280145Y-146934D01*
X279917Y-146934D01*
X279764Y-147010D01*
X279612Y-147162D01*
X279536Y-147391D01*
X279536Y-147543D01*
X279612Y-147771D01*
X279764Y-147924D01*
X279917Y-148000D01*
X280145Y-148000D01*
X280297Y-147924D01*
X280450Y-147771D01*
X281021Y-146400D02*
X281021Y-147695D01*
X281097Y-147924D01*
X281250Y-148000D01*
X281402Y-148000D01*
X280793Y-146934D02*
X281326Y-146934D01*
X281631Y-146400D02*
X281631Y-148000D01*
X281631Y-146400D02*
X282164Y-146400D01*
X282392Y-146477D01*
X282545Y-146629D01*
X282621Y-146781D01*
X282697Y-147010D01*
X282697Y-147391D01*
X282621Y-147619D01*
X282545Y-147771D01*
X282392Y-147924D01*
X282164Y-148000D01*
X281631Y-148000D01*
X283055Y-146934D02*
X283055Y-148000D01*
X283055Y-147391D02*
X283131Y-147162D01*
X283284Y-147010D01*
X283436Y-146934D01*
X283664Y-146934D01*
X284723Y-146934D02*
X284723Y-148000D01*
X284723Y-147162D02*
X284571Y-147010D01*
X284419Y-146934D01*
X284190Y-146934D01*
X284038Y-147010D01*
X283885Y-147162D01*
X283809Y-147391D01*
X283809Y-147543D01*
X283885Y-147771D01*
X284038Y-147924D01*
X284190Y-148000D01*
X284419Y-148000D01*
X284571Y-147924D01*
X284723Y-147771D01*
X285150Y-146934D02*
X285454Y-148000D01*
X285759Y-146934D02*
X285454Y-148000D01*
X285759Y-146934D02*
X286064Y-148000D01*
X286369Y-146934D02*
X286064Y-148000D01*
X286742Y-146934D02*
X286742Y-148000D01*
X286742Y-147238D02*
X286970Y-147010D01*
X287123Y-146934D01*
X287351Y-146934D01*
X287504Y-147010D01*
X287580Y-147238D01*
X287580Y-148000D01*
X287999Y-146400D02*
X287999Y-148000D01*
X287999Y-146400D02*
X288684Y-146400D01*
X288913Y-146477D01*
X288989Y-146553D01*
X289065Y-146705D01*
X289065Y-146857D01*
X288989Y-147010D01*
X288913Y-147086D01*
X288684Y-147162D01*
X287999Y-147162D02*
X288684Y-147162D01*
X288913Y-147238D01*
X288989Y-147314D01*
X289065Y-147467D01*
X289065Y-147695D01*
X288989Y-147848D01*
X288913Y-147924D01*
X288684Y-148000D01*
X287999Y-148000D01*
X289499Y-146934D02*
X289956Y-148000D01*
X290413Y-146934D02*
X289956Y-148000D01*
X289804Y-148305D01*
X289652Y-148457D01*
X289499Y-148533D01*
X289423Y-148533D01*
X290756Y-146553D02*
X290680Y-146477D01*
X290756Y-146400D01*
X290832Y-146477D01*
X290832Y-146629D01*
X290756Y-146781D01*
X290680Y-146857D01*
X243270Y-157146D02*
X243185Y-156976D01*
X243016Y-156807D01*
X242846Y-156722D01*
X242508Y-156722D01*
X242339Y-156807D01*
X242169Y-156976D01*
X242085Y-157146D01*
X242000Y-157400D01*
X242000Y-157823D01*
X242085Y-158077D01*
X242169Y-158246D01*
X242339Y-158415D01*
X242508Y-158500D01*
X242846Y-158500D01*
X243016Y-158415D01*
X243185Y-158246D01*
X243270Y-158077D01*
X243769Y-156722D02*
X243769Y-158500D01*
X243769Y-157654D02*
X244023Y-157400D01*
X244192Y-157315D01*
X244446Y-157315D01*
X244616Y-157400D01*
X244700Y-157654D01*
X244700Y-158500D01*
X246182Y-157315D02*
X246182Y-158500D01*
X246182Y-157569D02*
X246012Y-157400D01*
X245843Y-157315D01*
X245589Y-157315D01*
X245420Y-157400D01*
X245251Y-157569D01*
X245166Y-157823D01*
X245166Y-157992D01*
X245251Y-158246D01*
X245420Y-158415D01*
X245589Y-158500D01*
X245843Y-158500D01*
X246012Y-158415D01*
X246182Y-158246D01*
X246656Y-157315D02*
X246656Y-158500D01*
X246656Y-157654D02*
X246910Y-157400D01*
X247079Y-157315D01*
X247333Y-157315D01*
X247502Y-157400D01*
X247587Y-157654D01*
X247587Y-158500D01*
X249068Y-156722D02*
X249068Y-158500D01*
X249068Y-157569D02*
X248899Y-157400D01*
X248730Y-157315D01*
X248476Y-157315D01*
X248306Y-157400D01*
X248137Y-157569D01*
X248052Y-157823D01*
X248052Y-157992D01*
X248137Y-158246D01*
X248306Y-158415D01*
X248476Y-158500D01*
X248730Y-158500D01*
X248899Y-158415D01*
X249068Y-158246D01*
X249542Y-156722D02*
X249542Y-158500D01*
X249915Y-157823D02*
X250930Y-157823D01*
X250930Y-157654D01*
X250846Y-157484D01*
X250761Y-157400D01*
X250592Y-157315D01*
X250338Y-157315D01*
X250169Y-157400D01*
X249999Y-157569D01*
X249915Y-157823D01*
X249915Y-157992D01*
X249999Y-158246D01*
X250169Y-158415D01*
X250338Y-158500D01*
X250592Y-158500D01*
X250761Y-158415D01*
X250930Y-158246D01*
X251311Y-157315D02*
X251311Y-158500D01*
X251311Y-157823D02*
X251396Y-157569D01*
X251565Y-157400D01*
X251735Y-157315D01*
X251989Y-157315D01*
X252319Y-158415D02*
X252234Y-158500D01*
X252149Y-158415D01*
X252234Y-158331D01*
X252319Y-158415D01*
X252319Y-158585D01*
X252234Y-158754D01*
X252149Y-158839D01*
X255459Y-158500D02*
X254782Y-156722D01*
X254105Y-158500D01*
X254359Y-157907D02*
X255205Y-157907D01*
X257059Y-156722D02*
X255874Y-158500D01*
X255874Y-156722D02*
X257059Y-156722D01*
X255874Y-158500D02*
X257059Y-158500D01*
X260673Y-156722D02*
X260420Y-156807D01*
X260335Y-156976D01*
X260335Y-157146D01*
X260420Y-157315D01*
X260589Y-157400D01*
X260927Y-157484D01*
X261181Y-157569D01*
X261351Y-157738D01*
X261435Y-157907D01*
X261435Y-158161D01*
X261351Y-158331D01*
X261266Y-158415D01*
X261012Y-158500D01*
X260673Y-158500D01*
X260420Y-158415D01*
X260335Y-158331D01*
X260250Y-158161D01*
X260250Y-157907D01*
X260335Y-157738D01*
X260504Y-157569D01*
X260758Y-157484D01*
X261097Y-157400D01*
X261266Y-157315D01*
X261351Y-157146D01*
X261351Y-156976D01*
X261266Y-156807D01*
X261012Y-156722D01*
X260673Y-156722D01*
X262849Y-156722D02*
X262002Y-156722D01*
X261918Y-157484D01*
X262002Y-157400D01*
X262256Y-157315D01*
X262510Y-157315D01*
X262764Y-157400D01*
X262934Y-157569D01*
X263018Y-157823D01*
X263018Y-157992D01*
X262934Y-158246D01*
X262764Y-158415D01*
X262510Y-158500D01*
X262256Y-158500D01*
X262002Y-158415D01*
X261918Y-158331D01*
X261833Y-158161D01*
X263501Y-157146D02*
X263501Y-157061D01*
X263585Y-156892D01*
X263670Y-156807D01*
X263839Y-156722D01*
X264178Y-156722D01*
X264347Y-156807D01*
X264432Y-156892D01*
X264517Y-157061D01*
X264517Y-157230D01*
X264432Y-157400D01*
X264263Y-157654D01*
X263416Y-158500D01*
X264601Y-158500D01*
X265084Y-157146D02*
X265084Y-157061D01*
X265168Y-156892D01*
X265253Y-156807D01*
X265422Y-156722D01*
X265761Y-156722D01*
X265930Y-156807D01*
X266015Y-156892D01*
X266099Y-157061D01*
X266099Y-157230D01*
X266015Y-157400D01*
X265845Y-157654D01*
X264999Y-158500D01*
X266184Y-158500D01*
X267428Y-156722D02*
X266582Y-157907D01*
X267852Y-157907D01*
X267428Y-156722D02*
X267428Y-158500D01*
X241085Y-154646D02*
X241085Y-154561D01*
X241169Y-154392D01*
X241254Y-154307D01*
X241423Y-154222D01*
X241762Y-154222D01*
X241931Y-154307D01*
X242016Y-154392D01*
X242100Y-154561D01*
X242100Y-154730D01*
X242016Y-154900D01*
X241846Y-155154D01*
X241000Y-156000D01*
X242185Y-156000D01*
X242752Y-154222D02*
X243683Y-154222D01*
X243175Y-154900D01*
X243429Y-154900D01*
X243599Y-154984D01*
X243683Y-155069D01*
X243768Y-155323D01*
X243768Y-155492D01*
X243683Y-155746D01*
X243514Y-155915D01*
X243260Y-156000D01*
X243006Y-156000D01*
X242752Y-155915D01*
X242668Y-155831D01*
X242583Y-155661D01*
X245182Y-154222D02*
X244335Y-154222D01*
X244251Y-154984D01*
X244335Y-154900D01*
X244589Y-154815D01*
X244843Y-154815D01*
X245097Y-154900D01*
X245266Y-155069D01*
X245351Y-155323D01*
X245351Y-155492D01*
X245266Y-155746D01*
X245097Y-155915D01*
X244843Y-156000D01*
X244589Y-156000D01*
X244335Y-155915D01*
X244251Y-155831D01*
X244166Y-155661D01*
X246765Y-154222D02*
X245918Y-154222D01*
X245833Y-154984D01*
X245918Y-154900D01*
X246172Y-154815D01*
X246426Y-154815D01*
X246680Y-154900D01*
X246849Y-155069D01*
X246934Y-155323D01*
X246934Y-155492D01*
X246849Y-155746D01*
X246680Y-155915D01*
X246426Y-156000D01*
X246172Y-156000D01*
X245918Y-155915D01*
X245833Y-155831D01*
X245749Y-155661D01*
X248728Y-154222D02*
X249152Y-156000D01*
X249575Y-154222D02*
X249152Y-156000D01*
X249575Y-154222D02*
X249998Y-156000D01*
X250421Y-154222D02*
X249998Y-156000D01*
X250862Y-155831D02*
X250777Y-155915D01*
X250862Y-156000D01*
X250946Y-155915D01*
X250862Y-155831D01*
X254002Y-154646D02*
X253917Y-154476D01*
X253748Y-154307D01*
X253579Y-154222D01*
X253240Y-154222D01*
X253071Y-154307D01*
X252902Y-154476D01*
X252817Y-154646D01*
X252732Y-154900D01*
X252732Y-155323D01*
X252817Y-155577D01*
X252902Y-155746D01*
X253071Y-155915D01*
X253240Y-156000D01*
X253579Y-156000D01*
X253748Y-155915D01*
X253917Y-155746D01*
X254002Y-155577D01*
X254501Y-154222D02*
X254501Y-156000D01*
X254501Y-155154D02*
X254755Y-154900D01*
X254925Y-154815D01*
X255179Y-154815D01*
X255348Y-154900D01*
X255433Y-155154D01*
X255433Y-156000D01*
X256914Y-154815D02*
X256914Y-156000D01*
X256914Y-155069D02*
X256745Y-154900D01*
X256575Y-154815D01*
X256321Y-154815D01*
X256152Y-154900D01*
X255983Y-155069D01*
X255898Y-155323D01*
X255898Y-155492D01*
X255983Y-155746D01*
X256152Y-155915D01*
X256321Y-156000D01*
X256575Y-156000D01*
X256745Y-155915D01*
X256914Y-155746D01*
X257388Y-154815D02*
X257388Y-156000D01*
X257388Y-155154D02*
X257642Y-154900D01*
X257811Y-154815D01*
X258065Y-154815D01*
X258234Y-154900D01*
X258319Y-155154D01*
X258319Y-156000D01*
X259800Y-154222D02*
X259800Y-156000D01*
X259800Y-155069D02*
X259631Y-154900D01*
X259462Y-154815D01*
X259208Y-154815D01*
X259039Y-154900D01*
X258869Y-155069D01*
X258785Y-155323D01*
X258785Y-155492D01*
X258869Y-155746D01*
X259039Y-155915D01*
X259208Y-156000D01*
X259462Y-156000D01*
X259631Y-155915D01*
X259800Y-155746D01*
X260274Y-154222D02*
X260274Y-156000D01*
X260647Y-155323D02*
X261663Y-155323D01*
X261663Y-155154D01*
X261578Y-154984D01*
X261493Y-154900D01*
X261324Y-154815D01*
X261070Y-154815D01*
X260901Y-154900D01*
X260732Y-155069D01*
X260647Y-155323D01*
X260647Y-155492D01*
X260732Y-155746D01*
X260901Y-155915D01*
X261070Y-156000D01*
X261324Y-156000D01*
X261493Y-155915D01*
X261663Y-155746D01*
X262044Y-154815D02*
X262044Y-156000D01*
X262044Y-155323D02*
X262128Y-155069D01*
X262298Y-154900D01*
X262467Y-154815D01*
X262721Y-154815D01*
X264278Y-154222D02*
X264278Y-156000D01*
X264278Y-154222D02*
X265040Y-154222D01*
X265294Y-154307D01*
X265379Y-154392D01*
X265463Y-154561D01*
X265463Y-154730D01*
X265379Y-154900D01*
X265294Y-154984D01*
X265040Y-155069D01*
X264278Y-155069D02*
X265040Y-155069D01*
X265294Y-155154D01*
X265379Y-155238D01*
X265463Y-155407D01*
X265463Y-155661D01*
X265379Y-155831D01*
X265294Y-155915D01*
X265040Y-156000D01*
X264278Y-156000D01*
X265861Y-154222D02*
X265861Y-156000D01*
X266234Y-154815D02*
X266742Y-156000D01*
X267250Y-154815D02*
X266742Y-156000D01*
X268553Y-154222D02*
X268553Y-156000D01*
X268553Y-155069D02*
X268384Y-154900D01*
X268215Y-154815D01*
X267961Y-154815D01*
X267791Y-154900D01*
X267622Y-155069D01*
X267537Y-155323D01*
X267537Y-155492D01*
X267622Y-155746D01*
X267791Y-155915D01*
X267961Y-156000D01*
X268215Y-156000D01*
X268384Y-155915D01*
X268553Y-155746D01*
X269112Y-155831D02*
X269027Y-155915D01*
X269112Y-156000D01*
X269196Y-155915D01*
X269112Y-155831D01*
X239770Y-151482D02*
X239770Y-153260D01*
X239770Y-151482D02*
X240447Y-153260D01*
X241124Y-151482D02*
X240447Y-153260D01*
X241124Y-151482D02*
X241124Y-153260D01*
X241802Y-151482D02*
X241886Y-151567D01*
X241971Y-151482D01*
X241886Y-151398D01*
X241802Y-151482D01*
X241886Y-152075D02*
X241886Y-153260D01*
X243300Y-152329D02*
X243131Y-152160D01*
X242961Y-152075D01*
X242707Y-152075D01*
X242538Y-152160D01*
X242369Y-152329D01*
X242284Y-152583D01*
X242284Y-152752D01*
X242369Y-153006D01*
X242538Y-153175D01*
X242707Y-153260D01*
X242961Y-153260D01*
X243131Y-153175D01*
X243300Y-153006D01*
X243681Y-152075D02*
X243681Y-153260D01*
X243681Y-152583D02*
X243765Y-152329D01*
X243935Y-152160D01*
X244104Y-152075D01*
X244358Y-152075D01*
X244942Y-152075D02*
X244773Y-152160D01*
X244603Y-152329D01*
X244519Y-152583D01*
X244519Y-152752D01*
X244603Y-153006D01*
X244773Y-153175D01*
X244942Y-153260D01*
X245196Y-153260D01*
X245365Y-153175D01*
X245535Y-153006D01*
X245619Y-152752D01*
X245619Y-152583D01*
X245535Y-152329D01*
X245365Y-152160D01*
X245196Y-152075D01*
X244942Y-152075D01*
X247024Y-152329D02*
X246855Y-152160D01*
X246686Y-152075D01*
X246432Y-152075D01*
X246263Y-152160D01*
X246093Y-152329D01*
X246009Y-152583D01*
X246009Y-152752D01*
X246093Y-153006D01*
X246263Y-153175D01*
X246432Y-153260D01*
X246686Y-153260D01*
X246855Y-153175D01*
X247024Y-153006D01*
X247405Y-151482D02*
X247405Y-153260D01*
X247405Y-152413D02*
X247659Y-152160D01*
X247829Y-152075D01*
X248083Y-152075D01*
X248252Y-152160D01*
X248336Y-152413D01*
X248336Y-153260D01*
X248971Y-151482D02*
X249056Y-151567D01*
X249141Y-151482D01*
X249056Y-151398D01*
X248971Y-151482D01*
X249056Y-152075D02*
X249056Y-153260D01*
X249454Y-152075D02*
X249454Y-153853D01*
X249454Y-152329D02*
X249623Y-152160D01*
X249792Y-152075D01*
X250046Y-152075D01*
X250216Y-152160D01*
X250385Y-152329D01*
X250470Y-152583D01*
X250470Y-152752D01*
X250385Y-153006D01*
X250216Y-153175D01*
X250046Y-153260D01*
X249792Y-153260D01*
X249623Y-153175D01*
X249454Y-153006D01*
X252840Y-151482D02*
X252840Y-153260D01*
X252247Y-151482D02*
X253432Y-151482D01*
X253644Y-152583D02*
X254660Y-152583D01*
X254660Y-152413D01*
X254575Y-152244D01*
X254490Y-152160D01*
X254321Y-152075D01*
X254067Y-152075D01*
X253898Y-152160D01*
X253729Y-152329D01*
X253644Y-152583D01*
X253644Y-152752D01*
X253729Y-153006D01*
X253898Y-153175D01*
X254067Y-153260D01*
X254321Y-153260D01*
X254490Y-153175D01*
X254660Y-153006D01*
X256056Y-152329D02*
X255887Y-152160D01*
X255718Y-152075D01*
X255464Y-152075D01*
X255295Y-152160D01*
X255125Y-152329D01*
X255041Y-152583D01*
X255041Y-152752D01*
X255125Y-153006D01*
X255295Y-153175D01*
X255464Y-153260D01*
X255718Y-153260D01*
X255887Y-153175D01*
X256056Y-153006D01*
X256437Y-151482D02*
X256437Y-153260D01*
X256437Y-152413D02*
X256691Y-152160D01*
X256861Y-152075D01*
X257115Y-152075D01*
X257284Y-152160D01*
X257368Y-152413D01*
X257368Y-153260D01*
X257834Y-152075D02*
X257834Y-153260D01*
X257834Y-152413D02*
X258088Y-152160D01*
X258257Y-152075D01*
X258511Y-152075D01*
X258680Y-152160D01*
X258765Y-152413D01*
X258765Y-153260D01*
X259654Y-152075D02*
X259485Y-152160D01*
X259315Y-152329D01*
X259231Y-152583D01*
X259231Y-152752D01*
X259315Y-153006D01*
X259485Y-153175D01*
X259654Y-153260D01*
X259908Y-153260D01*
X260077Y-153175D01*
X260246Y-153006D01*
X260331Y-152752D01*
X260331Y-152583D01*
X260246Y-152329D01*
X260077Y-152160D01*
X259908Y-152075D01*
X259654Y-152075D01*
X260721Y-151482D02*
X260721Y-153260D01*
X261516Y-152075D02*
X261347Y-152160D01*
X261178Y-152329D01*
X261093Y-152583D01*
X261093Y-152752D01*
X261178Y-153006D01*
X261347Y-153175D01*
X261516Y-153260D01*
X261770Y-153260D01*
X261939Y-153175D01*
X262109Y-153006D01*
X262193Y-152752D01*
X262193Y-152583D01*
X262109Y-152329D01*
X261939Y-152160D01*
X261770Y-152075D01*
X261516Y-152075D01*
X263599Y-152075D02*
X263599Y-153429D01*
X263514Y-153683D01*
X263429Y-153768D01*
X263260Y-153853D01*
X263006Y-153853D01*
X262837Y-153768D01*
X263599Y-152329D02*
X263429Y-152160D01*
X263260Y-152075D01*
X263006Y-152075D01*
X262837Y-152160D01*
X262667Y-152329D01*
X262583Y-152583D01*
X262583Y-152752D01*
X262667Y-153006D01*
X262837Y-153175D01*
X263006Y-153260D01*
X263260Y-153260D01*
X263429Y-153175D01*
X263599Y-153006D01*
X264157Y-152075D02*
X264665Y-153260D01*
X265173Y-152075D02*
X264665Y-153260D01*
X264496Y-153599D01*
X264327Y-153768D01*
X264157Y-153853D01*
X264073Y-153853D01*
X266866Y-151482D02*
X266866Y-153260D01*
X267238Y-152075D02*
X267238Y-153260D01*
X267238Y-152413D02*
X267492Y-152160D01*
X267662Y-152075D01*
X267916Y-152075D01*
X268085Y-152160D01*
X268170Y-152413D01*
X268170Y-153260D01*
X269651Y-152329D02*
X269482Y-152160D01*
X269312Y-152075D01*
X269058Y-152075D01*
X268889Y-152160D01*
X268720Y-152329D01*
X268635Y-152583D01*
X268635Y-152752D01*
X268720Y-153006D01*
X268889Y-153175D01*
X269058Y-153260D01*
X269312Y-153260D01*
X269482Y-153175D01*
X269651Y-153006D01*
X270117Y-153091D02*
X270032Y-153175D01*
X270117Y-153260D01*
X270201Y-153175D01*
X270117Y-153091D01*
X301071Y-146643D02*
X301000Y-146572D01*
X301071Y-146500D01*
X301143Y-146572D01*
X301143Y-146715D01*
X301071Y-146857D01*
X301000Y-146929D01*
X301900Y-146500D02*
X301686Y-146572D01*
X301543Y-146786D01*
X301471Y-147143D01*
X301471Y-147357D01*
X301543Y-147714D01*
X301686Y-147929D01*
X301900Y-148000D01*
X302043Y-148000D01*
X302257Y-147929D01*
X302400Y-147714D01*
X302471Y-147357D01*
X302471Y-147143D01*
X302400Y-146786D01*
X302257Y-146572D01*
X302043Y-146500D01*
X301900Y-146500D01*
X303664Y-146500D02*
X302950Y-146500D01*
X302878Y-147143D01*
X302950Y-147072D01*
X303164Y-147000D01*
X303378Y-147000D01*
X303592Y-147072D01*
X303735Y-147214D01*
X303807Y-147429D01*
X303807Y-147572D01*
X303735Y-147786D01*
X303592Y-147929D01*
X303378Y-148000D01*
X303164Y-148000D01*
X302950Y-147929D01*
X302878Y-147857D01*
X302807Y-147714D01*
X304142Y-147357D02*
X305428Y-147357D01*
X305870Y-147286D02*
X306513Y-147286D01*
X306727Y-147214D01*
X306799Y-147143D01*
X306870Y-147000D01*
X306870Y-146786D01*
X306799Y-146643D01*
X306727Y-146572D01*
X306513Y-146500D01*
X305870Y-146500D01*
X305870Y-148000D01*
X307206Y-147000D02*
X307206Y-148000D01*
X307206Y-147429D02*
X307277Y-147214D01*
X307420Y-147072D01*
X307563Y-147000D01*
X307777Y-147000D01*
X308270Y-147000D02*
X308127Y-147072D01*
X307984Y-147214D01*
X307913Y-147429D01*
X307913Y-147572D01*
X307984Y-147786D01*
X308127Y-147929D01*
X308270Y-148000D01*
X308484Y-148000D01*
X308627Y-147929D01*
X308770Y-147786D01*
X308841Y-147572D01*
X308841Y-147429D01*
X308770Y-147214D01*
X308627Y-147072D01*
X308484Y-147000D01*
X308270Y-147000D01*
X309455Y-146500D02*
X309527Y-146572D01*
X309598Y-146500D01*
X309527Y-146429D01*
X309455Y-146500D01*
X309527Y-147000D02*
X309527Y-148214D01*
X309455Y-148428D01*
X309313Y-148500D01*
X309170Y-148500D01*
X309877Y-147429D02*
X310734Y-147429D01*
X310734Y-147286D01*
X310662Y-147143D01*
X310591Y-147072D01*
X310448Y-147000D01*
X310234Y-147000D01*
X310091Y-147072D01*
X309948Y-147214D01*
X309877Y-147429D01*
X309877Y-147572D01*
X309948Y-147786D01*
X310091Y-147929D01*
X310234Y-148000D01*
X310448Y-148000D01*
X310591Y-147929D01*
X310734Y-147786D01*
X311912Y-147214D02*
X311769Y-147072D01*
X311626Y-147000D01*
X311412Y-147000D01*
X311269Y-147072D01*
X311126Y-147214D01*
X311055Y-147429D01*
X311055Y-147572D01*
X311126Y-147786D01*
X311269Y-147929D01*
X311412Y-148000D01*
X311626Y-148000D01*
X311769Y-147929D01*
X311912Y-147786D01*
X312448Y-146500D02*
X312448Y-147714D01*
X312519Y-147929D01*
X312662Y-148000D01*
X312805Y-148000D01*
X312233Y-147000D02*
X312733Y-147000D01*
X313019Y-147286D02*
X313662Y-147286D01*
X313876Y-147214D01*
X313947Y-147143D01*
X314019Y-147000D01*
X314019Y-146786D01*
X313947Y-146643D01*
X313876Y-146572D01*
X313662Y-146500D01*
X313019Y-146500D01*
X313019Y-148000D01*
X315425Y-146857D02*
X315354Y-146715D01*
X315211Y-146572D01*
X315068Y-146500D01*
X314783Y-146500D01*
X314640Y-146572D01*
X314497Y-146715D01*
X314426Y-146857D01*
X314354Y-147072D01*
X314354Y-147429D01*
X314426Y-147643D01*
X314497Y-147786D01*
X314640Y-147929D01*
X314783Y-148000D01*
X315068Y-148000D01*
X315211Y-147929D01*
X315354Y-147786D01*
X315425Y-147643D01*
X315847Y-146500D02*
X315847Y-148000D01*
X315847Y-146500D02*
X316490Y-146500D01*
X316704Y-146572D01*
X316775Y-146643D01*
X316847Y-146786D01*
X316847Y-146929D01*
X316775Y-147072D01*
X316704Y-147143D01*
X316490Y-147214D01*
X315847Y-147214D02*
X316490Y-147214D01*
X316704Y-147286D01*
X316775Y-147357D01*
X316847Y-147500D01*
X316847Y-147714D01*
X316775Y-147857D01*
X316704Y-147929D01*
X316490Y-148000D01*
X315847Y-148000D01*
X317182Y-146500D02*
X317182Y-148000D01*
X317182Y-146500D02*
X318182Y-148000D01*
X318182Y-146500D02*
X318182Y-148000D01*
X318596Y-147000D02*
X318596Y-147714D01*
X318668Y-147929D01*
X318810Y-148000D01*
X319025Y-148000D01*
X319168Y-147929D01*
X319382Y-147714D01*
X319382Y-147000D02*
X319382Y-148000D01*
X319775Y-147000D02*
X319775Y-148000D01*
X319775Y-147286D02*
X319989Y-147072D01*
X320132Y-147000D01*
X320346Y-147000D01*
X320489Y-147072D01*
X320560Y-147286D01*
X320560Y-148000D01*
X320560Y-147286D02*
X320774Y-147072D01*
X320917Y-147000D01*
X321131Y-147000D01*
X321274Y-147072D01*
X321346Y-147286D01*
X321346Y-148000D01*
X321817Y-146500D02*
X321817Y-148000D01*
X321817Y-147214D02*
X321960Y-147072D01*
X322103Y-147000D01*
X322317Y-147000D01*
X322460Y-147072D01*
X322603Y-147214D01*
X322674Y-147429D01*
X322674Y-147572D01*
X322603Y-147786D01*
X322460Y-147929D01*
X322317Y-148000D01*
X322103Y-148000D01*
X321960Y-147929D01*
X321817Y-147786D01*
X322995Y-147429D02*
X323852Y-147429D01*
X323852Y-147286D01*
X323781Y-147143D01*
X323709Y-147072D01*
X323567Y-147000D01*
X323352Y-147000D01*
X323210Y-147072D01*
X323067Y-147214D01*
X322995Y-147429D01*
X322995Y-147572D01*
X323067Y-147786D01*
X323210Y-147929D01*
X323352Y-148000D01*
X323567Y-148000D01*
X323709Y-147929D01*
X323852Y-147786D01*
X324174Y-147000D02*
X324174Y-148000D01*
X324174Y-147429D02*
X324245Y-147214D01*
X324388Y-147072D01*
X324531Y-147000D01*
X324745Y-147000D01*
X324881Y-147357D02*
X326166Y-147357D01*
X326609Y-146500D02*
X326609Y-148000D01*
X326609Y-146500D02*
X327252Y-146500D01*
X327466Y-146572D01*
X327537Y-146643D01*
X327609Y-146786D01*
X327609Y-146929D01*
X327537Y-147072D01*
X327466Y-147143D01*
X327252Y-147214D01*
X326609Y-147214D01*
X327109Y-147214D02*
X327609Y-148000D01*
X327944Y-147286D02*
X328587Y-147286D01*
X328801Y-147214D01*
X328873Y-147143D01*
X328944Y-147000D01*
X328944Y-146786D01*
X328873Y-146643D01*
X328801Y-146572D01*
X328587Y-146500D01*
X327944Y-146500D01*
X327944Y-148000D01*
X329280Y-147000D02*
X329280Y-148000D01*
X329280Y-147429D02*
X329351Y-147214D01*
X329494Y-147072D01*
X329637Y-147000D01*
X329851Y-147000D01*
X330344Y-147000D02*
X330201Y-147072D01*
X330058Y-147214D01*
X329987Y-147429D01*
X329987Y-147572D01*
X330058Y-147786D01*
X330201Y-147929D01*
X330344Y-148000D01*
X330558Y-148000D01*
X330701Y-147929D01*
X330844Y-147786D01*
X330915Y-147572D01*
X330915Y-147429D01*
X330844Y-147214D01*
X330701Y-147072D01*
X330558Y-147000D01*
X330344Y-147000D01*
X331529Y-146500D02*
X331601Y-146572D01*
X331672Y-146500D01*
X331601Y-146429D01*
X331529Y-146500D01*
X331601Y-147000D02*
X331601Y-148214D01*
X331529Y-148428D01*
X331386Y-148500D01*
X331244Y-148500D01*
X331951Y-147429D02*
X332807Y-147429D01*
X332807Y-147286D01*
X332736Y-147143D01*
X332665Y-147072D01*
X332522Y-147000D01*
X332308Y-147000D01*
X332165Y-147072D01*
X332022Y-147214D01*
X331951Y-147429D01*
X331951Y-147572D01*
X332022Y-147786D01*
X332165Y-147929D01*
X332308Y-148000D01*
X332522Y-148000D01*
X332665Y-147929D01*
X332807Y-147786D01*
X333986Y-147214D02*
X333843Y-147072D01*
X333700Y-147000D01*
X333486Y-147000D01*
X333343Y-147072D01*
X333200Y-147214D01*
X333129Y-147429D01*
X333129Y-147572D01*
X333200Y-147786D01*
X333343Y-147929D01*
X333486Y-148000D01*
X333700Y-148000D01*
X333843Y-147929D01*
X333986Y-147786D01*
X334521Y-146500D02*
X334521Y-147714D01*
X334593Y-147929D01*
X334736Y-148000D01*
X334878Y-148000D01*
X334307Y-147000D02*
X334807Y-147000D01*
X335093Y-146500D02*
X335093Y-148000D01*
X335093Y-146500D02*
X335735Y-146500D01*
X335950Y-146572D01*
X336021Y-146643D01*
X336092Y-146786D01*
X336092Y-146929D01*
X336021Y-147072D01*
X335950Y-147143D01*
X335735Y-147214D01*
X335093Y-147214D01*
X335593Y-147214D02*
X336092Y-148000D01*
X336428Y-147429D02*
X337285Y-147429D01*
X337285Y-147286D01*
X337214Y-147143D01*
X337142Y-147072D01*
X336999Y-147000D01*
X336785Y-147000D01*
X336642Y-147072D01*
X336500Y-147214D01*
X336428Y-147429D01*
X336428Y-147572D01*
X336500Y-147786D01*
X336642Y-147929D01*
X336785Y-148000D01*
X336999Y-148000D01*
X337142Y-147929D01*
X337285Y-147786D01*
X337606Y-147000D02*
X338035Y-148000D01*
X338463Y-147000D02*
X338035Y-148000D01*
X338849Y-146500D02*
X338920Y-146572D01*
X338992Y-146500D01*
X338920Y-146429D01*
X338849Y-146500D01*
X338920Y-147000D02*
X338920Y-148000D01*
X340042Y-147214D02*
X339970Y-147072D01*
X339756Y-147000D01*
X339542Y-147000D01*
X339328Y-147072D01*
X339256Y-147214D01*
X339328Y-147357D01*
X339470Y-147429D01*
X339827Y-147500D01*
X339970Y-147572D01*
X340042Y-147714D01*
X340042Y-147786D01*
X339970Y-147929D01*
X339756Y-148000D01*
X339542Y-148000D01*
X339328Y-147929D01*
X339256Y-147786D01*
X340499Y-146500D02*
X340570Y-146572D01*
X340642Y-146500D01*
X340570Y-146429D01*
X340499Y-146500D01*
X340570Y-147000D02*
X340570Y-148000D01*
X341263Y-147000D02*
X341120Y-147072D01*
X340977Y-147214D01*
X340906Y-147429D01*
X340906Y-147572D01*
X340977Y-147786D01*
X341120Y-147929D01*
X341263Y-148000D01*
X341477Y-148000D01*
X341620Y-147929D01*
X341763Y-147786D01*
X341834Y-147572D01*
X341834Y-147429D01*
X341763Y-147214D01*
X341620Y-147072D01*
X341477Y-147000D01*
X341263Y-147000D01*
X342163Y-147000D02*
X342163Y-148000D01*
X342163Y-147286D02*
X342377Y-147072D01*
X342520Y-147000D01*
X342734Y-147000D01*
X342877Y-147072D01*
X342948Y-147286D01*
X342948Y-148000D01*
X344484Y-148000D02*
X343912Y-146500D01*
X343341Y-148000D01*
X343555Y-147500D02*
X344269Y-147500D01*
X344833Y-146500D02*
X344833Y-148000D01*
X344833Y-146500D02*
X345476Y-146500D01*
X345690Y-146572D01*
X345762Y-146643D01*
X345833Y-146786D01*
X345833Y-146929D01*
X345762Y-147072D01*
X345690Y-147143D01*
X345476Y-147214D01*
X344833Y-147214D01*
X345333Y-147214D02*
X345833Y-148000D01*
X346669Y-146500D02*
X346669Y-148000D01*
X346169Y-146500D02*
X347169Y-146500D01*
X347419Y-147857D02*
X347347Y-147929D01*
X347419Y-148000D01*
X347490Y-147929D01*
X347419Y-147857D01*
X348890Y-146857D02*
X348818Y-146715D01*
X348676Y-146572D01*
X348533Y-146500D01*
X348247Y-146500D01*
X348104Y-146572D01*
X347961Y-146715D01*
X347890Y-146857D01*
X347819Y-147072D01*
X347819Y-147429D01*
X347890Y-147643D01*
X347961Y-147786D01*
X348104Y-147929D01*
X348247Y-148000D01*
X348533Y-148000D01*
X348676Y-147929D01*
X348818Y-147786D01*
X348890Y-147643D01*
X348890Y-147429D01*
X348533Y-147429D02*
X348890Y-147429D01*
X349233Y-146500D02*
X349233Y-148000D01*
X349233Y-146500D02*
X349875Y-146500D01*
X350089Y-146572D01*
X350161Y-146643D01*
X350232Y-146786D01*
X350232Y-146929D01*
X350161Y-147072D01*
X350089Y-147143D01*
X349875Y-147214D01*
X349233Y-147214D02*
X349875Y-147214D01*
X350089Y-147286D01*
X350161Y-147357D01*
X350232Y-147500D01*
X350232Y-147714D01*
X350161Y-147857D01*
X350089Y-147929D01*
X349875Y-148000D01*
X349233Y-148000D01*
X350568Y-146500D02*
X350568Y-148000D01*
X351425Y-148000D01*
X351661Y-146643D02*
X351589Y-146572D01*
X351661Y-146500D01*
X351732Y-146572D01*
X351732Y-146715D01*
X351661Y-146857D01*
X351589Y-146929D01*
X327582Y-161198D02*
X327497Y-161029D01*
X327243Y-160944D01*
X327074Y-160944D01*
X326820Y-161029D01*
X326650Y-161283D01*
X326566Y-161706D01*
X326566Y-162129D01*
X326650Y-162468D01*
X326820Y-162637D01*
X327074Y-162722D01*
X327158Y-162722D01*
X327412Y-162637D01*
X327582Y-162468D01*
X327666Y-162214D01*
X327666Y-162129D01*
X327582Y-161876D01*
X327412Y-161706D01*
X327158Y-161622D01*
X327074Y-161622D01*
X326820Y-161706D01*
X326650Y-161876D01*
X326566Y-162129D01*
X263955Y-160944D02*
X263108Y-160944D01*
X263023Y-161706D01*
X263108Y-161622D01*
X263362Y-161537D01*
X263616Y-161537D01*
X263870Y-161622D01*
X264039Y-161791D01*
X264124Y-162045D01*
X264124Y-162214D01*
X264039Y-162468D01*
X263870Y-162637D01*
X263616Y-162722D01*
X263362Y-162722D01*
X263108Y-162637D01*
X263023Y-162553D01*
X262939Y-162383D01*
X200311Y-160944D02*
X199464Y-162129D01*
X200734Y-162129D01*
X200311Y-160944D02*
X200311Y-162722D01*
X135964Y-160944D02*
X136896Y-160944D01*
X136388Y-161622D01*
X136642Y-161622D01*
X136811Y-161706D01*
X136896Y-161791D01*
X136980Y-162045D01*
X136980Y-162214D01*
X136896Y-162468D01*
X136726Y-162637D01*
X136472Y-162722D01*
X136218Y-162722D01*
X135964Y-162637D01*
X135880Y-162553D01*
X135795Y-162383D01*
X72650Y-161368D02*
X72650Y-161283D01*
X72735Y-161114D01*
X72820Y-161029D01*
X72989Y-160944D01*
X73328Y-160944D01*
X73497Y-161029D01*
X73582Y-161114D01*
X73666Y-161283D01*
X73666Y-161452D01*
X73582Y-161622D01*
X73412Y-161876D01*
X72566Y-162722D01*
X73751Y-162722D01*
X9176Y-161283D02*
X9345Y-161198D01*
X9599Y-160944D01*
X9599Y-162722D01*
X-20195Y-134732D02*
X-20195Y-136509D01*
X-20195Y-134732D02*
X-19602Y-134732D01*
X-19348Y-134816D01*
X-19179Y-134986D01*
X-19095Y-135155D01*
X-19010Y-135409D01*
X-19010Y-135832D01*
X-19095Y-136086D01*
X-19179Y-136255D01*
X-19348Y-136425D01*
X-19602Y-136509D01*
X-20195Y-136509D01*
X-18925Y-74957D02*
X-19010Y-74788D01*
X-19179Y-74618D01*
X-19348Y-74534D01*
X-19687Y-74534D01*
X-19856Y-74618D01*
X-20026Y-74788D01*
X-20110Y-74957D01*
X-20195Y-75211D01*
X-20195Y-75634D01*
X-20110Y-75888D01*
X-20026Y-76057D01*
X-19856Y-76227D01*
X-19687Y-76311D01*
X-19348Y-76311D01*
X-19179Y-76227D01*
X-19010Y-76057D01*
X-18925Y-75888D01*
X-20195Y-14209D02*
X-20195Y-15986D01*
X-20195Y-14209D02*
X-19433Y-14209D01*
X-19179Y-14293D01*
X-19095Y-14378D01*
X-19010Y-14547D01*
X-19010Y-14716D01*
X-19095Y-14886D01*
X-19179Y-14970D01*
X-19433Y-15055D01*
X-20195Y-15055D02*
X-19433Y-15055D01*
X-19179Y-15140D01*
X-19095Y-15224D01*
X-19010Y-15394D01*
X-19010Y-15648D01*
X-19095Y-15817D01*
X-19179Y-15902D01*
X-19433Y-15986D01*
X-20195Y-15986D01*
X-18841Y44466D02*
X-19518Y46243D01*
X-20195Y44466D01*
X-19941Y45058D02*
X-19095Y45058D01*
X355725Y-134732D02*
X355725Y-136509D01*
X355725Y-134732D02*
X356318Y-134732D01*
X356572Y-134816D01*
X356741Y-134986D01*
X356825Y-135155D01*
X356910Y-135409D01*
X356910Y-135832D01*
X356825Y-136086D01*
X356741Y-136255D01*
X356572Y-136425D01*
X356318Y-136509D01*
X355725Y-136509D01*
X356995Y-74957D02*
X356910Y-74788D01*
X356741Y-74618D01*
X356572Y-74534D01*
X356233Y-74534D01*
X356064Y-74618D01*
X355894Y-74788D01*
X355810Y-74957D01*
X355725Y-75211D01*
X355725Y-75634D01*
X355810Y-75888D01*
X355894Y-76057D01*
X356064Y-76227D01*
X356233Y-76311D01*
X356572Y-76311D01*
X356741Y-76227D01*
X356910Y-76057D01*
X356995Y-75888D01*
X355725Y-14209D02*
X355725Y-15986D01*
X355725Y-14209D02*
X356487Y-14209D01*
X356741Y-14293D01*
X356825Y-14378D01*
X356910Y-14547D01*
X356910Y-14716D01*
X356825Y-14886D01*
X356741Y-14970D01*
X356487Y-15055D01*
X355725Y-15055D02*
X356487Y-15055D01*
X356741Y-15140D01*
X356825Y-15224D01*
X356910Y-15394D01*
X356910Y-15648D01*
X356825Y-15817D01*
X356741Y-15902D01*
X356487Y-15986D01*
X355725Y-15986D01*
X357079Y44466D02*
X356402Y46243D01*
X355725Y44466D01*
X355979Y45058D02*
X356825Y45058D01*
X327582Y75022D02*
X327497Y75191D01*
X327243Y75276D01*
X327074Y75276D01*
X326820Y75191D01*
X326650Y74937D01*
X326566Y74514D01*
X326566Y74091D01*
X326650Y73752D01*
X326820Y73583D01*
X327074Y73498D01*
X327158Y73498D01*
X327412Y73583D01*
X327582Y73752D01*
X327666Y74006D01*
X327666Y74091D01*
X327582Y74344D01*
X327412Y74514D01*
X327158Y74598D01*
X327074Y74598D01*
X326820Y74514D01*
X326650Y74344D01*
X326566Y74091D01*
X263955Y75276D02*
X263108Y75276D01*
X263023Y74514D01*
X263108Y74598D01*
X263362Y74683D01*
X263616Y74683D01*
X263870Y74598D01*
X264039Y74429D01*
X264124Y74175D01*
X264124Y74006D01*
X264039Y73752D01*
X263870Y73583D01*
X263616Y73498D01*
X263362Y73498D01*
X263108Y73583D01*
X263023Y73667D01*
X262939Y73837D01*
X200311Y75276D02*
X199464Y74091D01*
X200734Y74091D01*
X200311Y75276D02*
X200311Y73498D01*
X135964Y75276D02*
X136896Y75276D01*
X136388Y74598D01*
X136642Y74598D01*
X136811Y74514D01*
X136896Y74429D01*
X136980Y74175D01*
X136980Y74006D01*
X136896Y73752D01*
X136726Y73583D01*
X136472Y73498D01*
X136218Y73498D01*
X135964Y73583D01*
X135880Y73667D01*
X135795Y73837D01*
X72650Y74852D02*
X72650Y74937D01*
X72735Y75106D01*
X72820Y75191D01*
X72989Y75276D01*
X73328Y75276D01*
X73497Y75191D01*
X73582Y75106D01*
X73666Y74937D01*
X73666Y74768D01*
X73582Y74598D01*
X73412Y74344D01*
X72566Y73498D01*
X73751Y73498D01*
X9176Y74937D02*
X9345Y75022D01*
X9599Y75276D01*
X9599Y73498D01*
D18*
X273000Y-156202D02*
X273493Y-156202D01*
X273657Y-156148D01*
X273712Y-156093D01*
X273767Y-155983D01*
X273767Y-155819D01*
X273712Y-155710D01*
X273657Y-155655D01*
X273493Y-155600D01*
X273000Y-155600D01*
X273000Y-156750D01*
X274845Y-155874D02*
X274790Y-155764D01*
X274681Y-155655D01*
X274571Y-155600D01*
X274352Y-155600D01*
X274243Y-155655D01*
X274133Y-155764D01*
X274079Y-155874D01*
X274024Y-156038D01*
X274024Y-156312D01*
X274079Y-156476D01*
X274133Y-156586D01*
X274243Y-156695D01*
X274352Y-156750D01*
X274571Y-156750D01*
X274681Y-156695D01*
X274790Y-156586D01*
X274845Y-156476D01*
X275168Y-155600D02*
X275168Y-156750D01*
X275168Y-155600D02*
X275661Y-155600D01*
X275825Y-155655D01*
X275880Y-155710D01*
X275935Y-155819D01*
X275935Y-155929D01*
X275880Y-156038D01*
X275825Y-156093D01*
X275661Y-156148D01*
X275168Y-156148D02*
X275661Y-156148D01*
X275825Y-156202D01*
X275880Y-156257D01*
X275935Y-156367D01*
X275935Y-156531D01*
X275880Y-156640D01*
X275825Y-156695D01*
X275661Y-156750D01*
X275168Y-156750D01*
X277095Y-155600D02*
X277095Y-156750D01*
X277095Y-155600D02*
X277807Y-155600D01*
X277095Y-156148D02*
X277533Y-156148D01*
X277938Y-155600D02*
X277938Y-156750D01*
X278179Y-155600D02*
X278179Y-156750D01*
X278836Y-156750D01*
X279674Y-155600D02*
X278962Y-155600D01*
X278962Y-156750D01*
X279674Y-156750D01*
X278962Y-156148D02*
X279400Y-156148D01*
X280769Y-155600D02*
X280769Y-156750D01*
X280769Y-155600D02*
X281536Y-156750D01*
X281536Y-155600D02*
X281536Y-156750D01*
X282729Y-156750D02*
X282291Y-155600D01*
X281853Y-156750D01*
X282017Y-156367D02*
X282565Y-156367D01*
X282997Y-155600D02*
X282997Y-156750D01*
X282997Y-155600D02*
X283435Y-156750D01*
X283873Y-155600D02*
X283435Y-156750D01*
X283873Y-155600D02*
X283873Y-156750D01*
X284914Y-155600D02*
X284202Y-155600D01*
X284202Y-156750D01*
X284914Y-156750D01*
X284202Y-156148D02*
X284640Y-156148D01*
X285160Y-155983D02*
X285105Y-156038D01*
X285160Y-156093D01*
X285215Y-156038D01*
X285160Y-155983D01*
X285160Y-156640D02*
X285105Y-156695D01*
X285160Y-156750D01*
X285215Y-156695D01*
X285160Y-156640D01*
X273714Y-157988D02*
X273667Y-157893D01*
X273571Y-157798D01*
X273476Y-157750D01*
X273286Y-157750D01*
X273190Y-157798D01*
X273095Y-157893D01*
X273048Y-157988D01*
X273000Y-158131D01*
X273000Y-158369D01*
X273048Y-158512D01*
X273095Y-158607D01*
X273190Y-158702D01*
X273286Y-158750D01*
X273476Y-158750D01*
X273571Y-158702D01*
X273667Y-158607D01*
X273714Y-158512D01*
X273714Y-158369D01*
X273476Y-158369D02*
X273714Y-158369D01*
X273943Y-158274D02*
X274371Y-158274D01*
X274514Y-158226D01*
X274562Y-158179D01*
X274609Y-158083D01*
X274609Y-157941D01*
X274562Y-157845D01*
X274514Y-157798D01*
X274371Y-157750D01*
X273943Y-157750D01*
X273943Y-158750D01*
X275499Y-157893D02*
X275404Y-157798D01*
X275261Y-157750D01*
X275071Y-157750D01*
X274928Y-157798D01*
X274833Y-157893D01*
X274833Y-157988D01*
X274881Y-158083D01*
X274928Y-158131D01*
X275023Y-158179D01*
X275309Y-158274D01*
X275404Y-158322D01*
X275452Y-158369D01*
X275499Y-158464D01*
X275499Y-158607D01*
X275404Y-158702D01*
X275261Y-158750D01*
X275071Y-158750D01*
X274928Y-158702D01*
X274833Y-158607D01*
X275723Y-159083D02*
X276485Y-159083D01*
X276947Y-157750D02*
X276947Y-158750D01*
X276614Y-157750D02*
X277280Y-157750D01*
X277399Y-157750D02*
X277399Y-158750D01*
X277399Y-157750D02*
X277828Y-157750D01*
X277970Y-157798D01*
X278018Y-157845D01*
X278066Y-157941D01*
X278066Y-158036D01*
X278018Y-158131D01*
X277970Y-158179D01*
X277828Y-158226D01*
X277399Y-158226D01*
X277732Y-158226D02*
X278066Y-158750D01*
X279051Y-158750D02*
X278670Y-157750D01*
X278289Y-158750D01*
X278432Y-158417D02*
X278908Y-158417D01*
X279999Y-157988D02*
X279951Y-157893D01*
X279856Y-157798D01*
X279760Y-157750D01*
X279570Y-157750D01*
X279475Y-157798D01*
X279380Y-157893D01*
X279332Y-157988D01*
X279284Y-158131D01*
X279284Y-158369D01*
X279332Y-158512D01*
X279380Y-158607D01*
X279475Y-158702D01*
X279570Y-158750D01*
X279760Y-158750D01*
X279856Y-158702D01*
X279951Y-158607D01*
X279999Y-158512D01*
X280279Y-157750D02*
X280279Y-158750D01*
X280946Y-157750D02*
X280279Y-158417D01*
X280517Y-158179D02*
X280946Y-158750D01*
X281789Y-157750D02*
X281170Y-157750D01*
X281170Y-158750D01*
X281789Y-158750D01*
X281170Y-158226D02*
X281551Y-158226D01*
X281955Y-157750D02*
X281955Y-158750D01*
X281955Y-157750D02*
X282384Y-157750D01*
X282527Y-157798D01*
X282574Y-157845D01*
X282622Y-157941D01*
X282622Y-158036D01*
X282574Y-158131D01*
X282527Y-158179D01*
X282384Y-158226D01*
X281955Y-158226D01*
X282289Y-158226D02*
X282622Y-158750D01*
X282893Y-158655D02*
X282846Y-158702D01*
X282893Y-158750D01*
X282941Y-158702D01*
X282893Y-158655D01*
X283160Y-158274D02*
X283588Y-158274D01*
X283731Y-158226D01*
X283779Y-158179D01*
X283826Y-158083D01*
X283826Y-157941D01*
X283779Y-157845D01*
X283731Y-157798D01*
X283588Y-157750D01*
X283160Y-157750D01*
X283160Y-158750D01*
X284621Y-158226D02*
X284526Y-158131D01*
X284431Y-158083D01*
X284288Y-158083D01*
X284193Y-158131D01*
X284098Y-158226D01*
X284050Y-158369D01*
X284050Y-158464D01*
X284098Y-158607D01*
X284193Y-158702D01*
X284288Y-158750D01*
X284431Y-158750D01*
X284526Y-158702D01*
X284621Y-158607D01*
X284836Y-157750D02*
X284836Y-158750D01*
X284836Y-158226D02*
X284931Y-158131D01*
X285026Y-158083D01*
X285169Y-158083D01*
X285264Y-158131D01*
X285359Y-158226D01*
X285407Y-158369D01*
X285407Y-158464D01*
X285359Y-158607D01*
X285264Y-158702D01*
X285169Y-158750D01*
X285026Y-158750D01*
X284931Y-158702D01*
X284836Y-158607D01*
X285621Y-157750D02*
X285621Y-158750D01*
X285621Y-157750D02*
X285954Y-157750D01*
X286097Y-157798D01*
X286192Y-157893D01*
X286240Y-157988D01*
X286288Y-158131D01*
X286288Y-158369D01*
X286240Y-158512D01*
X286192Y-158607D01*
X286097Y-158702D01*
X285954Y-158750D01*
X285621Y-158750D01*
X286749Y-158083D02*
X286654Y-158131D01*
X286559Y-158226D01*
X286511Y-158369D01*
X286511Y-158464D01*
X286559Y-158607D01*
X286654Y-158702D01*
X286749Y-158750D01*
X286892Y-158750D01*
X286987Y-158702D01*
X287083Y-158607D01*
X287130Y-158464D01*
X287130Y-158369D01*
X287083Y-158226D01*
X286987Y-158131D01*
X286892Y-158083D01*
X286749Y-158083D01*
X287921Y-158226D02*
X287825Y-158131D01*
X287730Y-158083D01*
X287587Y-158083D01*
X287492Y-158131D01*
X287397Y-158226D01*
X287349Y-158369D01*
X287349Y-158464D01*
X287397Y-158607D01*
X287492Y-158702D01*
X287587Y-158750D01*
X287730Y-158750D01*
X287825Y-158702D01*
X287921Y-158607D01*
X273000Y-144452D02*
X273493Y-144452D01*
X273657Y-144398D01*
X273712Y-144343D01*
X273767Y-144233D01*
X273767Y-144069D01*
X273712Y-143960D01*
X273657Y-143905D01*
X273493Y-143850D01*
X273000Y-143850D01*
X273000Y-145000D01*
X274845Y-144124D02*
X274790Y-144014D01*
X274681Y-143905D01*
X274571Y-143850D01*
X274352Y-143850D01*
X274243Y-143905D01*
X274133Y-144014D01*
X274079Y-144124D01*
X274024Y-144288D01*
X274024Y-144562D01*
X274079Y-144726D01*
X274133Y-144836D01*
X274243Y-144945D01*
X274352Y-145000D01*
X274571Y-145000D01*
X274681Y-144945D01*
X274790Y-144836D01*
X274845Y-144726D01*
X275168Y-143850D02*
X275168Y-145000D01*
X275168Y-143850D02*
X275661Y-143850D01*
X275825Y-143905D01*
X275880Y-143960D01*
X275935Y-144069D01*
X275935Y-144179D01*
X275880Y-144288D01*
X275825Y-144343D01*
X275661Y-144398D01*
X275168Y-144398D02*
X275661Y-144398D01*
X275825Y-144452D01*
X275880Y-144507D01*
X275935Y-144617D01*
X275935Y-144781D01*
X275880Y-144890D01*
X275825Y-144945D01*
X275661Y-145000D01*
X275168Y-145000D01*
X277095Y-143850D02*
X277095Y-145000D01*
X277752Y-145000D01*
X278535Y-144233D02*
X278535Y-145000D01*
X278535Y-144398D02*
X278426Y-144288D01*
X278316Y-144233D01*
X278152Y-144233D01*
X278043Y-144288D01*
X277933Y-144398D01*
X277878Y-144562D01*
X277878Y-144671D01*
X277933Y-144836D01*
X278043Y-144945D01*
X278152Y-145000D01*
X278316Y-145000D01*
X278426Y-144945D01*
X278535Y-144836D01*
X278897Y-144233D02*
X279225Y-145000D01*
X279554Y-144233D02*
X279225Y-145000D01*
X279116Y-145219D01*
X279006Y-145328D01*
X278897Y-145383D01*
X278842Y-145383D01*
X280019Y-144233D02*
X279909Y-144288D01*
X279800Y-144398D01*
X279745Y-144562D01*
X279745Y-144671D01*
X279800Y-144836D01*
X279909Y-144945D01*
X280019Y-145000D01*
X280183Y-145000D01*
X280293Y-144945D01*
X280402Y-144836D01*
X280457Y-144671D01*
X280457Y-144562D01*
X280402Y-144398D01*
X280293Y-144288D01*
X280183Y-144233D01*
X280019Y-144233D01*
X280709Y-144233D02*
X280709Y-144781D01*
X280764Y-144945D01*
X280873Y-145000D01*
X281037Y-145000D01*
X281147Y-144945D01*
X281311Y-144781D01*
X281311Y-144233D02*
X281311Y-145000D01*
X281776Y-143850D02*
X281776Y-144781D01*
X281831Y-144945D01*
X281941Y-145000D01*
X282050Y-145000D01*
X281612Y-144233D02*
X281995Y-144233D01*
X283939Y-144124D02*
X283884Y-144014D01*
X283775Y-143905D01*
X283665Y-143850D01*
X283446Y-143850D01*
X283337Y-143905D01*
X283227Y-144014D01*
X283173Y-144124D01*
X283118Y-144288D01*
X283118Y-144562D01*
X283173Y-144726D01*
X283227Y-144836D01*
X283337Y-144945D01*
X283446Y-145000D01*
X283665Y-145000D01*
X283775Y-144945D01*
X283884Y-144836D01*
X283939Y-144726D01*
X284536Y-144233D02*
X284426Y-144288D01*
X284317Y-144398D01*
X284262Y-144562D01*
X284262Y-144671D01*
X284317Y-144836D01*
X284426Y-144945D01*
X284536Y-145000D01*
X284700Y-145000D01*
X284810Y-144945D01*
X284919Y-144836D01*
X284974Y-144671D01*
X284974Y-144562D01*
X284919Y-144398D01*
X284810Y-144288D01*
X284700Y-144233D01*
X284536Y-144233D01*
X285226Y-144233D02*
X285226Y-145000D01*
X285226Y-144452D02*
X285390Y-144288D01*
X285499Y-144233D01*
X285664Y-144233D01*
X285773Y-144288D01*
X285828Y-144452D01*
X285828Y-145000D01*
X286293Y-143850D02*
X286293Y-144781D01*
X286348Y-144945D01*
X286458Y-145000D01*
X286567Y-145000D01*
X286129Y-144233D02*
X286512Y-144233D01*
X287388Y-144233D02*
X287388Y-145000D01*
X287388Y-144398D02*
X287279Y-144288D01*
X287169Y-144233D01*
X287005Y-144233D01*
X286896Y-144288D01*
X286786Y-144398D01*
X286731Y-144562D01*
X286731Y-144671D01*
X286786Y-144836D01*
X286896Y-144945D01*
X287005Y-145000D01*
X287169Y-145000D01*
X287279Y-144945D01*
X287388Y-144836D01*
X288352Y-144398D02*
X288242Y-144288D01*
X288133Y-144233D01*
X287969Y-144233D01*
X287859Y-144288D01*
X287750Y-144398D01*
X287695Y-144562D01*
X287695Y-144671D01*
X287750Y-144836D01*
X287859Y-144945D01*
X287969Y-145000D01*
X288133Y-145000D01*
X288242Y-144945D01*
X288352Y-144836D01*
X288763Y-143850D02*
X288763Y-144781D01*
X288817Y-144945D01*
X288927Y-145000D01*
X289036Y-145000D01*
X288598Y-144233D02*
X288982Y-144233D01*
X289255Y-144233D02*
X289201Y-144288D01*
X289255Y-144343D01*
X289310Y-144288D01*
X289255Y-144233D01*
X289255Y-144890D02*
X289201Y-144945D01*
X289255Y-145000D01*
X289310Y-144945D01*
X289255Y-144890D01*
X273000Y-150452D02*
X273493Y-150452D01*
X273657Y-150398D01*
X273712Y-150343D01*
X273767Y-150233D01*
X273767Y-150069D01*
X273712Y-149960D01*
X273657Y-149905D01*
X273493Y-149850D01*
X273000Y-149850D01*
X273000Y-151000D01*
X274024Y-150233D02*
X274024Y-151000D01*
X274024Y-150562D02*
X274079Y-150398D01*
X274188Y-150288D01*
X274298Y-150233D01*
X274462Y-150233D01*
X274840Y-150233D02*
X274730Y-150288D01*
X274621Y-150398D01*
X274566Y-150562D01*
X274566Y-150671D01*
X274621Y-150836D01*
X274730Y-150945D01*
X274840Y-151000D01*
X275004Y-151000D01*
X275113Y-150945D01*
X275223Y-150836D01*
X275278Y-150671D01*
X275278Y-150562D01*
X275223Y-150398D01*
X275113Y-150288D01*
X275004Y-150233D01*
X274840Y-150233D01*
X275748Y-149850D02*
X275803Y-149905D01*
X275858Y-149850D01*
X275803Y-149795D01*
X275748Y-149850D01*
X275803Y-150233D02*
X275803Y-151164D01*
X275748Y-151328D01*
X275639Y-151383D01*
X275529Y-151383D01*
X276072Y-150562D02*
X276728Y-150562D01*
X276728Y-150452D01*
X276674Y-150343D01*
X276619Y-150288D01*
X276509Y-150233D01*
X276345Y-150233D01*
X276236Y-150288D01*
X276126Y-150398D01*
X276072Y-150562D01*
X276072Y-150671D01*
X276126Y-150836D01*
X276236Y-150945D01*
X276345Y-151000D01*
X276509Y-151000D01*
X276619Y-150945D01*
X276728Y-150836D01*
X277632Y-150398D02*
X277522Y-150288D01*
X277413Y-150233D01*
X277249Y-150233D01*
X277139Y-150288D01*
X277030Y-150398D01*
X276975Y-150562D01*
X276975Y-150671D01*
X277030Y-150836D01*
X277139Y-150945D01*
X277249Y-151000D01*
X277413Y-151000D01*
X277522Y-150945D01*
X277632Y-150836D01*
X278043Y-149850D02*
X278043Y-150781D01*
X278097Y-150945D01*
X278207Y-151000D01*
X278316Y-151000D01*
X277878Y-150233D02*
X278262Y-150233D01*
X279712Y-149850D02*
X279603Y-149905D01*
X279493Y-150014D01*
X279439Y-150124D01*
X279384Y-150288D01*
X279384Y-150562D01*
X279439Y-150726D01*
X279493Y-150836D01*
X279603Y-150945D01*
X279712Y-151000D01*
X279931Y-151000D01*
X280041Y-150945D01*
X280150Y-150836D01*
X280205Y-150726D01*
X280260Y-150562D01*
X280260Y-150288D01*
X280205Y-150124D01*
X280150Y-150014D01*
X280041Y-149905D01*
X279931Y-149850D01*
X279712Y-149850D01*
X280528Y-150233D02*
X280747Y-151000D01*
X280966Y-150233D02*
X280747Y-151000D01*
X280966Y-150233D02*
X281185Y-151000D01*
X281404Y-150233D02*
X281185Y-151000D01*
X281672Y-150233D02*
X281672Y-151000D01*
X281672Y-150452D02*
X281837Y-150288D01*
X281946Y-150233D01*
X282110Y-150233D01*
X282220Y-150288D01*
X282275Y-150452D01*
X282275Y-151000D01*
X282576Y-150562D02*
X283233Y-150562D01*
X283233Y-150452D01*
X283178Y-150343D01*
X283123Y-150288D01*
X283014Y-150233D01*
X282850Y-150233D01*
X282740Y-150288D01*
X282631Y-150398D01*
X282576Y-150562D01*
X282576Y-150671D01*
X282631Y-150836D01*
X282740Y-150945D01*
X282850Y-151000D01*
X283014Y-151000D01*
X283123Y-150945D01*
X283233Y-150836D01*
X283479Y-150233D02*
X283479Y-151000D01*
X283479Y-150562D02*
X283534Y-150398D01*
X283643Y-150288D01*
X283753Y-150233D01*
X283917Y-150233D01*
X284076Y-150233D02*
X284021Y-150288D01*
X284076Y-150343D01*
X284131Y-150288D01*
X284076Y-150233D01*
X284076Y-150890D02*
X284021Y-150945D01*
X284076Y-151000D01*
X284131Y-150945D01*
X284076Y-150890D01*
X301000Y-149850D02*
X301000Y-151000D01*
X301000Y-149850D02*
X301493Y-149850D01*
X301657Y-149905D01*
X301712Y-149960D01*
X301767Y-150069D01*
X301767Y-150179D01*
X301712Y-150288D01*
X301657Y-150343D01*
X301493Y-150398D01*
X301000Y-150398D02*
X301493Y-150398D01*
X301657Y-150452D01*
X301712Y-150507D01*
X301767Y-150617D01*
X301767Y-150781D01*
X301712Y-150890D01*
X301657Y-150945D01*
X301493Y-151000D01*
X301000Y-151000D01*
X302352Y-149850D02*
X302243Y-149905D01*
X302133Y-150014D01*
X302079Y-150124D01*
X302024Y-150288D01*
X302024Y-150562D01*
X302079Y-150726D01*
X302133Y-150836D01*
X302243Y-150945D01*
X302352Y-151000D01*
X302571Y-151000D01*
X302681Y-150945D01*
X302790Y-150836D01*
X302845Y-150726D01*
X302900Y-150562D01*
X302900Y-150288D01*
X302845Y-150124D01*
X302790Y-150014D01*
X302681Y-149905D01*
X302571Y-149850D01*
X302352Y-149850D01*
X304044Y-151000D02*
X303606Y-149850D01*
X303168Y-151000D01*
X303332Y-150617D02*
X303880Y-150617D01*
X304312Y-149850D02*
X304312Y-151000D01*
X304312Y-149850D02*
X304805Y-149850D01*
X304969Y-149905D01*
X305024Y-149960D01*
X305079Y-150069D01*
X305079Y-150179D01*
X305024Y-150288D01*
X304969Y-150343D01*
X304805Y-150398D01*
X304312Y-150398D01*
X304696Y-150398D02*
X305079Y-151000D01*
X305336Y-149850D02*
X305336Y-151000D01*
X305336Y-149850D02*
X305719Y-149850D01*
X305884Y-149905D01*
X305993Y-150014D01*
X306048Y-150124D01*
X306103Y-150288D01*
X306103Y-150562D01*
X306048Y-150726D01*
X305993Y-150836D01*
X305884Y-150945D01*
X305719Y-151000D01*
X305336Y-151000D01*
X307263Y-149850D02*
X307263Y-151000D01*
X307263Y-149850D02*
X308030Y-151000D01*
X308030Y-149850D02*
X308030Y-151000D01*
X308348Y-149850D02*
X308348Y-150671D01*
X308402Y-150836D01*
X308512Y-150945D01*
X308676Y-151000D01*
X308785Y-151000D01*
X308950Y-150945D01*
X309059Y-150836D01*
X309114Y-150671D01*
X309114Y-149850D01*
X309432Y-149850D02*
X309432Y-151000D01*
X309432Y-149850D02*
X309870Y-151000D01*
X310308Y-149850D02*
X309870Y-151000D01*
X310308Y-149850D02*
X310308Y-151000D01*
X310636Y-149850D02*
X310636Y-151000D01*
X310636Y-149850D02*
X311129Y-149850D01*
X311293Y-149905D01*
X311348Y-149960D01*
X311403Y-150069D01*
X311403Y-150179D01*
X311348Y-150288D01*
X311293Y-150343D01*
X311129Y-150398D01*
X310636Y-150398D02*
X311129Y-150398D01*
X311293Y-150452D01*
X311348Y-150507D01*
X311403Y-150617D01*
X311403Y-150781D01*
X311348Y-150890D01*
X311293Y-150945D01*
X311129Y-151000D01*
X310636Y-151000D01*
X312372Y-149850D02*
X311660Y-149850D01*
X311660Y-151000D01*
X312372Y-151000D01*
X311660Y-150398D02*
X312098Y-150398D01*
X312563Y-149850D02*
X312563Y-151000D01*
X312563Y-149850D02*
X313056Y-149850D01*
X313220Y-149905D01*
X313275Y-149960D01*
X313330Y-150069D01*
X313330Y-150179D01*
X313275Y-150288D01*
X313220Y-150343D01*
X313056Y-150398D01*
X312563Y-150398D01*
X312947Y-150398D02*
X313330Y-151000D01*
X313642Y-150233D02*
X313587Y-150288D01*
X313642Y-150343D01*
X313697Y-150288D01*
X313642Y-150233D01*
X313642Y-150890D02*
X313587Y-150945D01*
X313642Y-151000D01*
X313697Y-150945D01*
X313642Y-150890D01*
X301821Y-144124D02*
X301767Y-144014D01*
X301657Y-143905D01*
X301548Y-143850D01*
X301329Y-143850D01*
X301219Y-143905D01*
X301109Y-144014D01*
X301055Y-144124D01*
X301000Y-144288D01*
X301000Y-144562D01*
X301055Y-144726D01*
X301109Y-144836D01*
X301219Y-144945D01*
X301329Y-145000D01*
X301548Y-145000D01*
X301657Y-144945D01*
X301767Y-144836D01*
X301821Y-144726D01*
X301821Y-144562D01*
X301548Y-144562D02*
X301821Y-144562D01*
X302796Y-143850D02*
X302084Y-143850D01*
X302084Y-145000D01*
X302796Y-145000D01*
X302084Y-144398D02*
X302522Y-144398D01*
X302987Y-143850D02*
X302987Y-145000D01*
X302987Y-143850D02*
X303480Y-143850D01*
X303644Y-143905D01*
X303699Y-143960D01*
X303754Y-144069D01*
X303754Y-144179D01*
X303699Y-144288D01*
X303644Y-144343D01*
X303480Y-144398D01*
X302987Y-144398D01*
X303371Y-144398D02*
X303754Y-145000D01*
X304011Y-143850D02*
X304011Y-145000D01*
X304011Y-143850D02*
X304504Y-143850D01*
X304668Y-143905D01*
X304723Y-143960D01*
X304778Y-144069D01*
X304778Y-144179D01*
X304723Y-144288D01*
X304668Y-144343D01*
X304504Y-144398D01*
X304011Y-144398D02*
X304504Y-144398D01*
X304668Y-144452D01*
X304723Y-144507D01*
X304778Y-144617D01*
X304778Y-144781D01*
X304723Y-144890D01*
X304668Y-144945D01*
X304504Y-145000D01*
X304011Y-145000D01*
X305747Y-143850D02*
X305035Y-143850D01*
X305035Y-145000D01*
X305747Y-145000D01*
X305035Y-144398D02*
X305473Y-144398D01*
X305938Y-143850D02*
X305938Y-145000D01*
X305938Y-143850D02*
X306431Y-143850D01*
X306595Y-143905D01*
X306650Y-143960D01*
X306705Y-144069D01*
X306705Y-144179D01*
X306650Y-144288D01*
X306595Y-144343D01*
X306431Y-144398D01*
X305938Y-144398D01*
X306322Y-144398D02*
X306705Y-145000D01*
X307866Y-143850D02*
X307866Y-145000D01*
X307866Y-143850D02*
X308577Y-143850D01*
X307866Y-144398D02*
X308304Y-144398D01*
X308709Y-143850D02*
X308709Y-145000D01*
X308950Y-143850D02*
X308950Y-145000D01*
X309607Y-145000D01*
X310444Y-143850D02*
X309733Y-143850D01*
X309733Y-145000D01*
X310444Y-145000D01*
X309733Y-144398D02*
X310171Y-144398D01*
X310691Y-144233D02*
X310636Y-144288D01*
X310691Y-144343D01*
X310746Y-144288D01*
X310691Y-144233D01*
X310691Y-144890D02*
X310636Y-144945D01*
X310691Y-145000D01*
X310746Y-144945D01*
X310691Y-144890D01*
X340700Y-152500D02*
X339986Y-154000D01*
X339700Y-152500D02*
X340700Y-152500D01*
X341035Y-154214D02*
X342035Y-152500D01*
X342849Y-152500D02*
X342135Y-153500D01*
X343206Y-153500D01*
X342849Y-152500D02*
X342849Y-154000D01*
X343471Y-154214D02*
X344470Y-152500D01*
X344642Y-152857D02*
X344642Y-152786D01*
X344713Y-152643D01*
X344785Y-152572D01*
X344927Y-152500D01*
X345213Y-152500D01*
X345356Y-152572D01*
X345427Y-152643D01*
X345499Y-152786D01*
X345499Y-152929D01*
X345427Y-153072D01*
X345285Y-153286D01*
X344570Y-154000D01*
X345570Y-154000D01*
X346334Y-152500D02*
X346120Y-152572D01*
X345977Y-152786D01*
X345906Y-153143D01*
X345906Y-153357D01*
X345977Y-153714D01*
X346120Y-153929D01*
X346334Y-154000D01*
X346477Y-154000D01*
X346691Y-153929D01*
X346834Y-153714D01*
X346906Y-153357D01*
X346906Y-153143D01*
X346834Y-152786D01*
X346691Y-152572D01*
X346477Y-152500D01*
X346334Y-152500D01*
X347313Y-152857D02*
X347313Y-152786D01*
X347384Y-152643D01*
X347455Y-152572D01*
X347598Y-152500D01*
X347884Y-152500D01*
X348027Y-152572D01*
X348098Y-152643D01*
X348170Y-152786D01*
X348170Y-152929D01*
X348098Y-153072D01*
X347955Y-153286D01*
X347241Y-154000D01*
X348241Y-154000D01*
X348648Y-152857D02*
X348648Y-152786D01*
X348720Y-152643D01*
X348791Y-152572D01*
X348934Y-152500D01*
X349219Y-152500D01*
X349362Y-152572D01*
X349434Y-152643D01*
X349505Y-152786D01*
X349505Y-152929D01*
X349434Y-153072D01*
X349291Y-153286D01*
X348577Y-154000D01*
X349576Y-154000D01*
X325000Y-135524D02*
X325428Y-135524D01*
X325571Y-135476D01*
X325619Y-135429D01*
X325667Y-135333D01*
X325667Y-135191D01*
X325619Y-135095D01*
X325571Y-135048D01*
X325428Y-135000D01*
X325000Y-135000D01*
X325000Y-136000D01*
X326652Y-136000D02*
X326271Y-135000D01*
X325890Y-136000D01*
X326033Y-135667D02*
X326509Y-135667D01*
X326885Y-135000D02*
X326885Y-136000D01*
X326885Y-135000D02*
X327314Y-135000D01*
X327457Y-135048D01*
X327504Y-135095D01*
X327552Y-135191D01*
X327552Y-135286D01*
X327504Y-135381D01*
X327457Y-135429D01*
X327314Y-135476D01*
X326885Y-135476D01*
X327219Y-135476D02*
X327552Y-136000D01*
X328109Y-135000D02*
X328109Y-136000D01*
X327776Y-135000D02*
X328442Y-135000D01*
X329347Y-135000D02*
X329347Y-136000D01*
X329347Y-135000D02*
X330013Y-136000D01*
X330013Y-135000D02*
X330013Y-136000D01*
X330289Y-135000D02*
X330289Y-135714D01*
X330337Y-135857D01*
X330432Y-135952D01*
X330575Y-136000D01*
X330670Y-136000D01*
X330813Y-135952D01*
X330908Y-135857D01*
X330956Y-135714D01*
X330956Y-135000D01*
X331232Y-135000D02*
X331232Y-136000D01*
X331232Y-135000D02*
X331613Y-136000D01*
X331994Y-135000D02*
X331613Y-136000D01*
X331994Y-135000D02*
X331994Y-136000D01*
X332279Y-135000D02*
X332279Y-136000D01*
X332279Y-135000D02*
X332708Y-135000D01*
X332851Y-135048D01*
X332898Y-135095D01*
X332946Y-135191D01*
X332946Y-135286D01*
X332898Y-135381D01*
X332851Y-135429D01*
X332708Y-135476D01*
X332279Y-135476D02*
X332708Y-135476D01*
X332851Y-135524D01*
X332898Y-135571D01*
X332946Y-135667D01*
X332946Y-135810D01*
X332898Y-135905D01*
X332851Y-135952D01*
X332708Y-136000D01*
X332279Y-136000D01*
X333789Y-135000D02*
X333170Y-135000D01*
X333170Y-136000D01*
X333789Y-136000D01*
X333170Y-135476D02*
X333551Y-135476D01*
X333955Y-135000D02*
X333955Y-136000D01*
X333955Y-135000D02*
X334384Y-135000D01*
X334527Y-135048D01*
X334574Y-135095D01*
X334622Y-135191D01*
X334622Y-135286D01*
X334574Y-135381D01*
X334527Y-135429D01*
X334384Y-135476D01*
X333955Y-135476D01*
X334289Y-135476D02*
X334622Y-136000D01*
X334893Y-135333D02*
X334846Y-135381D01*
X334893Y-135429D01*
X334941Y-135381D01*
X334893Y-135333D01*
X334893Y-135905D02*
X334846Y-135952D01*
X334893Y-136000D01*
X334941Y-135952D01*
X334893Y-135905D01*
D19*
X273119Y-138239D02*
X273000Y-138120D01*
X273119Y-138001D01*
X273238Y-138120D01*
X273238Y-138358D01*
X273119Y-138596D01*
X273000Y-138715D01*
X273905Y-140262D02*
X273786Y-140381D01*
X273905Y-140500D01*
X274024Y-140381D01*
X273905Y-140262D01*
X274571Y-139310D02*
X275642Y-139310D01*
X275999Y-139191D01*
X276118Y-139072D01*
X276237Y-138834D01*
X276237Y-138477D01*
X276118Y-138239D01*
X275999Y-138120D01*
X275642Y-138001D01*
X274571Y-138001D01*
X274571Y-140500D01*
X276797Y-138834D02*
X276797Y-140500D01*
X276797Y-139548D02*
X276916Y-139191D01*
X277154Y-138953D01*
X277392Y-138834D01*
X277749Y-138834D01*
X278570Y-138834D02*
X278332Y-138953D01*
X278094Y-139191D01*
X277975Y-139548D01*
X277975Y-139786D01*
X278094Y-140143D01*
X278332Y-140381D01*
X278570Y-140500D01*
X278927Y-140500D01*
X279165Y-140381D01*
X279403Y-140143D01*
X279522Y-139786D01*
X279522Y-139548D01*
X279403Y-139191D01*
X279165Y-138953D01*
X278927Y-138834D01*
X278570Y-138834D01*
X280546Y-138001D02*
X280665Y-138120D01*
X280784Y-138001D01*
X280665Y-137882D01*
X280546Y-138001D01*
X280665Y-138834D02*
X280665Y-140857D01*
X280546Y-141214D01*
X280308Y-141333D01*
X280070Y-141333D01*
X281248Y-139548D02*
X282677Y-139548D01*
X282677Y-139310D01*
X282557Y-139072D01*
X282438Y-138953D01*
X282200Y-138834D01*
X281843Y-138834D01*
X281605Y-138953D01*
X281367Y-139191D01*
X281248Y-139548D01*
X281248Y-139786D01*
X281367Y-140143D01*
X281605Y-140381D01*
X281843Y-140500D01*
X282200Y-140500D01*
X282438Y-140381D01*
X282677Y-140143D01*
X284640Y-139191D02*
X284402Y-138953D01*
X284164Y-138834D01*
X283807Y-138834D01*
X283569Y-138953D01*
X283331Y-139191D01*
X283212Y-139548D01*
X283212Y-139786D01*
X283331Y-140143D01*
X283569Y-140381D01*
X283807Y-140500D01*
X284164Y-140500D01*
X284402Y-140381D01*
X284640Y-140143D01*
X285533Y-138001D02*
X285533Y-140024D01*
X285652Y-140381D01*
X285890Y-140500D01*
X286128Y-140500D01*
X285176Y-138834D02*
X286009Y-138834D01*
X287318Y-138001D02*
X287318Y-140500D01*
X286485Y-138001D02*
X288152Y-138001D01*
X288687Y-138001D02*
X288806Y-138120D01*
X288925Y-138001D01*
X288806Y-137882D01*
X288687Y-138001D01*
X288806Y-138834D02*
X288806Y-140500D01*
X289723Y-138001D02*
X289723Y-140024D01*
X289842Y-140381D01*
X290080Y-140500D01*
X290318Y-140500D01*
X289366Y-138834D02*
X290199Y-138834D01*
X290675Y-138001D02*
X290675Y-140500D01*
X291198Y-139548D02*
X292627Y-139548D01*
X292627Y-139310D01*
X292508Y-139072D01*
X292389Y-138953D01*
X292151Y-138834D01*
X291794Y-138834D01*
X291556Y-138953D01*
X291318Y-139191D01*
X291198Y-139548D01*
X291198Y-139786D01*
X291318Y-140143D01*
X291556Y-140381D01*
X291794Y-140500D01*
X292151Y-140500D01*
X292389Y-140381D01*
X292627Y-140143D01*
X293281Y-138239D02*
X293162Y-138120D01*
X293281Y-138001D01*
X293400Y-138120D01*
X293400Y-138358D01*
X293281Y-138596D01*
X293162Y-138715D01*
D22*
X16145Y56561D02*
X17575Y57991D01*
X13865Y55170D02*
X15256Y56561D01*
X16145Y56561D01*
X5213Y55170D02*
X13865Y55170D01*
X3868Y43765D02*
X3868Y48256D01*
X3768Y48356D02*
X3868Y48256D01*
X7044Y42146D02*
X7676Y41514D01*
X5613Y43604D02*
X7044Y42173D01*
X5572Y43604D02*
X5613Y43604D01*
X5472Y43704D02*
X5572Y43604D01*
X7044Y42146D02*
X7044Y42173D01*
X7676Y39909D02*
X7676Y41514D01*
X5418Y43704D02*
X5472Y43704D01*
X9636Y17912D02*
X12081Y17912D01*
X7600Y19947D02*
X9636Y17912D01*
X12788Y17205D02*
X18900Y17205D01*
X12081Y17912D02*
X12788Y17205D01*
X7600Y19947D02*
X7600Y20611D01*
X4293Y54250D02*
X5213Y55170D01*
X4293Y53318D02*
X4293Y54250D01*
X3768Y52793D02*
X4293Y53318D01*
X3768Y48356D02*
X3768Y52793D01*
X9610Y39604D02*
X9610Y51186D01*
X7921Y52875D02*
X9610Y51186D01*
X53245Y8679D02*
X54179Y7745D01*
X53245Y8679D02*
X53245Y17179D01*
D83*
X20050Y20040D02*
D03*
D84*
X11750Y29040D02*
D03*
D93*
X48458Y35286D02*
X48852Y35680D01*
X48852Y36072D02*
X50277Y37497D01*
X48458Y35261D02*
X48458Y35286D01*
X48852Y35680D02*
X48852Y36072D01*
X50277Y37497D02*
X50277Y37558D01*
X49177Y33778D02*
X51670Y36271D01*
X49177Y24676D02*
X49177Y33778D01*
X51670Y36271D02*
X51670Y37687D01*
X48259Y35062D02*
X48458Y35261D01*
X48259Y34893D02*
X48259Y35062D01*
X49177Y24676D02*
X52902Y20951D01*
X56685Y20951D01*
X47972Y24113D02*
X52516Y19569D01*
X56552Y19569D01*
X47972Y24113D02*
X47972Y34605D01*
X46358Y12492D02*
X46358Y14209D01*
X51182Y19034D02*
X51808Y19034D01*
X46358Y14209D02*
X51182Y19034D01*
X51670Y37687D02*
X51733Y37750D01*
X50041Y53011D02*
X50041Y59498D01*
X50041Y53011D02*
X54787Y48265D01*
X54787Y47169D02*
X54787Y48265D01*
X44451Y35635D02*
X44451Y40031D01*
X44451Y40938D02*
X44451Y42259D01*
X44451Y40031D02*
X44491Y40071D01*
X44451Y40938D02*
X44491Y40898D01*
X44451Y42259D02*
X46017Y43825D01*
X44491Y40071D02*
X44491Y40898D01*
X40650Y9920D02*
X40650Y12835D01*
X37714Y15771D02*
X40650Y12835D01*
X37714Y15771D02*
X37714Y23665D01*
X37870Y32587D02*
X37870Y58215D01*
X37870Y32587D02*
X41967Y28491D01*
X35393Y58391D02*
X37694Y58391D01*
X37870Y58215D01*
X41967Y28267D02*
X41967Y28491D01*
X41975Y27604D02*
X41975Y28258D01*
X41967Y28267D02*
X41975Y28258D01*
X41975Y27604D02*
X43731Y25848D01*
X44712Y9872D02*
X48158Y9872D01*
X38785Y15799D02*
X38785Y26464D01*
X38785Y15799D02*
X44712Y9872D01*
X61958Y2096D02*
X62793Y1262D01*
X59372Y2096D02*
X61958Y2096D01*
X57847Y3622D02*
X59372Y2096D01*
X58559Y31314D02*
X65174Y37929D01*
X56033Y31314D02*
X58559Y31314D01*
X54269Y29550D02*
X56033Y31314D01*
X22807Y13380D02*
X23063Y13380D01*
X22100Y14087D02*
X22100Y42664D01*
X23063Y13380D02*
X23140Y13303D01*
X22100Y14087D02*
X22807Y13380D01*
X22100Y42664D02*
X25364Y45928D01*
X52252Y57847D02*
X57747Y57847D01*
X61300Y54295D01*
X35979Y40326D02*
X36002Y40302D01*
X36002Y31454D02*
X39520Y27936D01*
X35902Y40678D02*
X35979Y40601D01*
X35979Y40326D02*
X35979Y40601D01*
X36002Y31454D02*
X36002Y40302D01*
X34470Y30779D02*
X34470Y39206D01*
X34470Y30779D02*
X38785Y26464D01*
X32523Y41153D02*
X34470Y39206D01*
X37797Y61274D02*
X39922Y59149D01*
X32200Y62816D02*
X33742Y61274D01*
X37797Y61274D01*
X39922Y40919D02*
X39922Y59149D01*
X43731Y25848D02*
X43820Y25848D01*
X39520Y24838D02*
X39520Y27936D01*
X39539Y16316D02*
X45483Y10372D01*
X39539Y16316D02*
X39539Y24818D01*
X39520Y24838D02*
X39539Y24818D01*
X28088Y41153D02*
X32523Y41153D01*
X39610Y40607D02*
X39922Y40919D01*
X39610Y38415D02*
X40467Y37558D01*
X39610Y38415D02*
X39610Y40607D01*
X40467Y37558D02*
X42529Y37558D01*
X48529Y60441D02*
X50908Y62819D01*
X48529Y51218D02*
X48529Y60441D01*
X48529Y51218D02*
X49684Y50063D01*
X49684Y38660D02*
X49684Y50063D01*
X45299Y34275D02*
X49684Y38660D01*
X50041Y59498D02*
X53532Y62989D01*
X46017Y43825D02*
X47027Y43825D01*
X53224Y29577D02*
X53224Y29670D01*
X63656Y40102D02*
X63656Y62868D01*
X53224Y29670D02*
X63656Y40102D01*
X65174Y37929D02*
X65174Y61287D01*
X65350Y61462D02*
X71403Y61462D01*
X65174Y61287D02*
X65350Y61462D01*
X54767Y17221D02*
X54767Y17329D01*
X54965Y16996D02*
X54965Y17022D01*
X60396Y8028D02*
X60396Y11564D01*
X54767Y17221D02*
X54965Y17022D01*
X54965Y16996D02*
X60396Y11564D01*
X47972Y34605D02*
X48259Y34893D01*
X56552Y19569D02*
X63501Y12621D01*
X63501Y8879D02*
X63501Y12621D01*
X42608Y19960D02*
X44637Y21988D01*
X43820Y25848D02*
X44637Y25032D01*
X44637Y21988D02*
X44637Y25032D01*
X4670Y44560D02*
X4845Y44385D01*
X5109Y44385D01*
X4670Y44560D02*
X4670Y49843D01*
X5109Y44385D02*
X5128Y44404D01*
X6712Y43400D02*
X7224Y43400D01*
X5708Y44404D02*
X6712Y43400D01*
X5128Y44404D02*
X5708Y44404D01*
X7224Y43400D02*
X7244Y43380D01*
X25364Y45928D02*
X34302Y45928D01*
X34477Y45754D02*
X34585Y45754D01*
X34302Y45928D02*
X34477Y45754D01*
X48415Y10322D02*
X48470Y10322D01*
X45483Y10372D02*
X48365Y10372D01*
X48415Y10322D01*
X71578Y61638D02*
X71578Y62672D01*
X71329Y62922D02*
X71578Y62672D01*
X71403Y61462D02*
X71578Y61638D01*
X48158Y9872D02*
X54960Y3070D01*
X57479Y3070D02*
X59188Y1362D01*
X54960Y3070D02*
X57479Y3070D01*
X55170Y3622D02*
X57847Y3622D01*
X48470Y10322D02*
X55170Y3622D01*
X27992Y22900D02*
X27992Y27198D01*
X23232Y31338D02*
X23852Y31338D01*
X23191Y31378D02*
X23232Y31338D01*
X23852Y31338D02*
X27992Y27198D01*
X21487Y24599D02*
X21500Y24585D01*
X21487Y24599D02*
X21487Y43569D01*
X22626Y44708D01*
X21500Y13300D02*
X21500Y24585D01*
X63656Y62868D02*
X63709Y62922D01*
X27992Y22900D02*
X28876Y22016D01*
D99*
X77600Y-19871D02*
D03*
D100*
X93600Y-11541D02*
D03*
X77600Y43659D02*
D03*
D101*
X58612Y62989D02*
D03*
X56072Y62989D02*
D03*
X48452Y62989D02*
D03*
X45912Y62989D02*
D03*
X43372Y62989D02*
D03*
X50992Y62989D02*
D03*
X53532Y62989D02*
D03*
X58734Y40485D02*
D03*
X56194Y40485D02*
D03*
X48574Y40485D02*
D03*
X46034Y40485D02*
D03*
X43494Y40485D02*
D03*
X51114Y40485D02*
D03*
X53654Y40485D02*
D03*
D102*
X40832Y62989D02*
D03*
X40954Y40485D02*
D03*
D103*
X32200Y62816D02*
D03*
X32200Y58374D02*
D03*
X28300Y58319D02*
D03*
X35943Y58346D02*
D03*
X35302Y62816D02*
D03*
D104*
X17100Y61425D02*
D03*
X12100Y61425D02*
D03*
D105*
X66249Y62922D02*
D03*
X63709Y62922D02*
D03*
X68789Y62922D02*
D03*
D106*
X71329Y62922D02*
D03*
D107*
X66350Y-3750D02*
D03*
X40714Y8150D02*
D03*
X40714Y4576D02*
D03*
X40714Y1075D02*
D03*
X40714Y-2078D02*
D03*
X40714Y-4778D02*
D03*
X24000Y26744D02*
D03*
X23740Y22538D02*
D03*
X28525Y29751D02*
D03*
X50348Y36044D02*
D03*
X51026Y19903D02*
D03*
X51582Y49816D02*
D03*
X57345Y42640D02*
D03*
X62453Y-9725D02*
D03*
X58900Y-9725D02*
D03*
X55847Y-9725D02*
D03*
X78800Y-30600D02*
D03*
X74475Y-28325D02*
D03*
X81675Y-30525D02*
D03*
X81500Y-23625D02*
D03*
X81625Y-25825D02*
D03*
X81675Y-28125D02*
D03*
X70545Y21194D02*
D03*
X47564Y21622D02*
D03*
X70975Y55725D02*
D03*
X70449Y58579D02*
D03*
X70449Y60272D02*
D03*
X52350Y59474D02*
D03*
X18565Y58391D02*
D03*
X13613Y59989D02*
D03*
X12664Y44523D02*
D03*
X16834Y45277D02*
D03*
X8774Y29086D02*
D03*
X17977Y603D02*
D03*
X18120Y3912D02*
D03*
X18120Y6325D02*
D03*
X18120Y8215D02*
D03*
X50075Y-9246D02*
D03*
X43920Y-9246D02*
D03*
X61846Y-1800D02*
D03*
X61863Y-79D02*
D03*
X50549Y34022D02*
D03*
X57145Y35310D02*
D03*
X55605Y33754D02*
D03*
X55560Y35310D02*
D03*
X54580Y37079D02*
D03*
X69975Y13400D02*
D03*
X67805Y13429D02*
D03*
X65425Y13400D02*
D03*
X55560Y8107D02*
D03*
X55555Y10282D02*
D03*
X57446Y10282D02*
D03*
X70449Y57000D02*
D03*
X15825Y57845D02*
D03*
X17575Y57991D02*
D03*
X4488Y42491D02*
D03*
X20025Y45470D02*
D03*
X51589Y1257D02*
D03*
X51689Y-3437D02*
D03*
X55398Y6210D02*
D03*
X72125Y13320D02*
D03*
X38937Y58318D02*
D03*
X44840Y44619D02*
D03*
X44800Y46364D02*
D03*
X41449Y38411D02*
D03*
X52899Y38660D02*
D03*
X54850Y42295D02*
D03*
X48165Y43022D02*
D03*
X47326Y41587D02*
D03*
X45705Y-4057D02*
D03*
X45654Y-3000D02*
D03*
X45679Y-2088D02*
D03*
X20025Y30019D02*
D03*
X30629Y28632D02*
D03*
X32486Y23147D02*
D03*
X34557Y17800D02*
D03*
X31300Y43825D02*
D03*
X28445Y44527D02*
D03*
X28850Y42528D02*
D03*
X19265Y39648D02*
D03*
X16546Y39607D02*
D03*
X19265Y41798D02*
D03*
X16517Y41729D02*
D03*
X1378Y42497D02*
D03*
X1429Y45507D02*
D03*
X1403Y47299D02*
D03*
X1403Y48945D02*
D03*
X1403Y50510D02*
D03*
X1403Y52170D02*
D03*
X6929Y48920D02*
D03*
X3197Y42478D02*
D03*
X49322Y56845D02*
D03*
X54213Y56737D02*
D03*
X60178Y50726D02*
D03*
X58909Y50726D02*
D03*
X58539Y25565D02*
D03*
X56200Y21969D02*
D03*
X55632Y23152D02*
D03*
X53506Y25543D02*
D03*
X52433Y25557D02*
D03*
X53713Y27517D02*
D03*
X52458Y27504D02*
D03*
X54600Y27499D02*
D03*
X46143Y24219D02*
D03*
X10039Y53961D02*
D03*
X5891Y48925D02*
D03*
X48152Y35970D02*
D03*
X41622Y11201D02*
D03*
X41376Y12175D02*
D03*
X40425Y22611D02*
D03*
X43600Y24051D02*
D03*
X42585Y24017D02*
D03*
X42409Y22787D02*
D03*
X40765Y25878D02*
D03*
X40739Y26744D02*
D03*
X53009Y3716D02*
D03*
X51440Y3716D02*
D03*
X49595Y3739D02*
D03*
X47618Y3716D02*
D03*
X57361Y19943D02*
D03*
X64373Y59082D02*
D03*
X64398Y41753D02*
D03*
X64435Y54289D02*
D03*
X64410Y48101D02*
D03*
X63526Y38122D02*
D03*
X56797Y32190D02*
D03*
X52292Y16587D02*
D03*
X26346Y19222D02*
D03*
X7844Y42478D02*
D03*
X36309Y27054D02*
D03*
X36284Y25040D02*
D03*
X52939Y7285D02*
D03*
X35250Y34670D02*
D03*
X39109Y44532D02*
D03*
X38778Y27542D02*
D03*
X7892Y53013D02*
D03*
X4568Y52100D02*
D03*
X4669Y49844D02*
D03*
X52208Y42772D02*
D03*
X53482Y42314D02*
D03*
X53263Y47142D02*
D03*
X52234Y47139D02*
D03*
X39138Y37647D02*
D03*
X61909Y27522D02*
D03*
X48434Y44728D02*
D03*
X49276Y52393D02*
D03*
X47734Y61089D02*
D03*
X44532Y61003D02*
D03*
X61984Y36732D02*
D03*
X61909Y39859D02*
D03*
X31572Y17803D02*
D03*
X32445Y24602D02*
D03*
X36511Y20317D02*
D03*
X34557Y20294D02*
D03*
X36284Y22484D02*
D03*
X56334Y37822D02*
D03*
X61845Y42478D02*
D03*
X45182Y18182D02*
D03*
X43361Y18182D02*
D03*
X41323Y18185D02*
D03*
X51112Y12824D02*
D03*
X61119Y13006D02*
D03*
X54551Y16054D02*
D03*
X57480Y12559D02*
D03*
X54548Y12571D02*
D03*
X47583Y8216D02*
D03*
X40714Y27861D02*
D03*
X36175Y30160D02*
D03*
X38930Y47920D02*
D03*
X38921Y55873D02*
D03*
X38920Y52201D02*
D03*
X25233Y14278D02*
D03*
X69099Y2693D02*
D03*
X69074Y3748D02*
D03*
X69099Y5646D02*
D03*
X69099Y6839D02*
D03*
X23786Y21108D02*
D03*
X43361Y27406D02*
D03*
X43361Y28922D02*
D03*
X43361Y31028D02*
D03*
X43371Y32515D02*
D03*
X45534Y32479D02*
D03*
X45550Y31028D02*
D03*
X45573Y28728D02*
D03*
X45557Y27433D02*
D03*
X47180Y11942D02*
D03*
X67036Y-9725D02*
D03*
X71625Y-9725D02*
D03*
X76665Y-9725D02*
D03*
X80826Y-9725D02*
D03*
X67036Y-13821D02*
D03*
X71728Y-13821D02*
D03*
X76665Y-13821D02*
D03*
X80826Y-13821D02*
D03*
X67436Y56028D02*
D03*
X61225Y59845D02*
D03*
X55926Y59845D02*
D03*
X50062Y60770D02*
D03*
X49275Y54814D02*
D03*
X45791Y38535D02*
D03*
X46953Y38535D02*
D03*
X60520Y35185D02*
D03*
X59024Y33537D02*
D03*
X58050Y32764D02*
D03*
X64419Y50401D02*
D03*
X57638Y48099D02*
D03*
X54238Y55114D02*
D03*
X52559Y55120D02*
D03*
X54278Y52410D02*
D03*
X52564Y52410D02*
D03*
X67445Y58579D02*
D03*
X57578Y16689D02*
D03*
X66981Y30270D02*
D03*
X62640Y24301D02*
D03*
X64451Y24283D02*
D03*
X56387Y18270D02*
D03*
X60359Y18028D02*
D03*
X60500Y20638D02*
D03*
X63201Y21200D02*
D03*
X70575Y18915D02*
D03*
X68284Y18940D02*
D03*
X70575Y15950D02*
D03*
X68325Y15966D02*
D03*
X74120Y-7327D02*
D03*
X74120Y-6025D02*
D03*
X74120Y-4627D02*
D03*
X72520Y-7377D02*
D03*
X72520Y-6075D02*
D03*
X72520Y-4677D02*
D03*
X71003Y6610D02*
D03*
X71050Y2707D02*
D03*
X71964Y2725D02*
D03*
X71844Y6610D02*
D03*
X70749Y-3500D02*
D03*
X70749Y-4675D02*
D03*
X70749Y-6073D02*
D03*
X70749Y-7375D02*
D03*
X70724Y1356D02*
D03*
X70724Y181D02*
D03*
X70724Y-1217D02*
D03*
X70736Y-2415D02*
D03*
X69099Y-3575D02*
D03*
X69099Y-4750D02*
D03*
X69099Y-6148D02*
D03*
X69099Y-7450D02*
D03*
X67592Y-3575D02*
D03*
X67592Y-4750D02*
D03*
X67592Y-6148D02*
D03*
X67592Y-7450D02*
D03*
X69074Y1291D02*
D03*
X69074Y116D02*
D03*
X69074Y-1281D02*
D03*
X69074Y-2452D02*
D03*
X67574Y1308D02*
D03*
X67574Y133D02*
D03*
X67574Y-1265D02*
D03*
X67574Y-2452D02*
D03*
X67592Y6807D02*
D03*
X67592Y5646D02*
D03*
X67574Y3785D02*
D03*
X67599Y2700D02*
D03*
X75574Y-475D02*
D03*
X75574Y827D02*
D03*
X1378Y53661D02*
D03*
X3324Y53661D02*
D03*
X5397Y53661D02*
D03*
X7324Y55970D02*
D03*
X9270Y55970D02*
D03*
X11343Y55970D02*
D03*
X1378Y55970D02*
D03*
X3324Y55970D02*
D03*
X5397Y55970D02*
D03*
X67055Y33315D02*
D03*
X73961Y45842D02*
D03*
X70700Y45842D02*
D03*
X67024Y45804D02*
D03*
X73961Y49025D02*
D03*
X70700Y48970D02*
D03*
X67027Y48970D02*
D03*
X70700Y52135D02*
D03*
X67027Y52075D02*
D03*
X73961Y52075D02*
D03*
X67024Y36690D02*
D03*
X73961Y36728D02*
D03*
X67027Y39856D02*
D03*
X70700Y39856D02*
D03*
X70700Y43020D02*
D03*
X73961Y39910D02*
D03*
X70700Y36728D02*
D03*
X67027Y42960D02*
D03*
X73961Y42960D02*
D03*
X70742Y33315D02*
D03*
X74003Y33369D02*
D03*
X70742Y30187D02*
D03*
X74003Y30187D02*
D03*
X44814Y54459D02*
D03*
X44814Y56358D02*
D03*
X44740Y58975D02*
D03*
X44838Y48323D02*
D03*
X44838Y50221D02*
D03*
X44838Y52224D02*
D03*
X41838Y46507D02*
D03*
X41838Y44505D02*
D03*
X41838Y42606D02*
D03*
X41828Y52224D02*
D03*
X41828Y50221D02*
D03*
X41828Y48323D02*
D03*
X41805Y58360D02*
D03*
X41805Y56358D02*
D03*
X41805Y54459D02*
D03*
X33410Y30779D02*
D03*
X33420Y32884D02*
D03*
X33460Y34772D02*
D03*
X33460Y36375D02*
D03*
X63501Y19020D02*
D03*
X65875Y18915D02*
D03*
X63501Y15977D02*
D03*
X65875Y15982D02*
D03*
X73990Y21194D02*
D03*
X68284Y21243D02*
D03*
X65875Y21243D02*
D03*
X73990Y24376D02*
D03*
X70729Y24322D02*
D03*
X67055Y24322D02*
D03*
X73990Y27426D02*
D03*
X70729Y27486D02*
D03*
X67055Y27426D02*
D03*
X62867Y32346D02*
D03*
X61073Y32300D02*
D03*
X57479Y-3437D02*
D03*
X57479Y-2202D02*
D03*
X57479Y-603D02*
D03*
X57479Y614D02*
D03*
X57479Y2021D02*
D03*
X56000Y-3502D02*
D03*
X56000Y-2202D02*
D03*
X56000Y-635D02*
D03*
X56021Y635D02*
D03*
X56021Y2034D02*
D03*
X65420Y5432D02*
D03*
X69970Y11306D02*
D03*
X67800Y11306D02*
D03*
X65420Y11306D02*
D03*
X65420Y8397D02*
D03*
X67800Y8426D02*
D03*
X70332Y-24466D02*
D03*
X65375Y-24466D02*
D03*
X70332Y-28325D02*
D03*
X65375Y-28325D02*
D03*
X60500Y-28325D02*
D03*
X58679Y-21900D02*
D03*
X54518Y-21900D02*
D03*
X49582Y-21900D02*
D03*
X44906Y-22100D02*
D03*
X60500Y-24526D02*
D03*
X58679Y-18041D02*
D03*
X54518Y-18101D02*
D03*
X49526Y-18101D02*
D03*
X44875Y-18191D02*
D03*
X75574Y2225D02*
D03*
X75574Y3400D02*
D03*
X60152Y52198D02*
D03*
X29100Y61956D02*
D03*
X26879Y61956D02*
D03*
X24537Y61956D02*
D03*
X22435Y61956D02*
D03*
X20283Y61956D02*
D03*
X29100Y64125D02*
D03*
X26879Y64086D02*
D03*
X24537Y64086D02*
D03*
X22435Y64086D02*
D03*
X20283Y64086D02*
D03*
X33470Y37987D02*
D03*
X51314Y29173D02*
D03*
X50159Y29210D02*
D03*
X51314Y27509D02*
D03*
X50142Y27509D02*
D03*
X51314Y25561D02*
D03*
X50142Y25561D02*
D03*
X35017Y50299D02*
D03*
X32750Y50299D02*
D03*
X30423Y50323D02*
D03*
X28451Y50323D02*
D03*
X35017Y52198D02*
D03*
X32750Y52227D02*
D03*
X30423Y52233D02*
D03*
X28451Y52233D02*
D03*
X35017Y54200D02*
D03*
X32750Y54200D02*
D03*
X30423Y54200D02*
D03*
X28451Y54200D02*
D03*
X12473Y48856D02*
D03*
X12473Y50034D02*
D03*
X17748Y55668D02*
D03*
X16050Y55668D02*
D03*
X23060Y49805D02*
D03*
X23232Y51524D02*
D03*
X19700Y52925D02*
D03*
X24376Y32300D02*
D03*
X26478Y30891D02*
D03*
X3868Y43765D02*
D03*
X16832Y58734D02*
D03*
X7676Y39909D02*
D03*
X5418Y43704D02*
D03*
X58884Y52198D02*
D03*
X60152Y54293D02*
D03*
X58928Y54293D02*
D03*
X25289Y48256D02*
D03*
X26279Y48256D02*
D03*
X52252Y57847D02*
D03*
X61300Y54295D02*
D03*
X54661Y44057D02*
D03*
X54787Y47169D02*
D03*
X60396Y8028D02*
D03*
X54767Y17329D02*
D03*
X9610Y39604D02*
D03*
X53075Y-9725D02*
D03*
X39726Y-11517D02*
D03*
X29215Y-14271D02*
D03*
X29215Y-11261D02*
D03*
X26785Y-17739D02*
D03*
X28785Y-22860D02*
D03*
X28785Y-20468D02*
D03*
X42400Y-32175D02*
D03*
X42400Y-30200D02*
D03*
X42400Y-28525D02*
D03*
X42400Y-26800D02*
D03*
X42400Y-24725D02*
D03*
X29875Y32847D02*
D03*
X29875Y35635D02*
D03*
X18987Y32847D02*
D03*
X73819Y-15548D02*
D03*
X37492Y-4764D02*
D03*
X35019Y-4769D02*
D03*
X32141Y-4769D02*
D03*
X29329Y-4769D02*
D03*
X26603Y-4769D02*
D03*
X24033Y-4769D02*
D03*
X37492Y-2063D02*
D03*
X37492Y1089D02*
D03*
X37492Y4590D02*
D03*
X37492Y8164D02*
D03*
X37482Y11078D02*
D03*
X35028Y-2063D02*
D03*
X35037Y1059D02*
D03*
X35028Y4672D02*
D03*
X35019Y8164D02*
D03*
X35009Y11078D02*
D03*
X82375Y64425D02*
D03*
X78211Y64425D02*
D03*
X80350Y64425D02*
D03*
X90400Y64425D02*
D03*
X88350Y64425D02*
D03*
X86425Y64425D02*
D03*
X84400Y64425D02*
D03*
X92762Y62982D02*
D03*
X90400Y62884D02*
D03*
X78211Y62989D02*
D03*
X80321Y62954D02*
D03*
X28088Y41153D02*
D03*
X35902Y40678D02*
D03*
X59188Y1362D02*
D03*
X62793Y1262D02*
D03*
X34585Y45754D02*
D03*
X22626Y44708D02*
D03*
X18900Y17205D02*
D03*
X31542Y39795D02*
D03*
X26149Y39331D02*
D03*
X15362Y58882D02*
D03*
X13953Y58904D02*
D03*
X69932Y8477D02*
D03*
X57300Y6871D02*
D03*
X32141Y1062D02*
D03*
X18022Y-2238D02*
D03*
X18046Y-4314D02*
D03*
X14326Y-2263D02*
D03*
X14326Y-4339D02*
D03*
X18120Y-6459D02*
D03*
X11303Y3912D02*
D03*
X16895Y10541D02*
D03*
X26822Y-14271D02*
D03*
X36000Y-14652D02*
D03*
X36150Y-11517D02*
D03*
X39878Y-14834D02*
D03*
X39878Y-16612D02*
D03*
X26822Y-22860D02*
D03*
X26822Y-20441D02*
D03*
X24215Y-22860D02*
D03*
X11750Y13841D02*
D03*
X11750Y17112D02*
D03*
X18070Y10542D02*
D03*
X14875Y13767D02*
D03*
X16627Y13767D02*
D03*
X18200Y13767D02*
D03*
X15054Y665D02*
D03*
X13106Y665D02*
D03*
X11250Y665D02*
D03*
X13106Y3912D02*
D03*
X13106Y5918D02*
D03*
X13106Y8215D02*
D03*
X36150Y-9800D02*
D03*
X39726Y-9808D02*
D03*
X33706Y-20468D02*
D03*
X33782Y-22860D02*
D03*
X36150Y-18341D02*
D03*
X33755Y-18341D02*
D03*
X34163Y-14656D02*
D03*
X30525Y-16713D02*
D03*
X57361Y45050D02*
D03*
X16652Y8215D02*
D03*
X16652Y3912D02*
D03*
X8331Y13841D02*
D03*
X80321Y56154D02*
D03*
X80321Y58738D02*
D03*
X80321Y60990D02*
D03*
X95000Y56175D02*
D03*
X95000Y58748D02*
D03*
X95000Y61000D02*
D03*
X92800Y61000D02*
D03*
X11094Y50034D02*
D03*
X25986Y32209D02*
D03*
X42529Y37558D02*
D03*
X50277Y37558D02*
D03*
X51733Y37750D02*
D03*
X47027Y43825D02*
D03*
X30525Y-20468D02*
D03*
X30525Y-22860D02*
D03*
X24215Y-20441D02*
D03*
X24150Y-17739D02*
D03*
X24215Y-14271D02*
D03*
X41350Y-22860D02*
D03*
X41350Y-20441D02*
D03*
X38785Y-22860D02*
D03*
X38785Y-20441D02*
D03*
X36150Y-22860D02*
D03*
X36150Y-20441D02*
D03*
X21251Y-11261D02*
D03*
X21251Y-14271D02*
D03*
X21500Y13300D02*
D03*
X23140Y13303D02*
D03*
X92800Y58748D02*
D03*
X92800Y56175D02*
D03*
X90400Y56175D02*
D03*
X78191Y60990D02*
D03*
X75971Y60990D02*
D03*
X32157Y-1919D02*
D03*
X32166Y4680D02*
D03*
X32166Y8137D02*
D03*
X32141Y11105D02*
D03*
X21251Y-17739D02*
D03*
X18070Y-17739D02*
D03*
X18094Y-14271D02*
D03*
X18070Y-8850D02*
D03*
X14203Y-28933D02*
D03*
X14203Y-32013D02*
D03*
X29313Y-1925D02*
D03*
X26597Y-2018D02*
D03*
X24033Y-2090D02*
D03*
X17977Y-32075D02*
D03*
X17977Y-28964D02*
D03*
X17977Y-20475D02*
D03*
X17977Y-23006D02*
D03*
X17977Y-25675D02*
D03*
X21251Y-20475D02*
D03*
X21251Y-23006D02*
D03*
X21251Y-25675D02*
D03*
X21251Y-28964D02*
D03*
X21251Y-32013D02*
D03*
X14275Y-25726D02*
D03*
X14350Y-23006D02*
D03*
X14350Y-20475D02*
D03*
X14350Y-17739D02*
D03*
X14350Y-14343D02*
D03*
X14350Y-11236D02*
D03*
X14350Y-8825D02*
D03*
X14350Y-6434D02*
D03*
X29329Y1032D02*
D03*
X29313Y4645D02*
D03*
X29310Y8132D02*
D03*
X29310Y11129D02*
D03*
X26597Y932D02*
D03*
X26597Y4625D02*
D03*
X26597Y8075D02*
D03*
X26625Y11095D02*
D03*
X24115Y950D02*
D03*
X23998Y4514D02*
D03*
X23961Y8000D02*
D03*
X23961Y11024D02*
D03*
X16124Y32800D02*
D03*
X12269Y32788D02*
D03*
X8774Y32788D02*
D03*
X4877Y32788D02*
D03*
X4877Y29090D02*
D03*
X4877Y25092D02*
D03*
X4877Y21094D02*
D03*
X4877Y13842D02*
D03*
X1700Y13842D02*
D03*
X1700Y17081D02*
D03*
X1700Y21054D02*
D03*
X1700Y25040D02*
D03*
X1700Y29032D02*
D03*
X1700Y32455D02*
D03*
X1700Y35571D02*
D03*
X4861Y35571D02*
D03*
X8857Y35635D02*
D03*
X12386Y35635D02*
D03*
X16211Y35635D02*
D03*
X19018Y35571D02*
D03*
X24950Y35635D02*
D03*
X27437Y35635D02*
D03*
X41314Y23715D02*
D03*
X42608Y19960D02*
D03*
X30000Y14200D02*
D03*
X56700Y20936D02*
D03*
X45299Y34275D02*
D03*
X45162Y16000D02*
D03*
X37714Y23665D02*
D03*
X48259Y34954D02*
D03*
X90400Y61000D02*
D03*
X78191Y58748D02*
D03*
X90400Y58748D02*
D03*
X75971Y56165D02*
D03*
X75971Y58738D02*
D03*
X78191Y56154D02*
D03*
X18234Y46813D02*
D03*
X18444Y43884D02*
D03*
X19750Y48387D02*
D03*
X7244Y43380D02*
D03*
X1199Y38863D02*
D03*
X26387Y59492D02*
D03*
X46358Y12492D02*
D03*
X51808Y19034D02*
D03*
X18070Y-11261D02*
D03*
X8255Y17205D02*
D03*
X4877Y17170D02*
D03*
X26822Y-11261D02*
D03*
X24250Y-11261D02*
D03*
X63501Y8879D02*
D03*
X23275Y31292D02*
D03*
X40650Y9920D02*
D03*
X45158Y20295D02*
D03*
X53275Y17209D02*
D03*
X54179Y7745D02*
D03*
X53717Y6271D02*
D03*
X61252Y3474D02*
D03*
X46767Y9172D02*
D03*
X46132Y2543D02*
D03*
X27424Y20412D02*
D03*
X27952Y18005D02*
D03*
X45344Y-9250D02*
D03*
X47094Y-9250D02*
D03*
X48900Y-9250D02*
D03*
X25225Y18079D02*
D03*
X30099Y20218D02*
D03*
X28876Y22016D02*
D03*
X7600Y20611D02*
D03*
X29875Y30415D02*
D03*
X44391Y35667D02*
D03*
X54269Y29550D02*
D03*
X53224Y29577D02*
D03*
X43530Y25148D02*
D03*
X54600Y25546D02*
D03*
M02*
